<svg width="515" height="450" viewBox="0 0 515 450" fill="none" xmlns="http://www.w3.org/2000/svg">
<path d="M98.3502 441.897C98.3502 446.016 81.4175 449.448 60.4803 449.448C39.5431 449.448 22.6104 446.13 22.6104 441.897C22.6104 437.778 39.5431 434.346 60.4803 434.346C81.4175 434.346 98.3502 437.664 98.3502 441.897Z" fill="#EBEBEB"/>
<path d="M17 413.752L77.18 413.523L137.474 413.409L257.835 413.18L378.309 413.409L438.603 413.523L498.784 413.752L438.603 414.095L378.309 414.209L257.835 414.324L137.474 414.209L77.18 414.095L17 413.752Z" fill="#263238"/>
<path d="M20.3418 289.57C11.761 272.637 18.5113 251.929 35.5585 243.348C52.4912 234.767 73.1996 241.518 81.7804 258.565C90.3612 275.498 83.6109 296.206 66.5638 304.787C49.5166 313.368 28.9226 306.617 20.3418 289.57Z" fill="#455A64"/>
<path d="M69.0801 274.354C66.4487 285.795 55.8085 294.604 55.8085 294.604C55.8085 294.604 42.308 291.401 34.9857 282.362C28.8075 274.811 29.2652 264.972 35.5578 261.425C44.4818 256.277 50.7744 272.409 50.7744 272.409C50.7744 272.409 49.4015 255.247 59.584 255.934C66.4487 256.277 71.2539 264.858 69.0801 274.354Z" fill="white"/>
<path d="M437.706 387.277C434.617 388.879 431.184 390.023 427.523 390.595C418.027 392.082 408.874 389.565 401.666 384.188C394.687 379.039 389.653 371.145 388.166 361.878C385.306 343.114 398.12 325.495 416.883 322.635C435.646 319.66 453.265 332.589 456.126 351.352C458.528 366.454 450.634 380.756 437.706 387.277Z" fill="#FE9C69"/>
<path d="M432.899 353.526C432.442 359.246 427.293 363.594 421.573 363.022C415.852 362.564 411.504 357.416 412.076 351.695C412.534 345.975 417.683 341.627 423.403 342.199C429.124 342.657 433.357 347.805 432.899 353.526Z" fill="white"/>
<path d="M438.045 382.929L437.702 387.277C434.612 388.879 431.18 390.023 427.519 390.595C418.023 392.082 408.87 389.565 401.662 384.188L402.005 379.954C402.806 370.001 411.616 362.678 421.57 363.479C431.523 364.28 438.846 373.09 438.045 382.929Z" fill="white"/>
<path d="M417.346 107.657H413.227C410.595 107.657 408.65 105.598 408.65 103.081C408.65 100.564 410.71 98.5041 413.227 98.5041H418.947L421.579 83.0587H416.43C413.913 83.0587 411.854 80.8849 411.854 78.4823C411.854 75.9652 414.028 73.9058 416.43 73.9058H423.181L424.897 63.38C425.24 61.0918 427.185 59.6045 429.473 59.6045C432.448 59.6045 434.507 62.2359 434.05 64.9818L432.448 73.9058H446.292L448.122 63.38C448.465 61.0918 450.41 59.6045 452.813 59.6045C455.673 59.6045 457.733 62.2359 457.389 64.9818L455.902 73.9058H460.021C462.538 73.9058 464.597 75.9652 464.597 78.4823C464.597 80.9993 462.423 83.0587 460.021 83.0587H454.3L451.669 98.5041H456.703C459.334 98.5041 461.279 100.564 461.279 103.081C461.279 105.598 459.22 107.657 456.703 107.657H450.067L448.237 118.526C447.893 120.7 445.948 122.302 443.66 122.302C440.685 122.302 438.626 119.67 439.084 116.924L440.8 107.657H426.842L425.011 118.526C424.668 120.471 422.952 122.302 420.32 122.302C417.46 122.302 415.286 119.899 415.744 116.924L417.346 107.657ZM442.287 98.3897L444.919 82.9443H431.075L428.443 98.3897H442.287Z" fill="#FE9C69"/>
<path d="M483.416 288.455C500.444 276.419 504.49 252.859 492.455 235.831C480.419 218.804 456.859 214.757 439.831 226.792C422.804 238.828 418.757 262.389 430.792 279.416C442.828 296.444 466.389 300.49 483.416 288.455Z" fill="#455A64"/>
<path fill-rule="evenodd" clip-rule="evenodd" d="M456.478 272.669C455.448 272.097 454.647 271.182 453.274 271.296C452.817 271.296 452.931 270.953 452.817 270.61C452.817 265.576 452.817 260.541 452.817 255.507C452.817 255.164 452.817 254.821 453.274 254.592C457.164 252.647 458.766 248.872 461.169 245.554C463.686 242.121 464.601 238.346 463.915 234.113C463.8 232.968 464.258 232.511 465.287 232.282C466.546 232.053 467.69 232.396 468.148 233.197C469.177 235.257 470.093 237.43 470.322 239.833C470.55 241.778 469.864 243.609 469.635 245.439C469.406 246.812 469.177 248.185 468.834 249.558C469.177 249.787 469.521 249.672 469.978 249.672C474.211 249.672 478.445 249.672 482.678 249.672C484.508 249.672 485.309 250.13 485.653 251.389C485.996 252.876 485.195 254.363 483.822 255.05C483.479 255.164 482.907 255.05 482.907 255.507C482.907 255.965 483.479 255.965 483.708 256.194C485.195 257.224 484.966 259.397 483.136 260.656C482.678 260.999 481.877 260.77 481.877 261.457C481.877 261.914 482.678 261.914 483.021 262.258C484.28 263.516 483.593 265.804 481.763 266.72C481.534 266.834 481.191 266.834 480.962 267.063C480.733 267.177 480.504 267.406 480.962 267.635C482.792 269.008 482.792 270.838 480.962 272.097C480.733 272.211 480.619 272.326 480.39 272.44C479.703 272.898 478.902 272.898 478.101 272.898C471.466 272.898 464.715 272.898 458.08 272.898C457.622 273.127 457.05 273.127 456.478 272.669Z" fill="white"/>
<path fill-rule="evenodd" clip-rule="evenodd" d="M437.599 263.745C437.599 260.542 437.599 257.338 437.599 254.135C437.599 253.448 437.713 253.219 438.514 253.219C442.404 253.219 446.294 253.219 450.184 253.219C450.985 253.219 451.099 253.448 451.099 254.135C451.099 260.542 451.099 266.949 451.099 273.47C451.099 274.271 450.871 274.5 450.07 274.5C446.294 274.5 442.519 274.5 438.743 274.5C437.828 274.5 437.713 274.156 437.713 273.356C437.599 270.152 437.599 266.949 437.599 263.745Z" fill="white"/>
<path d="M393.321 44.0449H82.4668V431.897H393.321V44.0449Z" fill="#455A64"/>
<path d="M375.585 87.1777H100.084V362.679H375.585V87.1777Z" fill="white"/>
<path d="M113.477 73.2194C112.676 73.677 111.875 74.1347 110.846 74.3635C108.443 74.9355 105.926 74.4779 103.981 73.2194C102.036 72.0753 100.549 70.1303 99.9766 67.7277C98.8325 62.9224 101.807 58.0027 106.612 56.8586C111.418 55.7145 116.337 58.6892 117.481 63.4945C118.397 67.27 116.681 71.16 113.477 73.2194Z" fill="#FE9C69"/>
<path d="M111.417 64.5242C111.417 66.0115 110.159 67.27 108.672 67.27C107.184 67.27 105.926 66.0115 105.926 64.5242C105.926 63.0368 107.184 61.7783 108.672 61.7783C110.159 61.7783 111.417 62.9224 111.417 64.5242Z" fill="#37474F"/>
<path d="M113.473 72.0756V73.2197C112.672 73.6774 111.872 74.135 110.842 74.3638C108.439 74.9359 105.922 74.4782 103.977 73.2197V72.0756C103.977 69.4442 106.151 67.3848 108.668 67.3848C111.185 67.3848 113.473 69.4442 113.473 72.0756Z" fill="#37474F"/>
<path d="M370.102 64.5244C370.559 64.5244 370.903 64.8676 370.903 65.3253C370.903 65.7829 370.559 66.1262 370.102 66.1262C369.644 66.1262 369.301 65.7829 369.301 65.3253C369.186 64.8676 369.644 64.5244 370.102 64.5244Z" fill="#FE9C69"/>
<path d="M372.618 64.5244C373.076 64.5244 373.419 64.8676 373.419 65.3253C373.419 65.7829 373.076 66.1262 372.618 66.1262C372.161 66.1262 371.818 65.7829 371.818 65.3253C371.818 64.8676 372.161 64.5244 372.618 64.5244Z" fill="#FE9C69"/>
<path d="M375.25 64.5244C375.708 64.5244 376.051 64.8676 376.051 65.3253C376.051 65.7829 375.708 66.1262 375.25 66.1262C374.792 66.1262 374.449 65.7829 374.449 65.3253C374.449 64.8676 374.792 64.5244 375.25 64.5244Z" fill="#FE9C69"/>
<path d="M215.187 63.2656H128.235V67.7276H215.187V63.2656Z" fill="white"/>
<path d="M375.7 362.679H155.116V429.037L375.7 362.679Z" fill="#37474F"/>
<path d="M118.278 383.273C117.134 385.446 115.189 387.391 113.473 388.879C111.756 390.366 110.383 391.281 110.269 391.396H109.468C109.239 391.281 103.748 387.506 101.459 383.273C99.8576 380.298 99.6288 376.866 100.887 374.692C101.688 373.319 103.061 372.518 104.663 372.518C107.294 372.518 109.01 374.349 109.926 376.179C110.841 374.349 112.443 372.518 115.074 372.518C116.676 372.518 118.049 373.319 118.85 374.692C120.108 376.98 119.88 380.298 118.278 383.273Z" fill="#FE9C69"/>
<path d="M174.569 392.539L173.196 392.311L170.45 382.128L164.158 375.263L164.73 374.005H187.04L187.612 375.263L174.569 392.539ZM166.446 375.492L171.709 381.213L171.937 381.556L174.34 390.48L185.552 375.492H166.446Z" fill="#C7C7C7"/>
<path d="M187.414 373.661L170.159 381.32L170.763 382.679L188.017 375.021L187.414 373.661Z" fill="#C7C7C7"/>
<path d="M140.93 391.625C135.667 391.625 131.434 387.391 131.434 382.128C131.434 376.866 135.667 372.632 140.93 372.632C146.193 372.632 150.426 376.866 150.426 382.128C150.426 383.044 150.312 383.959 150.083 384.874L151.57 390.709L150.655 391.625L145.621 390.48C144.134 391.167 142.532 391.625 140.93 391.625ZM140.93 374.12C136.583 374.12 132.921 377.666 132.921 382.128C132.921 386.476 136.468 390.137 140.93 390.137C142.418 390.137 143.79 389.794 145.049 388.993L145.621 388.879L149.74 389.794L148.596 384.989V384.531C148.825 383.73 148.939 382.929 148.939 382.128C148.939 377.666 145.278 374.12 140.93 374.12Z" fill="white"/>
<path d="M362.662 391.51L361.403 390.938V374.806L362.204 374.005H375.361L376.162 374.806V390.938L374.903 391.51L368.84 385.904L362.662 391.51ZM363.005 375.493V389.451L368.382 384.417H369.297L374.675 389.451V375.493H363.005Z" fill="#FE9C69"/>
<path d="M270.204 224.47C270.204 224.928 269.747 225.385 269.289 225.385C268.145 225.271 266.772 225.271 265.17 225.157C262.768 215.203 259.793 207.194 260.48 210.283C261.395 214.745 261.738 221.038 261.166 224.928C259.335 224.813 255.217 224.47 253.043 224.241C252.128 207.194 249.611 194.266 249.382 198.041C248.352 213.601 246.865 218.406 245.034 223.555C225.584 221.953 200.071 219.436 181.651 217.377C180.735 207.881 180.163 197.698 179.82 198.27C176.617 203.19 174.9 210.626 174.099 216.461C168.265 215.775 163.574 215.088 160.713 214.516C160.713 214.516 160.37 206.622 160.485 203.991C160.828 197.469 162.43 190.833 165.061 184.884C167.807 178.706 171.926 173.443 175.93 167.951L176.044 167.837C178.79 164.061 180.85 160.4 182.566 156.396C182.566 156.396 182.566 156.396 182.566 156.281C183.71 153.421 184.625 150.561 185.312 147.243C187.714 135.916 195.38 126.992 206.478 125.39C229.245 109.03 248.352 119.67 252.585 135.115C253.043 136.603 253.386 138.319 253.615 140.149V140.264C254.873 147.128 255.56 155.938 256.361 162.688C256.361 162.688 256.361 162.688 256.361 162.803C256.818 166.006 257.276 168.867 257.734 170.697C261.624 183.282 272.378 191.52 270.204 224.47Z" fill="#263238"/>
<path d="M201.558 127.907C194.007 130.653 189.087 135.459 186.914 143.582C185.655 148.387 184.74 153.078 182.223 157.311C179.706 161.773 176.159 165.205 172.498 168.752C166.777 174.244 162.43 179.964 160.599 187.973C158.769 196.211 157.853 205.935 159.569 214.059H159.684C158.425 205.935 159.798 195.066 162.315 187.058C165.061 178.248 170.896 173.214 176.96 167.036C181.879 162.116 185.312 156.51 187.028 149.645C188.058 145.641 188.63 141.293 190.804 137.632C193.435 133.285 197.668 130.882 201.901 128.708C202.588 128.479 202.13 127.679 201.558 127.907Z" fill="#263238"/>
<path d="M268.146 184.998C264.027 177.905 259.565 171.727 257.735 163.375C256.018 155.709 255.561 147.815 253.845 140.149C253.845 140.035 253.616 140.035 253.616 140.149C256.018 153.65 255.103 166.807 262.082 178.82C265.858 185.342 269.633 191.405 271.693 198.842C273.867 206.736 274.21 214.631 273.295 222.868C273.295 223.211 273.638 223.211 273.638 222.868C276.841 209.825 274.667 196.096 268.146 184.998Z" fill="#263238"/>
<path d="M240.454 230.077C276.951 268.404 322.372 348.377 313.448 364.28C303.494 382.014 250.751 327.555 252.353 324.923C253.726 322.749 235.534 274.468 222.377 239.23C209.22 203.991 231.416 220.581 240.454 230.077Z" fill="#F7A9A0"/>
<path d="M285.305 275.955L232.79 285.451C232.79 285.451 219.747 248.268 217.116 227.674C215.628 216.119 222.493 215.661 230.96 221.725C260.935 243.234 285.305 275.955 285.305 275.955Z" fill="#FE9C69"/>
<path d="M228.787 234.081C228.558 234.424 228.215 234.882 227.871 235.11C227.528 235.339 227.299 235.568 227.299 235.568H227.185C227.185 235.568 226.155 234.882 225.697 234.081C225.354 233.509 225.354 232.937 225.583 232.479C225.698 232.25 225.926 232.136 226.27 232.136C226.727 232.136 227.07 232.479 227.185 232.822C227.299 232.479 227.642 232.136 228.1 232.136C228.443 232.136 228.672 232.25 228.787 232.479C229.13 232.937 229.015 233.623 228.787 234.081ZM245.033 232.822C244.919 233.166 245.033 233.738 245.262 234.081C245.719 234.882 246.635 235.568 246.749 235.568H246.863C246.863 235.568 247.092 235.339 247.436 235.11L247.55 234.996C246.635 234.31 245.834 233.509 245.033 232.822ZM219.176 220.008C219.062 219.779 218.833 219.665 218.49 219.665C218.375 219.665 218.146 219.665 218.032 219.779C217.574 220.58 217.231 221.496 217.002 222.754C217.231 222.983 217.346 223.097 217.46 223.097H217.574C217.574 223.097 217.803 222.869 218.146 222.64C218.49 222.411 218.833 222.068 219.062 221.61C219.291 221.038 219.405 220.466 219.176 220.008ZM228.901 257.535C228.787 257.306 228.558 257.192 228.215 257.192C227.757 257.192 227.414 257.535 227.299 257.878C227.185 257.535 226.842 257.192 226.384 257.192C226.041 257.192 225.812 257.306 225.697 257.535C225.469 257.878 225.469 258.565 225.812 259.137C226.27 259.938 227.185 260.624 227.299 260.624H227.414C227.414 260.624 227.642 260.395 227.986 260.166C228.329 259.938 228.672 259.48 228.901 259.137C229.015 258.565 229.13 257.993 228.901 257.535ZM248.351 257.535C248.236 257.306 248.008 257.192 247.664 257.192C247.207 257.192 246.863 257.535 246.749 257.878C246.635 257.535 246.291 257.192 245.834 257.192C245.491 257.192 245.262 257.306 245.147 257.535C244.918 257.878 244.918 258.565 245.262 259.137C245.719 259.938 246.635 260.624 246.749 260.624H246.863C246.863 260.624 247.092 260.395 247.436 260.166C247.779 259.938 248.122 259.48 248.351 259.137C248.58 258.565 248.58 257.993 248.351 257.535ZM267.801 257.535C267.686 257.306 267.457 257.192 267.114 257.192C266.657 257.192 266.313 257.535 266.199 257.878C266.084 257.535 265.741 257.192 265.284 257.192C264.94 257.192 264.712 257.306 264.597 257.535C264.368 257.878 264.368 258.565 264.712 259.137C265.169 259.938 266.084 260.624 266.199 260.624H266.313C266.313 260.624 266.542 260.395 266.885 260.166C267.229 259.938 267.572 259.48 267.801 259.137C268.029 258.565 268.029 257.993 267.801 257.535ZM238.626 245.064C238.511 244.835 238.283 244.721 237.939 244.721C237.482 244.721 237.139 245.064 237.024 245.407C236.91 245.064 236.567 244.721 236.109 244.721C235.766 244.721 235.537 244.835 235.422 245.064C235.194 245.407 235.194 246.094 235.537 246.666C235.994 247.467 236.91 248.153 237.024 248.153H237.139C237.139 248.153 237.367 247.924 237.711 247.696C238.054 247.467 238.397 247.009 238.626 246.666C238.74 245.979 238.855 245.407 238.626 245.064ZM258.076 245.064C257.961 244.835 257.733 244.721 257.389 244.721C256.932 244.721 256.588 245.064 256.474 245.407C256.36 245.064 256.016 244.721 255.559 244.721C255.215 244.721 254.987 244.835 254.872 245.064C254.643 245.407 254.643 246.094 254.987 246.666C255.444 247.467 256.36 248.153 256.474 248.153H256.588C256.588 248.153 256.817 247.924 257.16 247.696C257.504 247.467 257.847 247.009 258.076 246.666C258.305 245.979 258.305 245.407 258.076 245.064ZM248.351 282.477C248.236 282.248 248.008 282.133 247.664 282.133C247.207 282.133 246.863 282.477 246.749 282.82C246.635 282.477 246.291 282.133 245.834 282.133C245.605 282.133 245.262 282.248 245.147 282.477C245.033 282.705 245.033 282.934 245.033 283.163L248.351 282.477C248.351 282.591 248.351 282.591 248.351 282.477ZM238.626 270.006C238.511 269.777 238.283 269.663 237.939 269.663C237.482 269.663 237.139 270.006 237.024 270.349C236.91 270.006 236.567 269.663 236.109 269.663C235.766 269.663 235.537 269.777 235.422 270.006C235.194 270.349 235.194 271.035 235.537 271.607C235.994 272.408 236.91 273.095 237.024 273.095H237.139C237.139 273.095 237.367 272.866 237.711 272.637C238.054 272.408 238.397 271.951 238.626 271.607C238.74 271.035 238.855 270.349 238.626 270.006ZM258.076 270.006C257.961 269.777 257.733 269.663 257.389 269.663C256.932 269.663 256.588 270.006 256.474 270.349C256.36 270.006 256.016 269.663 255.559 269.663C255.215 269.663 254.987 269.777 254.872 270.006C254.643 270.349 254.643 271.035 254.987 271.607C255.444 272.408 256.36 273.095 256.474 273.095H256.588C256.588 273.095 256.817 272.866 257.16 272.637C257.504 272.408 257.847 271.951 258.076 271.607C258.305 271.035 258.305 270.349 258.076 270.006ZM277.526 270.006C277.411 269.777 277.182 269.663 276.839 269.663C276.381 269.663 276.038 270.006 275.924 270.349C275.809 270.006 275.466 269.663 275.009 269.663C274.665 269.663 274.436 269.777 274.322 270.006C274.093 270.349 274.093 271.035 274.436 271.607C274.894 272.408 275.809 273.095 275.924 273.095H276.038C276.038 273.095 276.267 272.866 276.61 272.637C276.953 272.408 277.297 271.951 277.526 271.607C277.754 271.035 277.754 270.349 277.526 270.006Z" fill="white"/>
<path d="M233.128 276.871C241.023 274.697 262.761 269.663 277.405 268.175C277.52 268.175 277.52 268.519 277.52 268.519C265.621 271.608 241.366 275.955 233.357 277.443C233.128 277.328 233.014 276.871 233.128 276.871Z" fill="#263238"/>
<path opacity="0.1" d="M278.212 277.214L232.791 285.337C232.791 285.337 219.748 248.153 217.116 227.559C216.201 220.123 218.604 217.262 222.722 217.835L278.212 277.214Z" fill="black"/>
<path d="M261.856 362.793H128.797C128.797 362.793 140.924 270.006 183.714 221.267C195.269 208.11 216.206 212 226.16 220.924C228.677 223.098 232.11 227.102 235.771 231.907C244.809 243.463 259.454 271.264 260.827 278.816C263.115 291.286 252.131 304.672 252.131 304.672L261.856 362.793Z" fill="#FE9C69"/>
<path d="M189.892 234.081C189.663 234.424 189.32 234.882 188.977 235.11C188.633 235.339 188.405 235.568 188.405 235.568H188.29C188.29 235.568 187.26 234.882 186.803 234.081C186.46 233.509 186.46 232.937 186.688 232.479C186.803 232.25 187.032 232.136 187.375 232.136C187.832 232.136 188.176 232.479 188.29 232.822C188.405 232.479 188.748 232.136 189.205 232.136C189.549 232.136 189.777 232.25 189.892 232.479C190.121 232.937 190.121 233.623 189.892 234.081ZM209.456 232.593C209.342 232.365 209.113 232.25 208.77 232.25C208.312 232.25 207.969 232.593 207.854 232.937C207.74 232.593 207.397 232.25 206.939 232.25C206.596 232.25 206.367 232.365 206.253 232.593C206.024 232.937 206.024 233.623 206.367 234.195C206.825 234.996 207.74 235.683 207.854 235.683H207.969C207.969 235.683 208.198 235.454 208.541 235.225C208.884 234.996 209.227 234.538 209.456 234.195C209.57 233.623 209.685 232.937 209.456 232.593ZM228.906 232.593C228.791 232.365 228.563 232.25 228.219 232.25C227.762 232.25 227.419 232.593 227.304 232.937C227.19 232.593 226.847 232.25 226.389 232.25C226.046 232.25 225.817 232.365 225.702 232.593C225.474 232.937 225.474 233.623 225.817 234.195C226.274 234.996 227.19 235.683 227.304 235.683H227.419C227.419 235.683 227.647 235.454 227.991 235.225C228.334 234.996 228.677 234.538 228.906 234.195C229.02 233.623 229.135 232.937 228.906 232.593ZM199.731 220.008C199.617 219.779 199.388 219.665 199.045 219.665C198.587 219.665 198.244 220.008 198.129 220.351C198.015 220.008 197.672 219.665 197.214 219.665C196.871 219.665 196.642 219.779 196.528 220.008C196.299 220.351 196.299 221.038 196.642 221.61C197.1 222.411 198.015 223.097 198.129 223.097H198.244C198.244 223.097 198.473 222.869 198.816 222.64C199.159 222.411 199.502 221.953 199.731 221.61C199.846 221.038 199.96 220.466 199.731 220.008ZM219.181 220.008C219.067 219.779 218.838 219.665 218.495 219.665C218.037 219.665 217.694 220.008 217.579 220.351C217.465 220.008 217.122 219.665 216.664 219.665C216.321 219.665 216.092 219.779 215.977 220.008C215.749 220.351 215.749 221.038 216.092 221.61C216.55 222.411 217.465 223.097 217.579 223.097H217.694C217.694 223.097 217.922 222.869 218.266 222.64C218.609 222.411 218.952 221.953 219.181 221.61C219.295 221.038 219.41 220.466 219.181 220.008ZM170.442 257.535C170.328 257.306 170.099 257.192 169.756 257.192C169.298 257.192 168.955 257.535 168.84 257.878C168.726 257.535 168.383 257.192 167.925 257.192C167.582 257.192 167.353 257.306 167.239 257.535C167.01 257.878 167.01 258.565 167.353 259.137C167.811 259.938 168.726 260.624 168.84 260.624H168.955C168.955 260.624 169.184 260.395 169.527 260.166C169.87 259.938 170.213 259.48 170.442 259.137C170.671 258.565 170.671 257.993 170.442 257.535ZM189.892 257.535C189.777 257.306 189.549 257.192 189.205 257.192C188.748 257.192 188.405 257.535 188.29 257.878C188.176 257.535 187.832 257.192 187.375 257.192C187.032 257.192 186.803 257.306 186.688 257.535C186.46 257.878 186.46 258.565 186.803 259.137C187.26 259.938 188.176 260.624 188.29 260.624H188.405C188.405 260.624 188.633 260.395 188.977 260.166C189.32 259.938 189.663 259.48 189.892 259.137C190.121 258.565 190.121 257.993 189.892 257.535ZM209.456 257.535C209.342 257.306 209.113 257.192 208.77 257.192C208.312 257.192 207.969 257.535 207.854 257.878C207.74 257.535 207.397 257.192 206.939 257.192C206.596 257.192 206.367 257.306 206.253 257.535C206.024 257.878 206.024 258.565 206.367 259.137C206.825 259.938 207.74 260.624 207.854 260.624H207.969C207.969 260.624 208.198 260.395 208.541 260.166C208.884 259.938 209.227 259.48 209.456 259.137C209.57 258.565 209.685 257.993 209.456 257.535ZM228.906 257.535C228.791 257.306 228.563 257.192 228.219 257.192C227.762 257.192 227.419 257.535 227.304 257.878C227.19 257.535 226.847 257.192 226.389 257.192C226.046 257.192 225.817 257.306 225.702 257.535C225.474 257.878 225.474 258.565 225.817 259.137C226.274 259.938 227.19 260.624 227.304 260.624H227.419C227.419 260.624 227.647 260.395 227.991 260.166C228.334 259.938 228.677 259.48 228.906 259.137C229.02 258.565 229.135 257.993 228.906 257.535ZM248.356 257.535C248.241 257.306 248.013 257.192 247.669 257.192C247.212 257.192 246.868 257.535 246.754 257.878C246.64 257.535 246.296 257.192 245.839 257.192C245.495 257.192 245.267 257.306 245.152 257.535C244.923 257.878 244.923 258.565 245.267 259.137C245.724 259.938 246.64 260.624 246.754 260.624H246.868C246.868 260.624 247.097 260.395 247.44 260.166C247.784 259.938 248.127 259.48 248.356 259.137C248.585 258.565 248.585 257.993 248.356 257.535ZM180.167 245.064C180.053 244.835 179.824 244.721 179.48 244.721C179.023 244.721 178.68 245.064 178.565 245.407C178.451 245.064 178.108 244.721 177.65 244.721C177.307 244.721 177.078 244.835 176.963 245.064C176.735 245.407 176.735 246.094 177.078 246.666C177.535 247.467 178.451 248.153 178.565 248.153H178.68C178.68 248.153 178.908 247.924 179.252 247.696C179.595 247.467 179.938 247.009 180.167 246.666C180.396 245.979 180.396 245.407 180.167 245.064ZM199.731 245.064C199.617 244.835 199.388 244.721 199.045 244.721C198.587 244.721 198.244 245.064 198.129 245.407C198.015 245.064 197.672 244.721 197.214 244.721C196.871 244.721 196.642 244.835 196.528 245.064C196.299 245.407 196.299 246.094 196.642 246.666C197.1 247.467 198.015 248.153 198.129 248.153H198.244C198.244 248.153 198.473 247.924 198.816 247.696C199.159 247.467 199.502 247.009 199.731 246.666C199.846 245.979 199.96 245.407 199.731 245.064ZM219.181 245.064C219.067 244.835 218.838 244.721 218.495 244.721C218.037 244.721 217.694 245.064 217.579 245.407C217.465 245.064 217.122 244.721 216.664 244.721C216.321 244.721 216.092 244.835 215.977 245.064C215.749 245.407 215.749 246.094 216.092 246.666C216.55 247.467 217.465 248.153 217.579 248.153H217.694C217.694 248.153 217.922 247.924 218.266 247.696C218.609 247.467 218.952 247.009 219.181 246.666C219.295 245.979 219.41 245.407 219.181 245.064ZM238.631 245.064C238.516 244.835 238.288 244.721 237.944 244.721C237.487 244.721 237.143 245.064 237.029 245.407C236.915 245.064 236.571 244.721 236.114 244.721C235.771 244.721 235.542 244.835 235.427 245.064C235.198 245.407 235.199 246.094 235.542 246.666C235.999 247.467 236.915 248.153 237.029 248.153H237.143C237.143 248.153 237.372 247.924 237.716 247.696C238.059 247.467 238.402 247.009 238.631 246.666C238.745 245.979 238.86 245.407 238.631 245.064ZM150.992 282.477C150.878 282.248 150.649 282.133 150.306 282.133C149.848 282.133 149.505 282.477 149.39 282.82C149.39 282.82 149.39 282.705 149.276 282.705C149.047 283.392 148.704 284.193 148.475 284.879C148.818 285.222 149.276 285.566 149.276 285.566H149.39C149.39 285.566 149.619 285.337 149.963 285.108C150.306 284.879 150.649 284.421 150.878 284.078C151.221 283.506 151.221 282.934 150.992 282.477ZM170.442 282.477C170.328 282.248 170.099 282.133 169.756 282.133C169.298 282.133 168.955 282.477 168.84 282.82C168.726 282.477 168.383 282.133 167.925 282.133C167.582 282.133 167.353 282.248 167.239 282.477C167.01 282.82 167.01 283.506 167.353 284.078C167.811 284.879 168.726 285.566 168.84 285.566H168.955C168.955 285.566 169.184 285.337 169.527 285.108C169.87 284.879 170.213 284.421 170.442 284.078C170.671 283.506 170.671 282.934 170.442 282.477ZM189.892 282.477C189.777 282.248 189.549 282.133 189.205 282.133C188.748 282.133 188.405 282.477 188.29 282.82C188.176 282.477 187.832 282.133 187.375 282.133C187.032 282.133 186.803 282.248 186.688 282.477C186.46 282.82 186.46 283.506 186.803 284.078C187.26 284.879 188.176 285.566 188.29 285.566H188.405C188.405 285.566 188.633 285.337 188.977 285.108C189.32 284.879 189.663 284.421 189.892 284.078C190.121 283.506 190.121 282.934 189.892 282.477ZM209.456 282.477C209.342 282.248 209.113 282.133 208.77 282.133C208.312 282.133 207.969 282.477 207.854 282.82C207.74 282.477 207.397 282.133 206.939 282.133C206.596 282.133 206.367 282.248 206.253 282.477C206.024 282.82 206.024 283.506 206.367 284.078C206.825 284.879 207.74 285.566 207.854 285.566H207.969C207.969 285.566 208.198 285.337 208.541 285.108C208.884 284.879 209.227 284.421 209.456 284.078C209.57 283.506 209.685 282.934 209.456 282.477ZM228.906 282.477C228.791 282.248 228.563 282.133 228.219 282.133C227.762 282.133 227.419 282.477 227.304 282.82C227.19 282.477 226.847 282.133 226.389 282.133C226.046 282.133 225.817 282.248 225.702 282.477C225.474 282.82 225.474 283.506 225.817 284.078C226.274 284.879 227.19 285.566 227.304 285.566H227.419C227.419 285.566 227.647 285.337 227.991 285.108C228.334 284.879 228.677 284.421 228.906 284.078C229.02 283.506 229.135 282.934 228.906 282.477ZM248.356 282.477C248.241 282.248 248.013 282.133 247.669 282.133C247.212 282.133 246.868 282.477 246.754 282.82C246.64 282.477 246.296 282.133 245.839 282.133C245.495 282.133 245.267 282.248 245.152 282.477C244.923 282.82 244.923 283.506 245.267 284.078C245.724 284.879 246.64 285.566 246.754 285.566H246.868C246.868 285.566 247.097 285.337 247.44 285.108C247.784 284.879 248.127 284.421 248.356 284.078C248.585 283.506 248.585 282.934 248.356 282.477ZM160.717 270.006C160.603 269.777 160.374 269.663 160.031 269.663C159.573 269.663 159.23 270.006 159.115 270.349C159.001 270.006 158.658 269.663 158.2 269.663C157.857 269.663 157.628 269.777 157.514 270.006C157.285 270.349 157.285 271.035 157.628 271.607C158.086 272.408 159.001 273.095 159.115 273.095H159.23C159.23 273.095 159.459 272.866 159.802 272.637C160.145 272.408 160.488 271.951 160.717 271.607C160.946 271.035 160.946 270.349 160.717 270.006ZM180.167 270.006C180.053 269.777 179.824 269.663 179.48 269.663C179.023 269.663 178.68 270.006 178.565 270.349C178.451 270.006 178.108 269.663 177.65 269.663C177.307 269.663 177.078 269.777 176.963 270.006C176.735 270.349 176.735 271.035 177.078 271.607C177.535 272.408 178.451 273.095 178.565 273.095H178.68C178.68 273.095 178.908 272.866 179.252 272.637C179.595 272.408 179.938 271.951 180.167 271.607C180.396 271.035 180.396 270.349 180.167 270.006ZM199.731 270.006C199.617 269.777 199.388 269.663 199.045 269.663C198.587 269.663 198.244 270.006 198.129 270.349C198.015 270.006 197.672 269.663 197.214 269.663C196.871 269.663 196.642 269.777 196.528 270.006C196.299 270.349 196.299 271.035 196.642 271.607C197.1 272.408 198.015 273.095 198.129 273.095H198.244C198.244 273.095 198.473 272.866 198.816 272.637C199.159 272.408 199.502 271.951 199.731 271.607C199.846 271.035 199.96 270.349 199.731 270.006ZM219.181 270.006C219.067 269.777 218.838 269.663 218.495 269.663C218.037 269.663 217.694 270.006 217.579 270.349C217.465 270.006 217.122 269.663 216.664 269.663C216.321 269.663 216.092 269.777 215.977 270.006C215.749 270.349 215.749 271.035 216.092 271.607C216.55 272.408 217.465 273.095 217.579 273.095H217.694C217.694 273.095 217.922 272.866 218.266 272.637C218.609 272.408 218.952 271.951 219.181 271.607C219.295 271.035 219.41 270.349 219.181 270.006ZM238.631 270.006C238.516 269.777 238.288 269.663 237.944 269.663C237.487 269.663 237.143 270.006 237.029 270.349C236.915 270.006 236.571 269.663 236.114 269.663C235.771 269.663 235.542 269.777 235.427 270.006C235.198 270.349 235.199 271.035 235.542 271.607C235.999 272.408 236.915 273.095 237.029 273.095H237.143C237.143 273.095 237.372 272.866 237.716 272.637C238.059 272.408 238.402 271.951 238.631 271.607C238.745 271.035 238.86 270.349 238.631 270.006ZM257.623 269.663C257.509 269.663 257.509 269.663 257.394 269.663C256.937 269.663 256.593 270.006 256.479 270.349C256.364 270.006 256.021 269.663 255.564 269.663C255.335 269.663 254.992 269.777 254.877 270.006C254.648 270.463 254.648 271.035 254.992 271.607C255.449 272.408 256.364 273.095 256.479 273.095H256.593C256.593 273.095 256.822 272.866 257.165 272.637C257.509 272.408 257.852 272.065 258.081 271.607C258.195 271.379 258.309 271.15 258.309 271.035L257.623 269.663ZM150.992 307.418C150.878 307.189 150.649 307.075 150.306 307.075C149.848 307.075 149.505 307.418 149.39 307.761C149.276 307.418 148.933 307.075 148.475 307.075C148.132 307.075 147.903 307.189 147.789 307.418C147.56 307.761 147.56 308.448 147.903 309.02C148.361 309.821 149.276 310.507 149.39 310.507H149.505C149.505 310.507 149.734 310.278 150.077 310.05C150.42 309.821 150.763 309.363 150.992 309.02C151.221 308.448 151.221 307.876 150.992 307.418ZM170.442 307.418C170.328 307.189 170.099 307.075 169.756 307.075C169.298 307.075 168.955 307.418 168.84 307.761C168.726 307.418 168.383 307.075 167.925 307.075C167.582 307.075 167.353 307.189 167.239 307.418C167.01 307.761 167.01 308.448 167.353 309.02C167.811 309.821 168.726 310.507 168.84 310.507H168.955C168.955 310.507 169.184 310.278 169.527 310.05C169.87 309.821 170.213 309.363 170.442 309.02C170.671 308.448 170.671 307.876 170.442 307.418ZM189.892 307.418C189.777 307.189 189.549 307.075 189.205 307.075C188.748 307.075 188.405 307.418 188.29 307.761C188.176 307.418 187.832 307.075 187.375 307.075C187.032 307.075 186.803 307.189 186.688 307.418C186.46 307.761 186.46 308.448 186.803 309.02C187.26 309.821 188.176 310.507 188.29 310.507H188.405C188.405 310.507 188.633 310.278 188.977 310.05C189.32 309.821 189.663 309.363 189.892 309.02C190.121 308.448 190.121 307.876 189.892 307.418ZM209.456 307.418C209.342 307.189 209.113 307.075 208.77 307.075C208.312 307.075 207.969 307.418 207.854 307.761C207.74 307.418 207.397 307.075 206.939 307.075C206.596 307.075 206.367 307.189 206.253 307.418C206.024 307.761 206.024 308.448 206.367 309.02C206.825 309.821 207.74 310.507 207.854 310.507H207.969C207.969 310.507 208.198 310.278 208.541 310.05C208.884 309.821 209.227 309.363 209.456 309.02C209.57 308.448 209.685 307.876 209.456 307.418ZM228.906 307.418C228.791 307.189 228.563 307.075 228.219 307.075C227.762 307.075 227.419 307.418 227.304 307.761C227.19 307.418 226.847 307.075 226.389 307.075C226.046 307.075 225.817 307.189 225.702 307.418C225.474 307.761 225.474 308.448 225.817 309.02C226.274 309.821 227.19 310.507 227.304 310.507H227.419C227.419 310.507 227.647 310.278 227.991 310.05C228.334 309.821 228.677 309.363 228.906 309.02C229.02 308.448 229.135 307.876 228.906 307.418ZM248.356 307.418C248.241 307.189 248.013 307.075 247.669 307.075C247.212 307.075 246.868 307.418 246.754 307.761C246.64 307.418 246.296 307.075 245.839 307.075C245.495 307.075 245.267 307.189 245.152 307.418C244.923 307.761 244.923 308.448 245.267 309.02C245.724 309.821 246.64 310.507 246.754 310.507H246.868C246.868 310.507 247.097 310.278 247.44 310.05C247.784 309.821 248.127 309.363 248.356 309.02C248.585 308.448 248.585 307.876 248.356 307.418ZM160.717 294.947C160.603 294.718 160.374 294.604 160.031 294.604C159.573 294.604 159.23 294.947 159.115 295.291C159.001 294.947 158.658 294.604 158.2 294.604C157.857 294.604 157.628 294.718 157.514 294.947C157.285 295.291 157.285 295.977 157.628 296.549C158.086 297.35 159.001 298.036 159.115 298.036H159.23C159.23 298.036 159.459 297.808 159.802 297.579C160.145 297.35 160.488 296.892 160.717 296.549C160.946 295.977 160.946 295.291 160.717 294.947ZM180.167 294.947C180.053 294.718 179.824 294.604 179.48 294.604C179.023 294.604 178.68 294.947 178.565 295.291C178.451 294.947 178.108 294.604 177.65 294.604C177.307 294.604 177.078 294.718 176.963 294.947C176.735 295.291 176.735 295.977 177.078 296.549C177.535 297.35 178.451 298.036 178.565 298.036H178.68C178.68 298.036 178.908 297.808 179.252 297.579C179.595 297.35 179.938 296.892 180.167 296.549C180.396 295.977 180.396 295.291 180.167 294.947ZM199.731 294.947C199.617 294.718 199.388 294.604 199.045 294.604C198.587 294.604 198.244 294.947 198.129 295.291C198.015 294.947 197.672 294.604 197.214 294.604C196.871 294.604 196.642 294.718 196.528 294.947C196.299 295.291 196.299 295.977 196.642 296.549C197.1 297.35 198.015 298.036 198.129 298.036H198.244C198.244 298.036 198.473 297.808 198.816 297.579C199.159 297.35 199.502 296.892 199.731 296.549C199.846 295.977 199.96 295.291 199.731 294.947ZM219.181 294.947C219.067 294.718 218.838 294.604 218.495 294.604C218.037 294.604 217.694 294.947 217.579 295.291C217.465 294.947 217.122 294.604 216.664 294.604C216.321 294.604 216.092 294.718 215.977 294.947C215.749 295.291 215.749 295.977 216.092 296.549C216.55 297.35 217.465 298.036 217.579 298.036H217.694C217.694 298.036 217.922 297.808 218.266 297.579C218.609 297.35 218.952 296.892 219.181 296.549C219.295 295.977 219.41 295.291 219.181 294.947ZM238.631 294.947C238.516 294.718 238.288 294.604 237.944 294.604C237.487 294.604 237.143 294.947 237.029 295.291C236.915 294.947 236.571 294.604 236.114 294.604C235.771 294.604 235.542 294.718 235.427 294.947C235.198 295.291 235.199 295.977 235.542 296.549C235.999 297.35 236.915 298.036 237.029 298.036H237.143C237.143 298.036 237.372 297.808 237.716 297.579C238.059 297.35 238.402 296.892 238.631 296.549C238.745 295.977 238.86 295.291 238.631 294.947ZM257.394 294.604C256.937 294.604 256.593 294.947 256.479 295.291C256.364 294.947 256.021 294.604 255.564 294.604C255.335 294.604 254.992 294.718 254.877 294.947C254.648 295.291 254.648 295.977 254.992 296.435C255.449 297.236 256.364 297.922 256.479 297.922H256.593C257.051 297.007 257.623 295.977 258.081 294.833C257.966 294.718 257.623 294.604 257.394 294.604ZM150.992 332.474C150.878 332.245 150.649 332.131 150.306 332.131C149.848 332.131 149.505 332.474 149.39 332.817C149.276 332.474 148.933 332.131 148.475 332.131C148.132 332.131 147.903 332.245 147.789 332.474C147.56 332.817 147.56 333.504 147.903 334.076C148.361 334.877 149.276 335.563 149.39 335.563H149.505C149.505 335.563 149.734 335.334 150.077 335.105C150.42 334.877 150.763 334.419 150.992 334.076C151.221 333.389 151.221 332.817 150.992 332.474ZM170.442 332.474C170.328 332.245 170.099 332.131 169.756 332.131C169.298 332.131 168.955 332.474 168.84 332.817C168.726 332.474 168.383 332.131 167.925 332.131C167.582 332.131 167.353 332.245 167.239 332.474C167.01 332.817 167.01 333.504 167.353 334.076C167.811 334.877 168.726 335.563 168.84 335.563H168.955C168.955 335.563 169.184 335.334 169.527 335.105C169.87 334.877 170.213 334.419 170.442 334.076C170.671 333.389 170.671 332.817 170.442 332.474ZM189.892 332.474C189.777 332.245 189.549 332.131 189.205 332.131C188.748 332.131 188.405 332.474 188.29 332.817C188.176 332.474 187.832 332.131 187.375 332.131C187.032 332.131 186.803 332.245 186.688 332.474C186.46 332.817 186.46 333.504 186.803 334.076C187.26 334.877 188.176 335.563 188.29 335.563H188.405C188.405 335.563 188.633 335.334 188.977 335.105C189.32 334.877 189.663 334.419 189.892 334.076C190.121 333.389 190.121 332.817 189.892 332.474ZM209.456 332.474C209.342 332.245 209.113 332.131 208.77 332.131C208.312 332.131 207.969 332.474 207.854 332.817C207.74 332.474 207.397 332.131 206.939 332.131C206.596 332.131 206.367 332.245 206.253 332.474C206.024 332.817 206.024 333.504 206.367 334.076C206.825 334.877 207.74 335.563 207.854 335.563H207.969C207.969 335.563 208.198 335.334 208.541 335.105C208.884 334.877 209.227 334.419 209.456 334.076C209.57 333.389 209.685 332.817 209.456 332.474ZM228.906 332.474C228.791 332.245 228.563 332.131 228.219 332.131C227.762 332.131 227.419 332.474 227.304 332.817C227.19 332.474 226.847 332.131 226.389 332.131C226.046 332.131 225.817 332.245 225.702 332.474C225.474 332.817 225.474 333.504 225.817 334.076C226.274 334.877 227.19 335.563 227.304 335.563H227.419C227.419 335.563 227.647 335.334 227.991 335.105C228.334 334.877 228.677 334.419 228.906 334.076C229.02 333.389 229.135 332.817 228.906 332.474ZM248.356 332.474C248.241 332.245 248.013 332.131 247.669 332.131C247.212 332.131 246.868 332.474 246.754 332.817C246.64 332.474 246.296 332.131 245.839 332.131C245.495 332.131 245.267 332.245 245.152 332.474C244.923 332.817 244.923 333.504 245.267 334.076C245.724 334.877 246.64 335.563 246.754 335.563H246.868C246.868 335.563 247.097 335.334 247.44 335.105C247.784 334.877 248.127 334.419 248.356 334.076C248.585 333.389 248.585 332.817 248.356 332.474ZM141.267 319.889C141.153 319.66 140.924 319.546 140.581 319.546C140.123 319.546 139.78 319.889 139.666 320.232C139.551 319.889 139.208 319.546 138.75 319.546C138.407 319.546 138.178 319.66 138.064 319.889C137.835 320.232 137.835 320.919 138.178 321.491C138.636 322.291 139.551 322.978 139.666 322.978H139.78C139.78 322.978 140.009 322.749 140.352 322.52C140.695 322.291 141.038 321.834 141.267 321.491C141.496 320.919 141.496 320.346 141.267 319.889ZM160.717 319.889C160.603 319.66 160.374 319.546 160.031 319.546C159.573 319.546 159.23 319.889 159.115 320.232C159.001 319.889 158.658 319.546 158.2 319.546C157.857 319.546 157.628 319.66 157.514 319.889C157.285 320.232 157.285 320.919 157.628 321.491C158.086 322.291 159.001 322.978 159.115 322.978H159.23C159.23 322.978 159.459 322.749 159.802 322.52C160.145 322.291 160.488 321.834 160.717 321.491C160.946 320.919 160.946 320.346 160.717 319.889ZM180.167 319.889C180.053 319.66 179.824 319.546 179.48 319.546C179.023 319.546 178.68 319.889 178.565 320.232C178.451 319.889 178.108 319.546 177.65 319.546C177.307 319.546 177.078 319.66 176.963 319.889C176.735 320.232 176.735 320.919 177.078 321.491C177.535 322.291 178.451 322.978 178.565 322.978H178.68C178.68 322.978 178.908 322.749 179.252 322.52C179.595 322.291 179.938 321.834 180.167 321.491C180.396 320.919 180.396 320.346 180.167 319.889ZM199.731 319.889C199.617 319.66 199.388 319.546 199.045 319.546C198.587 319.546 198.244 319.889 198.129 320.232C198.015 319.889 197.672 319.546 197.214 319.546C196.871 319.546 196.642 319.66 196.528 319.889C196.299 320.232 196.299 320.919 196.642 321.491C197.1 322.291 198.015 322.978 198.129 322.978H198.244C198.244 322.978 198.473 322.749 198.816 322.52C199.159 322.291 199.502 321.834 199.731 321.491C199.846 320.919 199.96 320.346 199.731 319.889ZM219.181 319.889C219.067 319.66 218.838 319.546 218.495 319.546C218.037 319.546 217.694 319.889 217.579 320.232C217.465 319.889 217.122 319.546 216.664 319.546C216.321 319.546 216.092 319.66 215.977 319.889C215.749 320.232 215.749 320.919 216.092 321.491C216.55 322.291 217.465 322.978 217.579 322.978H217.694C217.694 322.978 217.922 322.749 218.266 322.52C218.609 322.291 218.952 321.834 219.181 321.491C219.295 320.919 219.41 320.346 219.181 319.889ZM238.631 319.889C238.516 319.66 238.288 319.546 237.944 319.546C237.487 319.546 237.143 319.889 237.029 320.232C236.915 319.889 236.571 319.546 236.114 319.546C235.771 319.546 235.542 319.66 235.427 319.889C235.198 320.232 235.199 320.919 235.542 321.491C235.999 322.291 236.915 322.978 237.029 322.978H237.143C237.143 322.978 237.372 322.749 237.716 322.52C238.059 322.291 238.402 321.834 238.631 321.491C238.745 320.919 238.86 320.346 238.631 319.889ZM254.763 320.003C254.648 320.346 254.648 320.919 254.877 321.376C254.877 321.491 254.992 321.491 254.992 321.605L254.763 320.003ZM131.542 357.416C131.428 357.187 131.199 357.072 130.856 357.072C130.398 357.072 130.055 357.416 129.941 357.759C129.826 357.644 129.826 357.53 129.712 357.416C129.483 358.445 129.369 359.361 129.254 360.047C129.597 360.276 129.826 360.505 129.826 360.505H129.941C129.941 360.505 130.169 360.276 130.513 360.047C130.856 359.818 131.199 359.361 131.428 359.017C131.771 358.445 131.771 357.759 131.542 357.416ZM150.992 357.416C150.878 357.187 150.649 357.072 150.306 357.072C149.848 357.072 149.505 357.416 149.39 357.759C149.276 357.416 148.933 357.072 148.475 357.072C148.132 357.072 147.903 357.187 147.789 357.416C147.56 357.759 147.56 358.445 147.903 359.017C148.361 359.818 149.276 360.505 149.39 360.505H149.505C149.505 360.505 149.734 360.276 150.077 360.047C150.42 359.818 150.763 359.361 150.992 359.017C151.221 358.445 151.221 357.759 150.992 357.416ZM170.442 357.416C170.328 357.187 170.099 357.072 169.756 357.072C169.298 357.072 168.955 357.416 168.84 357.759C168.726 357.416 168.383 357.072 167.925 357.072C167.582 357.072 167.353 357.187 167.239 357.416C167.01 357.759 167.01 358.445 167.353 359.017C167.811 359.818 168.726 360.505 168.84 360.505H168.955C168.955 360.505 169.184 360.276 169.527 360.047C169.87 359.818 170.213 359.361 170.442 359.017C170.671 358.445 170.671 357.759 170.442 357.416ZM189.892 357.416C189.777 357.187 189.549 357.072 189.205 357.072C188.748 357.072 188.405 357.416 188.29 357.759C188.176 357.416 187.832 357.072 187.375 357.072C187.032 357.072 186.803 357.187 186.688 357.416C186.46 357.759 186.46 358.445 186.803 359.017C187.26 359.818 188.176 360.505 188.29 360.505H188.405C188.405 360.505 188.633 360.276 188.977 360.047C189.32 359.818 189.663 359.361 189.892 359.017C190.121 358.445 190.121 357.759 189.892 357.416ZM209.456 357.416C209.342 357.187 209.113 357.072 208.77 357.072C208.312 357.072 207.969 357.416 207.854 357.759C207.74 357.416 207.397 357.072 206.939 357.072C206.596 357.072 206.367 357.187 206.253 357.416C206.024 357.759 206.024 358.445 206.367 359.017C206.825 359.818 207.74 360.505 207.854 360.505H207.969C207.969 360.505 208.198 360.276 208.541 360.047C208.884 359.818 209.227 359.361 209.456 359.017C209.57 358.445 209.685 357.759 209.456 357.416ZM228.906 357.416C228.791 357.187 228.563 357.072 228.219 357.072C227.762 357.072 227.419 357.416 227.304 357.759C227.19 357.416 226.847 357.072 226.389 357.072C226.046 357.072 225.817 357.187 225.702 357.416C225.474 357.759 225.474 358.445 225.817 359.017C226.274 359.818 227.19 360.505 227.304 360.505H227.419C227.419 360.505 227.647 360.276 227.991 360.047C228.334 359.818 228.677 359.361 228.906 359.017C229.02 358.445 229.135 357.759 228.906 357.416ZM248.356 357.416C248.241 357.187 248.013 357.072 247.669 357.072C247.212 357.072 246.868 357.416 246.754 357.759C246.64 357.416 246.296 357.072 245.839 357.072C245.495 357.072 245.267 357.187 245.152 357.416C244.923 357.759 244.923 358.445 245.267 359.017C245.724 359.818 246.64 360.505 246.754 360.505H246.868C246.868 360.505 247.097 360.276 247.44 360.047C247.784 359.818 248.127 359.361 248.356 359.017C248.585 358.445 248.585 357.759 248.356 357.416ZM141.267 344.83C141.153 344.602 140.924 344.487 140.581 344.487C140.123 344.487 139.78 344.83 139.666 345.174C139.551 344.83 139.208 344.487 138.75 344.487C138.407 344.487 138.178 344.602 138.064 344.83C137.835 345.174 137.835 345.86 138.178 346.432C138.636 347.233 139.551 347.919 139.666 347.919H139.78C139.78 347.919 140.009 347.691 140.352 347.462C140.695 347.233 141.038 346.775 141.267 346.432C141.496 345.86 141.496 345.288 141.267 344.83ZM160.717 344.83C160.603 344.602 160.374 344.487 160.031 344.487C159.573 344.487 159.23 344.83 159.115 345.174C159.001 344.83 158.658 344.487 158.2 344.487C157.857 344.487 157.628 344.602 157.514 344.83C157.285 345.174 157.285 345.86 157.628 346.432C158.086 347.233 159.001 347.919 159.115 347.919H159.23C159.23 347.919 159.459 347.691 159.802 347.462C160.145 347.233 160.488 346.775 160.717 346.432C160.946 345.86 160.946 345.288 160.717 344.83ZM180.167 344.83C180.053 344.602 179.824 344.487 179.48 344.487C179.023 344.487 178.68 344.83 178.565 345.174C178.451 344.83 178.108 344.487 177.65 344.487C177.307 344.487 177.078 344.602 176.963 344.83C176.735 345.174 176.735 345.86 177.078 346.432C177.535 347.233 178.451 347.919 178.565 347.919H178.68C178.68 347.919 178.908 347.691 179.252 347.462C179.595 347.233 179.938 346.775 180.167 346.432C180.396 345.86 180.396 345.288 180.167 344.83ZM199.731 344.83C199.617 344.602 199.388 344.487 199.045 344.487C198.587 344.487 198.244 344.83 198.129 345.174C198.015 344.83 197.672 344.487 197.214 344.487C196.871 344.487 196.642 344.602 196.528 344.83C196.299 345.174 196.299 345.86 196.642 346.432C197.1 347.233 198.015 347.919 198.129 347.919H198.244C198.244 347.919 198.473 347.691 198.816 347.462C199.159 347.233 199.502 346.775 199.731 346.432C199.846 345.86 199.96 345.288 199.731 344.83ZM219.181 344.83C219.067 344.602 218.838 344.487 218.495 344.487C218.037 344.487 217.694 344.83 217.579 345.174C217.465 344.83 217.122 344.487 216.664 344.487C216.321 344.487 216.092 344.602 215.977 344.83C215.749 345.174 215.749 345.86 216.092 346.432C216.55 347.233 217.465 347.919 217.579 347.919H217.694C217.694 347.919 217.922 347.691 218.266 347.462C218.609 347.233 218.952 346.775 219.181 346.432C219.295 345.86 219.41 345.288 219.181 344.83ZM238.631 344.83C238.516 344.602 238.288 344.487 237.944 344.487C237.487 344.487 237.143 344.83 237.029 345.174C236.915 344.83 236.571 344.487 236.114 344.487C235.771 344.487 235.542 344.602 235.427 344.83C235.198 345.174 235.199 345.86 235.542 346.432C235.999 347.233 236.915 347.919 237.029 347.919H237.143C237.143 347.919 237.372 347.691 237.716 347.462C238.059 347.233 238.402 346.775 238.631 346.432C238.745 345.86 238.86 345.288 238.631 344.83ZM258.081 344.83C257.966 344.602 257.737 344.487 257.394 344.487C256.937 344.487 256.593 344.83 256.479 345.174C256.364 344.83 256.021 344.487 255.564 344.487C255.22 344.487 254.992 344.602 254.877 344.83C254.648 345.174 254.648 345.86 254.992 346.432C255.449 347.233 256.364 347.919 256.479 347.919H256.593C256.593 347.919 256.822 347.691 257.165 347.462C257.509 347.233 257.852 346.775 258.081 346.432C258.309 345.86 258.309 345.288 258.081 344.83Z" fill="white"/>
<path d="M262.312 278.015C261.053 272.866 258.193 268.175 255.676 263.599C253.044 258.794 250.298 253.988 247.438 249.297C247.324 249.183 247.209 248.954 247.095 248.84C246.637 247.353 245.951 245.865 245.379 244.378C244.692 242.547 243.891 240.602 243.091 238.772C243.091 238.657 242.976 238.772 242.976 238.772C243.548 240.717 244.12 242.662 244.921 244.607C245.15 245.064 245.264 245.636 245.493 246.094C244.578 244.492 243.548 243.005 242.518 241.403C240.802 238.772 239.086 236.14 237.37 233.509C237.37 233.394 237.256 233.509 237.256 233.623C240.001 238.314 242.633 243.005 245.264 247.581C248.01 252.272 250.642 256.849 253.159 261.654C254.417 264.056 255.676 266.345 256.82 268.747C257.964 271.036 258.994 273.324 259.909 275.726C261.511 280.417 261.511 285.222 260.023 289.913C258.422 295.176 255.447 299.867 252.701 304.558C252.587 304.787 252.93 305.016 253.044 304.787C258.879 297.236 264.714 288.083 262.312 278.015Z" fill="#263238"/>
<path d="M313.455 364.28C304.874 376.064 282.106 378.009 225.13 388.192C217.235 389.565 192.294 336.593 200.646 334.648C211.172 332.245 252.474 325.037 255.563 324.923C281.649 323.664 319.29 356.271 313.455 364.28Z" fill="#F7A9A0"/>
<path d="M212.082 332.359C212.082 332.359 187.942 335.563 175.814 341.169C159.568 348.72 148.585 361.877 144.351 367.712C135.427 379.84 122.384 415.307 131.995 420.799C140.69 425.833 152.131 388.878 152.131 388.878C152.131 388.878 134.169 424.574 145.724 428.693C157.28 432.812 168.263 389.221 168.263 389.221C168.263 389.221 150.644 426.291 163.115 428.693C172.611 430.524 184.738 391.51 184.738 391.51C184.738 391.51 169.751 423.545 179.475 425.719C190.116 428.236 203.616 392.997 203.616 392.997C229.244 394.599 242.058 384.988 250.41 376.98C252.355 375.149 212.082 332.359 212.082 332.359Z" fill="#F7A9A0"/>
<path d="M157.509 376.179C155.22 380.298 152.932 384.416 150.987 388.764C149.042 393.112 147.326 397.459 145.839 401.921C142.178 412.905 141.606 420.227 141.72 419.769C143.779 409.015 150.301 393.569 152.131 389.222C153.962 384.874 155.678 380.526 157.623 376.293C157.737 376.179 157.623 376.064 157.509 376.179Z" fill="#263238"/>
<path d="M173.184 382.7C170.553 388.077 167.692 393.34 165.29 398.832C162.887 404.324 161.057 409.701 158.997 415.307C158.883 415.765 159.112 415.65 159.34 415.307C161.629 409.816 164.146 404.781 166.434 399.29C168.722 393.798 170.896 388.192 173.413 382.815C173.413 382.7 173.184 382.7 173.184 382.7Z" fill="#263238"/>
<path d="M187.597 385.904C183.135 393.913 180.046 402.722 177.415 411.532C177.3 411.989 177.644 411.875 177.758 411.417C180.962 402.837 183.479 396.086 187.941 386.133C187.941 385.904 187.712 385.789 187.597 385.904Z" fill="#263238"/>
<path d="M280.731 331.33C276.956 328.927 266.201 323.321 255.675 324.808C255.561 324.808 255.561 325.037 255.675 325.037C264.37 325.037 276.841 329.499 280.617 331.444C280.731 331.559 280.846 331.33 280.731 331.33Z" fill="#263238"/>
<path d="M201.786 214.974C202.358 217.148 213.342 231.221 223.41 230.42C226.728 230.191 226.156 212.229 226.156 212.229L226.385 210.856L230.046 192.207L207.85 178.821L204.647 177.104C204.647 177.104 203.96 182.253 203.274 188.774C203.274 189.118 203.159 189.346 203.159 189.69C203.159 190.033 203.045 190.376 203.045 190.719C202.93 191.635 202.816 192.664 202.702 193.694C202.587 194.495 202.587 195.181 202.473 195.982C202.358 196.783 202.358 197.584 202.244 198.385C201.443 205.936 201.557 214.059 201.786 214.974Z" fill="#F7A9A0"/>
<path d="M203.161 188.66C208.881 203.304 220.894 209.025 226.386 210.856L230.047 192.207L207.851 178.821L204.648 177.104C204.534 176.99 203.847 182.138 203.161 188.66Z" fill="#263238"/>
<path d="M257.625 160.286C263.003 193.236 243.896 200.215 236.803 201.359C230.396 202.389 208.2 205.135 199.39 172.871C190.581 140.607 204.31 127.679 218.955 124.475C233.485 121.386 252.248 127.336 257.625 160.286Z" fill="#F7A9A0"/>
<path d="M249.732 153.65C248.931 153.65 248.244 153.536 247.444 153.421C246.528 153.307 245.842 153.307 245.155 152.735C244.812 152.392 244.698 151.705 245.041 151.247C245.727 150.332 246.757 150.218 247.901 150.218C249.045 150.332 249.961 150.675 250.761 151.476C251.448 152.277 250.761 153.65 249.732 153.65Z" fill="#263238"/>
<path d="M228.331 156.167C229.132 155.938 229.819 155.709 230.505 155.481C231.306 155.137 231.992 155.023 232.564 154.337C232.908 153.993 232.793 153.192 232.45 152.849C231.649 152.048 230.505 152.163 229.475 152.506C228.331 152.849 227.645 153.421 226.958 154.337C226.386 155.252 227.416 156.396 228.331 156.167Z" fill="#263238"/>
<path d="M233.712 164.061C233.712 163.947 233.598 164.175 233.598 164.29C233.941 166.578 234.055 169.209 232.11 170.239C231.996 170.239 232.11 170.354 232.11 170.354C234.513 169.667 234.513 166.12 233.712 164.061Z" fill="#263238"/>
<path d="M231.422 162.002C227.761 162.231 228.447 169.553 231.88 169.324C235.198 169.095 234.511 161.773 231.422 162.002Z" fill="#263238"/>
<path d="M230.049 162.46C229.477 162.917 228.905 163.718 228.104 163.832C227.189 164.061 226.502 163.26 225.816 162.574C225.701 162.46 225.701 162.574 225.701 162.688C225.816 164.061 226.502 165.434 227.989 165.549C229.362 165.663 230.278 164.29 230.506 162.803C230.506 162.688 230.278 162.345 230.049 162.46Z" fill="#263238"/>
<path d="M246.758 161.888C246.758 161.773 246.987 162.002 246.987 162.116C247.101 164.405 247.673 166.922 249.733 167.494C249.847 167.494 249.847 167.608 249.733 167.608C247.101 167.494 246.415 164.061 246.758 161.888Z" fill="#263238"/>
<path d="M248.589 159.256C252.25 158.684 253.165 165.892 249.733 166.464C246.415 167.036 245.499 159.828 248.589 159.256Z" fill="#263238"/>
<path d="M250.077 159.599C250.649 159.942 251.335 160.515 252.022 160.515C252.823 160.515 253.28 159.599 253.738 158.798C253.738 158.684 253.852 158.798 253.852 158.913C254.081 160.286 253.738 161.773 252.479 162.231C251.335 162.574 250.191 161.544 249.733 160.171C249.733 159.828 249.848 159.485 250.077 159.599Z" fill="#263238"/>
<path d="M234.397 182.024C234.969 182.482 235.541 183.282 236.342 183.282C237.143 183.282 238.058 182.939 238.745 182.596C238.859 182.596 238.859 182.596 238.859 182.71C238.287 183.626 237.143 184.198 235.999 184.083C234.969 183.969 234.397 183.054 234.054 182.138C234.168 182.024 234.283 181.91 234.397 182.024Z" fill="#263238"/>
<path d="M244.008 172.299C244.008 172.299 244.809 175.617 245.038 177.219C245.038 177.333 240.232 178.935 236.342 175.502C236.228 175.388 236.457 175.159 236.571 175.274C238.859 176.647 241.262 176.761 243.779 176.532C243.893 176.074 242.177 170.812 242.406 170.812C243.321 170.697 245.038 171.04 246.182 171.269C244.694 164.29 241.948 157.54 240.576 150.561C240.576 150.332 240.919 150.218 241.033 150.447C244.351 157.311 246.296 165.32 248.012 172.528C248.127 173.329 244.694 172.528 244.008 172.299Z" fill="#263238"/>
<path d="M242.754 177.333C242.754 177.333 241.496 179.393 239.665 180.193C238.979 180.537 238.178 180.651 237.377 180.537C235.661 180.308 235.546 178.706 235.661 177.448C235.775 176.418 236.233 175.388 236.233 175.388C236.233 175.388 238.979 177.448 242.754 177.333Z" fill="#263238"/>
<path d="M239.665 180.194C238.979 180.537 238.178 180.651 237.377 180.537C235.661 180.308 235.546 178.706 235.661 177.448C237.606 177.448 239.436 178.477 239.665 180.194Z" fill="#FF9ABB"/>
<path d="M200.3 171.27C206.593 171.842 207.737 157.311 207.737 157.311C207.737 157.311 234.395 151.705 235.768 129.853C235.768 129.853 240.916 143.582 255.103 149.303C255.103 149.303 253.273 125.391 234.166 121.501C234.166 121.501 210.369 113.835 197.783 133.056C185.313 152.277 196.067 170.926 200.3 171.27Z" fill="#263238"/>
<path d="M235.772 128.366C236.23 131.684 235.887 135.116 234.971 138.319C234.056 141.523 232.454 144.726 230.281 147.358C229.823 148.044 229.136 148.616 228.564 149.188L227.649 150.104C227.306 150.333 226.963 150.676 226.619 150.905C225.933 151.477 225.246 151.934 224.56 152.506C223.874 152.964 223.073 153.422 222.386 153.765C222.043 153.994 221.7 154.223 221.242 154.337L220.098 154.795L217.81 155.824C216.208 156.282 214.606 156.74 213.005 157.197C214.492 156.511 216.094 155.939 217.581 155.138L219.755 153.994L220.784 153.422C221.128 153.193 221.471 152.964 221.814 152.735C222.501 152.278 223.187 151.82 223.874 151.362C224.56 150.905 225.132 150.333 225.704 149.761L226.619 148.96L227.42 148.044C227.992 147.472 228.564 146.9 229.022 146.214C231.081 143.811 232.683 140.836 233.827 137.862C234.399 136.374 234.857 134.773 235.2 133.171C235.543 131.569 235.772 129.967 235.772 128.366Z" fill="#263238"/>
<path d="M204.999 173.558C204.999 173.558 196.99 163.718 192.413 166.693C187.837 169.668 194.473 184.312 200.193 185.914C205.914 187.516 207.516 182.367 207.516 182.367L204.999 173.558Z" fill="#F7A9A0"/>
<path d="M194.475 170.812C194.36 170.812 194.36 170.926 194.475 170.926C198.479 172.185 200.767 175.617 202.484 179.278C201.225 177.905 199.623 177.219 197.793 178.821C197.678 178.935 197.793 179.05 197.907 179.05C199.509 178.592 200.653 178.821 201.797 179.965C202.598 180.766 203.284 181.91 203.857 182.94C204.085 183.283 204.657 183.054 204.543 182.596V182.482C204.2 177.448 199.738 170.812 194.475 170.812Z" fill="#263238"/>
<path d="M203.399 184.083C203.399 184.884 202.827 185.456 202.026 185.456C201.225 185.456 200.653 184.884 200.653 184.083C200.653 183.282 201.225 182.71 202.026 182.71C202.713 182.825 203.399 183.397 203.399 184.083Z" fill="white"/>
<path d="M199.051 182.939C199.62 182.939 200.081 182.478 200.081 181.91C200.081 181.341 199.62 180.88 199.051 180.88C198.483 180.88 198.022 181.341 198.022 181.91C198.022 182.478 198.483 182.939 199.051 182.939Z" fill="white"/>
<path d="M192.416 170.354L190.357 170.125C190.013 170.125 189.67 169.782 189.785 169.324C189.785 168.981 190.128 168.638 190.586 168.752L192.645 168.981C192.988 168.981 193.331 169.324 193.217 169.782C193.103 170.125 192.759 170.469 192.416 170.354Z" fill="#FFC727"/>
<path d="M192.411 172.528L190.352 172.757C190.008 172.757 189.665 172.528 189.551 172.185C189.551 171.842 189.78 171.499 190.123 171.384L192.182 171.155C192.525 171.155 192.869 171.384 192.983 171.727C193.097 172.071 192.869 172.414 192.411 172.528Z" fill="#FFC727"/>
<path d="M191.496 150.904L189.551 153.879L199.276 162.689L203.394 155.824L191.496 150.904ZM198.932 159.256L192.182 153.765L192.64 153.078L200.534 156.854L198.932 159.256Z" fill="#FFC727"/>
<path d="M192.522 145.298L191.95 148.845L204.306 153.307L205.565 145.413L192.522 145.298ZM202.59 150.332L194.238 147.815L194.353 147.015L203.048 147.587L202.59 150.332Z" fill="#FFC727"/>
<path d="M204.54 125.505C207.057 124.59 209.459 110.288 200.192 103.538C190.925 96.9022 178.797 104.453 183.831 116.123C187.035 123.56 199.162 127.564 204.54 125.505Z" fill="#263238"/>
<path d="M187.034 102.737C184.173 105.026 182.343 108.343 181.656 111.776C180.97 115.208 181.999 118.64 184.516 120.929C186.919 123.331 190.351 124.704 193.784 125.505C195.5 125.848 197.331 126.077 199.161 126.191C200.992 126.306 202.822 126.191 204.538 125.619C202.937 126.649 200.992 126.992 199.161 127.221C197.331 127.45 195.386 127.336 193.555 127.107C189.779 126.535 186.004 125.276 183.144 122.416C181.771 121.043 180.512 119.327 180.054 117.267C179.597 115.322 179.597 113.263 180.169 111.318C181.199 107.657 183.716 104.453 187.034 102.737Z" fill="#263238"/>
<path d="M289.004 256.099L305.021 253.925L298.729 207.818L278.592 210.564L289.004 256.099Z" fill="#FFC727"/>
<path d="M278.592 210.564L282.597 227.954L289.118 256.099L305.021 253.925L298.729 207.818L278.592 210.564Z" fill="#E78350"/>
<path d="M277.63 217.631L302.688 214.25L300.118 195.202L275.061 198.583L277.63 217.631Z" fill="#FE9C69"/>
<path d="M257.356 193.784L277.149 193.097L273.03 162.321L253.809 166.897L257.356 193.784Z" fill="#FE9C69"/>
<path d="M282.185 154.77L288.363 200.305L321.542 199.847L401.287 217.467L386.528 108.319L314.334 146.532L282.185 154.77Z" fill="#FE9C69"/>
<path d="M403.074 217.55C412.842 216.232 417.447 190.595 413.358 160.287C409.269 129.98 398.035 106.479 388.267 107.797C378.498 109.115 373.894 134.753 377.983 165.06C382.072 195.367 393.305 218.868 403.074 217.55Z" fill="#FE9C69"/>
<path opacity="0.2" d="M403.057 210.396C411.01 209.323 414.512 186.626 410.879 159.7C407.246 132.774 397.855 111.815 389.902 112.888C381.95 113.961 378.448 136.659 382.08 163.585C385.713 190.511 395.105 211.469 403.057 210.396Z" fill="black"/>
<path d="M384.358 163.236C384.816 166.783 385.388 170.33 386.074 173.648C388.134 174.906 390.651 175.478 393.282 175.135C399.346 174.334 403.465 168.728 402.664 162.779L401.977 157.63C401.176 151.566 395.57 147.333 389.621 148.248C387.104 148.592 384.816 149.85 383.099 151.566C383.443 155.228 383.786 159.232 384.358 163.236Z" fill="#FE9C69"/>
<path d="M270.974 205.225L309.187 203.852L301.178 144.244L263.995 153.168L270.974 205.225Z" fill="#E78350"/>
<path opacity="0.2" d="M382.409 116.442C380.121 119.874 378.977 123.993 378.061 128.112C377.26 132.231 376.688 136.349 376.574 140.468C376.46 142.528 376.46 144.587 376.46 146.646C376.574 148.706 376.574 150.765 376.688 152.825C376.917 154.884 376.917 156.943 377.146 159.003C377.375 161.062 377.604 163.121 377.833 165.181C378.977 173.418 380.693 181.542 383.324 189.436C384.697 193.326 386.299 197.216 388.244 200.877C390.303 204.424 392.706 207.97 396.138 210.373C392.935 207.742 390.647 204.195 388.816 200.534C386.871 196.873 385.498 192.983 384.24 189.093C381.837 181.198 380.121 173.075 379.091 164.952C377.947 156.829 377.26 148.591 377.489 140.239C377.489 136.121 377.947 132.002 378.633 127.997C379.434 124.107 380.35 120.103 382.409 116.442Z" fill="black"/>
<path d="M422.262 108.572C419.973 110.288 417.685 112.119 415.511 113.835C413.337 115.666 411.164 117.496 408.99 119.441C406.816 121.386 404.757 123.217 402.583 125.276L399.494 128.251C398.464 129.281 397.434 130.31 396.519 131.34C397.663 130.539 398.807 129.624 399.951 128.709L403.269 125.963C405.443 124.132 407.617 122.302 409.791 120.357C411.965 118.412 414.024 116.581 416.198 114.522C418.257 112.577 420.317 110.632 422.262 108.572Z" fill="#263238"/>
<path d="M402.923 191.749C406.012 192.664 409.101 193.465 412.305 194.266C415.394 195.066 418.597 195.753 421.801 196.439C425.004 197.126 428.093 197.812 431.297 198.384L436.102 199.185C437.704 199.414 439.306 199.643 440.907 199.872C439.306 199.414 437.818 198.956 436.217 198.499L431.526 197.355C428.437 196.554 425.233 195.867 422.03 195.181C418.826 194.494 415.737 193.808 412.534 193.236C409.33 192.664 406.127 192.092 402.923 191.749Z" fill="#263238"/>
<path d="M462.875 182.825C458.184 182.253 453.378 181.795 448.688 181.452C443.997 180.994 439.192 180.766 434.501 180.422C429.81 180.193 425.005 179.85 420.314 179.736L413.22 179.507C410.818 179.507 408.415 179.393 406.127 179.393C408.529 179.736 410.818 179.85 413.22 180.193L420.314 180.766C425.005 181.223 429.81 181.452 434.501 181.795C439.192 182.024 443.997 182.367 448.688 182.482C453.378 182.596 458.069 182.825 462.875 182.825Z" fill="#263238"/>
<path d="M448.805 110.517C444.686 112.92 440.568 115.551 436.449 118.068C432.33 120.585 428.326 123.331 424.321 125.963C420.317 128.594 416.312 131.34 412.308 134.086L406.359 138.204C404.414 139.577 402.469 141.065 400.524 142.438C402.583 141.179 404.643 139.921 406.702 138.662L412.88 134.772C416.999 132.255 421.003 129.509 425.008 126.878C429.012 124.246 433.016 121.501 437.021 118.755C440.911 116.238 444.915 113.492 448.805 110.517Z" fill="#263238"/>
<path d="M404.757 160.858C410.249 160.286 415.855 159.6 421.347 158.913C426.839 158.227 432.33 157.426 437.936 156.625C443.428 155.824 448.92 155.023 454.412 154.108L462.649 152.735C465.395 152.277 468.141 151.82 470.887 151.248C468.141 151.476 465.395 151.82 462.535 152.163L454.297 153.193C448.805 153.879 443.314 154.68 437.708 155.481C432.216 156.282 426.724 157.082 421.232 157.998C415.741 158.913 410.249 159.828 404.757 160.858Z" fill="#263238"/>
<path d="M171.47 237.627C154.194 266.001 124.79 327.211 136.002 349.521C146.757 370.916 255.104 312.223 268.833 301.469C274.783 296.778 246.866 241.746 240.002 246.208C230.849 252.043 186.572 288.083 185.657 288.311C183.597 288.655 189.775 268.29 193.894 243.005C199.958 206.164 183.941 217.262 171.47 237.627Z" fill="#F7A9A0"/>
<path d="M312.54 223.669C316.658 228.475 313.112 233.966 313.112 233.966C313.112 233.966 317.917 235.339 320.32 239.572C323.065 244.378 316.773 250.785 316.773 250.785C316.773 250.785 321.349 253.187 323.409 257.878C325.582 262.683 320.091 270.12 320.091 270.12C320.091 270.12 323.18 274.696 322.036 280.074C320.205 289.227 306.933 294.261 298.467 297.35C285.882 302.041 263.114 301.812 257.966 302.613L236.8 248.725C236.8 248.725 270.436 223.44 280.962 221.038C289.772 218.864 307.963 218.292 312.54 223.669Z" fill="#F7A9A0"/>
<path d="M312.428 233.165C302.589 233.051 293.207 235.911 283.711 238.2C283.482 238.2 283.596 238.543 283.825 238.543C293.207 236.14 303.046 235.682 312.542 233.623C312.657 233.623 312.657 233.28 312.428 233.165Z" fill="#263238"/>
<path d="M316.318 250.098C314.03 250.098 311.856 250.899 309.797 251.585C307.509 252.272 305.22 252.958 302.932 253.759C298.356 255.246 293.894 256.848 289.432 258.564C289.203 258.679 289.317 258.908 289.546 258.908C294.123 257.42 298.585 256.047 303.161 254.674C305.449 253.988 307.737 253.416 310.026 252.844C312.199 252.272 314.488 251.814 316.433 250.784C316.776 250.556 316.662 249.984 316.318 250.098Z" fill="#263238"/>
<path d="M319.98 270.006C318.035 270.006 315.976 271.036 314.145 271.608C312.086 272.294 310.026 273.095 307.967 273.781C303.848 275.154 299.729 276.642 295.61 277.9C295.382 278.015 295.496 278.243 295.725 278.243C299.958 276.985 304.191 275.841 308.424 274.468C310.484 273.781 312.543 273.209 314.603 272.523C316.319 271.951 318.607 271.493 320.094 270.235C320.094 270.12 320.094 270.006 319.98 270.006Z" fill="#263238"/>
<path d="M213.233 331.788C206.254 335.22 199.161 338.538 191.953 341.398C184.745 344.258 177.423 347.004 170.101 349.292C165.982 350.551 161.749 351.924 157.63 352.954C157.515 352.954 157.515 353.182 157.63 353.182C165.295 351.695 172.846 349.75 180.283 347.233C183.944 345.975 187.605 344.602 191.267 343.114C194.813 341.627 198.36 340.14 201.792 338.309C205.682 336.25 209.687 334.19 213.462 331.902C213.462 331.902 213.348 331.788 213.233 331.788Z" fill="#263238"/>
<path d="M290.457 299.181C282.105 301.469 268.719 300.782 268.605 300.897C266.088 303.185 255.676 309.935 253.045 311.423C252.93 311.537 253.045 311.651 253.159 311.537C258.88 308.905 266.088 305.016 269.062 302.155C280.961 302.613 286.796 300.553 290.572 299.409C290.8 299.409 290.686 299.066 290.457 299.181Z" fill="#263238"/>
<path d="M135.436 283.735L188.752 285.566C188.752 285.566 196.417 246.895 195.96 226.072C195.731 214.402 188.98 214.974 181.315 222.182C154.772 247.924 135.436 283.735 135.436 283.735Z" fill="#FE9C69"/>
<path d="M170.561 233.623C170.561 233.852 170.447 233.966 170.332 234.195C170.104 234.538 169.76 234.996 169.417 235.225C169.074 235.453 168.845 235.682 168.845 235.682H168.731C169.417 234.996 169.989 234.309 170.561 233.623ZM189.897 232.593C189.782 232.364 189.553 232.25 189.21 232.25C188.753 232.25 188.409 232.593 188.295 232.936C188.18 232.593 187.837 232.25 187.38 232.25C187.036 232.25 186.808 232.364 186.693 232.593C186.464 232.936 186.464 233.623 186.808 234.195C187.265 234.996 188.18 235.682 188.295 235.682H188.409C188.409 235.682 188.638 235.453 188.981 235.225C189.325 234.996 189.668 234.538 189.897 234.195C190.125 233.623 190.125 232.936 189.897 232.593ZM150.311 259.823C150.539 259.594 150.768 259.365 150.883 259.022C150.883 258.908 150.997 258.793 150.997 258.793C150.768 259.137 150.539 259.48 150.311 259.823ZM170.447 257.535C170.332 257.306 170.104 257.192 169.76 257.192C169.303 257.192 168.959 257.535 168.845 257.878C168.731 257.535 168.387 257.192 167.93 257.192C167.587 257.192 167.358 257.306 167.243 257.535C167.015 257.878 167.014 258.564 167.358 259.137C167.815 259.937 168.731 260.624 168.845 260.624H168.959C168.959 260.624 169.188 260.395 169.532 260.166C169.875 259.937 170.218 259.48 170.447 259.137C170.676 258.564 170.676 257.992 170.447 257.535ZM189.897 257.535C189.782 257.306 189.553 257.192 189.21 257.192C188.753 257.192 188.409 257.535 188.295 257.878C188.18 257.535 187.837 257.192 187.38 257.192C187.036 257.192 186.808 257.306 186.693 257.535C186.464 257.878 186.464 258.564 186.808 259.137C187.265 259.937 188.18 260.624 188.295 260.624H188.409C188.409 260.624 188.638 260.395 188.981 260.166C189.325 259.937 189.668 259.48 189.897 259.137C190.125 258.564 190.125 257.992 189.897 257.535ZM158.891 247.924C159.006 248.039 159.006 248.039 159.006 248.039H159.12C159.12 248.039 159.349 247.81 159.692 247.581C160.035 247.352 160.379 247.009 160.608 246.551C160.836 246.208 160.951 245.75 160.836 245.407C160.15 246.208 159.578 247.123 158.891 247.924ZM180.172 245.064C180.057 244.835 179.829 244.721 179.485 244.721C179.028 244.721 178.684 245.064 178.57 245.407C178.456 245.064 178.112 244.721 177.655 244.721C177.311 244.721 177.083 244.835 176.968 245.064C176.739 245.407 176.739 246.094 177.083 246.666C177.54 247.467 178.456 248.153 178.57 248.153H178.684C178.684 248.153 178.913 247.924 179.256 247.695C179.6 247.467 179.943 247.009 180.172 246.666C180.401 245.979 180.401 245.407 180.172 245.064ZM150.997 282.476C150.883 282.247 150.654 282.133 150.311 282.133C149.853 282.133 149.51 282.476 149.395 282.82C149.281 282.476 148.938 282.133 148.48 282.133C148.137 282.133 147.908 282.247 147.794 282.476C147.565 282.82 147.565 283.506 147.908 283.964L148.022 284.078L150.883 284.192C150.997 284.078 150.997 284.078 150.997 283.964C151.226 283.506 151.226 282.934 150.997 282.476ZM170.447 282.476C170.332 282.247 170.104 282.133 169.76 282.133C169.303 282.133 168.959 282.476 168.845 282.82C168.731 282.476 168.387 282.133 167.93 282.133C167.701 282.133 167.358 282.247 167.243 282.476C167.015 282.82 167.014 283.506 167.358 283.964C167.472 284.307 167.815 284.536 168.044 284.765L169.646 284.879C169.875 284.65 170.218 284.307 170.332 283.964C170.676 283.506 170.676 282.934 170.447 282.476ZM189.21 282.133C188.753 282.133 188.409 282.476 188.295 282.82C188.18 282.476 187.837 282.133 187.38 282.133C187.036 282.133 186.808 282.247 186.693 282.476C186.464 282.82 186.464 283.506 186.808 283.964C187.265 284.764 188.18 285.451 188.295 285.451H188.409C188.409 285.451 188.524 285.337 188.753 285.222C188.867 284.765 189.096 283.62 189.21 282.133C189.325 282.133 189.325 282.133 189.21 282.133ZM160.722 270.006C160.608 269.777 160.379 269.662 160.035 269.662C159.578 269.662 159.235 270.006 159.12 270.349C159.006 270.006 158.663 269.662 158.205 269.662C157.862 269.662 157.633 269.777 157.518 270.006C157.29 270.349 157.29 271.035 157.633 271.607C158.09 272.408 159.006 273.095 159.12 273.095H159.235C159.235 273.095 159.463 272.866 159.807 272.637C160.15 272.408 160.493 271.951 160.722 271.607C160.951 271.035 160.951 270.349 160.722 270.006ZM180.172 270.006C180.057 269.777 179.829 269.662 179.485 269.662C179.028 269.662 178.684 270.006 178.57 270.349C178.456 270.006 178.112 269.662 177.655 269.662C177.311 269.662 177.083 269.777 176.968 270.006C176.739 270.349 176.739 271.035 177.083 271.607C177.54 272.408 178.456 273.095 178.57 273.095H178.684C178.684 273.095 178.913 272.866 179.256 272.637C179.6 272.408 179.943 271.951 180.172 271.607C180.401 271.035 180.401 270.349 180.172 270.006Z" fill="white"/>
<path d="M187.153 277.214C179.03 276.299 156.72 274.239 142.075 274.926C141.961 274.926 141.961 275.269 142.075 275.269C154.317 276.642 178.915 277.443 187.153 277.786C187.267 277.671 187.267 277.214 187.153 277.214Z" fill="#263238"/>
<path d="M195.962 245.98C195.39 248.268 194.818 250.556 194.246 252.959C194.246 252.73 194.361 252.387 194.361 252.158C194.704 248.954 195.047 245.636 195.276 242.433C195.276 242.319 195.162 242.319 195.162 242.433C193.56 253.76 189.098 282.362 188.869 285.451C188.64 285.451 186.238 285.566 185.665 285.451C185.551 285.451 185.551 285.68 185.665 285.68C186.009 285.68 189.555 286.138 189.67 286.023C191.272 280.532 193.674 259.595 194.132 255.018C194.704 252.043 195.39 249.069 195.962 245.98Z" fill="#263238"/>
<path d="M294.812 113.263C293.896 122.073 286.803 129.853 286.803 129.853C286.803 129.853 276.391 128.709 269.87 122.645C264.493 117.611 263.921 110.174 268.154 106.856C274.332 102.165 280.625 113.606 280.625 113.606C280.625 113.606 277.879 100.792 285.659 100.335C291.036 99.8772 295.612 105.827 294.812 113.263Z" fill="#FE9C69"/>
<path d="M275.933 56.1724C275.59 59.7191 272.73 62.8082 272.73 62.8082C272.73 62.8082 268.496 62.3505 265.979 59.9479C263.806 57.8885 263.577 54.9139 265.293 53.6553C267.81 51.7104 270.327 56.4012 270.327 56.4012C270.327 56.4012 269.183 51.2527 272.272 51.0239C274.446 50.7951 276.276 53.1977 275.933 56.1724Z" fill="#FE9C69"/>
<path d="M307.735 83.5167C303.845 88.7796 296.409 90.839 296.409 90.839C296.409 90.839 290.23 86.1481 288.514 79.8555C287.027 74.5926 289.544 69.673 293.434 69.3297C299.154 68.7577 298.697 78.3682 298.697 78.3682C298.697 78.3682 301.786 69.2153 306.934 71.8468C310.481 73.6773 311.053 79.1691 307.735 83.5167Z" fill="#FE9C69"/>
<path d="M128.118 87.063H16.2246V150.218H128.118V87.063Z" fill="#FE9C69"/>
<path d="M35.2168 150.218L16.2246 169.668V150.218H35.2168Z" fill="#FE9C69"/>
<path d="M98.9486 99.7627H32.476V101.708H98.9486V99.7627Z" fill="white"/>
<path d="M78.0114 105.712H32.476V107.657H78.0114V105.712Z" fill="white"/>
<path d="M111.991 111.776H32.476V113.721H111.991V111.776Z" fill="white"/>
<path d="M59.8201 117.725H32.476V119.67H59.8201V117.725Z" fill="white"/>
<path d="M94.8298 123.674H32.476V125.619H94.8298V123.674Z" fill="white"/>
<path d="M98.9486 129.624H32.476V131.569H98.9486V129.624Z" fill="white"/>
<path d="M82.2446 135.573H32.476V137.518H82.2446V135.573Z" fill="white"/>
<path d="M38.319 216.423H150.213V170.201H38.319V216.423Z" fill="#455A64"/>
<path d="M131.32 216.347L150.197 235.797V216.347H131.32Z" fill="#455A64"/>
<path d="M115.759 179.965H55.5786V182.024H115.759V179.965Z" fill="white"/>
<path d="M132.234 186.143H55.5786V188.202H132.234V186.143Z" fill="white"/>
<path d="M111.297 192.321H55.5786V194.381H111.297V192.321Z" fill="white"/>
<path d="M125.712 198.385H55.5786V200.444H125.712V198.385Z" fill="white"/>
<path d="M101.572 204.563H55.5786V206.622H101.572V204.563Z" fill="white"/>
<path d="M386.68 17.6157H299.728V54.3416H386.68V17.6157Z" fill="#FE9C69"/>
<path d="M333.135 54.4561H353.271L343.203 68.2998L333.135 54.4561Z" fill="#FE9C69"/>
<path d="M332.797 37.2946C331.652 39.4684 329.707 41.4134 327.991 42.9008C326.275 44.3881 324.902 45.3034 324.788 45.4178H323.987C323.758 45.3034 318.266 41.5278 315.978 37.2946C314.376 34.32 314.148 30.8876 315.406 28.7138C316.207 27.3409 317.58 26.54 319.182 26.54C321.813 26.54 323.529 28.3706 324.445 30.2012C325.36 28.3706 326.962 26.54 329.593 26.54C331.195 26.54 332.568 27.3409 333.369 28.7138C334.627 30.8876 334.398 34.32 332.797 37.2946Z" fill="white"/>
<path d="M369.742 29.5143L359.445 43.358L357.271 35.1204L356.013 35.6924L355.441 34.3195L356.585 33.7475L351.665 28.3702H368.713L372.145 26.8828H350.064L349.492 28.1413L355.784 35.006L358.53 45.1885L359.903 45.4173L372.831 28.1413L369.742 29.5143Z" fill="white"/>
<path d="M369.746 29.5142L359.449 43.3579L357.161 35.0059L369.746 29.5142Z" fill="white"/>
<path d="M368.598 28.3701L356.471 33.7474L351.551 28.3701H368.598Z" fill="white"/>
<path d="M73.4229 334.648C60.1512 352.61 46.3075 373.547 42.8752 396.086C42.8752 396.43 43.3329 396.544 43.4473 396.201C44.9346 390.023 46.994 383.959 49.2822 378.124C57.9774 375.721 66.5582 373.776 71.1347 365.081C75.8255 356.157 75.2534 344.487 74.3382 334.877C74.4526 334.305 73.6517 334.305 73.4229 334.648Z" fill="#FE9C69"/>
<path d="M49.5122 378.01C55.4616 364.624 63.1271 351.123 72.852 340.14C72.9664 340.025 72.9664 340.14 72.9664 340.254C66.5594 348.148 61.7541 356.615 56.9489 365.31C61.2965 360.848 66.2162 356.844 70.3349 352.153C70.4494 352.038 70.5638 352.153 70.4494 352.267C66.3306 357.187 61.7541 362.679 56.3768 366.34C54.8895 368.971 53.5166 371.717 52.0292 374.348C52.3725 374.12 52.7157 374.005 53.1733 373.776C53.2877 373.776 53.2877 373.891 53.2877 373.891C52.8301 374.12 52.4869 374.348 52.0292 374.463C51.3428 375.721 50.6563 376.98 49.9698 378.238C49.741 378.467 49.3978 378.238 49.5122 378.01Z" fill="#263238"/>
<path d="M53.9769 373.319C57.5236 371.259 60.956 369.086 64.1595 366.454C64.2739 366.34 64.3883 366.454 64.2739 366.569C61.0704 369.2 57.7525 371.603 54.0913 373.548C53.9769 373.662 53.7481 373.319 53.9769 373.319Z" fill="#263238"/>
<path d="M41.3896 392.768C41.3896 392.997 41.8472 392.997 41.8472 392.768C41.9616 385.332 41.8472 377.895 41.9616 370.344C43.9066 366.454 47.911 364.394 50.7713 361.305C52.8307 359.132 54.5468 356.615 56.0342 353.869C59.5809 347.576 61.4115 340.483 62.2123 333.389C63.0132 325.38 59.9241 299.18 56.6062 300.096C54.8901 300.553 49.2839 313.596 47.7966 317.829C45.394 324.923 43.6778 332.245 42.5337 339.567C39.7878 357.187 40.0167 375.149 41.3896 392.768Z" fill="#FE9C69"/>
<path d="M41.2789 360.619C41.2789 360.619 41.3933 360.619 41.2789 360.619C41.7366 351.237 43.796 341.627 45.8554 332.588C48.0292 322.749 50.5462 313.482 55.5803 304.787C55.6947 304.672 55.9235 304.787 55.8091 304.901C52.3768 311.651 49.8597 318.859 48.0292 326.296C48.3724 325.724 48.83 325.266 49.1733 324.809C49.2877 324.58 49.6309 324.809 49.5165 325.037C49.0589 325.724 48.6012 326.639 47.9147 327.326C47.9147 327.326 47.9148 327.326 47.8003 327.326C46.0842 334.305 44.8257 341.512 43.796 348.72C43.9104 348.606 43.9104 348.492 44.0248 348.492C44.0248 348.377 44.1392 348.492 44.1392 348.606C44.0248 348.835 43.9104 349.064 43.6816 349.292C43.1095 352.954 42.6519 356.615 42.1942 360.161C48.7156 354.67 54.2073 348.148 57.2964 340.025H57.4108C54.3217 348.377 49.5165 355.814 42.0798 360.848C41.9654 361.763 41.851 362.793 41.6222 363.708C41.6222 363.937 41.2789 363.823 41.2789 363.708C41.2789 362.907 41.2789 361.992 41.3933 361.077C41.2789 360.848 41.1645 360.733 41.2789 360.619Z" fill="#263238"/>
<path d="M44.3702 347.004C49.2899 339.567 53.9807 332.474 57.5275 324.236C57.5275 324.122 57.7563 324.236 57.6419 324.351C54.5528 332.474 50.3196 340.712 44.4846 347.233C44.4846 347.347 44.2558 347.233 44.3702 347.004Z" fill="#263238"/>
<path d="M51.0015 322.52C53.0609 318.859 55.2347 315.313 57.1796 311.651C57.1796 311.537 57.4085 311.651 57.2941 311.766C55.6923 315.541 53.7473 319.431 51.3447 322.749C51.1159 322.864 50.8871 322.635 51.0015 322.52Z" fill="#263238"/>
<path d="M50.2077 324.008C50.2077 324.008 50.2077 324.123 50.2077 324.008C50.0929 324.008 50.0929 324.123 50.2077 324.008Z" fill="#263238"/>
<path d="M36.3548 371.259C36.2404 376.179 35.6683 381.099 34.6386 385.904C34.7531 386.476 34.753 386.934 34.8675 387.506C36.4692 382.128 37.2701 376.751 37.4989 371.145C37.6133 371.031 37.6133 370.802 37.4989 370.687C37.7277 363.365 37.0413 355.814 35.8972 348.606C33.6089 334.991 28.5749 321.834 19.0788 311.537C18.7356 311.194 18.1635 311.423 18.0491 311.766C14.1591 321.491 15.5321 333.161 18.85 343C20.6805 348.263 23.1976 353.297 26.4011 357.873C29.4902 362.335 33.7234 366.225 36.3548 371.259Z" fill="#FE9C69"/>
<path d="M20.1079 316.113C29.1463 330.758 35.4389 348.148 36.2398 365.424C36.2398 365.767 35.7822 365.767 35.6677 365.539C35.4389 363.937 35.2101 362.45 34.9813 360.962C31.2057 357.415 27.4302 353.64 24.6843 349.178C24.6843 349.063 24.7987 349.063 24.7987 349.063C28.0022 352.725 31.0913 356.615 34.7525 359.933C34.066 356.157 33.3795 352.381 32.4642 348.606C32.2354 348.377 32.0066 348.034 31.7778 347.805C31.6634 347.576 31.8922 347.347 32.0066 347.576C32.121 347.691 32.121 347.691 32.2354 347.805C30.9769 342.656 29.3752 337.737 27.5446 332.817C25.2564 330.071 22.6249 327.669 21.0232 324.351C21.0232 324.236 21.1376 324.236 21.1376 324.236C22.5105 326.181 23.769 328.012 25.3708 329.728C25.9428 330.415 26.6293 331.101 27.3158 331.787C25.2564 326.525 22.8537 321.376 19.8791 316.342C19.6502 315.999 19.9935 315.884 20.1079 316.113Z" fill="#263238"/>
<path d="M21.9343 334.19C24.909 338.08 28.2269 341.855 30.8583 345.974C30.9727 346.089 30.7439 346.203 30.6295 346.089C27.1972 342.771 24.2225 338.309 21.7055 334.304C21.5911 334.19 21.8199 334.076 21.9343 334.19Z" fill="#263238"/>
<path d="M31.319 346.775L31.4334 346.89C31.5478 347.004 31.4334 347.118 31.319 347.004L31.2046 346.89C31.0902 346.89 31.2046 346.661 31.319 346.775Z" fill="#263238"/>
<path d="M5.91779 344.258C6.60425 351.81 10.6086 360.848 15.4139 366.569C17.5877 369.086 20.1047 371.145 23.1938 372.632C26.5117 374.234 30.0584 376.179 33.4908 377.552C35.0925 381.671 36.351 386.018 37.1519 390.48C37.2663 390.137 37.3807 389.679 37.4951 389.336C35.3213 370.23 22.965 353.983 7.06189 343.458C6.60425 343.114 5.91779 343.572 5.91779 344.258Z" fill="#FE9C69"/>
<path d="M11.4066 349.864C11.2922 349.75 11.4066 349.521 11.5211 349.636C19.873 355.814 27.4241 364.852 31.6573 374.463C31.7717 374.692 31.4285 374.92 31.3141 374.692C30.6276 373.433 29.8268 372.175 29.0259 370.916C25.3647 370.23 22.0468 367.713 19.301 365.31C19.1866 365.196 19.301 365.196 19.4154 365.196C20.7883 366.454 22.2757 367.598 23.9918 368.399C25.4792 369.2 27.0809 369.658 28.5683 370.23C27.1953 368.056 25.8224 366.111 24.3351 364.051C20.4451 362.678 16.7839 360.39 13.466 357.988C13.3516 357.873 13.466 357.759 13.5804 357.759C16.8984 359.704 20.2163 361.534 23.6486 363.136C21.4748 360.276 19.0722 357.53 16.5551 354.899C15.2966 354.212 14.0381 353.64 12.894 352.954C12.7796 352.954 12.894 352.725 13.0084 352.725C13.9237 353.068 14.9534 353.526 15.8687 354.098C14.4957 352.725 13.0084 351.237 11.4066 349.864Z" fill="#263238"/>
<path d="M11.751 356.5C11.9799 356.615 12.2087 356.729 12.3231 356.958C12.4375 356.958 12.3231 357.072 12.2087 357.072C11.9799 356.958 11.751 356.844 11.5222 356.729C11.5222 356.615 11.6366 356.386 11.751 356.5Z" fill="#263238"/>
<path d="M62.2078 431.897H18.8462L22.3929 392.425L23.0794 383.73H57.8602L58.6611 392.425L62.2078 431.897Z" fill="#455A64"/>
<path d="M58.6579 392.425H22.3897L23.0761 383.73H57.857L58.6579 392.425Z" fill="#263238"/>
<path d="M59.9272 377.666H21.0276V386.247H59.9272V377.666Z" fill="#455A64"/>
<path d="M36.7376 74.9046C57.0272 74.9046 73.4751 58.1366 73.4751 37.4523C73.4751 16.768 57.0272 0 36.7376 0C16.448 0 0 16.768 0 37.4523C0 58.1366 16.448 74.9046 36.7376 74.9046Z" fill="#37474F"/>
<path d="M54.6985 27.4658C53.8821 18.3108 47.6775 9.32227 36.7379 9.32227C25.7983 9.32227 19.757 18.3108 18.7773 27.4658C17.4711 41.448 26.7779 54.265 36.7379 65.9169C46.6979 54.0986 56.0047 41.448 54.6985 27.4658ZM36.7379 37.4531C31.3497 37.4531 26.9412 32.9588 26.9412 27.4658C26.9412 21.9728 31.3497 17.4785 36.7379 17.4785C42.1261 17.4785 46.5346 21.9728 46.5346 27.4658C46.5346 32.9588 42.1261 37.4531 36.7379 37.4531Z" fill="white"/>
</svg>
