<svg width="431" height="429" viewBox="0 0 431 429" fill="none" xmlns="http://www.w3.org/2000/svg">
<g clip-path="url(#clip0_4_4049)">
<path d="M274.792 190.348L418.892 190.348V0.0476532L274.792 0.0476532V190.348Z" fill="#FE9563"/>
<path d="M349.746 92.3154L412.146 92.3154V7.61543L349.746 7.61543V92.3154Z" fill="white"/>
<path d="M281.539 92.3154L343.939 92.3154V7.61543L281.539 7.61543V92.3154Z" fill="white"/>
<path d="M349.746 182.681H412.146V97.9811L349.746 97.9811V182.681Z" fill="white"/>
<path d="M281.539 182.681H343.939V97.9811L281.539 97.9811V182.681Z" fill="white"/>
<path d="M322.9 0H274.8V272.3H302.7L283.2 133.8L322.9 0Z" fill="#FE9563"/>
<path d="M314.6 7.3999L307 38.9999L299.2 70.5999L283.7 133.9V133.7L290.9 199.8L294.5 232.8L297.9 265.9L294 232.9L290.2 199.9L282.7 133.8V133.7V133.6L298.6 70.4999L306.5 38.8999L314.6 7.3999Z" fill="#EBEBEB"/>
<path d="M277.7 12.8999L277.9 40.2999L278.1 67.5999L278.2 122.2L278.1 176.8L277.9 204.1L277.7 231.4L277.4 204.1L277.3 176.8L277.2 122.2L277.3 67.5999L277.4 40.2999L277.7 12.8999Z" fill="#EBEBEB"/>
<path d="M286.7 18.1001L285.2 47.1001L283.6 76.1001L280.3 134.2V134.1L281.9 198.8L282.6 231.1L283.2 263.5L282.1 231.1L281.1 198.8L279.4 134.1L282.9 76.1001L284.7 47.1001L286.7 18.1001Z" fill="#EBEBEB"/>
<path d="M292.9 259.3L289.7 228L286.6 196.7C284.6 175.8 282.6 154.9 280.7 134V133.9V133.8L289.6 85.0002L294.1 60.6002L298.7 36.2002L294.5 60.6002L290.2 85.0002L281.5 133.8V133.7C283.5 154.6 285.3 175.5 287.3 196.4L290.1 227.8L292.9 259.3Z" fill="#EBEBEB"/>
<path d="M274.793 137.784H285.693V131.484H274.793V137.784Z" fill="#DBDBDB"/>
<path d="M370.6 0H418.8V272.3H390.9L410.4 133.8L370.6 0Z" fill="#FE9563"/>
<path d="M379 7.3999L387.1 38.8999L395 70.4999L410.8 133.6L410.9 133.7L410.8 133.8L403.3 199.9L399.6 232.9L395.7 265.9L399.1 232.8L402.7 199.8L409.9 133.7V133.9L394.3 70.5999L386.6 38.9999L379 7.3999Z" fill="#EBEBEB"/>
<path d="M415.9 12.8999L416.1 40.2999L416.3 67.5999L416.4 122.2L416.3 176.8L416.1 204.1L415.9 231.4L415.7 204.1L415.5 176.8L415.4 122.2L415.5 67.5999L415.7 40.2999L415.9 12.8999Z" fill="#EBEBEB"/>
<path d="M406.9 18.1001L408.8 47.1001L410.7 76.1001L414.2 134.1L412.4 198.8L411.5 231.1L410.4 263.5L410.9 231.1L411.6 198.8L413.2 134.1V134.2L410 76.1001L408.4 47.1001L406.9 18.1001Z" fill="#EBEBEB"/>
<path d="M400.6 259.3L403.2 227.9L406 196.5C407.9 175.6 409.8 154.7 411.8 133.8V133.9L403.1 85.0998L398.8 60.6998L394.6 36.2998L399.2 60.6998L403.7 85.0998L412.6 133.9V134V134.1C410.7 155 408.7 175.9 406.7 196.8L403.6 228.1L400.6 259.3Z" fill="#EBEBEB"/>
<path d="M418.8 131.5H407.9V137.8H418.8V131.5Z" fill="#FFE0D1"/>
<path d="M8.9 328.4H195.3L199.2 251.9H5L8.9 328.4Z" fill="#999999"/>
<path d="M186.5 286.9H108.6L107.1 260.4H188.2L186.5 286.9ZM109.4 285.9H185.5L187.1 261.2H108L109.4 285.9Z" fill="#DBDBDB"/>
<path d="M185 317.4H111.6L110.4 293.4H186.5L185 317.4ZM112.5 316.5H184.1L185.5 294.4H111.4L112.5 316.5Z" fill="#DBDBDB"/>
<path d="M155 276.5H141.9L141.1 270.1H155.8L155 276.5ZM142.7 275.5H154.1L154.7 271H142.1L142.7 275.5Z" fill="#DBDBDB"/>
<path d="M155 308.6H141.9L141.1 302.2H155.8L155 308.6ZM142.7 307.7H154.1L154.7 303.2H142.1L142.7 307.7Z" fill="#DBDBDB"/>
<path d="M94.8 286.9H16.9L15.4 260.4H96.5L94.8 286.9ZM17.8 285.9H93.9L95.5 261.2H16.4L17.8 285.9Z" fill="#DBDBDB"/>
<path d="M93.4 317.4H19.9L18.7 293.4H94.8L93.4 317.4ZM20.8 316.5H92.4L93.8 294.4H19.7L20.8 316.5Z" fill="#DBDBDB"/>
<path d="M63.3 276.5H50.3L49.5 270.1H64.2L63.3 276.5ZM51.1 275.5H62.5L63.1 271H50.5L51.1 275.5Z" fill="#DBDBDB"/>
<path d="M63.3 308.6H50.3L49.5 302.2H64.2L63.3 308.6ZM51.1 307.7H62.5L63.1 303.2H50.5L51.1 307.7Z" fill="#DBDBDB"/>
<path d="M25.6 328.4L24.5 336.7L22.1 353.4H17.5V328.4H25.6Z" fill="#999999"/>
<path d="M25.6 328.4L24.5 336.7H17.5V328.4H25.6Z" fill="#868484"/>
<path d="M178.6 328.4L179.7 336.7L182.1 353.4H186.7V328.4H178.6Z" fill="#EBEBEB"/>
<path d="M178.6 328.4L179.7 336.7H186.7V328.4H178.6Z" fill="#DBDBDB"/>
<path d="M78.1 18.3999H21.6V86.8999H78.1V18.3999Z" fill="#FE9563"/>
<path d="M71.6 24.6001H28V80.6001H71.6V24.6001Z" fill="white"/>
<path d="M29.7 24.6001H28V80.6001H29.7V24.6001Z" fill="#FFD2BD"/>
<path d="M79.7 18.3999H78V86.8999H79.7V18.3999Z" fill="#FFD2BD"/>
<path d="M52.9 32.2998H42.6V62.8998H52.9V32.2998Z" fill="#FE9563"/>
<path d="M65.5 53.1997H38.1V68.1997H65.5V53.1997Z" stroke="#FE9563" stroke-miterlimit="10"/>
<path d="M130 103.5H73.5V172H130V103.5Z" fill="#FE9563"/>
<path d="M123.6 109.7H80V165.7H123.6V109.7Z" fill="white"/>
<path d="M81.7 109.7H80V165.7H81.7V109.7Z" fill="#FFD2BD"/>
<path d="M131.7 103.5H130V172H131.7V103.5Z" fill="#DBDBDB"/>
<path d="M106.4 124.2H97.6V146.4H106.4V124.2Z" fill="#FE9563"/>
<path d="M115.6 137.7H92V153H115.6V137.7Z" stroke="#FE9563" stroke-miterlimit="10"/>
<path d="M215.1 390.1C295.734 390.1 361.1 383.339 361.1 375C361.1 366.66 295.734 359.9 215.1 359.9C134.466 359.9 69.1 366.66 69.1 375C69.1 383.339 134.466 390.1 215.1 390.1Z" fill="#E3D7C3"/>
<path d="M290.1 423.2C360.406 423.2 417.4 412.992 417.4 400.4C417.4 387.808 360.406 377.6 290.1 377.6C219.794 377.6 162.8 387.808 162.8 400.4C162.8 412.992 219.794 423.2 290.1 423.2Z" fill="#E3D7C3"/>
<path d="M0 353L53.8 352.8L107.6 352.7L215.1 352.5L322.7 352.7L376.5 352.8L430.3 353L376.5 353.3L322.7 353.4L215.1 353.5L107.6 353.4L53.8 353.3L0 353Z" fill="#263238"/>
<path d="M49.6 277.2C55.9 264.1 67.1 257.4 79.6 261.2C92.1 264.9 94.1 282.4 84.7 286.8C75.4 291.2 66 278.3 61.1 275.7C56.2 273 49.6 277.2 49.6 277.2Z" fill="#FE9563"/>
<path d="M43.5 311.9C43.5 310.3 43.6 308.8 43.6 307.2C43.7 304.1 43.8 300.9 43.9 297.8C44.1 292.1 44.7 286.4 47.1 281.1C49.2 276.4 52.7 272.2 57.2 269.5C58.9 268.5 60.7 267.7 62.5 267.2C64 265.5 66.5 264.3 68.7 263.8C71.6 263.1 74.6 263.3 77.5 263.6C77.6 263.6 77.6 263.8 77.5 263.8C74.7 263.5 71.9 263.6 69.2 264.4C68 264.7 66.9 265.1 65.8 265.7C65.1 266.1 64.5 266.5 63.9 266.9C66.4 266.4 69 266.4 71.6 267C72.5 267.2 73.4 267.5 74.3 267.9C75 267.7 75.7 267.7 76.4 267.7C77.3 267.7 78.2 267.9 79.1 268.1C80.9 268.6 82.6 269.4 84.3 270.4C84.4 270.5 84.3 270.6 84.2 270.5C82.6 269.6 80.9 269 79.2 268.6C78.3 268.4 77.5 268.3 76.6 268.2C76.1 268.2 75.6 268.2 75.2 268.2C78.7 269.9 81.7 272.7 83.3 276.3C83.3 276.4 83.2 276.5 83.2 276.4C81.3 272.2 77.3 269.3 72.9 268.1C72.6 268 72.3 268 72.1 267.9C72.2 268.3 72.2 268.8 72.2 269.2C72.3 269.8 72.4 270.5 72.5 271.1C72.8 272.4 73.1 273.7 73.5 274.9C73.9 276.2 74.4 277.4 75 278.6C75.6 279.8 76.2 281.1 77.1 282.2C77.2 282.3 77 282.4 77 282.3C76.2 281.1 75.4 280 74.7 278.8C74 277.6 73.5 276.4 73 275.2C72.5 273.9 72.1 272.6 71.9 271.3C71.8 270.6 71.7 269.9 71.6 269.2C71.6 268.8 71.5 268.3 71.5 267.9C70 267.7 68.5 267.7 67.1 267.8C67.7 270.9 68.3 274.2 70 276.9C70.1 277 69.9 277.1 69.9 277C69.1 275.5 68.3 274.1 67.7 272.5C67.2 271 66.7 269.4 66.6 267.9C64 268.2 61.5 269.1 59.2 270.4C54.9 272.8 51.6 276.7 49.4 281.1C47 285.9 46.1 291.1 45.8 296.4C45.4 303.1 45.3 309.8 44.6 316.4C44.6 316.8 43.9 317 43.8 316.5C43.3 314.9 43.5 313.4 43.5 311.9Z" fill="#263238"/>
<path d="M58.2 268.5C58.6 268 59.2 267.6 59.6 267.2C60.1 266.8 60.7 266.4 61.2 266C62.3 265.2 63.5 264.7 64.8 264.3C64.9 264.3 64.9 264.4 64.8 264.5C63.5 264.8 62.3 265.5 61.2 266.2C60.7 266.6 60.2 267 59.7 267.4C59.2 267.8 58.8 268.3 58.2 268.6C58.2 268.7 58.1 268.5 58.2 268.5Z" fill="#263238"/>
<path d="M78.4 273.2C79.4 274.4 80.5 275.7 81.3 277.1C82.2 278.5 82.9 279.9 83.5 281.4C83.5 281.4 83.4 281.5 83.4 281.4C81.9 278.6 80.3 275.8 78.3 273.3C78.2 273.2 78.4 273.1 78.4 273.2Z" fill="#263238"/>
<path d="M64.8 271.9C64.9 272.7 65.2 273.5 65.5 274.3C65.8 275 66.3 275.7 66.7 276.4C66.7 276.4 66.7 276.5 66.6 276.5C65.5 275.3 64.8 273.6 64.6 272C64.6 271.8 64.8 271.8 64.8 271.9Z" fill="#263238"/>
<path d="M44.4 277.5C44.4 277.5 35.4 266.2 18.1 270.2C1.60001 274 -5.99999 304.2 10.7 307.9C27.4 311.5 24.4 283.5 30.5 278.8C34.9 275.3 41.3 276 44.4 277.5Z" fill="#FE9563"/>
<path d="M4.60002 286.7C5.70002 285.7 6.90002 284.8 8.20002 284C9.40002 283.2 10.7 282.5 12 282.1C12.7 281.1 13.4 280.1 14.3 279.2C15.8 277.5 17.6 276.1 19.5 275C19.3 275 19.2 275 19 275C18.1 275 17.2 275 16.2 275C14.3 275.1 12.5 275.6 10.8 276.3C10.7 276.3 10.6 276.2 10.7 276.2C12.4 275.5 14.2 274.9 16 274.6C16.9 274.4 17.8 274.4 18.7 274.4C19.2 274.4 19.7 274.4 20.2 274.5C20.3 274.5 20.4 274.5 20.5 274.5C22.1 273.7 23.8 273.1 25.5 272.7C25.3 272.7 25.2 272.6 25 272.6C24.2 272.4 23.3 272.3 22.4 272.2C20.7 272 18.9 272 17.2 272.3C17.1 272.3 17.1 272.2 17.2 272.1C18.9 271.9 20.7 271.8 22.4 271.9C23.8 272 25.3 272.1 26.8 272.5C27.8 272.3 28.9 272.2 30 272.1C36 271.8 42.6 274.1 46.4 279.1C50.1 284.1 50.9 290.7 51.5 296.7C52.4 305.1 52.8 313.5 52.2 321.9C52.2 322.4 51.5 322.3 51.4 321.8C51.2 314.7 50.9 307.5 50.2 300.4C49.9 297.1 49.5 293.8 49 290.5C48.5 287.7 47.9 284.9 46.6 282.4C45.3 279.7 43.3 277.6 40.7 276.1C38.2 274.6 35.3 273.8 32.4 273.5C29.8 273.3 27.1 273.5 24.6 274.2C24.7 274.7 24.7 275.2 24.6 275.7C24.5 276.3 24.4 277 24.2 277.6C24 278.2 23.8 278.7 23.5 279.3C23.2 279.9 22.8 280.4 22.4 281C22.3 281.1 22.2 281 22.3 280.9C23 280 23.4 278.6 23.6 277.5C23.7 276.9 23.8 276.3 23.8 275.7C23.8 275.3 23.8 274.8 23.8 274.4C21.1 275.2 18.5 276.6 16.2 278.4C15.8 278.7 15.4 279.1 15 279.5C15.6 280 16.1 280.7 16.5 281.3C17.1 282.2 17.6 283.1 18 284C18.8 285.9 19.3 288 19.6 290C19.6 290.1 19.5 290.1 19.4 290C19.1 288 18.4 286.1 17.4 284.3C16.9 283.4 16.4 282.6 15.9 281.8C15.6 281.4 15.3 281 15 280.6C14.8 280.4 14.6 280.2 14.5 279.9C12.5 281.9 10.8 284.2 9.60002 286.8C10.5 287.6 11.1 288.7 11.6 289.7C12.2 290.8 12.8 292 13.2 293.2C14.1 295.5 14.7 297.9 15.3 300.3C15.3 300.4 15.2 300.4 15.1 300.3C14.6 297.9 13.7 295.6 12.6 293.3C12.1 292.2 11.5 291.1 11 290.1C10.5 289.1 9.80002 288.1 9.40002 287.1C8.30002 289.6 7.60002 292.4 7.40002 295.1C7.40002 295.2 7.20002 295.2 7.20002 295.1C7.50002 290.8 8.80002 286.5 11.1 282.8C10 283.3 9.00002 283.7 8.00002 284.2C6.70002 284.9 5.50002 285.7 4.40002 286.7C4.70002 286.9 4.60002 286.8 4.60002 286.7Z" fill="#263238"/>
<path d="M17.4 287.4C17.9 289.1 18.6 290.8 19 292.5C19.5 294.2 19.8 295.9 19.8 297.6H19.7C19.2 294.2 18.4 290.7 17.2 287.4C17.2 287.3 17.3 287.3 17.4 287.4Z" fill="#263238"/>
<path d="M6.40004 283.1C7.10004 282.4 7.80004 281.9 8.70004 281.5C9.50004 281.1 10.5 280.8 11.4 280.6C11.5 280.6 11.5 280.7 11.4 280.8C10.5 281 9.70004 281.4 8.80004 281.9C8.00004 282.2 7.20004 282.7 6.40004 283.1C6.30004 283.2 6.40004 283.2 6.40004 283.1Z" fill="#263238"/>
<path d="M35.8 262.4C35.8 262.4 34.1 242.1 19 235.5C6.50002 230 -0.699975 244.2 8.20002 252.9C15.4 259.9 26.9 256.7 35.8 262.4Z" fill="#FE9563"/>
<path d="M11 239.5C13.3 240.5 15.6 241.4 17.7 242.7C19.5 243.7 21.2 244.9 22.9 246.2C22.6 245.7 22.4 245.1 22.2 244.6C21.8 243.8 21.4 243 20.9 242.3C19.9 240.8 18.9 239.3 17.6 238.1C17.5 238 17.6 237.9 17.7 238C18.9 239.3 20.2 240.6 21.2 242.1C21.7 242.8 22.2 243.6 22.6 244.4C23 245.1 23.4 245.9 23.6 246.7C23.7 246.7 23.7 246.8 23.8 246.8C26.4 248.9 28.8 251.3 31 253.9C31 253.7 30.9 253.5 30.9 253.3C30.6 252.3 30.3 251.3 30 250.4C29.3 248.3 28.5 246.3 27.3 244.5C27.2 244.4 27.4 244.3 27.4 244.4C28.5 246.3 29.7 248.1 30.6 250.2C31 251.2 31.4 252.2 31.6 253.2C31.8 253.8 32 254.5 32.1 255.2C32.8 256 33.4 256.9 34 257.7C40.5 266.9 43.7 278.1 44.5 289.2C44.7 292.5 44.8001 295.9 44.7001 299.2C44.6001 302.5 44.5 306 43.8 309.2C43.8 309.4 43.4001 309.3 43.4001 309.1C43.5001 306.2 43.8 303.2 43.8 300.3C43.9 297.4 43.8 294.4 43.5 291.5C43 285.7 41.9001 279.8 40.2001 274.2C38.5001 268.5 35.9 263 32.5 258C31.9 257.9 31.2 257.7 30.6 257.5C29.8 257.3 29.1 257.1 28.3 256.9C26.9 256.5 25.4 256 24.1 255.4C24 255.4 24.1 255.2 24.2 255.3C25.5 256.1 27 256.5 28.5 256.8C29.7 257 30.9 257.2 32.1 257.5C31 255.9 29.8 254.4 28.6 252.9C25.7 253.2 22.8 252.9 20 252.3C18.5 251.9 17 251.5 15.6 250.9C14.1 250.3 12.7 249.6 11.2 248.9C11.1 248.9 11.2 248.7 11.3 248.8C13.9 250.4 17.1 251.2 20 251.6C22.7 252.1 25.4 252.2 28.1 252.3C27 251.1 25.9 249.9 24.7 248.7C20.7 244.9 16 241.5 10.8 239.6C10.8 239.6 10.9 239.4 11 239.5Z" fill="#263238"/>
<path d="M23.2 239.5C23.9 240.4 24.5 241.3 25.1 242.2C25.7 243.2 26.1 244.2 26.4 245.3C26.4 245.3 26.4 245.4 26.3 245.3C25.8 244.3 25.4 243.3 24.9 242.3C24.4 241.3 23.8 240.4 23.1 239.6C23.1 239.6 23.2 239.5 23.2 239.5Z" fill="#263238"/>
<path d="M9.20001 246.3C10.2 246.9 11.2 247.2 12.3 247.6C13.3 247.9 14.4 248.2 15.5 248.4V248.5C14.4 248.4 13.3 248.2 12.2 247.8C11.1 247.4 10.1 246.9 9.10002 246.4C9.00002 246.4 9.10001 246.2 9.20001 246.3Z" fill="#263238"/>
<path d="M47.6 258.8C47.7 259.7 49.9 251.4 62.6 244.1C74.2 237.5 88 220.2 76.7 209.2C67.5 200.4 43.3 219.6 47.6 258.8Z" fill="#FE9563"/>
<path d="M38.8 306C39 297.4 39.7 288.8 40.8 280.3C41.9 272.5 43.6 264.8 46.2 257.3C47.2 254.6 48.2 252 49.4 249.4C49.3 248.4 49.4 247.3 49.5 246.4C49.6 245.1 49.7 243.8 49.8 242.5C49.9 241.2 50.1 239.9 50.2 238.6C50.4 237.3 50.6 236 50.7 234.7C50.7 234.6 50.9 234.6 50.9 234.7C50.6 236 50.5 237.5 50.4 238.8C50.3 240.1 50.2 241.3 50.2 242.6C50.2 243.9 50.2 245.1 50.2 246.4C50.2 246.9 50.2 247.3 50.2 247.8C51.4 245.3 52.7 242.8 54.1 240.3C53.2 235 54.4 229.5 55.4 224.3C55.4 224.2 55.6 224.2 55.6 224.3C55 227 54.8 229.8 54.8 232.5C54.8 234.7 54.9 236.8 54.9 239C55.2 238.5 55.5 238 55.8 237.4C57.5 234.7 59.2 232 61.1 229.5C60.9 228.3 61 227 61.2 225.7C61.4 224.3 61.7 222.9 62.1 221.6C62.5 220.2 63 218.9 63.5 217.6C64.1 216.3 64.8 215 65.3 213.6C65.3 213.5 65.5 213.6 65.5 213.7C64.8 214.9 64.3 216.4 63.9 217.7C63.5 219 63.1 220.3 62.9 221.7C62.6 223 62.4 224.4 62.2 225.7C62.1 226.6 62 227.5 61.8 228.4C64.5 224.7 67.5 221.2 70.7 218C70.8 217.9 70.9 218 70.8 218.1C66 223.6 61.6 229.4 57.8 235.7C57.7 235.9 57.5 236.2 57.4 236.4C58.1 236 58.9 235.6 59.6 235.2C60.8 234.5 62.1 233.8 63.3 233.2C64.5 232.5 65.7 231.9 66.9 231.2C67.5 230.9 68.1 230.5 68.8 230.2C69.5 229.8 70.3 229.5 71 229C71.1 228.9 71.2 229.1 71.1 229.1C69.9 229.8 68.8 230.8 67.6 231.5C66.4 232.3 65.2 233 64 233.7C61.7 235 59.3 235.9 57 237.2C55.4 239.9 54 242.7 52.7 245.5C54.1 244.6 55.4 243.8 56.8 243C57.7 242.5 58.6 242 59.5 241.5C60.4 241 61.3 240.6 62.1 239.9C62.2 239.8 62.3 239.9 62.2 240C60.8 241.4 59 242.4 57.3 243.4C55.7 244.4 54 245.3 52.3 246.1C50.9 249.1 49.7 252.1 48.6 255.2C43.2 270.4 41.3 286.6 40.3 302.6C40 307.4 39.9 312.2 39.8 316.9C39.7 321.7 40 326.5 40 331.2C40 331.3 39.8 331.4 39.7 331.2C39.1 327 39 322.7 38.8 318.4C38.7 314.8 38.7 310.4 38.8 306Z" fill="#263238"/>
<path d="M62 237.2C64.3 236.2 66.6 234.9 68.8 233.7C71 232.4 73.2 231.1 75.2 229.6C75.2 229.6 75.3 229.6 75.2 229.7C73.2 231.3 71.2 232.7 69 234C66.8 235.3 64.4 236.3 62 237.4C61.9 237.4 61.9 237.2 62 237.2Z" fill="#263238"/>
<path d="M58.3 220C58.5 219.3 58.7 218.5 59 217.8C59 217.8 59 217.8 59 217.7C59.2 217.3 59.3 216.9 59.5 216.5C59.5 216.4 59.5 216.4 59.6 216.4C59.6 216.3 59.7 216.2 59.7 216.2C59.7 216.2 59.8 216.2 59.7 216.2C59.7 216.3 59.6 216.5 59.6 216.6C59.6 216.7 59.6 216.8 59.5 216.8C58.6 219.6 58.1 222.5 57.6 225.5C57.6 225.6 57.4 225.6 57.5 225.5C57.5 223.6 57.8 221.8 58.3 220Z" fill="#263238"/>
<path d="M25.3 309.1L26.2 319.9L29 352.8H58.9L61.6 319.9L62.5 309.1H25.3Z" fill="#455A64"/>
<path d="M25.3 309.1L26.2 319.9H61.6L62.5 309.1H25.3Z" fill="#263238"/>
<path d="M22.3485 315.158H65.4485V304.758H22.3485V315.158Z" fill="#455A64"/>
<path d="M290.9 26H139.3C130.8 26 124 33 124 41.6V353.7C124 362.3 130.9 369.3 139.3 369.3H290.9C299.4 369.3 306.3 362.3 306.3 353.7V41.7C306.3 33 299.4 26 290.9 26ZM296.7 344.1C296.7 352.3 290.5 359 283 359H147.3C139.7 359 133.5 352.4 133.5 344.1V53.5C133.5 36.8 139.7 36 147.3 36H174.5C176.1 36 177.4 37.8 177.4 40V41C177.4 46.2 180.3 46.2 183.8 46.2H246.6C250.1 46.2 253 46.2 253 41V40C253 37.8 254.3 36 255.9 36H283C290.6 36 296.7 38.2 296.7 53.5V344.1Z" fill="#263238"/>
<path d="M223.7 39.5999H206.6C206 39.5999 205.5 39.0999 205.5 38.4999C205.5 37.8999 206 37.3999 206.6 37.3999H223.7C224.3 37.3999 224.8 37.8999 224.8 38.4999C224.8 39.1999 224.3 39.5999 223.7 39.5999Z" fill="white"/>
<path d="M296.7 53.5001V344.1C296.7 352.3 290.5 359 283 359H147.3C139.7 359 133.5 352.4 133.5 344.1V53.5001C133.5 36.8001 139.7 36.0001 147.3 36.0001H174.5C176.1 36.0001 177.4 37.8001 177.4 40.0001V41.0001C177.4 46.2001 180.3 46.2001 183.8 46.2001H246.6C250.1 46.2001 253 46.2001 253 41.0001V40.0001C253 37.8001 254.3 36.0001 255.9 36.0001H283C290.6 35.9001 296.7 38.2001 296.7 53.5001Z" fill="white"/>
<path d="M169.8 42.4999C169.7 42.5999 169.6 42.6999 169.5 42.7999L169.4 42.8999C168.7 42.1999 167.9 41.8999 166.9 41.8999C165.9 41.8999 165.1 42.2999 164.4 42.9999L164.3 42.8999C164.2 42.7999 164.1 42.6999 164 42.5999C164.1 42.4999 164.2 42.3999 164.3 42.2999C164.5 42.0999 164.8 41.8999 165.1 41.7999C165.4 41.5999 165.8 41.4999 166.1 41.4999C166.3 41.4999 166.4 41.4999 166.6 41.3999C166.7 41.3999 167 41.3999 167 41.3999C167.1 41.3999 167.2 41.3999 167.3 41.3999C167.6 41.3999 167.9 41.4999 168.2 41.5999C168.4 41.6999 168.6 41.7999 168.8 41.8999C169 41.9999 169.2 42.1999 169.4 42.2999C169.6 42.2999 169.7 42.3999 169.8 42.4999Z" fill="#FE9563"/>
<path d="M165.2 43.6999C165.1 43.5999 164.9 43.3999 164.8 43.2999C165.3 42.7999 165.8 42.4999 166.5 42.4999C167.5 42.3999 168.3 42.6999 169 43.2999C168.9 43.3999 168.7 43.5999 168.6 43.6999C168.1 43.1999 167.6 42.9999 166.9 42.9999C166.2 42.9999 165.6 43.1999 165.2 43.6999Z" fill="#FE9563"/>
<path d="M168.2 44.0997C168.1 44.1997 167.9 44.3997 167.8 44.4997C167.6 44.2997 167.3 44.0997 166.9 44.0997C166.6 44.0997 166.3 44.1997 166 44.4997C165.9 44.3997 165.7 44.1997 165.6 44.0997C166.2 43.3997 167.4 43.3997 168.2 44.0997Z" fill="#FE9563"/>
<path d="M167.2 44.9C167.2 45.1 167 45.3 166.8 45.3C166.6 45.3 166.4 45.1 166.4 44.9C166.4 44.7 166.6 44.5 166.8 44.5C167.1 44.5 167.2 44.7 167.2 44.9Z" fill="#FE9563"/>
<path d="M145.3 44.3997C145.908 44.3997 146.4 43.9072 146.4 43.2997C146.4 42.6922 145.908 42.1997 145.3 42.1997C144.693 42.1997 144.2 42.6922 144.2 43.2997C144.2 43.9072 144.693 44.3997 145.3 44.3997Z" fill="#FE9563"/>
<path d="M147.6 43.2997C147.6 42.6997 148.1 42.1997 148.7 42.1997C149.3 42.1997 149.8 42.6997 149.8 43.2997C149.8 43.8997 149.3 44.3997 148.7 44.3997C148.1 44.2997 147.6 43.8997 147.6 43.2997Z" fill="#FE9563"/>
<path d="M152.1 44.3997C152.708 44.3997 153.2 43.9072 153.2 43.2997C153.2 42.6922 152.708 42.1997 152.1 42.1997C151.492 42.1997 151 42.6922 151 43.2997C151 43.9072 151.492 44.3997 152.1 44.3997Z" fill="#FE9563"/>
<path d="M154.4 43.2997C154.4 42.6997 154.9 42.1997 155.5 42.1997C156.1 42.1997 156.6 42.6997 156.6 43.2997C156.6 43.8997 156.1 44.3997 155.5 44.3997C154.9 44.2997 154.4 43.8997 154.4 43.2997Z" fill="#FE9563"/>
<path d="M157.8 43.2997C157.8 42.6997 158.3 42.1997 158.9 42.1997C159.5 42.1997 160 42.6997 160 43.2997C160 43.8997 159.5 44.3997 158.9 44.3997C158.3 44.2997 157.8 43.8997 157.8 43.2997Z" fill="#FE9563"/>
<path d="M284.3 41.7998H275.9V45.3998H284.3V41.7998Z" fill="#FE9563" stroke="white" stroke-width="0.5" stroke-miterlimit="10"/>
<path d="M282.1 42.1997H276.4V44.8997H282.1V42.1997Z" fill="#FE9563"/>
<path d="M285.3 42.5H284.5V44.7H285.3V42.5Z" fill="#FE9563"/>
<path d="M249.3 350H181C180.1 350 179.5 350.7 179.5 351.5C179.5 352.4 180.2 353 181 353H249.3C250.2 353 250.8 352.3 250.8 351.5C250.8 350.6 250.1 350 249.3 350Z" fill="#A6A6A6"/>
<path d="M225.954 190.34C231.929 184.365 231.929 174.677 225.954 168.702C219.979 162.727 210.291 162.727 204.316 168.702C198.341 174.677 198.341 184.365 204.316 190.34C210.291 196.315 219.979 196.315 225.954 190.34Z" fill="#FE9563"/>
<path d="M210.9 171.8C210.1 171.8 209.4 172.5 209.4 173.3C209.4 174.1 210.1 174.8 210.9 174.8C211.7 174.8 212.4 174.1 212.4 173.3C212.4 172.5 211.7 171.8 210.9 171.8Z" fill="white"/>
<path d="M215.1 171.8C214.3 171.8 213.6 172.5 213.6 173.3C213.6 174.1 214.3 174.8 215.1 174.8C215.9 174.8 216.6 174.1 216.6 173.3C216.6 172.5 216 171.8 215.1 171.8Z" fill="white"/>
<path d="M219.4 174.7C220.2 174.7 220.9 174 220.9 173.2C220.9 172.4 220.2 171.7 219.4 171.7C218.6 171.7 217.9 172.4 217.9 173.2C217.9 174 218.6 174.7 219.4 174.7Z" fill="white"/>
<path d="M210.9 175.9C210.1 175.9 209.4 176.6 209.4 177.4C209.4 178.2 210.1 178.9 210.9 178.9C211.7 178.9 212.4 178.2 212.4 177.4C212.4 176.6 211.7 175.9 210.9 175.9Z" fill="white"/>
<path d="M215.1 175.9C214.3 175.9 213.6 176.6 213.6 177.4C213.6 178.2 214.3 178.9 215.1 178.9C215.9 178.9 216.6 178.2 216.6 177.4C216.6 176.6 216 175.9 215.1 175.9Z" fill="white"/>
<path d="M219.4 175.9C218.6 175.9 217.9 176.6 217.9 177.4C217.9 178.2 218.6 178.9 219.4 178.9C220.2 178.9 220.9 178.2 220.9 177.4C220.9 176.6 220.2 175.9 219.4 175.9Z" fill="white"/>
<path d="M210.9 180.1C210.1 180.1 209.4 180.8 209.4 181.6C209.4 182.4 210.1 183.1 210.9 183.1C211.7 183.1 212.4 182.4 212.4 181.6C212.4 180.7 211.7 180.1 210.9 180.1Z" fill="white"/>
<path d="M215.1 180.1C214.3 180.1 213.6 180.8 213.6 181.6C213.6 182.4 214.3 183.1 215.1 183.1C215.9 183.1 216.6 182.4 216.6 181.6C216.6 180.7 216 180.1 215.1 180.1Z" fill="white"/>
<path d="M219.4 180.1C218.6 180.1 217.9 180.8 217.9 181.6C217.9 182.4 218.6 183.1 219.4 183.1C220.2 183.1 220.9 182.4 220.9 181.6C220.9 180.7 220.2 180.1 219.4 180.1Z" fill="white"/>
<path d="M215.1 184.2C214.3 184.2 213.6 184.9 213.6 185.7C213.6 186.5 214.3 187.2 215.1 187.2C215.9 187.2 216.6 186.5 216.6 185.7C216.6 184.9 216 184.2 215.1 184.2Z" fill="white"/>
<path d="M258.5 239.4C266.95 239.4 273.8 232.55 273.8 224.1C273.8 215.65 266.95 208.8 258.5 208.8C250.05 208.8 243.2 215.65 243.2 224.1C243.2 232.55 250.05 239.4 258.5 239.4Z" fill="#FE9563"/>
<path d="M261.8 219.7C261.8 221.5 260.3 223 258.5 223C256.7 223 255.2 221.5 255.2 219.7C255.2 217.9 256.7 216.4 258.5 216.4C260.4 216.4 261.8 217.9 261.8 219.7Z" fill="white"/>
<path d="M264.2 228.801V230.201C263.3 230.801 262.2 231.201 261.1 231.501C258.2 232.201 255.2 231.701 252.8 230.201V228.801C252.8 225.701 255.3 223.101 258.5 223.101C261.7 223.101 264.2 225.701 264.2 228.801Z" fill="white"/>
<path d="M182.555 190.343C188.53 184.368 188.53 174.681 182.555 168.706C176.58 162.731 166.893 162.731 160.918 168.706C154.943 174.681 154.943 184.368 160.918 190.343C166.893 196.318 176.58 196.318 182.555 190.343Z" fill="#FE9563"/>
<path d="M171.8 188C171.6 188 171.5 187.8 171.5 187.7V183.6C171.5 183.4 171.7 183.3 171.8 183.3C172 183.3 172.1 183.5 172.1 183.6V187.7C172.1 187.9 172 188 171.8 188Z" fill="white"/>
<path d="M174 188H169.5C169.3 188 169.2 187.8 169.2 187.7C169.2 187.5 169.4 187.4 169.5 187.4H174C174.2 187.4 174.3 187.6 174.3 187.7C174.3 187.9 174.2 188 174 188Z" fill="white"/>
<path d="M174.6 173.8V179.7C174.6 181.3 173.3 182.6 171.7 182.6C170.6 182.6 169.6 181.9 169.1 181C168.9 180.6 168.8 180.2 168.8 179.7V173.8C168.8 172.2 170.1 170.9 171.7 170.9C172.5 170.9 173.2 171.2 173.7 171.7C174.2 172.2 174.5 172.9 174.5 173.6C174.6 173.7 174.6 173.7 174.6 173.8Z" fill="white"/>
<path d="M171.7 183.9C170.6 183.9 169.6 183.5 168.8 182.7C168 181.9 167.5 180.8 167.5 179.7V177.2C167.5 177 167.7 176.9 167.8 176.9C168 176.9 168.1 177.1 168.1 177.2V179.7C168.1 180.7 168.5 181.6 169.2 182.2C169.9 182.9 170.8 183.2 171.8 183.2C173.6 183.1 175.1 181.5 175.1 179.6V177.2C175.1 177 175.3 176.9 175.4 176.9C175.6 176.9 175.7 177.1 175.7 177.2V179.6C175.7 181.9 173.9 183.8 171.7 183.9C171.9 183.9 171.8 183.9 171.7 183.9Z" fill="white"/>
<path d="M215.1 239.4C223.55 239.4 230.4 232.55 230.4 224.1C230.4 215.65 223.55 208.8 215.1 208.8C206.65 208.8 199.8 215.65 199.8 224.1C199.8 232.55 206.65 239.4 215.1 239.4Z" fill="#FE9563"/>
<path d="M224.1 222.1V226C224.1 226.7 223.4 227.2 222.8 227L221.1 226.6L220.2 226.4V221.8L222.5 221.2L222.8 221.1C223.4 220.9 224.1 221.4 224.1 222.1Z" fill="white"/>
<path d="M219.2 221.3V226.9C219.2 228 218.3 228.9 217.2 228.9H210.5C209.4 228.9 208.5 228 208.5 226.9V221.3C208.5 220.2 209.4 219.3 210.5 219.3H217.2C218.3 219.3 219.2 220.2 219.2 221.3Z" fill="white"/>
<path d="M171.7 239.4C180.15 239.4 187 232.55 187 224.1C187 215.65 180.15 208.8 171.7 208.8C163.25 208.8 156.4 215.65 156.4 224.1C156.4 232.55 163.25 239.4 171.7 239.4Z" fill="#FE9563"/>
<path d="M177.6 223.2H172.7V218.3C172.7 217.8 172.3 217.4 171.8 217.4C171.3 217.4 170.9 217.8 170.9 218.3V223.2H166C165.5 223.2 165.1 223.6 165.1 224.1C165.1 224.6 165.5 225 166 225H170.9V229.9C170.9 230.4 171.3 230.8 171.8 230.8C172.3 230.8 172.7 230.4 172.7 229.9V225H177.6C178.1 225 178.5 224.6 178.5 224.1C178.5 223.6 178.1 223.2 177.6 223.2Z" fill="white"/>
<path d="M269.352 190.336C275.327 184.361 275.327 174.674 269.352 168.699C263.377 162.724 253.689 162.724 247.714 168.699C241.739 174.674 241.739 184.361 247.714 190.336C253.689 196.311 263.377 196.311 269.352 190.336Z" fill="#FE9563"/>
<path d="M266.1 178.8C266.1 178.4 266 178.1 266 177.7C265.9 177 265.6 176.2 265.3 175.6C265 175 264.7 174.5 264.3 174C264.1 173.8 263.9 173.5 263.7 173.3C263.5 173.5 263.3 173.7 263.2 173.8C263.1 173.9 263 174 262.9 174.1C264.3 175.6 265.1 177.3 265.1 179.4C265.1 181.5 264.3 183.2 262.9 184.7C263 184.8 263.1 184.9 263.2 185C263.4 185.2 263.6 185.4 263.7 185.5C263.9 185.3 264.1 185.1 264.2 184.9C264.5 184.5 264.8 184.1 265.1 183.6C265.3 183.2 265.6 182.7 265.7 182.3C265.9 181.7 266.1 181 266.2 180.3C266.2 180.1 266.2 179.8 266.3 179.6C266.1 179.7 266.1 178.9 266.1 178.8Z" fill="white"/>
<path d="M263.6 178.5C263.4 177.1 262.8 176 261.8 175C261.5 175.3 261.2 175.6 260.9 175.9C261.9 176.9 262.4 178.1 262.4 179.5C262.4 180.9 261.9 182.1 260.9 183C261.2 183.3 261.5 183.6 261.8 183.9C263.3 182.3 263.9 180.6 263.6 178.5Z" fill="white"/>
<path d="M260.1 176.7C259.8 177 259.5 177.3 259.2 177.6C259.7 178.1 260 178.7 260 179.4C260 180.1 259.7 180.7 259.2 181.2C259.5 181.5 259.8 181.8 260.1 182.1C261.7 180.6 261.6 178.1 260.1 176.7Z" fill="white"/>
<path d="M253.4 177H250.9V181.9H253.4V177Z" fill="white"/>
<path d="M253.5 177L258.2 175V183.9L253.5 181.9V177Z" fill="white"/>
<path d="M215.1 316.2C225.096 316.2 233.2 308.096 233.2 298.1C233.2 288.104 225.096 280 215.1 280C205.104 280 197 288.104 197 298.1C197 308.096 205.104 316.2 215.1 316.2Z" fill="#FE9563"/>
<path d="M225.4 298.2C225.3 297.9 225.2 297.6 225.1 297.3C225 297 224.8 296.8 224.6 296.5L223.9 295.8C223.6 295.6 223.4 295.4 223.1 295.2C222 294.5 220.8 294.1 219.5 293.8C216.5 293.2 213.5 293.2 210.6 293.8C209.3 294.1 208.1 294.5 207 295.2C206.7 295.4 206.5 295.6 206.2 295.8L205.5 296.5C205.4 296.7 205.3 296.8 205.2 297C205 297.4 204.8 297.7 204.8 298.2H204.9C206.8 298.2 208.7 298.2 210.6 298.2C210.7 298.2 210.7 298.1 210.8 298.1C211.2 297.4 211.7 297.1 212.5 297C214.2 296.9 215.9 296.9 217.6 297C218.4 297 218.9 297.4 219.3 298.1C219.4 298.2 219.4 298.2 219.5 298.2C221.4 298.2 223.3 298.2 225.1 298.2C225.3 298.2 225.3 298.2 225.4 298.2Z" fill="white"/>
<path d="M204.9 299.4V299.5C204.9 300.2 204.9 300.8 204.9 301.5C204.9 302 205.1 302.2 205.6 302.2C207 302.2 208.5 302.2 209.9 302.2C210.4 302.2 210.6 302 210.6 301.5C210.6 300.9 210.6 300.4 210.6 299.8C210.6 299.7 210.6 299.5 210.6 299.4C208.7 299.4 206.8 299.4 204.9 299.4Z" fill="white"/>
<path d="M225.4 299.3C223.5 299.3 221.6 299.3 219.7 299.3C219.7 300 219.7 300.7 219.6 301.5C219.6 301.9 219.9 302.2 220.3 302.2C221.8 302.2 223.2 302.2 224.7 302.2C225.2 302.2 225.4 302 225.4 301.5C225.4 300.8 225.4 300.2 225.4 299.5C225.4 299.4 225.4 299.4 225.4 299.3Z" fill="white"/>
<path d="M194.9 137.1C194.9 134.8 196.8 132.9 199.2 132.9C200.2 132.9 201.2 133.2 201.9 133.8C202.2 134 202.2 134.4 202 134.7C201.8 135 201.3 135 201.1 134.8C200.6 134.4 199.9 134.2 199.2 134.2C198.4 134.2 197.7 134.5 197.1 135C196.6 135.5 196.2 136.2 196.2 137C196.2 137.8 196.5 138.5 197.1 139C197.6 139.5 198.4 139.8 199.2 139.8C199.9 139.8 200.6 139.6 201.1 139.2C201.4 139 201.8 139 202 139.3C202.2 139.6 202.2 140 201.9 140.2C201.2 140.8 200.2 141.1 199.2 141.1C196.8 141.3 194.9 139.4 194.9 137.1Z" fill="#263238"/>
<path d="M205.4 140.6C205.4 141 205.1 141.2 204.7 141.2C204.4 141.2 204.2 141 204.1 140.7C204.1 140.7 204.1 140.6 204.1 140.5V133.6C204.1 133.2 204.4 133 204.7 133C205.1 133 205.4 133.3 205.4 133.6V135.6C205.8 135.4 206.2 135.3 206.6 135.3C208 135.3 209.1 136.5 209.1 137.9V140.5C209.1 140.9 208.8 141.1 208.5 141.1C208.1 141.1 207.9 140.8 207.9 140.5V138C207.9 137.3 207.3 136.8 206.6 136.7C205.9 136.7 205.4 137.3 205.4 138V140.6Z" fill="#263238"/>
<path d="M216.6 138.4V140.7C216.6 141 216.3 141.3 216 141.3C215.7 141.3 215.5 141.1 215.4 140.8C215 141.1 214.4 141.3 213.9 141.3C213.1 141.3 212.4 141 211.9 140.4C211.4 139.9 211.1 139.1 211.1 138.3C211.1 137.5 211.4 136.8 211.9 136.2C212.4 135.7 213.1 135.3 213.9 135.3C214.5 135.3 215 135.5 215.4 135.8C215.5 135.5 215.7 135.3 216 135.3C216.3 135.3 216.6 135.6 216.6 135.9V138.4ZM215.4 138.4C215.4 137.9 215.2 137.5 214.9 137.2C214.6 136.9 214.2 136.7 213.8 136.7C213.4 136.7 213 136.9 212.7 137.2C212.4 137.5 212.3 137.9 212.3 138.4C212.3 138.9 212.5 139.3 212.7 139.6C213 139.9 213.4 140.1 213.8 140.1C214.2 140.1 214.6 139.9 214.9 139.6C215.2 139.3 215.4 138.8 215.4 138.4Z" fill="#263238"/>
<path d="M222.5 136.1C222.5 136.4 222.2 136.7 221.9 136.7C221.6 136.7 221.4 136.8 221.2 136.9C221 137 220.8 137.2 220.7 137.5C220.4 137.9 220.3 138.3 220.2 138.5V140.7C220.2 141 219.9 141.3 219.6 141.3C219.3 141.3 219 141 219 140.7V136.1C219 135.8 219.3 135.5 219.6 135.5C219.9 135.5 220.2 135.8 220.2 136.1V136.2C220.3 136.1 220.4 136 220.4 136C220.8 135.7 221.3 135.5 221.9 135.5C222.2 135.4 222.5 135.7 222.5 136.1Z" fill="#263238"/>
<path d="M224.7 133.1C225.1 133.1 225.4 133.4 225.4 133.7V140.6C225.4 140.9 225.1 141.2 224.7 141.2C224.4 141.2 224.1 140.9 224.1 140.6V133.7C224.1 133.4 224.4 133.1 224.7 133.1Z" fill="#263238"/>
<path d="M228.2 134C228.2 134.3 227.9 134.6 227.6 134.6C227.3 134.6 227 134.3 227 134V133.8C227 133.5 227.3 133.2 227.6 133.2C228 133.2 228.2 133.5 228.2 133.8V134ZM228.2 136.1V140.6C228.2 140.9 227.9 141.2 227.6 141.2C227.3 141.2 227 140.9 227 140.6V136.1C227 135.7 227.3 135.5 227.6 135.5C227.9 135.4 228.2 135.7 228.2 136.1Z" fill="#263238"/>
<path d="M229.8 138.3C229.8 136.7 231 135.4 232.6 135.4C234.1 135.4 235.3 136.5 235.4 138.1C235.4 138.1 235.4 138.1 235.4 138.2V138.3C235.4 138.6 235.1 138.8 234.8 138.8H231.1C231.2 139.1 231.3 139.4 231.5 139.6C231.7 139.9 232.2 140.1 232.6 140.1C233 140.1 233.5 140 233.8 139.8C234 139.5 234.5 139.6 234.7 139.8C234.9 140 235 140.3 234.7 140.6C234.1 141.1 233.4 141.4 232.6 141.4C231 141.2 229.8 139.9 229.8 138.3ZM231.1 137.8H234.4C234.3 137.3 233.7 136.6 232.7 136.6C231.6 136.6 231.1 137.3 231.1 137.8Z" fill="#263238"/>
<path d="M200.6 76.4999C200.6 75.0999 201.8 73.8999 203.3 73.8999C203.9 73.8999 204.5 74.0999 205 74.4999C205.2 74.5999 205.2 74.8999 205.1 75.0999C205 75.2999 204.7 75.2999 204.5 75.1999C204.2 74.8999 203.8 74.7999 203.3 74.7999C202.8 74.7999 202.3 74.9999 202 75.2999C201.7 75.5999 201.5 76.0999 201.5 76.5999C201.5 77.0999 201.7 77.4999 202 77.8999C202.3 78.1999 202.8 78.3999 203.3 78.3999C203.7 78.3999 204.1 78.2999 204.5 77.9999C204.7 77.8999 204.9 77.8999 205.1 78.0999C205.2 78.2999 205.2 78.4999 205 78.6999C204.5 79.0999 204 79.2999 203.3 79.2999C201.8 79.0999 200.6 77.8999 200.6 76.4999Z" fill="#C7C7C7"/>
<path d="M209.4 77.3V78.7C209.4 78.9 209.2 79.1 209 79.1C208.8 79.1 208.7 79 208.6 78.8C208.3 79 208 79.1 207.6 79.1C207.1 79.1 206.7 78.9 206.4 78.6C206.1 78.3 205.9 77.8 205.9 77.3C205.9 76.8 206.1 76.4 206.4 76C206.7 75.7 207.1 75.5 207.6 75.5C208 75.5 208.3 75.6 208.6 75.8C208.6 75.6 208.8 75.5 209 75.5C209.2 75.5 209.4 75.7 209.4 75.9V77.3ZM208.6 77.3C208.6 77 208.5 76.7 208.3 76.6C208.1 76.4 207.9 76.3 207.6 76.3C207.3 76.3 207.1 76.4 206.9 76.6C206.7 76.8 206.6 77 206.6 77.3C206.6 77.6 206.7 77.9 206.9 78C207.1 78.2 207.3 78.3 207.6 78.3C207.9 78.3 208.1 78.2 208.3 78C208.5 77.8 208.6 77.6 208.6 77.3Z" fill="#C7C7C7"/>
<path d="M211.3 74C211.5 74 211.7 74.2 211.7 74.4V78.7C211.7 78.9 211.5 79.1 211.3 79.1C211.1 79.1 210.9 78.9 210.9 78.7V74.4C210.9 74.2 211.1 74 211.3 74Z" fill="#C7C7C7"/>
<path d="M213.2 74C213.4 74 213.6 74.2 213.6 74.4V78.7C213.6 78.9 213.4 79.1 213.2 79.1C213 79.1 212.8 78.9 212.8 78.7V74.4C212.8 74.2 212.9 74 213.2 74Z" fill="#C7C7C7"/>
<path d="M215.3 74.4999C215.3 74.6999 215.1 74.8999 214.9 74.8999C214.7 74.8999 214.5 74.6999 214.5 74.4999V74.2999C214.5 74.0999 214.7 73.8999 214.9 73.8999C215.1 73.8999 215.3 74.0999 215.3 74.2999V74.4999ZM215.3 75.7999V78.5999C215.3 78.7999 215.1 78.9999 214.9 78.9999C214.7 78.9999 214.5 78.7999 214.5 78.5999V75.7999C214.5 75.5999 214.7 75.3999 214.9 75.3999C215.1 75.3999 215.3 75.5999 215.3 75.7999Z" fill="#C7C7C7"/>
<path d="M219.6 76.8999V78.5999C219.6 78.7999 219.4 78.9999 219.2 78.9999C219 78.9999 218.8 78.7999 218.8 78.5999V76.8999C218.8 76.4999 218.5 76.1999 218 76.1999C217.6 76.1999 217.3 76.4999 217.3 76.8999V78.5999C217.3 78.5999 217.3 78.5999 217.3 78.6999C217.3 78.8999 217.1 78.9999 216.9 78.9999C216.7 78.9999 216.5 78.7999 216.5 78.5999V76.8999V75.7999C216.5 75.5999 216.7 75.3999 216.9 75.3999C217.1 75.3999 217.2 75.4999 217.3 75.5999C217.5 75.4999 217.8 75.3999 218.1 75.3999C218.9 75.3999 219.6 76.0999 219.6 76.8999Z" fill="#C7C7C7"/>
<path d="M224.2 77.2999V78.5999C224.2 79.4999 223.4 80.2999 222.5 80.2999C222.2 80.2999 222 80.1999 221.7 80.0999C221.5 79.9999 221.4 79.7999 221.5 79.5999C221.6 79.3999 221.8 79.2999 222 79.3999C222.1 79.4999 222.3 79.4999 222.4 79.4999C222.9 79.4999 223.3 79.1999 223.3 78.6999C223 78.8999 222.7 78.9999 222.4 78.9999C221.9 78.9999 221.5 78.7999 221.2 78.4999C220.9 78.1999 220.7 77.6999 220.7 77.1999C220.7 76.6999 220.9 76.2999 221.2 75.8999C221.5 75.5999 222 75.3999 222.4 75.3999C222.8 75.3999 223.1 75.4999 223.4 75.6999C223.4 75.4999 223.6 75.3999 223.8 75.3999C224 75.3999 224.2 75.5999 224.2 75.7999V77.2999V77.2999ZM223.4 77.2999C223.4 76.9999 223.3 76.6999 223.1 76.5999C222.9 76.3999 222.7 76.2999 222.4 76.2999C222.1 76.2999 221.9 76.3999 221.7 76.5999C221.5 76.7999 221.4 76.9999 221.4 77.2999C221.4 77.5999 221.5 77.8999 221.7 77.9999C221.9 78.1999 222.1 78.2999 222.4 78.2999C222.7 78.2999 222.9 78.1999 223.1 77.9999C223.3 77.7999 223.4 77.5999 223.4 77.2999Z" fill="#C7C7C7"/>
<path d="M226.2 78C226.5 78 226.7 78.2 226.7 78.5C226.7 78.8 226.5 79 226.2 79C225.9 79 225.7 78.8 225.7 78.5C225.7 78.3 225.9 78 226.2 78Z" fill="#C7C7C7"/>
<path d="M227.9 78C228.2 78 228.4 78.2 228.4 78.5C228.4 78.8 228.2 79 227.9 79C227.6 79 227.4 78.8 227.4 78.5C227.3 78.3 227.6 78 227.9 78Z" fill="#C7C7C7"/>
<path d="M229.5 78C229.8 78 230 78.2 230 78.5C230 78.8 229.8 79 229.5 79C229.2 79 229 78.8 229 78.5C229 78.3 229.2 78 229.5 78Z" fill="#C7C7C7"/>
<path d="M226.2 123.7C224.4 124.8 222.3 125.7 220.1 126.2C214.4 127.6 208.6 126.5 204 123.6C199.5 120.8 196 116.3 194.6 110.7C191.8 99.4001 198.8 87.9001 210.1 85.2001C221.4 82.4001 232.9 89.4001 235.6 100.7C237.9 109.8 233.8 119 226.2 123.7Z" fill="#FE9563"/>
<path d="M221.6 103.3C221.6 106.8 218.7 109.7 215.2 109.7C211.7 109.7 208.8 106.8 208.8 103.3C208.8 99.7999 211.7 96.8999 215.2 96.8999C218.7 96.8999 221.6 99.7999 221.6 103.3Z" fill="white"/>
<path d="M226.2 121V123.7C224.4 124.8 222.3 125.7 220.1 126.2C214.4 127.6 208.6 126.5 204 123.6V121C204 114.9 209 109.9 215.1 109.9C221.3 109.9 226.2 114.9 226.2 121Z" fill="white"/>
<path d="M401.6 384.1C401.6 384.1 367.1 400.4 321.9 400.4C273.9 400.4 250.6 384.7 250.6 384.7C215.5 357.1 211.9 316.3 236.9 291.6C252.1 276.6 263.1 279.7 281.4 277.3C281.4 277.3 281.4 277.3 281.5 277.3C287.9 276.5 294.1 275 300.1 271.8C319 261.8 329.6 238.4 345.5 218.6C347.5 216.1 349.5 213.7 351.7 211.4C364.8 197.5 390.7 197 404.3 216.6C438.8 266.4 437.8 340.5 401.6 384.1Z" fill="#999999"/>
<path opacity="0.1" d="M305.2 344C351.2 355.3 393.4 329.5 397.1 270.2C399.9 226.8 369 206.4 345.4 218.6C329.5 238.3 318.9 261.8 300 271.8C294.1 274.9 287.8 276.4 281.4 277.3C281.4 277.3 281.4 277.3 281.3 277.3C280.6 277.4 280 277.5 279.3 277.5C258.5 290.7 269.4 335.2 305.2 344Z" fill="black"/>
<path d="M263.4 422C265.7 421.6 320.7 392.6 322.1 390.2C322.6 389.3 318.9 381 314 371.2C313 369.1 311.9 366.9 310.7 364.7C303.5 350.3 295.4 335.2 295.4 335.2L258.5 354.5L274.8 383.5L278.4 389.9C278.4 389.9 262.3 410.4 261.1 413.3C259.9 416 261.1 422.4 263.4 422Z" fill="#F7A9A0"/>
<path d="M263.4 422C265.7 421.6 320.7 392.6 322.1 390.2C322.6 389.4 319.7 382.9 315.7 374.6C313.5 377.7 281.1 403.1 270.7 405.2C266.4 406.1 273.4 396.4 273.7 395.9C268.9 402.2 262 411.3 261.2 413.1C259.9 416 261.1 422.4 263.4 422Z" fill="#263238"/>
<path d="M273 396.7C273 396.7 277.9 392.8 286.7 396.8Z" fill="#263238"/>
<path d="M237 308.9C239.6 325.8 271.9 383.2 271.9 383.2L311.3 361.8L287.4 320.5C287.4 320.5 339.6 329.3 360 321.8C381.8 313.8 379.9 288.1 379.9 288.1L328.2 279.5C328.2 279.5 326.6 284.3 320.8 283.6C300.7 281.1 273.2 280.6 262.6 281.2C248.9 282.1 234.6 293.4 237 308.9Z" fill="#37474F"/>
<path d="M276.2 306C277.4 307.2 278.4 308.6 279.4 310C280.5 311.4 281.6 312.8 282.7 314.1C282.5 313.7 282.3 313.3 282.1 312.9C281.4 311.5 280.8 310.1 280 308.8C279.9 308.7 280.1 308.6 280.1 308.7C281 310 281.9 311.3 282.7 312.6C283 313.3 283.4 313.9 283.7 314.6C283.9 315 284 315.3 284.2 315.7C284.3 315.9 284.4 316.1 284.4 316.2C284.9 316.8 285.4 317.5 285.9 318.1C287 319.6 287.9 321.1 289 322.6C289.1 322.7 288.9 322.8 288.9 322.7C287.8 321.3 286.6 320.1 285.5 318.7C284.4 317.3 283.3 315.9 282.3 314.5C281.3 313.1 280.3 311.7 279.3 310.3C278.2 308.9 276.9 307.6 276.2 306C276.1 305.9 276.1 306 276.2 306Z" fill="#263238"/>
<path d="M269.9 374.1C270.9 373.4 272 372.7 273.1 372.1C274.2 371.4 275.2 370.8 276.3 370.2C278.5 368.9 280.7 367.6 282.9 366.3C287.3 363.7 291.8 361.2 296.3 358.7C298.8 357.3 301.3 355.9 303.9 354.6L304 354.7C299.7 357.4 295.4 360 291 362.6C286.6 365.2 282.2 367.8 277.7 370.3C276.5 371 275.2 371.7 273.9 372.3C272.6 373 271.3 373.7 270 374.3C269.9 374.2 269.8 374.1 269.9 374.1Z" fill="#263238"/>
<path d="M372.6 289.4C372.7 296.2 370.4 303 365.8 308C363.5 310.5 360.8 312.5 357.7 313.9C354.7 315.4 351.3 316 348 316.5C341.3 317.4 334.5 317.5 327.8 317.3C321 317.1 314.3 316.6 307.6 315.8C300.9 315 294.2 313.9 287.6 312.2C286 311.8 284.3 311.3 282.7 310.8C281.9 310.5 281.1 310.3 280.3 309.9C279.5 309.6 278.7 309.2 277.8 309.1C277.4 309 276.9 309 276.4 309.1C275.9 309.2 275.4 309.6 275.3 310.1C275.2 310.3 275.2 310.6 275.2 310.8C275.2 311.1 275.3 311.3 275.3 311.5C275.4 311.9 275.6 312.3 275.8 312.7C276.5 314.3 277.3 315.8 278.1 317.2C284.6 329.1 291.6 340.7 298.7 352.3C295.3 346.5 291.9 340.6 288.5 334.7C285.1 328.8 281.8 322.9 278.6 317C277.8 315.5 277 314 276.4 312.5C276.2 312.1 276.1 311.7 275.9 311.4C275.8 311.2 275.8 311 275.8 310.9C275.8 310.7 275.8 310.5 275.9 310.4C276.1 309.7 276.9 309.6 277.7 309.8C278.5 309.9 279.2 310.3 280 310.6C280.8 310.9 281.6 311.2 282.4 311.5C284 312 285.7 312.5 287.3 312.9C293.9 314.6 300.6 315.7 307.3 316.5C314 317.3 320.8 317.8 327.6 318C334.4 318.1 341.2 318 347.9 317C351.2 316.5 354.6 315.8 357.7 314.2C360.8 312.7 363.6 310.6 365.8 308.1C368.1 305.5 369.8 302.5 370.8 299.3C372.3 296.2 372.8 292.8 372.6 289.4Z" fill="#263238"/>
<path d="M312.8 428.1C314.9 427.3 362.7 387.4 363.6 384.7C363.9 383.7 358.5 376.4 351.8 367.8C350.3 365.9 348.8 364 347.3 362.1C337.2 349.5 326.2 336.4 326.2 336.4L294.2 363L316.2 388L321 393.5C321 393.5 309.5 416.9 308.9 420C308.2 422.9 310.7 428.9 312.8 428.1Z" fill="#F7A9A0"/>
<path d="M312.8 428.1C314.9 427.3 362.7 387.4 363.6 384.8C363.9 383.9 359.7 378.1 354.1 370.9C352.6 374.4 326.2 406 316.5 410.2C312.5 411.9 317.3 401 317.5 400.5C314.1 407.7 309.2 418 308.8 419.9C308.2 422.9 310.7 428.9 312.8 428.1Z" fill="#263238"/>
<path d="M317 401.3C317 401.3 320.9 396.5 330.4 398.6Z" fill="#263238"/>
<path d="M260.1 313.8C262.7 330.7 305.4 378.7 310.4 384.2C311.1 385 311.5 385.5 311.5 385.5L345.4 358.3L345 357.8L321.5 329.4C321.5 329.4 359 344.1 376.4 321.3C383.3 312.2 379.8 288.2 379.8 288.2L338.3 281.5C338.3 281.5 337.3 288.6 331.4 287.9C311.3 285.4 295.6 283.2 285 283.8C271.3 284.5 257.8 298.4 260.1 313.8Z" fill="#37474F"/>
<path d="M330.3 287.6C317.4 285.8 304.5 284.1 291.4 283.5C289.8 283.4 288.1 283.4 286.5 283.4C284.9 283.4 283.2 283.5 281.6 283.8C280.8 283.9 280 284.2 279.2 284.5C278.4 284.8 277.7 285.1 276.9 285.4C275.4 286.1 273.9 286.8 272.5 287.7C269.7 289.4 267.2 291.6 265.1 294.2C263 296.8 261.4 299.7 260.5 302.9C260 304.5 259.7 306.1 259.6 307.8C259.5 308.2 259.5 308.6 259.5 309C259.5 309.4 259.5 309.8 259.5 310.2C259.5 311 259.6 311.9 259.8 312.7C260.4 316 261.6 319 263 322C265.8 327.9 269.3 333.4 273.1 338.8C276.8 344.1 280.8 349.3 284.9 354.4C289 359.5 293.2 364.4 297.5 369.3C293.3 364.3 289.2 359.3 285.2 354.2C281.2 349.1 277.3 343.9 273.6 338.5C270 333.1 266.4 327.6 263.7 321.7C262.3 318.8 261.1 315.7 260.6 312.6C260.5 311.8 260.4 311 260.4 310.2C260.4 309.4 260.5 308.6 260.5 307.8C260.7 306.2 261 304.6 261.4 303.1C262.3 300 263.8 297.1 265.9 294.6C267.9 292.1 270.4 290 273.1 288.2C274.5 287.3 275.9 286.6 277.4 285.9C278.1 285.6 278.9 285.3 279.6 285C280.4 284.7 281.1 284.5 281.9 284.3C283.5 284 285.1 283.9 286.7 283.9C288.3 283.9 289.9 283.9 291.6 283.9C298.1 284.1 304.6 284.7 311.1 285.3C317.4 286.1 323.9 286.8 330.3 287.6Z" fill="#263238"/>
<path d="M308.9 312.6C310.1 313.8 311.1 315.2 312.1 316.6C313.2 318 314.3 319.4 315.4 320.7C315.2 320.3 315 319.9 314.8 319.5C314.1 318.1 313.5 316.7 312.7 315.4C312.6 315.3 312.8 315.2 312.8 315.3C313.7 316.6 314.6 317.9 315.4 319.2C315.7 319.9 316.1 320.5 316.4 321.2C316.6 321.6 316.7 321.9 316.9 322.3C317 322.5 317.1 322.7 317.1 322.8C317.6 323.4 318.1 324.1 318.6 324.7C319.7 326.2 320.6 327.7 321.7 329.2C321.8 329.3 321.6 329.4 321.6 329.3C320.5 327.9 319.3 326.7 318.2 325.3C317.1 323.9 316 322.5 315 321.1C314 319.7 313 318.3 312 316.9C310.9 315.6 309.7 314.2 308.9 312.6C308.9 312.6 308.8 312.6 308.9 312.6Z" fill="#263238"/>
<path d="M307.7 377.7C308.6 376.8 309.6 376 310.5 375.2C311.4 374.4 312.4 373.6 313.3 372.8C315.2 371.1 317.2 369.5 319.2 367.9C323.1 364.6 327.1 361.4 331.1 358.2C333.3 356.4 335.6 354.6 337.8 352.8C337.8 352.8 337.9 352.8 337.9 352.9C334.1 356.2 330.3 359.6 326.5 362.8C322.6 366.1 318.7 369.4 314.6 372.6C313.5 373.5 312.4 374.4 311.2 375.2C310.1 376.1 309 377 307.7 377.7C307.7 377.7 307.8 377.8 307.7 377.7Z" fill="#263238"/>
<path d="M374.1 290.1C374.7 293.8 374.8 297.5 374.4 301.2C374 304.9 373 308.6 371.3 311.8C369.6 315.1 367 317.9 363.8 319.7C360.6 321.6 356.9 322.4 353.2 322.6C349.5 322.9 345.8 322.6 342.1 322.2C338.4 321.7 334.8 321 331.1 320.2C323.9 318.5 316.7 316.3 309.8 313.6L309.5 313.5L309.4 313.7C308.9 314.6 308.6 315.5 308.5 316.5C308.4 317.5 308.4 318.5 308.5 319.4C308.7 320.4 309 321.3 309.4 322.2C309.9 323.1 310.4 323.9 310.9 324.7C313.1 327.8 315.6 330.7 318 333.7C320.4 336.6 322.9 339.5 325.4 342.4C327.9 345.3 330.4 348.1 333 350.9C330.5 348 328.1 345.1 325.6 342.2C323.2 339.3 320.7 336.4 318.3 333.4C315.9 330.4 313.5 327.5 311.4 324.4C310.9 323.6 310.3 322.8 309.9 322C309.5 321.2 309.2 320.3 309.1 319.4C308.8 317.6 309.1 315.6 309.9 314.1L309.5 314.2C316.5 316.9 323.6 319.2 330.9 320.9C334.5 321.7 338.2 322.4 342 322.9C345.7 323.3 349.5 323.6 353.2 323.3C356.9 323 360.7 322.2 364 320.2C367.3 318.3 369.9 315.4 371.6 312C373.3 308.6 374.2 304.9 374.5 301.2C374.9 297.6 374.8 293.8 374.1 290.1Z" fill="#263238"/>
<path d="M356.2 288.8C356.5 290.8 356.9 292.7 357.4 294.7C357.8 296.4 358.3 298.2 359.3 299.7C360.3 301.1 361.7 302.1 363.2 302.9C364.1 303.4 365 303.8 365.9 304.1C366.8 304.5 367.8 304.8 368.7 305.3C368.9 305.4 368.8 305.7 368.6 305.7C367.6 305.7 366.5 305.4 365.5 305.1C364.5 304.8 363.5 304.5 362.6 304.1C360.9 303.3 359.4 302.1 358.3 300.6C357.2 299 356.7 297.1 356.4 295.2C356 293.1 355.9 291 355.9 288.9C355.9 288.6 356.2 288.6 356.2 288.8Z" fill="#263238"/>
<path d="M353.1 182.9C353.1 182.9 362 178.9 369.2 184.2C376.4 189.5 379 201.5 376.9 211.1C374.8 220.7 382.2 227.8 382.5 235.1C382.8 242.4 377.7 245.4 375.8 249C373.6 253.2 379.7 269.3 360.7 271.3C337 273.9 329.3 258.8 332.7 247.2C334.3 241.5 337.9 237.6 338.3 232.9C338.6 228.2 335.6 224.2 337.8 218.4C340 212.6 342.2 213.6 344 204.3C345.8 195.1 344.7 183.8 353.1 182.9Z" fill="#263238"/>
<path d="M367.6 183.9C372.4 187.6 375.8 192.5 377.5 198.1C378.4 200.9 378.8 203.8 378.8 206.7C378.7 210.5 377.8 214 379 217.9C380.8 224 384.9 229.3 384.2 235.9C383.8 238.9 382.6 241.8 380.7 244.3C378.4 247.1 375.4 249.2 373.4 252.3C373.3 252.4 373.1 252.3 373.2 252.2C374.8 249.5 377.3 247.5 379.4 245.1C381.9 242.2 383.5 238.7 383.7 235C384 228.7 380 223.5 378.3 217.6C377.6 214.9 377.7 212.4 378 209.7C378.4 206.5 378.3 203.3 377.6 200.2C376.2 193.9 372.6 188.3 367.6 183.9C367.6 183.8 367.5 183.9 367.6 183.9Z" fill="#263238"/>
<path d="M333 245.6C333.8 242.8 335.5 240.4 336.3 237.7C337.3 234.4 336.7 231 336.3 227.6C335.8 222.8 336.2 218.4 338.7 214.1C340.3 211.3 342.1 208.8 343.4 205.9C344.7 202.7 345.6 199.3 346 195.9C346 195.8 346.1 195.8 346.1 195.9C345.7 201 344.4 205.7 341.8 210.1C340.3 212.6 338.5 215 337.6 217.8C336.4 221.2 336.5 224.5 336.8 228C337 230.3 337.3 232.7 337.1 235C336.9 237.4 335.9 239.5 334.9 241.7C332.2 247.4 331.7 253.4 333.5 259.5C333.5 259.6 333.3 259.7 333.3 259.6C331.8 255 331.6 250.2 333 245.6Z" fill="#263238"/>
<path d="M383.2 234.4C383.4 229.2 380.1 225.4 378.3 220.8C376.9 217.3 376.1 213.6 377 209.9C377 209.8 377.1 209.9 377.1 209.9C376.4 215.3 378.2 220.3 380.8 225.1C382.5 228.3 383.9 231.3 383.7 234.9C383.4 238.4 381.8 241.3 379.5 244.1C377.9 246.1 376.3 247.9 375.5 250.3C374.7 252.7 374.6 255.3 374.5 257.8C374.5 257.9 374.3 257.9 374.3 257.8C374.3 253.9 374.5 250.1 376.8 246.8C379.6 242.6 383 239.6 383.2 234.4Z" fill="#263238"/>
<path d="M332.4 241.9C333.3 240.2 334.5 238.7 335.8 237.1C338 234.4 338.5 232 338.2 228.5C338.2 228.4 338.3 228.4 338.3 228.5C339 231.4 339 233.8 337.1 236.3C334.5 239.8 331.9 242.9 331 247.2C329.5 254.9 333.3 262.4 340 266.9C340.1 267 340 267.1 339.9 267C334.2 263.6 330.5 257.9 330.1 251.6C330 248.3 330.8 244.9 332.4 241.9Z" fill="#263238"/>
<path d="M349.5 233.5C345.3 253.3 338.8 270 333.4 273.8C329 276.9 292.1 284.2 290.8 284.3C287.6 284.6 281.6 263.7 283.8 261.1C284.3 260.5 319.8 257.2 320.9 256C322.1 254.8 332.6 240.8 341 229.9C346.9 222.4 351.8 222.6 349.5 233.5Z" fill="#F7A9A0"/>
<path d="M297.1 282C296.7 282.2 291.2 284.9 287.7 285.8C285.1 286.5 277.7 288.5 276.6 285.7C275.9 283.8 280.1 282.2 283 280.9C284.6 280.2 286.5 278.6 286 277.6C285.2 275.8 281.2 277.6 278.5 279.1C273.4 282.1 266.6 287.4 263.5 284.8C262.3 283.8 263.7 282 265.7 280.3C262.4 282.3 259 284 257.6 283C256.8 282.4 256.8 281.6 257.2 280.7C256.2 281 255.3 281 254.7 280.3C253.6 279.2 254.2 277.6 255.3 275.9C254.9 275.9 254.6 275.7 254.3 275.3C252.1 271.9 263.3 262.1 267.1 261.2C278.5 258.5 290.6 259.5 290.6 259.5C295.4 263.1 297.1 282 297.1 282Z" fill="#F7A9A0"/>
<path d="M280.3 271.4C277.6 271.8 274.9 272.8 272.7 274.3C270 276.1 267.9 278.6 265.5 280.7C265.4 280.8 265.5 280.9 265.6 280.8C266.8 279.7 268 278.8 269.2 277.8C270.4 276.8 271.5 275.8 272.8 274.8C275 273.1 277.5 271.9 280.3 271.4C280.3 271.4 280.4 271.4 280.3 271.4Z" fill="#263238"/>
<path d="M278.2 266.5C275.2 267.3 272.1 268.1 269.3 269.6C266.3 271.2 263.9 273.7 261.5 276.1C260.1 277.6 258.7 279.1 257.4 280.6C257.3 280.7 257.4 280.8 257.5 280.7C259.9 278.2 262.3 275.7 264.9 273.4C267.3 271.2 269.9 269.5 273 268.3C274.7 267.6 276.4 267.1 278.2 266.5C278.2 266.5 278.2 266.6 278.2 266.5Z" fill="#263238"/>
<path d="M275 262.3C272.1 262.9 269.5 263.4 267 265C263.6 267.1 260.3 270.5 259.1 271.8C257.8 273.2 256.6 274.6 255.4 276C255.4 276.1 255.5 276.1 255.5 276.1C258.3 273 261.2 270 264.4 267.3C265.9 266 267.5 264.9 269.4 264.1C271.1 263.2 273.1 262.8 275 262.3Z" fill="#263238"/>
<path d="M290.2 258.8L297.2 285.3C297.2 285.3 326.1 279.4 334.1 273.7C342 268 348 242.7 350.1 231.7C352.2 220.7 344.7 224.1 340.2 229.8C335.7 235.5 320.8 254.8 320.3 255.2C319.9 255.7 290.2 258.8 290.2 258.8Z" fill="#FE9563"/>
<path d="M303.9 282.9C303.5 280.9 302.9 278.9 302.3 277C301.8 275.1 301.2 273.2 300.6 271.2C299.4 267.3 298.4 263.4 297 259.6C297 259.5 296.8 259.5 296.9 259.6C297.7 263.6 298.9 267.5 300 271.4C300.6 273.4 301.2 275.3 301.8 277.2C302.4 279.1 303 281 303.8 282.8C303.8 283 303.9 283 303.9 282.9Z" fill="#263238"/>
<path d="M350.1 231.7C348 242.7 342 268 334.1 273.7C330.1 276.6 320.9 279.5 312.7 281.7L346.6 224.8C349.4 223.8 351.4 225.3 350.1 231.7Z" fill="#FFAB83"/>
<path d="M382.7 293.1L352.5 288.7L330.6 285.5L324 284.5L329 266.6L331.1 259.2C331.1 259.2 327.5 253 329.2 247.6C331.2 241.5 347.5 225 348.7 224.2C353.7 221 359.2 220.8 364 227.4C366.1 230.2 368 234.5 369.8 239.5C370.8 242.1 371.7 244.9 372.6 247.9C378.6 267.9 382.7 293.1 382.7 293.1Z" fill="#FE9563"/>
<path d="M347.7 261.6C345.3 261.1 342.9 260.7 340.4 260.6C339.2 260.5 338 260.5 336.8 260.6C336.2 260.6 335.6 260.6 335 260.6C334.4 260.6 333.7 260.6 333.1 260.4C333 260.4 333 260.5 333.1 260.5C333.7 260.7 334.2 260.9 334.8 261C335.4 261.1 336 261.2 336.5 261.2C337.7 261.3 339 261.3 340.2 261.3C342.7 261.4 345.2 261.5 347.7 261.8C347.8 261.8 347.8 261.6 347.7 261.6Z" fill="#263238"/>
<path d="M352.9 265.4C351 264.6 349.1 263.9 347.2 263.3C346.2 263 345.2 262.8 344.3 262.6C343.8 262.5 343.4 262.4 342.9 262.3C342.4 262.2 341.8 262.2 341.3 262.1C341.2 262.1 341.2 262.2 341.3 262.2C341.8 262.3 342.3 262.5 342.7 262.6C343.2 262.7 343.7 262.9 344.2 263C345.2 263.3 346.1 263.6 347.1 263.8C349 264.3 351 264.9 352.9 265.5C352.9 265.6 353 265.4 352.9 265.4Z" fill="#263238"/>
<path d="M331 259.3C329.5 257.1 328.5 254.4 328.4 251.7C328.3 250.3 328.5 248.9 328.8 247.6C329.2 246.3 329.8 245.1 330.5 243.9C331.9 241.6 333.6 239.5 335.4 237.5C337.2 235.5 339.1 233.6 341.1 231.8C339.3 233.8 337.5 235.8 335.8 237.9C334.1 240 332.4 242.1 331.1 244.3C330.4 245.4 329.8 246.6 329.4 247.8C329 249 328.9 250.4 328.9 251.7C329 254.3 329.8 256.9 331 259.3Z" fill="#263238"/>
<path d="M339.7 232.3C339.5 232.9 339.2 233.4 338.9 233.9C338.6 234.4 338.2 234.9 337.8 235.4C338 234.8 338.3 234.3 338.6 233.8C339 233.3 339.3 232.8 339.7 232.3Z" fill="#263238"/>
<path d="M359.2 225.3C358.8 226.3 353.1 232.4 348.4 231.7C346.9 231.4 347.9 223 347.9 223L347.8 222.4L346.9 213.5L357.9 208.1L359.5 207.4C359.5 207.4 359.6 209.9 359.7 212.9C359.7 213 359.7 213.2 359.7 213.3C359.7 213.5 359.7 213.6 359.7 213.8C359.7 214.3 359.7 214.7 359.7 215.2C359.7 215.6 359.7 215.9 359.7 216.3C359.7 216.7 359.7 217 359.7 217.4C359.7 221.1 359.3 224.9 359.2 225.3Z" fill="#F7A9A0"/>
<path d="M359.6 212.9C356.3 219.5 350.4 221.7 347.8 222.4L346.9 213.5L357.9 208.1L359.5 207.4C359.5 207.4 359.5 209.8 359.6 212.9Z" fill="#263238"/>
<path d="M347.9 223L349.2 230.4L359.5 223.6L361.3 226.9C361.3 226.9 350.1 238.8 350.2 238.2L348.7 231.7L343.8 234.9L346.3 224.7L347.9 223Z" fill="white"/>
<path d="M344.6 229.8C345.1 228.1 345.5 226.4 346.1 224.8C346.1 224.7 346.2 224.7 346.2 224.8C346.2 226.5 344.3 232.9 344 234.4C344.2 234.3 348.5 231.6 348.6 231.7C349 232.8 350.1 237.5 350.2 237.9C352 236 359.4 228.6 361.4 226.9C361.5 226.9 361.5 226.9 361.5 227C359.9 229 350.2 238.8 350.1 238.8C350 238.8 348.6 233 348.5 232C347.7 232.6 343.3 235.7 343.3 235.4C343.6 233.6 344.2 231.5 344.6 229.8Z" fill="#263238"/>
<path d="M338.5 195.4C331.5 209.5 339.2 215.3 342.3 216.8C345.1 218.2 354.7 222.4 363.1 209.1C371.5 195.8 367.1 188 361 184.6C354.7 181.1 345.5 181.2 338.5 195.4Z" fill="#F7A9A0"/>
<path d="M341.7 193.9C342.1 194 342.4 194.1 342.8 194.1C343.2 194.2 343.5 194.3 343.9 194.1C344.1 194 344.3 193.7 344.2 193.5C344.1 193 343.6 192.8 343.1 192.6C342.6 192.5 342.1 192.5 341.6 192.7C341.1 193 341.2 193.8 341.7 193.9Z" fill="#263238"/>
<path d="M351.5 198.4C351.2 198.2 350.9 198 350.6 197.7C350.3 197.4 350 197.3 349.8 196.9C349.7 196.7 349.9 196.4 350.1 196.3C350.6 196.1 351.1 196.3 351.5 196.6C351.9 196.9 352.2 197.3 352.4 197.8C352.5 198.3 351.9 198.7 351.5 198.4Z" fill="#263238"/>
<path d="M347.6 200.9C347.6 200.9 347.7 201 347.6 201C347.1 201.9 346.7 203.1 347.4 203.9C347.4 203.9 347.4 204 347.4 203.9C346.4 203.3 347 201.7 347.6 200.9Z" fill="#263238"/>
<path d="M349 200.3C350.6 200.9 349.2 204.1 347.7 203.5C346.2 202.9 347.6 199.8 349 200.3Z" fill="#263238"/>
<path d="M349.5 200.8C349.7 201.1 349.8 201.5 350.1 201.7C350.5 201.9 350.9 201.7 351.3 201.5C351.3 201.5 351.4 201.5 351.3 201.6C351 202.2 350.5 202.7 349.8 202.5C349.2 202.3 349 201.6 349.1 200.9C349.2 200.8 349.4 200.6 349.5 200.8Z" fill="#263238"/>
<path d="M342.2 198.3C342.2 198.3 342.1 198.3 342.1 198.4C341.7 199.4 341.1 200.5 340 200.4C340 200.4 339.9 200.4 340 200.5C341.2 200.7 342 199.3 342.2 198.3Z" fill="#263238"/>
<path d="M341.8 196.8C340.3 196 338.8 199.1 340.2 199.9C341.6 200.6 343.1 197.5 341.8 196.8Z" fill="#263238"/>
<path d="M341.1 196.7C340.8 196.7 340.4 196.9 340.1 196.8C339.7 196.7 339.7 196.2 339.6 195.8C339.6 195.8 339.6 195.8 339.5 195.8C339.2 196.4 339.1 197.1 339.6 197.5C340.1 197.9 340.7 197.5 341.1 197C341.2 196.9 341.2 196.7 341.1 196.7Z" fill="#263238"/>
<path d="M344.1 209C343.8 209.1 343.4 209.4 343 209.3C342.6 209.2 342.3 208.9 342 208.6H341.9C342 209.1 342.5 209.5 343 209.6C343.5 209.7 343.9 209.4 344.1 209C344.2 209 344.2 209 344.1 209Z" fill="#263238"/>
<path d="M341.7 203.6C341.7 203.6 340.8 205 340.5 205.7C340.5 205.8 340.6 205.9 340.8 206C341.9 206.7 343.3 206.9 344.5 206.2C344.6 206.2 344.5 206 344.4 206.1C343.2 206.3 342.1 206.1 341 205.6C341 205.4 342.6 203.3 342.5 203.3C342.1 203.1 341.3 203 340.8 202.9C342.5 200 344.7 197.4 346.4 194.5C346.5 194.4 346.3 194.3 346.2 194.4C343.7 197 341.6 200.2 339.8 203.2C339.7 203.4 341.3 203.6 341.7 203.6Z" fill="#263238"/>
<path d="M362.2 208.3C359.3 207.8 360.5 201.2 360.5 201.2C360.5 201.2 349.2 195.7 351 185.7C351 185.7 347.2 191.3 340.1 192.2C340.1 192.2 343.6 181.7 352.6 182.1C352.6 182.1 364.2 181.4 367.6 191.4C371.1 201.5 364.1 208.6 362.2 208.3Z" fill="#263238"/>
<path d="M351.2 185C350.6 186.4 350.4 188 350.4 189.6C350.5 191.2 350.8 192.7 351.5 194.2C351.6 194.6 351.9 194.9 352.1 195.2L352.4 195.7C352.5 195.9 352.6 196 352.8 196.2C353 196.5 353.3 196.8 353.5 197.1C353.8 197.4 354.1 197.7 354.3 197.9C354.4 198 354.6 198.2 354.7 198.3L355.2 198.7L356.1 199.4C356.8 199.8 357.4 200.2 358.1 200.5C357.5 200 356.9 199.6 356.3 199.1L355.5 198.3L355 198C354.9 197.9 354.7 197.7 354.6 197.6C354.4 197.3 354.1 197 353.8 196.8C353.6 196.5 353.4 196.2 353.1 195.9L352.8 195.4L352.5 194.9C352.3 194.6 352.1 194.3 352 193.9C351.3 192.6 351 191.1 350.8 189.6C350.7 188.9 350.7 188.1 350.7 187.3C350.9 186.5 351 185.8 351.2 185Z" fill="#263238"/>
<path d="M360.1 213.6C359.8 213.6 359.6 213.6 359.4 213.5C359.1 213.4 358.9 213.4 358.7 213.2C358.4 213 358.1 212.8 358 212.6C357.8 212.4 357.7 212.2 357.6 212C357.4 211.4 357.4 211 357.4 211L359.7 207.4C359.7 207.4 364.7 204.1 366.3 206C367.9 207.9 362.9 213.6 360.1 213.6Z" fill="#F7A9A0"/>
<path d="M364.8 207.6C364.9 207.6 364.8 207.6 364.8 207.6C362.8 207.7 361.3 208.9 360 210.3C360.8 209.9 361.6 209.8 362.2 210.7C362.2 210.7 362.2 210.8 362.1 210.8C361.5 210.4 360.9 210.3 360.2 210.7C359.7 211 359.3 211.4 358.9 211.7C358.8 211.8 358.5 211.6 358.6 211.5C359.5 209.3 362.4 206.9 364.8 207.6Z" fill="#263238"/>
<path d="M360.2 212.9C360 213.2 359.5 213.3 359.2 213.1C358.9 212.9 358.8 212.4 359 212.1C359.2 211.8 359.7 211.7 360 211.9C360.3 212.1 360.4 212.5 360.2 212.9Z" fill="white"/>
<path d="M362 212.4C361.8 212.6 361.5 212.7 361.3 212.6C361.1 212.4 361 212.1 361.1 211.9C361.3 211.7 361.6 211.6 361.8 211.7C362.1 211.8 362.1 212.2 362 212.4Z" fill="white"/>
<path d="M341.4 253.7C341.4 253.7 349.9 238.2 354.8 230.2C359.7 222.2 364.3 223.7 364.7 232.9C365.1 242.2 367.8 254.1 359.1 269.4C336.6 309 341.4 253.7 341.4 253.7Z" fill="#DBDBDB"/>
<path d="M359.9 201.2L338.1 216.5C337.4 216.9 337.3 217.6 337.8 218.1L344.9 227.6C345.5 228.1 346.5 228.2 347.2 227.8L369 212.5C369.7 212.1 369.8 211.4 369.3 210.9L362.2 201.4C361.6 200.9 360.6 200.8 359.9 201.2Z" fill="#A6A6A6"/>
<path d="M360.6 202L338.8 217.3C338.1 217.7 338 218.4 338.5 218.9L345.6 228.4C346.2 228.9 347.2 229 347.9 228.6L369.7 213.3C370.4 212.9 370.5 212.2 370 211.7L362.9 202.2C362.3 201.7 361.3 201.6 360.6 202Z" fill="#BCD9E8"/>
<path d="M362.6 205.3C362.2 205.8 361.5 205.8 361 205.4C360.5 205 360.5 204.3 360.9 203.8C361.3 203.3 362 203.3 362.5 203.7C362.9 204.1 363 204.8 362.6 205.3Z" fill="#263238"/>
<path d="M335.8 277.2C335.9 285.5 347 286.7 350.8 282.9C359.7 274 367 255.3 370.2 244.4C371.2 240.9 348 232.7 346.3 236.2C344.3 240.3 335.7 261 335.8 277.2Z" fill="#F7A9A0"/>
<path d="M364.8 250.3C364.8 250.3 370.8 245.5 374.1 237.9C376.4 232.7 380.1 220.7 370.1 206.9C367.7 203.6 362 200.6 364 207.4C365.4 212.2 367.7 214.8 368 217.8C368 217.8 360.3 214.9 357.1 217.4C355.7 218.5 351.9 221.7 349.2 224.5C349.2 224.5 349.7 225.2 350.4 226.1C350.4 226.1 346.8 230.4 346.4 236.1L364.8 250.3Z" fill="#F7A9A0"/>
<path d="M375.5 232.6C374.6 229.7 372.6 223.7 369.2 219.4C365.5 214.6 357 206.3 353.4 209.1C350.8 211.1 353.8 214.6 353.8 214.6C353.8 214.6 349.6 211.9 347.6 214.3C345.8 216.5 348.3 219 348.3 219C348.3 219 345.5 217.8 344.2 220.2C342.6 223.1 348.9 225.1 349.8 229.4C350 230.3 375.5 232.6 375.5 232.6Z" fill="#F7A9A0"/>
<path d="M364.8 224.1C363.5 221.6 359.1 216.5 354 214.5C353.9 214.5 353.8 214.5 353.9 214.6C359 218.1 363.1 222.3 364.8 224.1C364.8 224.2 364.7 224.2 364.8 224.1Z" fill="#263238"/>
<path d="M359.8 227.8C358.5 225.7 353.7 220.7 348.4 218.8C348.3 218.8 348.2 218.8 348.3 218.9C353.8 222.3 358 226 359.8 227.8Z" fill="#263238"/>
<path d="M334.7 278.6C335.2 286.9 346.7 288.3 350.7 284.5C360 275.7 367.5 256.9 370.8 246L344.1 237.8C342 241.9 333.8 262.8 334.7 278.6Z" fill="#FE9563"/>
<path d="M345.4 238.1L344.1 237.7C342.5 241.9 341.2 246.1 339.9 250.3C338.6 254.5 337.5 258.8 336.5 263.2C335.6 267.5 334.7 271.9 334.8 276.3C334.9 278.5 335.3 280.7 336.4 282.5C337 283.4 337.7 284.2 338.6 284.7C339.5 285.2 340.5 285.6 341.6 285.8C343.7 286.2 345.9 286.1 347.9 285.3C349.9 284.5 351.7 283.1 353.2 281.6C356.2 278.4 358.4 274.5 360.4 270.6C362.4 266.6 364.1 262.5 365.8 258.5C367.5 254.4 369.3 250.3 370.6 246.1L369.8 245.8L370.7 246.1C370.1 248.3 369.4 250.3 368.6 252.4C367.8 254.5 367 256.6 366.2 258.6C364.5 262.7 362.9 266.8 360.9 270.9C359.9 272.9 358.9 274.9 357.7 276.8C356.5 278.7 355.2 280.5 353.7 282.2C352.2 283.8 350.3 285.3 348.2 286.1C346.1 287 343.7 287.1 341.4 286.7C340.3 286.5 339.2 286.1 338.2 285.5C337.2 284.9 336.4 284 335.7 283.1C334.5 281.1 334.1 278.8 334 276.5C333.9 274.2 334.2 272 334.5 269.8C334.8 267.6 335.3 265.4 335.8 263.2C337.8 254.5 340.6 246.1 343.9 237.8L345.4 238.1Z" fill="#263238"/>
<path d="M354.6 249C352.6 248.4 344.7 246.3 342.7 246C342.6 246 342.6 246.1 342.7 246.1C344.6 246.9 352.5 249.3 354.5 249.9C358.5 251 362.4 252.2 366.5 252.9C366.6 252.9 366.6 252.8 366.6 252.7C362.6 251.2 358.5 250.1 354.6 249Z" fill="#263238"/>
</g>
<defs>
<clipPath id="clip0_4_4049">
<rect width="430.3" height="428.2" fill="white"/>
</clipPath>
</defs>
</svg>
