<svg width="488" height="555" viewBox="0 0 488 555" fill="none" xmlns="http://www.w3.org/2000/svg">
<circle cx="244" cy="244" r="244" fill="url(#paint0_radial_4_5585)"/>
<g clip-path="url(#clip0_4_5585)">
<rect x="211" y="103" width="208.654" height="451.803" rx="10.0169" fill="white"/>
<path d="M211 507.849H419.653V534.556H211V507.849Z" fill="#455A64"/>
<rect x="211" y="507.849" width="208.653" height="0.556408" fill="#E8E6EA"/>
<path d="M389.607 520.09C390.682 520.09 391.554 519.218 391.554 518.142C391.554 517.067 390.682 516.195 389.607 516.195C388.531 516.195 387.659 517.067 387.659 518.142C387.659 519.218 388.531 520.09 389.607 520.09Z" fill="#ADAFBB" stroke="#ADAFBB" stroke-width="1.11282" stroke-linecap="round" stroke-linejoin="round"/>
<path d="M384.599 525.876V526.21H394.615V525.876C394.615 524.63 394.615 524.006 394.372 523.53C394.159 523.112 393.818 522.771 393.399 522.558C392.923 522.315 392.3 522.315 391.054 522.315H388.16C386.914 522.315 386.29 522.315 385.814 522.558C385.396 522.771 385.055 523.112 384.842 523.53C384.599 524.006 384.599 524.63 384.599 525.876Z" fill="#ADAFBB" stroke="#ADAFBB" stroke-width="1.11282" stroke-linecap="round" stroke-linejoin="round"/>
<path d="M345.651 521.203C345.651 524.275 343.16 526.767 340.087 526.767C338.425 526.767 334.522 526.767 334.522 526.767C334.522 526.767 334.522 522.614 334.522 521.203C334.522 518.13 337.014 515.638 340.087 515.638C343.16 515.638 345.651 518.13 345.651 521.203Z" fill="#ADAFBB" stroke="#ADAFBB" stroke-width="1.11282" stroke-linecap="round" stroke-linejoin="round"/>
<path d="M337.305 519.533H342.312Z" fill="#C4C4C4"/>
<path d="M337.305 519.533H342.312" stroke="white" stroke-width="1.11282" stroke-linecap="round" stroke-linejoin="round"/>
<path d="M337.305 521.759H342.312Z" fill="#C4C4C4"/>
<path d="M337.305 521.759H342.312" stroke="white" stroke-width="1.11282" stroke-linecap="round" stroke-linejoin="round"/>
<path d="M337.305 523.984H340.087Z" fill="#C4C4C4"/>
<path d="M337.305 523.984H340.087" stroke="white" stroke-width="1.11282" stroke-linecap="round" stroke-linejoin="round"/>
<path d="M288.062 516.751C286.372 516.751 285.002 518.121 285.002 519.811C285.002 522.872 288.619 525.654 290.566 526.301C292.514 525.654 296.13 522.872 296.13 519.811C296.13 518.121 294.76 516.751 293.07 516.751C292.035 516.751 291.12 517.265 290.566 518.051C290.012 517.265 289.097 516.751 288.062 516.751Z" fill="#ADAFBB" stroke="#ADAFBB" stroke-width="1.11282" stroke-linecap="round" stroke-linejoin="round"/>
<circle cx="295.018" cy="517.864" r="2.78204" fill="#EEB738" stroke="#F3F3F3" stroke-width="1.11282"/>
<g clip-path="url(#clip1_4_5585)">
<rect x="239.654" y="517.028" width="7.2333" height="10.0153" rx="1.11282" fill="#EEB738" stroke="#F3F3F3" stroke-width="0.556408"/>
<rect x="234.587" y="517.023" width="7.2333" height="10.0153" rx="1.11282" transform="rotate(-15 234.587 517.023)" fill="#EEB738" stroke="#F3F3F3" stroke-width="0.556408"/>
</g>
<rect x="224.354" y="507.849" width="33.3845" height="1.11282" fill="#EEB738"/>
<rect x="211" y="534.978" width="208.685" height="19.8251" fill="#455A64"/>
<rect x="368.399" y="132.494" width="28.3768" height="28.3768" rx="8.06791" fill="white" stroke="#FE9868" stroke-width="0.556408"/>
<path fill-rule="evenodd" clip-rule="evenodd" d="M383.561 141.118C383.868 141.118 384.118 141.367 384.118 141.675V143.9C384.118 144.207 383.868 144.457 383.561 144.457C383.254 144.457 383.005 144.207 383.005 143.9V143.344H377.441C377.133 143.344 376.884 143.095 376.884 142.787C376.884 142.48 377.133 142.231 377.441 142.231H383.005V141.675C383.005 141.367 383.254 141.118 383.561 141.118ZM385.23 142.787C385.23 142.48 385.48 142.231 385.787 142.231H387.456C387.763 142.231 388.012 142.48 388.012 142.787C388.012 143.095 387.763 143.344 387.456 143.344H385.787C385.48 143.344 385.23 143.095 385.23 142.787ZM381.892 145.013C382.199 145.013 382.448 145.262 382.448 145.569V146.126H388.012C388.32 146.126 388.569 146.375 388.569 146.682C388.569 146.99 388.32 147.239 388.012 147.239H382.448V147.795C382.448 148.102 382.199 148.351 381.892 148.351C381.585 148.351 381.336 148.102 381.336 147.795V145.569C381.336 145.262 381.585 145.013 381.892 145.013ZM376.884 146.682C376.884 146.375 377.133 146.126 377.441 146.126H379.666C379.974 146.126 380.223 146.375 380.223 146.682C380.223 146.99 379.974 147.239 379.666 147.239H377.441C377.133 147.239 376.884 146.99 376.884 146.682ZM383.561 148.908C383.868 148.908 384.118 149.157 384.118 149.464V151.69C384.118 151.997 383.868 152.246 383.561 152.246C383.254 152.246 383.005 151.997 383.005 151.69V151.134H377.441C377.133 151.134 376.884 150.884 376.884 150.577C376.884 150.27 377.133 150.021 377.441 150.021H383.005V149.464C383.005 149.157 383.254 148.908 383.561 148.908ZM385.23 150.577C385.23 150.27 385.48 150.021 385.787 150.021H387.456C387.763 150.021 388.012 150.27 388.012 150.577C388.012 150.884 387.763 151.134 387.456 151.134H385.787C385.48 151.134 385.23 150.884 385.23 150.577Z" fill="#FE9868"/>
<rect x="233.191" y="132.494" width="28.3768" height="28.3768" rx="8.06791" fill="white" stroke="#FE9868" stroke-width="0.556408"/>
<path fill-rule="evenodd" clip-rule="evenodd" d="M249.164 150.414C248.947 150.631 248.594 150.631 248.377 150.414L245.039 147.076C244.821 146.858 244.821 146.506 245.039 146.289L248.377 142.95C248.594 142.733 248.947 142.733 249.164 142.95C249.381 143.168 249.381 143.52 249.164 143.737L246.219 146.682L249.164 149.627C249.381 149.845 249.381 150.197 249.164 150.414Z" fill="#FE9868"/>
<path d="M379.028 229.053L361.482 241.312C357.163 244.325 351.264 243.063 348.41 238.502C345.557 233.94 346.752 227.709 351.071 224.695L368.616 212.437C372.935 209.423 378.835 210.686 381.688 215.247C384.542 219.808 383.346 226.039 379.028 229.053Z" fill="#FACEA7"/>
<path d="M351.15 311.035C355.045 351.761 330.635 361.372 308.424 362.065C274.953 363.124 254.4 298.98 263.192 289.735C265.159 287.658 268.36 288.554 276.573 284.481C282.936 281.305 286.984 277.802 288.681 276.418C295.352 271.042 321.882 253.285 337.499 261.186C351.536 268.272 349.53 294.256 351.15 311.035Z" fill="#FACEA7"/>
<path d="M338.809 306.596C335.686 325.982 321.302 349.643 302.33 350.254C273.757 351.15 256.211 296.252 263.692 288.391C265.35 286.64 268.088 287.414 275.106 283.871C280.543 281.142 283.975 278.169 285.479 276.988C291.186 272.386 313.821 257.195 327.164 263.956C339.156 269.983 341.123 292.383 338.809 306.596Z" fill="#F8BE91"/>
<path d="M271.984 351.761C265.699 351.761 254.863 347.77 254.863 335.063V268.272C254.863 261.715 259.992 256.34 266.277 256.34C272.562 256.34 277.691 261.715 277.691 268.272V335.063C277.691 341.62 271.984 351.761 271.984 351.761Z" fill="#FACEA7"/>
<path d="M277.689 358.807C286.697 358.807 294 349.015 294 336.937C294 324.858 286.697 315.067 277.689 315.067C268.68 315.067 261.377 324.858 261.377 336.937C261.377 349.015 268.68 358.807 277.689 358.807Z" fill="#FACEA7"/>
<path d="M343.976 351.761H265.041V378.518H343.976V351.761Z" fill="#FE9868"/>
<path d="M343.976 374.568H265.041V375.952H343.976V374.568Z" fill="#ECECEC"/>
<path d="M267.434 335.063V268.272C267.434 264.118 269.478 260.494 272.562 258.335C270.75 257.073 268.591 256.34 266.277 256.34C259.992 256.34 254.863 261.715 254.863 268.272V335.063C254.863 347.77 265.699 351.761 271.984 351.761C271.984 351.761 272.755 350.376 273.758 348.258C270.21 345.693 267.434 341.498 267.434 335.063Z" fill="#F8BE91"/>
<path d="M343.976 354.938H265.041V356.323H343.976V354.938Z" fill="#ECECEC"/>
<path d="M256.559 280.572H254.824V279.798H256.559C261.264 279.798 265.12 275.725 265.12 270.757V264.689H254.824V263.915H265.852V270.798C265.891 276.173 261.688 280.572 256.559 280.572Z" fill="#FCDBBF"/>
<path d="M356.546 346.547L280.002 346.507C277.689 346.507 275.799 344.511 275.799 342.067L275.876 186.738C275.876 184.294 277.766 182.299 280.08 182.299L356.623 182.34C358.937 182.34 360.826 184.335 360.826 186.779L360.749 342.108C360.749 344.552 358.86 346.547 356.546 346.547Z" fill="#455A64"/>
<path d="M354.464 325.941L282.085 325.9C281.816 325.9 281.584 325.656 281.584 325.371L281.661 194.029C281.661 193.744 281.893 193.5 282.163 193.5L354.542 193.54C354.812 193.54 355.043 193.785 355.043 194.07L354.966 325.411C355.004 325.697 354.773 325.941 354.464 325.941Z" fill="white"/>
<path d="M329.556 189.304H305.031C304.26 189.304 303.643 188.652 303.643 187.838C303.643 187.023 304.26 186.372 305.031 186.372H329.556C330.327 186.372 330.944 187.023 330.944 187.838C330.982 188.652 330.327 189.345 329.556 189.304Z" fill="#FE9868"/>
<path d="M333.604 189.345C332.833 189.345 332.216 188.693 332.216 187.879C332.216 187.064 332.833 186.413 333.604 186.413C334.375 186.413 334.992 187.064 334.992 187.879C334.992 188.653 334.375 189.345 333.604 189.345Z" fill="#FE9868"/>
<path d="M367.614 287.414L362.139 291.242C357.82 294.256 351.92 292.993 349.067 288.432C346.213 283.871 347.408 277.639 351.727 274.626L357.203 270.797C361.522 267.784 367.422 269.046 370.275 273.608C373.129 278.21 371.933 284.4 367.614 287.414Z" fill="#FACEA7"/>
<path d="M370.275 273.607C370.198 273.485 370.121 273.404 370.044 273.281C372.165 277.028 371.123 281.956 367.653 284.4L359.478 290.101C356.008 292.545 351.303 291.608 348.835 288.106C348.912 288.228 348.951 288.35 349.028 288.432C351.882 292.993 357.781 294.255 362.1 291.242L367.576 287.413C371.933 284.4 373.129 278.209 370.275 273.607Z" fill="#F8BE91"/>
<path d="M358.09 289.165C357.936 289.165 357.82 289.165 357.666 289.124C356.895 289.002 356.201 288.554 355.738 287.902L351.458 281.59C350.571 280.287 350.802 278.454 351.998 277.436L354.736 275.155C356.008 274.096 357.589 273.648 359.209 273.893C360.905 274.137 362.448 275.155 363.489 276.703C365.61 279.798 365.108 284.156 362.409 286.395L359.826 288.554C359.363 288.92 358.746 289.165 358.09 289.165ZM356.355 287.454C356.702 287.943 357.203 288.269 357.782 288.391C358.36 288.472 358.939 288.31 359.401 287.943L361.985 285.785C364.376 283.789 364.8 279.92 362.949 277.151C362.024 275.766 360.674 274.87 359.17 274.666C357.782 274.463 356.355 274.87 355.275 275.766L352.538 278.047C351.651 278.78 351.458 280.164 352.113 281.142L356.355 287.454Z" fill="#FCDBBF"/>
<path d="M369.504 306.351L364.144 309.121C359.941 311.279 354.812 309.447 352.768 305.007C350.725 300.568 352.46 295.152 356.663 292.993L362.023 290.224C366.226 288.065 371.355 289.898 373.399 294.337C375.481 298.776 373.746 304.193 369.504 306.351Z" fill="#FACEA7"/>
<path d="M373.437 294.337C373.398 294.215 373.321 294.134 373.283 294.011C374.748 297.636 373.283 301.912 369.889 303.664L361.946 307.736C358.552 309.487 354.465 308.062 352.652 304.6C352.691 304.722 352.73 304.804 352.768 304.926C354.812 309.365 359.94 311.239 364.144 309.039L369.504 306.27C373.745 304.193 375.481 298.776 373.437 294.337Z" fill="#F8BE91"/>
<path d="M361.175 306.799C360.943 306.799 360.712 306.759 360.481 306.677C359.787 306.474 359.208 305.985 358.861 305.293L355.738 299.102C355.082 297.799 355.506 296.17 356.702 295.396L359.401 293.686C360.673 292.871 362.139 292.668 363.566 293.115C365.069 293.563 366.342 294.663 367.113 296.17C368.656 299.224 367.73 303.093 365.031 304.763L362.486 306.351C362.1 306.677 361.638 306.799 361.175 306.799ZM362.139 293.726C361.329 293.726 360.519 293.971 359.787 294.419L357.087 296.129C356.2 296.659 355.892 297.84 356.393 298.776L359.517 304.967C359.748 305.456 360.172 305.822 360.673 305.944C361.175 306.107 361.715 306.026 362.139 305.741L364.684 304.152C367.036 302.686 367.846 299.265 366.496 296.577C365.802 295.233 364.722 294.297 363.411 293.889C362.949 293.767 362.524 293.726 362.139 293.726Z" fill="#FCDBBF"/>
<path d="M345.905 325.9H289.799V301.301C289.799 290.102 298.398 280.979 309.041 280.979H326.663C337.267 280.979 345.905 290.061 345.905 301.301V325.9V325.9Z" fill="#FE9868"/>
<path d="M365.301 266.969L359.132 270.757C354.273 273.77 347.64 272.508 344.44 267.987C341.201 263.467 342.55 257.317 347.409 254.344L353.579 250.556C358.438 247.543 365.07 248.805 368.271 253.326C371.51 257.846 370.16 263.996 365.301 266.969Z" fill="#FACEA7"/>
<path d="M368.269 253.326C368.192 253.204 368.115 253.122 367.999 253C370.39 256.706 369.233 261.593 365.3 263.996L356.122 269.657C352.189 272.06 346.906 271.164 344.168 267.662C344.246 267.784 344.323 267.906 344.4 267.987C347.639 272.508 354.233 273.771 359.091 270.757L365.261 266.969C370.158 263.996 371.508 257.847 368.269 253.326Z" fill="#F8BE91"/>
<path d="M353.269 268.639C353.115 268.639 352.999 268.639 352.845 268.598C352.074 268.476 351.38 268.028 350.917 267.377L346.637 261.064C345.75 259.761 345.981 257.928 347.177 256.91L349.915 254.629C351.187 253.571 352.768 253.123 354.388 253.367C356.084 253.611 357.627 254.629 358.668 256.177C360.75 259.272 360.287 263.63 357.588 265.87L355.005 268.028C354.542 268.436 353.925 268.639 353.269 268.639ZM351.534 266.929C351.881 267.417 352.382 267.743 352.961 267.865C353.539 267.947 354.118 267.784 354.58 267.417L357.164 265.259C359.555 263.263 359.979 259.394 358.128 256.625C357.203 255.24 355.853 254.344 354.31 254.141C352.922 253.937 351.534 254.344 350.416 255.24L347.678 257.521C346.791 258.254 346.598 259.639 347.254 260.616L351.534 266.929Z" fill="#FCDBBF"/>
<path d="M317.832 343.534C321.729 343.534 324.889 340.198 324.889 336.082C324.889 331.965 321.729 328.629 317.832 328.629C313.935 328.629 310.775 331.965 310.775 336.082C310.775 340.198 313.935 343.534 317.832 343.534Z" fill="#FE9868"/>
<path d="M327.472 282.852L326.623 260.616L310.042 260.127L309.039 286.192C308.924 289.043 311.276 288.513 313.975 288.391L323.114 287.902C325.659 287.74 327.587 285.5 327.472 282.852Z" fill="#FACBB6"/>
<path d="M310.66 265.259L327.203 275.522L326.624 260.616L310.66 265.259Z" fill="#F6B7A0"/>
<path d="M346.407 244.773C346.407 248.398 343.631 251.33 340.199 251.33C336.767 251.33 333.99 248.398 333.99 244.773C333.99 241.149 336.767 238.217 340.199 238.217C343.631 238.217 346.407 241.149 346.407 244.773Z" fill="#FACBB6"/>
<path d="M297.356 251.331C300.785 251.331 303.564 248.395 303.564 244.774C303.564 241.152 300.785 238.217 297.356 238.217C293.927 238.217 291.148 241.152 291.148 244.774C291.148 248.395 293.927 251.331 297.356 251.331Z" fill="#FACBB6"/>
<path d="M338.076 233.045C338.076 241.394 336.919 248.602 335.801 253.734C334.683 258.743 331.521 262.245 327.086 265.056L326.277 265.544C321.534 268.558 315.518 268.639 310.698 265.748C305.878 262.856 302.523 259.028 301.482 253.652C299.592 243.878 299.4 233.045 299.4 233.045C299.4 233.045 297.587 211.949 318.449 212.356C339.31 212.804 338.076 233.045 338.076 233.045Z" fill="#FACBB6"/>
<path d="M300.519 241.638C300.519 241.638 304.915 226.651 301.714 216.958C301.753 216.958 289.452 220.664 300.519 241.638Z" fill="#01384F"/>
<path d="M337.306 241.638C337.306 241.638 331.753 226.651 334.954 216.958C334.915 216.958 346.406 219.931 337.306 241.638Z" fill="#01384F"/>
<path d="M302.639 223.678C302.639 223.678 306.148 216.958 312.472 220.664C318.796 224.37 325.042 227.913 336.341 224.981L334.837 216.917C334.837 216.917 319.143 199.283 301.636 216.917L302.639 223.678Z" fill="#01384F"/>
<path d="M301.636 216.917C301.636 216.917 302.639 204.699 318.988 203.64C335.338 202.581 340.158 211.785 340.158 211.785L337.189 212.356C337.189 212.356 342.896 214.962 344.4 217.487L341.199 218.668L345.441 222.659C345.441 222.659 332.099 228.117 324.734 225.184L318.603 215.41L301.636 216.917Z" fill="#01384F"/>
<path d="M311.855 280.694L304.953 280.817C304.953 280.817 304.22 290.061 317.678 290.509C331.136 290.957 331.367 281.387 331.367 281.387L324.079 280.694H311.855V280.694Z" fill="#FACBB6"/>
<path d="M342.357 269.25H292.536V216.673H342.357V269.25V269.25ZM293.192 268.599H341.701V217.324H293.192V268.599Z" fill="#455A64"/>
<mask id="mask0_4_5585" style="mask-type:alpha" maskUnits="userSpaceOnUse" x="292" y="233" width="51" height="24">
<path d="M342.165 233.533H292.768V256.055H342.165V233.533Z" fill="url(#paint1_linear_4_5585)"/>
</mask>
<g mask="url(#mask0_4_5585)">
<path d="M342.163 233.533H292.767V256.055H342.163V233.533Z" fill="#455A64"/>
</g>
<rect x="242.303" y="455.677" width="138.519" height="32.2249" rx="8.3474" fill="#FE9868"/>
<rect x="270.476" y="547.499" width="88.6911" height="3.13028" rx="1.56514" fill="#0C0C0C"/>
<path d="M284.988 468.231H286.725C287.478 468.231 288.046 468.341 288.43 468.559C288.813 468.777 289.004 469.154 289.004 469.689C289.004 469.912 288.964 470.115 288.885 470.296C288.807 470.474 288.694 470.622 288.545 470.739C288.396 470.853 288.213 470.93 287.994 470.97V471.01C288.221 471.05 288.422 471.121 288.597 471.222C288.776 471.323 288.915 471.468 289.016 471.657C289.12 471.846 289.172 472.091 289.172 472.392C289.172 472.748 289.087 473.052 288.917 473.302C288.749 473.552 288.508 473.742 288.194 473.873C287.883 474.003 287.513 474.068 287.084 474.068H284.988V468.231ZM285.946 470.639H286.864C287.298 470.639 287.599 470.568 287.767 470.427C287.934 470.286 288.018 470.08 288.018 469.808C288.018 469.532 287.918 469.332 287.719 469.21C287.522 469.087 287.208 469.026 286.777 469.026H285.946V470.639ZM285.946 471.413V473.266H286.956C287.403 473.266 287.718 473.179 287.899 473.006C288.08 472.833 288.17 472.599 288.17 472.304C288.17 472.123 288.129 471.966 288.046 471.833C287.966 471.7 287.835 471.597 287.651 471.525C287.467 471.451 287.22 471.413 286.908 471.413H285.946ZM296.596 468.231V472.008C296.596 472.415 296.51 472.78 296.337 473.102C296.167 473.424 295.908 473.68 295.562 473.869C295.216 474.055 294.781 474.148 294.257 474.148C293.509 474.148 292.939 473.953 292.548 473.561C292.16 473.167 291.965 472.644 291.965 471.992V468.231H292.923V471.908C292.923 472.396 293.038 472.755 293.267 472.986C293.496 473.218 293.838 473.334 294.293 473.334C294.607 473.334 294.862 473.279 295.059 473.17C295.259 473.058 295.405 472.896 295.498 472.683C295.594 472.467 295.642 472.208 295.642 471.904V468.231H296.596ZM301.378 470.894L302.763 468.231H303.797L301.857 471.801V474.068H300.903V471.837L298.958 468.231H300L301.378 470.894ZM314.829 474.068H313.651L310.793 469.409H310.757C310.767 469.566 310.777 469.733 310.785 469.908C310.795 470.084 310.803 470.265 310.809 470.451C310.817 470.638 310.823 470.827 310.829 471.018V474.068H309.958V468.231H311.128L313.983 472.859H314.011C314.005 472.723 313.999 472.567 313.991 472.392C313.983 472.216 313.975 472.035 313.967 471.849C313.961 471.66 313.957 471.477 313.955 471.302V468.231H314.829V474.068ZM323.18 471.142C323.18 471.592 323.122 472.002 323.008 472.372C322.896 472.739 322.727 473.056 322.501 473.322C322.275 473.585 321.991 473.789 321.65 473.933C321.31 474.076 320.911 474.148 320.453 474.148C319.987 474.148 319.582 474.076 319.239 473.933C318.898 473.789 318.615 473.584 318.389 473.318C318.165 473.052 317.997 472.734 317.886 472.364C317.774 471.994 317.718 471.584 317.718 471.134C317.718 470.532 317.816 470.008 318.013 469.561C318.213 469.111 318.515 468.762 318.92 468.515C319.327 468.265 319.841 468.14 320.461 468.14C321.068 468.14 321.572 468.263 321.974 468.511C322.376 468.758 322.676 469.107 322.876 469.557C323.078 470.004 323.18 470.532 323.18 471.142ZM318.724 471.142C318.724 471.592 318.785 471.982 318.908 472.312C319.03 472.639 319.218 472.892 319.471 473.07C319.726 473.246 320.053 473.334 320.453 473.334C320.855 473.334 321.182 473.246 321.435 473.07C321.688 472.892 321.874 472.639 321.994 472.312C322.114 471.982 322.173 471.592 322.173 471.142C322.173 470.458 322.036 469.923 321.762 469.537C321.491 469.148 321.057 468.954 320.461 468.954C320.061 468.954 319.733 469.042 319.475 469.218C319.219 469.393 319.03 469.645 318.908 469.972C318.785 470.297 318.724 470.687 318.724 471.142ZM332.971 468.231L331.446 474.068H330.4L329.426 470.571C329.402 470.486 329.376 470.385 329.346 470.268C329.317 470.15 329.288 470.031 329.258 469.908C329.232 469.786 329.208 469.674 329.187 469.573C329.168 469.469 329.155 469.389 329.147 469.333C329.141 469.389 329.129 469.468 329.111 469.569C329.092 469.67 329.069 469.782 329.043 469.904C329.019 470.024 328.992 470.144 328.963 470.264C328.934 470.381 328.907 470.484 328.883 470.575L327.925 474.068H326.883L325.362 468.231H326.324L327.166 471.653C327.193 471.762 327.22 471.881 327.246 472.008C327.275 472.133 327.302 472.26 327.326 472.388C327.353 472.515 327.377 472.64 327.398 472.763C327.419 472.883 327.437 472.992 327.45 473.09C327.463 472.989 327.48 472.877 327.502 472.755C327.523 472.63 327.546 472.503 327.57 472.376C327.596 472.245 327.623 472.12 327.649 472C327.679 471.881 327.708 471.773 327.737 471.677L328.687 468.231H329.622L330.592 471.689C330.621 471.787 330.649 471.898 330.676 472.02C330.705 472.143 330.733 472.268 330.76 472.396C330.786 472.523 330.81 472.647 330.831 472.767C330.853 472.887 330.87 472.994 330.883 473.09C330.902 472.96 330.926 472.811 330.955 472.643C330.984 472.475 331.018 472.305 331.055 472.132C331.092 471.959 331.13 471.799 331.167 471.653L332.005 468.231H332.971Z" fill="white"/>
</g>
<rect x="211.522" y="103.522" width="207.61" height="450.76" rx="9.49517" stroke="#455A64" stroke-width="1.04342"/>
<g clip-path="url(#clip2_4_5585)">
<rect x="95" y="69" width="208.654" height="451.803" rx="10.0169" fill="white"/>
<path d="M95 473.849H303.653V500.556H95V473.849Z" fill="#455A64"/>
<rect x="95" y="473.849" width="208.653" height="0.556408" fill="#E8E6EA"/>
<path d="M273.607 486.09C274.682 486.09 275.554 485.218 275.554 484.142C275.554 483.067 274.682 482.195 273.607 482.195C272.531 482.195 271.659 483.067 271.659 484.142C271.659 485.218 272.531 486.09 273.607 486.09Z" fill="#ADAFBB" stroke="#ADAFBB" stroke-width="1.11282" stroke-linecap="round" stroke-linejoin="round"/>
<path d="M268.599 491.876V492.21H278.615V491.876C278.615 490.63 278.615 490.006 278.372 489.53C278.159 489.112 277.818 488.771 277.399 488.558C276.923 488.315 276.3 488.315 275.054 488.315H272.16C270.914 488.315 270.29 488.315 269.814 488.558C269.396 488.771 269.055 489.112 268.842 489.53C268.599 490.006 268.599 490.63 268.599 491.876Z" fill="#ADAFBB" stroke="#ADAFBB" stroke-width="1.11282" stroke-linecap="round" stroke-linejoin="round"/>
<path d="M229.651 487.203C229.651 490.275 227.16 492.767 224.087 492.767C222.425 492.767 218.522 492.767 218.522 492.767C218.522 492.767 218.522 488.614 218.522 487.203C218.522 484.13 221.014 481.638 224.087 481.638C227.16 481.638 229.651 484.13 229.651 487.203Z" fill="#ADAFBB" stroke="#ADAFBB" stroke-width="1.11282" stroke-linecap="round" stroke-linejoin="round"/>
<path d="M221.305 485.533H226.312Z" fill="#C4C4C4"/>
<path d="M221.305 485.533H226.312" stroke="white" stroke-width="1.11282" stroke-linecap="round" stroke-linejoin="round"/>
<path d="M221.305 487.759H226.312Z" fill="#C4C4C4"/>
<path d="M221.305 487.759H226.312" stroke="white" stroke-width="1.11282" stroke-linecap="round" stroke-linejoin="round"/>
<path d="M221.305 489.984H224.087Z" fill="#C4C4C4"/>
<path d="M221.305 489.984H224.087" stroke="white" stroke-width="1.11282" stroke-linecap="round" stroke-linejoin="round"/>
<path d="M172.062 482.751C170.372 482.751 169.002 484.121 169.002 485.811C169.002 488.872 172.619 491.654 174.566 492.301C176.514 491.654 180.13 488.872 180.13 485.811C180.13 484.121 178.76 482.751 177.07 482.751C176.035 482.751 175.12 483.265 174.566 484.051C174.012 483.265 173.097 482.751 172.062 482.751Z" fill="#ADAFBB" stroke="#ADAFBB" stroke-width="1.11282" stroke-linecap="round" stroke-linejoin="round"/>
<circle cx="179.018" cy="483.864" r="2.78204" fill="#EEB738" stroke="#F3F3F3" stroke-width="1.11282"/>
<g clip-path="url(#clip3_4_5585)">
<rect x="123.654" y="483.028" width="7.2333" height="10.0153" rx="1.11282" fill="#EEB738" stroke="#F3F3F3" stroke-width="0.556408"/>
<rect x="118.587" y="483.023" width="7.2333" height="10.0153" rx="1.11282" transform="rotate(-15 118.587 483.023)" fill="#EEB738" stroke="#F3F3F3" stroke-width="0.556408"/>
</g>
<rect x="108.354" y="473.849" width="33.3845" height="1.11282" fill="#EEB738"/>
<rect x="95" y="500.978" width="208.685" height="19.8251" fill="#455A64"/>
<rect x="252.399" y="98.494" width="28.3768" height="28.3768" rx="8.06791" fill="white" stroke="#FE9868" stroke-width="0.556408"/>
<path fill-rule="evenodd" clip-rule="evenodd" d="M267.561 107.118C267.868 107.118 268.118 107.367 268.118 107.675V109.9C268.118 110.207 267.868 110.457 267.561 110.457C267.254 110.457 267.005 110.207 267.005 109.9V109.344H261.441C261.133 109.344 260.884 109.095 260.884 108.787C260.884 108.48 261.133 108.231 261.441 108.231H267.005V107.675C267.005 107.367 267.254 107.118 267.561 107.118ZM269.23 108.787C269.23 108.48 269.48 108.231 269.787 108.231H271.456C271.763 108.231 272.012 108.48 272.012 108.787C272.012 109.095 271.763 109.344 271.456 109.344H269.787C269.48 109.344 269.23 109.095 269.23 108.787ZM265.892 111.013C266.199 111.013 266.448 111.262 266.448 111.569V112.126H272.012C272.32 112.126 272.569 112.375 272.569 112.682C272.569 112.99 272.32 113.239 272.012 113.239H266.448V113.795C266.448 114.102 266.199 114.351 265.892 114.351C265.585 114.351 265.336 114.102 265.336 113.795V111.569C265.336 111.262 265.585 111.013 265.892 111.013ZM260.884 112.682C260.884 112.375 261.133 112.126 261.441 112.126H263.666C263.974 112.126 264.223 112.375 264.223 112.682C264.223 112.99 263.974 113.239 263.666 113.239H261.441C261.133 113.239 260.884 112.99 260.884 112.682ZM267.561 114.908C267.868 114.908 268.118 115.157 268.118 115.464V117.69C268.118 117.997 267.868 118.246 267.561 118.246C267.254 118.246 267.005 117.997 267.005 117.69V117.134H261.441C261.133 117.134 260.884 116.884 260.884 116.577C260.884 116.27 261.133 116.021 261.441 116.021H267.005V115.464C267.005 115.157 267.254 114.908 267.561 114.908ZM269.23 116.577C269.23 116.27 269.48 116.021 269.787 116.021H271.456C271.763 116.021 272.012 116.27 272.012 116.577C272.012 116.884 271.763 117.134 271.456 117.134H269.787C269.48 117.134 269.23 116.884 269.23 116.577Z" fill="#FE9868"/>
<rect x="117.191" y="98.494" width="28.3768" height="28.3768" rx="8.06791" fill="white" stroke="#FE9868" stroke-width="0.556408"/>
<path fill-rule="evenodd" clip-rule="evenodd" d="M133.164 116.414C132.947 116.631 132.594 116.631 132.377 116.414L129.039 113.076C128.821 112.858 128.821 112.506 129.039 112.289L132.377 108.95C132.594 108.733 132.947 108.733 133.164 108.95C133.381 109.168 133.381 109.52 133.164 109.737L130.219 112.682L133.164 115.627C133.381 115.845 133.381 116.197 133.164 116.414Z" fill="#FE9868"/>
<path d="M263.028 195.053L245.482 207.312C241.163 210.325 235.264 209.063 232.41 204.502C229.557 199.94 230.752 193.709 235.071 190.695L252.616 178.437C256.935 175.423 262.835 176.686 265.688 181.247C268.542 185.808 267.346 192.039 263.028 195.053Z" fill="#FACEA7"/>
<path d="M235.15 277.035C239.045 317.761 214.635 327.372 192.424 328.065C158.953 329.124 138.4 264.98 147.192 255.735C149.159 253.658 152.36 254.554 160.573 250.481C166.936 247.305 170.984 243.802 172.681 242.418C179.352 237.042 205.882 219.285 221.499 227.186C235.536 234.272 233.53 260.256 235.15 277.035Z" fill="#FACEA7"/>
<path d="M222.809 272.596C219.686 291.982 205.302 315.643 186.33 316.254C157.757 317.15 140.211 262.252 147.692 254.391C149.35 252.64 152.088 253.414 159.106 249.871C164.543 247.142 167.975 244.169 169.479 242.988C175.186 238.386 197.821 223.195 211.164 229.956C223.156 235.983 225.123 258.383 222.809 272.596Z" fill="#F8BE91"/>
<path d="M155.984 317.761C149.699 317.761 138.863 313.77 138.863 301.063V234.272C138.863 227.715 143.992 222.34 150.277 222.34C156.562 222.34 161.691 227.715 161.691 234.272V301.063C161.691 307.62 155.984 317.761 155.984 317.761Z" fill="#FACEA7"/>
<path d="M161.689 324.807C170.697 324.807 178 315.015 178 302.937C178 290.858 170.697 281.067 161.689 281.067C152.68 281.067 145.377 290.858 145.377 302.937C145.377 315.015 152.68 324.807 161.689 324.807Z" fill="#FACEA7"/>
<path d="M227.976 317.761H149.041V344.518H227.976V317.761Z" fill="#FE9868"/>
<path d="M227.976 340.568H149.041V341.952H227.976V340.568Z" fill="#ECECEC"/>
<path d="M151.434 301.063V234.272C151.434 230.118 153.478 226.494 156.562 224.335C154.75 223.073 152.591 222.34 150.277 222.34C143.992 222.34 138.863 227.715 138.863 234.272V301.063C138.863 313.77 149.699 317.761 155.984 317.761C155.984 317.761 156.755 316.376 157.758 314.258C154.21 311.693 151.434 307.498 151.434 301.063Z" fill="#F8BE91"/>
<path d="M227.976 320.938H149.041V322.323H227.976V320.938Z" fill="#ECECEC"/>
<path d="M140.559 246.572H138.824V245.798H140.559C145.264 245.798 149.12 241.725 149.12 236.757V230.689H138.824V229.915H149.852V236.798C149.891 242.173 145.688 246.572 140.559 246.572Z" fill="#FCDBBF"/>
<path d="M240.546 312.547L164.002 312.507C161.689 312.507 159.799 310.511 159.799 308.067L159.876 152.738C159.876 150.294 161.766 148.299 164.08 148.299L240.623 148.34C242.937 148.34 244.826 150.335 244.826 152.779L244.749 308.108C244.749 310.552 242.86 312.547 240.546 312.547Z" fill="#455A64"/>
<path d="M238.464 291.941L166.085 291.9C165.816 291.9 165.584 291.656 165.584 291.371L165.661 160.029C165.661 159.744 165.893 159.5 166.163 159.5L238.542 159.54C238.812 159.54 239.043 159.785 239.043 160.07L238.966 291.411C239.004 291.697 238.773 291.941 238.464 291.941Z" fill="white"/>
<path d="M213.556 155.304H189.031C188.26 155.304 187.643 154.652 187.643 153.838C187.643 153.023 188.26 152.372 189.031 152.372H213.556C214.327 152.372 214.944 153.023 214.944 153.838C214.982 154.652 214.327 155.345 213.556 155.304Z" fill="#FE9868"/>
<path d="M217.604 155.345C216.833 155.345 216.216 154.693 216.216 153.879C216.216 153.064 216.833 152.413 217.604 152.413C218.375 152.413 218.992 153.064 218.992 153.879C218.992 154.653 218.375 155.345 217.604 155.345Z" fill="#FE9868"/>
<path d="M251.614 253.414L246.139 257.242C241.82 260.256 235.92 258.993 233.067 254.432C230.213 249.871 231.408 243.639 235.727 240.626L241.203 236.797C245.522 233.784 251.422 235.046 254.275 239.608C257.129 244.21 255.933 250.4 251.614 253.414Z" fill="#FACEA7"/>
<path d="M254.275 239.607C254.198 239.485 254.121 239.404 254.044 239.281C256.165 243.028 255.123 247.956 251.653 250.4L243.478 256.101C240.008 258.545 235.303 257.608 232.835 254.106C232.912 254.228 232.951 254.35 233.028 254.432C235.882 258.993 241.781 260.255 246.1 257.242L251.576 253.413C255.933 250.4 257.129 244.209 254.275 239.607Z" fill="#F8BE91"/>
<path d="M242.09 255.165C241.936 255.165 241.82 255.165 241.666 255.124C240.895 255.002 240.201 254.554 239.738 253.902L235.458 247.59C234.571 246.287 234.802 244.454 235.998 243.436L238.736 241.155C240.008 240.096 241.589 239.648 243.209 239.893C244.905 240.137 246.448 241.155 247.489 242.703C249.61 245.798 249.108 250.156 246.409 252.395L243.826 254.554C243.363 254.92 242.746 255.165 242.09 255.165ZM240.355 253.454C240.702 253.943 241.203 254.269 241.782 254.391C242.36 254.472 242.939 254.31 243.401 253.943L245.985 251.785C248.376 249.789 248.8 245.92 246.949 243.151C246.024 241.766 244.674 240.87 243.17 240.666C241.782 240.463 240.355 240.87 239.275 241.766L236.538 244.047C235.651 244.78 235.458 246.164 236.113 247.142L240.355 253.454Z" fill="#FCDBBF"/>
<path d="M253.504 272.351L248.144 275.121C243.941 277.279 238.812 275.447 236.768 271.007C234.725 266.568 236.46 261.152 240.663 258.993L246.023 256.224C250.226 254.065 255.355 255.898 257.399 260.337C259.481 264.776 257.746 270.193 253.504 272.351Z" fill="#FACEA7"/>
<path d="M257.437 260.337C257.398 260.215 257.321 260.134 257.283 260.011C258.748 263.636 257.283 267.912 253.889 269.664L245.946 273.736C242.552 275.487 238.465 274.062 236.652 270.6C236.691 270.722 236.73 270.804 236.768 270.926C238.812 275.365 243.94 277.239 248.144 275.039L253.504 272.27C257.745 270.193 259.481 264.776 257.437 260.337Z" fill="#F8BE91"/>
<path d="M245.175 272.799C244.943 272.799 244.712 272.759 244.481 272.677C243.787 272.474 243.208 271.985 242.861 271.293L239.738 265.102C239.082 263.799 239.506 262.17 240.702 261.396L243.401 259.686C244.673 258.871 246.139 258.668 247.566 259.115C249.069 259.563 250.342 260.663 251.113 262.17C252.656 265.224 251.73 269.093 249.031 270.763L246.486 272.351C246.1 272.677 245.638 272.799 245.175 272.799ZM246.139 259.726C245.329 259.726 244.519 259.971 243.787 260.419L241.087 262.129C240.2 262.659 239.892 263.84 240.393 264.776L243.517 270.967C243.748 271.456 244.172 271.822 244.673 271.944C245.175 272.107 245.715 272.026 246.139 271.741L248.684 270.152C251.036 268.686 251.846 265.265 250.496 262.577C249.802 261.233 248.722 260.297 247.411 259.889C246.949 259.767 246.524 259.726 246.139 259.726Z" fill="#FCDBBF"/>
<path d="M229.905 291.9H173.799V267.301C173.799 256.102 182.398 246.979 193.041 246.979H210.663C221.267 246.979 229.905 256.061 229.905 267.301V291.9V291.9Z" fill="#FE9868"/>
<path d="M249.301 232.969L243.132 236.757C238.273 239.77 231.64 238.508 228.44 233.987C225.201 229.467 226.55 223.317 231.409 220.344L237.579 216.556C242.438 213.543 249.07 214.805 252.271 219.326C255.51 223.846 254.16 229.996 249.301 232.969Z" fill="#FACEA7"/>
<path d="M252.269 219.326C252.192 219.204 252.115 219.122 251.999 219C254.39 222.706 253.233 227.593 249.3 229.996L240.122 235.657C236.189 238.06 230.906 237.164 228.168 233.662C228.246 233.784 228.323 233.906 228.4 233.987C231.639 238.508 238.233 239.771 243.091 236.757L249.261 232.969C254.158 229.996 255.508 223.847 252.269 219.326Z" fill="#F8BE91"/>
<path d="M237.269 234.639C237.115 234.639 236.999 234.639 236.845 234.598C236.074 234.476 235.38 234.028 234.917 233.377L230.637 227.064C229.75 225.761 229.981 223.928 231.177 222.91L233.915 220.629C235.187 219.571 236.768 219.123 238.388 219.367C240.084 219.611 241.627 220.629 242.668 222.177C244.75 225.272 244.287 229.63 241.588 231.87L239.005 234.028C238.542 234.436 237.925 234.639 237.269 234.639ZM235.534 232.929C235.881 233.417 236.382 233.743 236.961 233.865C237.539 233.947 238.118 233.784 238.58 233.417L241.164 231.259C243.555 229.263 243.979 225.394 242.128 222.625C241.203 221.24 239.853 220.344 238.31 220.141C236.922 219.937 235.534 220.344 234.416 221.24L231.678 223.521C230.791 224.254 230.598 225.639 231.254 226.616L235.534 232.929Z" fill="#FCDBBF"/>
<path d="M201.832 309.534C205.729 309.534 208.889 306.198 208.889 302.082C208.889 297.965 205.729 294.629 201.832 294.629C197.935 294.629 194.775 297.965 194.775 302.082C194.775 306.198 197.935 309.534 201.832 309.534Z" fill="#FE9868"/>
<path d="M211.472 248.852L210.623 226.616L194.042 226.127L193.039 252.192C192.924 255.043 195.276 254.513 197.975 254.391L207.114 253.902C209.659 253.74 211.587 251.5 211.472 248.852Z" fill="#FACBB6"/>
<path d="M194.66 231.259L211.203 241.522L210.624 226.616L194.66 231.259Z" fill="#F6B7A0"/>
<path d="M230.407 210.773C230.407 214.398 227.631 217.33 224.199 217.33C220.767 217.33 217.99 214.398 217.99 210.773C217.99 207.149 220.767 204.217 224.199 204.217C227.631 204.217 230.407 207.149 230.407 210.773Z" fill="#FACBB6"/>
<path d="M181.356 217.331C184.785 217.331 187.564 214.395 187.564 210.774C187.564 207.152 184.785 204.217 181.356 204.217C177.927 204.217 175.148 207.152 175.148 210.774C175.148 214.395 177.927 217.331 181.356 217.331Z" fill="#FACBB6"/>
<path d="M222.076 199.045C222.076 207.394 220.919 214.602 219.801 219.734C218.683 224.743 215.521 228.245 211.086 231.056L210.277 231.544C205.534 234.558 199.518 234.639 194.698 231.748C189.878 228.856 186.523 225.028 185.482 219.652C183.592 209.878 183.4 199.045 183.4 199.045C183.4 199.045 181.587 177.949 202.449 178.356C223.31 178.804 222.076 199.045 222.076 199.045Z" fill="#FACBB6"/>
<path d="M184.519 207.638C184.519 207.638 188.915 192.651 185.714 182.958C185.753 182.958 173.452 186.664 184.519 207.638Z" fill="#01384F"/>
<path d="M221.306 207.638C221.306 207.638 215.753 192.651 218.954 182.958C218.915 182.958 230.406 185.931 221.306 207.638Z" fill="#01384F"/>
<path d="M186.639 189.678C186.639 189.678 190.148 182.958 196.472 186.664C202.796 190.37 209.042 193.913 220.341 190.981L218.837 182.917C218.837 182.917 203.143 165.283 185.636 182.917L186.639 189.678Z" fill="#01384F"/>
<path d="M185.636 182.917C185.636 182.917 186.639 170.699 202.988 169.64C219.338 168.581 224.158 177.785 224.158 177.785L221.189 178.356C221.189 178.356 226.896 180.962 228.4 183.487L225.199 184.668L229.441 188.659C229.441 188.659 216.099 194.117 208.734 191.184L202.603 181.41L185.636 182.917Z" fill="#01384F"/>
<path d="M195.855 246.694L188.953 246.817C188.953 246.817 188.22 256.061 201.678 256.509C215.136 256.957 215.367 247.387 215.367 247.387L208.079 246.694H195.855V246.694Z" fill="#FACBB6"/>
<path d="M226.357 235.25H176.536V182.673H226.357V235.25V235.25ZM177.192 234.599H225.701V183.324H177.192V234.599Z" fill="#455A64"/>
<mask id="mask1_4_5585" style="mask-type:alpha" maskUnits="userSpaceOnUse" x="176" y="199" width="51" height="24">
<path d="M226.165 199.533H176.768V222.055H226.165V199.533Z" fill="url(#paint2_linear_4_5585)"/>
</mask>
<g mask="url(#mask1_4_5585)">
<path d="M226.163 199.533H176.767V222.055H226.163V199.533Z" fill="#455A64"/>
</g>
<rect x="126.303" y="421.677" width="138.519" height="32.2249" rx="8.3474" fill="#FE9868"/>
<rect x="154.476" y="513.499" width="88.6911" height="3.13028" rx="1.56514" fill="#0C0C0C"/>
<path d="M168.988 434.231H170.725C171.478 434.231 172.046 434.341 172.43 434.559C172.813 434.777 173.004 435.154 173.004 435.689C173.004 435.912 172.965 436.115 172.885 436.296C172.807 436.474 172.694 436.622 172.545 436.739C172.396 436.853 172.213 436.93 171.994 436.97V437.01C172.221 437.05 172.422 437.121 172.597 437.222C172.776 437.323 172.915 437.468 173.016 437.657C173.12 437.846 173.172 438.091 173.172 438.392C173.172 438.748 173.087 439.052 172.917 439.302C172.749 439.552 172.508 439.742 172.194 439.873C171.883 440.003 171.513 440.068 171.084 440.068H168.988V434.231ZM169.946 436.639H170.864C171.298 436.639 171.599 436.568 171.767 436.427C171.934 436.286 172.018 436.08 172.018 435.808C172.018 435.532 171.918 435.332 171.719 435.21C171.522 435.087 171.208 435.026 170.777 435.026H169.946V436.639ZM169.946 437.413V439.266H170.956C171.403 439.266 171.718 439.179 171.899 439.006C172.08 438.833 172.17 438.599 172.17 438.304C172.17 438.123 172.129 437.966 172.046 437.833C171.966 437.7 171.835 437.597 171.651 437.525C171.467 437.451 171.22 437.413 170.908 437.413H169.946ZM180.596 434.231V438.008C180.596 438.415 180.51 438.78 180.337 439.102C180.167 439.424 179.908 439.68 179.562 439.869C179.216 440.055 178.781 440.148 178.257 440.148C177.509 440.148 176.939 439.953 176.548 439.561C176.16 439.167 175.965 438.644 175.965 437.992V434.231H176.923V437.908C176.923 438.396 177.038 438.755 177.267 438.986C177.496 439.218 177.838 439.334 178.293 439.334C178.607 439.334 178.862 439.279 179.059 439.17C179.259 439.058 179.405 438.896 179.499 438.683C179.594 438.467 179.642 438.208 179.642 437.904V434.231H180.596ZM185.378 436.894L186.763 434.231H187.797L185.857 437.801V440.068H184.903V437.837L182.958 434.231H184L185.378 436.894ZM198.829 440.068H197.651L194.793 435.409H194.757C194.767 435.566 194.777 435.733 194.785 435.908C194.795 436.084 194.803 436.265 194.809 436.451C194.817 436.638 194.823 436.827 194.829 437.018V440.068H193.958V434.231H195.128L197.983 438.859H198.011C198.005 438.723 197.999 438.567 197.991 438.392C197.983 438.216 197.975 438.035 197.967 437.849C197.961 437.66 197.957 437.477 197.955 437.302V434.231H198.829V440.068ZM207.18 437.142C207.18 437.592 207.122 438.002 207.008 438.372C206.896 438.739 206.727 439.056 206.501 439.322C206.275 439.585 205.991 439.789 205.65 439.933C205.31 440.076 204.911 440.148 204.453 440.148C203.987 440.148 203.582 440.076 203.239 439.933C202.898 439.789 202.615 439.584 202.389 439.318C202.165 439.052 201.997 438.734 201.886 438.364C201.774 437.994 201.718 437.584 201.718 437.134C201.718 436.532 201.816 436.008 202.013 435.561C202.213 435.111 202.515 434.762 202.92 434.515C203.327 434.265 203.841 434.14 204.461 434.14C205.068 434.14 205.572 434.263 205.974 434.511C206.376 434.758 206.677 435.107 206.876 435.557C207.078 436.004 207.18 436.532 207.18 437.142ZM202.724 437.142C202.724 437.592 202.785 437.982 202.908 438.312C203.03 438.639 203.218 438.892 203.471 439.07C203.726 439.246 204.053 439.334 204.453 439.334C204.855 439.334 205.182 439.246 205.435 439.07C205.688 438.892 205.874 438.639 205.994 438.312C206.114 437.982 206.173 437.592 206.173 437.142C206.173 436.458 206.036 435.923 205.762 435.537C205.491 435.148 205.057 434.954 204.461 434.954C204.061 434.954 203.733 435.042 203.475 435.218C203.219 435.393 203.03 435.645 202.908 435.972C202.785 436.297 202.724 436.687 202.724 437.142ZM216.971 434.231L215.446 440.068H214.4L213.426 436.571C213.402 436.486 213.376 436.385 213.346 436.268C213.317 436.15 213.288 436.031 213.258 435.908C213.232 435.786 213.208 435.674 213.187 435.573C213.168 435.469 213.155 435.389 213.147 435.333C213.141 435.389 213.129 435.468 213.111 435.569C213.092 435.67 213.069 435.782 213.043 435.904C213.019 436.024 212.992 436.144 212.963 436.264C212.934 436.381 212.907 436.484 212.883 436.575L211.925 440.068H210.883L209.362 434.231H210.324L211.166 437.653C211.193 437.762 211.22 437.881 211.246 438.008C211.276 438.133 211.302 438.26 211.326 438.388C211.353 438.515 211.377 438.64 211.398 438.763C211.419 438.883 211.437 438.992 211.45 439.09C211.463 438.989 211.48 438.877 211.502 438.755C211.523 438.63 211.546 438.503 211.57 438.376C211.596 438.245 211.623 438.12 211.649 438C211.679 437.881 211.708 437.773 211.737 437.677L212.687 434.231H213.622L214.592 437.689C214.621 437.787 214.649 437.898 214.676 438.02C214.705 438.143 214.733 438.268 214.76 438.396C214.786 438.523 214.81 438.647 214.831 438.767C214.853 438.887 214.87 438.994 214.883 439.09C214.902 438.96 214.926 438.811 214.955 438.643C214.984 438.475 215.018 438.305 215.055 438.132C215.092 437.959 215.13 437.799 215.167 437.653L216.005 434.231H216.971Z" fill="white"/>
</g>
<rect x="95.5217" y="69.5217" width="207.61" height="450.76" rx="9.49517" stroke="#455A64" stroke-width="1.04342"/>
<defs>
<radialGradient id="paint0_radial_4_5585" cx="0" cy="0" r="1" gradientUnits="userSpaceOnUse" gradientTransform="translate(244 244) rotate(90) scale(244)">
<stop stop-color="#F3FCFF"/>
<stop offset="0.0001" stop-color="#F3FCFF"/>
<stop offset="1" stop-color="#FE9563"/>
</radialGradient>
<linearGradient id="paint1_linear_4_5585" x1="317.443" y1="231.703" x2="317.443" y2="255.021" gradientUnits="userSpaceOnUse">
<stop stop-color="white"/>
<stop offset="1"/>
</linearGradient>
<linearGradient id="paint2_linear_4_5585" x1="201.443" y1="197.703" x2="201.443" y2="221.021" gradientUnits="userSpaceOnUse">
<stop stop-color="white"/>
<stop offset="1"/>
</linearGradient>
<clipPath id="clip0_4_5585">
<rect x="211" y="103" width="208.654" height="451.803" rx="10.0169" fill="white"/>
</clipPath>
<clipPath id="clip1_4_5585">
<rect width="13.3538" height="13.3538" fill="white" transform="translate(234.369 514.526)"/>
</clipPath>
<clipPath id="clip2_4_5585">
<rect x="95" y="69" width="208.654" height="451.803" rx="10.0169" fill="white"/>
</clipPath>
<clipPath id="clip3_4_5585">
<rect width="13.3538" height="13.3538" fill="white" transform="translate(118.369 480.526)"/>
</clipPath>
</defs>
</svg>
