<svg width="511" height="542" viewBox="0 0 511 542" fill="none" xmlns="http://www.w3.org/2000/svg">
<path d="M62.1625 379.44L46.7687 379.793L38.8955 379.91C36.3103 379.91 33.6075 379.91 31.0223 380.028H30.5523V379.558L30.4348 366.397V365.809H31.0223L46.5336 365.927C51.7041 365.927 56.8745 366.044 62.045 366.162H62.3975V366.514C62.3975 368.747 62.28 370.98 62.28 373.212L62.1625 379.44ZM62.1625 379.44L62.045 372.742C62.045 370.51 61.9274 368.394 61.9274 366.279L62.28 366.632C57.1095 366.749 51.9391 366.867 46.7687 366.867L31.2573 366.984L31.8449 366.397L31.7274 379.558L31.2573 379.088C33.8425 379.088 36.4278 379.088 38.8955 379.205L46.6511 379.323L62.1625 379.44Z" fill="#EBEBEB"/>
<path d="M44.7712 396.01L29.3774 396.362L21.5042 396.48C18.919 396.48 16.2162 396.48 13.631 396.597H13.161V396.127L13.0435 382.966V382.378H13.631L29.1423 382.496C34.3128 382.496 39.4832 382.613 44.6537 382.731H45.0062V383.083C45.0062 385.316 44.8887 387.549 44.8887 389.782L44.7712 396.01ZM44.7712 396.01L44.6537 389.312C44.6537 387.079 44.5362 384.964 44.5362 382.848L44.8887 383.201C39.7182 383.319 34.5478 383.436 29.3774 383.436L13.866 383.554L14.4536 382.966L14.2186 396.01L13.7485 395.54C16.3337 395.54 18.919 395.54 21.3867 395.657L29.1423 395.775L44.7712 396.01Z" fill="#EBEBEB"/>
<path d="M79.5539 382.848H48.4138V396.009H79.5539V382.848Z" fill="#EBEBEB"/>
<path d="M433.378 193.892L417.985 194.245L410.111 194.362C407.526 194.362 404.823 194.362 402.238 194.48H401.768V194.01L401.651 180.849V180.261H402.238L417.749 180.379C422.92 180.379 428.09 180.496 433.261 180.614H433.613V180.966C433.613 183.199 433.496 185.431 433.496 187.664L433.378 193.892ZM433.378 193.892L433.261 187.194C433.261 184.961 433.143 182.846 433.143 180.731L433.496 181.084C428.325 181.201 423.155 181.319 417.985 181.319L402.473 181.436L403.061 180.849L402.943 194.01L402.473 193.54C405.058 193.54 407.644 193.54 410.111 193.657L417.867 193.775L433.378 193.892Z" fill="#FE9563"/>
<path d="M415.987 210.46L400.593 210.813L392.72 210.93C390.134 210.93 387.432 210.93 384.846 211.048H384.376V210.578L384.259 197.417V196.829H384.846L400.358 196.947C405.528 196.947 410.699 197.064 415.869 197.182H416.222V197.534C416.222 199.767 416.104 202 416.104 204.232L415.987 210.46ZM415.987 210.46L415.869 203.762C415.869 201.529 415.751 199.414 415.751 197.299L416.104 197.652C410.934 197.769 405.763 197.887 400.593 197.887L385.081 198.004L385.669 197.417L385.551 210.578L385.081 210.108C387.667 210.108 390.252 210.108 392.72 210.225L400.475 210.343L415.987 210.46Z" fill="#FE9563"/>
<path d="M450.768 197.417H419.628V210.578H450.768V197.417Z" fill="#FE9563"/>
<path d="M480.616 382.848H449.476V396.009H480.616V382.848Z" fill="#EBEBEB"/>
<path d="M480.616 52.4094H449.476V65.5706H480.616V52.4094Z" fill="#FE9563"/>
<path d="M498.008 82.14L482.615 82.4925L474.741 82.61C472.156 82.61 469.453 82.61 466.868 82.7275H466.398V82.2575L466.281 69.0963V68.5088H466.868L482.38 68.6263C487.55 68.6263 492.72 68.7438 497.891 68.8613H498.243V69.2139C498.243 71.4465 498.126 73.6792 498.126 75.9119L498.008 82.14ZM498.008 82.14L497.891 75.4419C497.891 73.2092 497.773 71.094 497.773 68.9788L498.126 69.3314C492.955 69.4489 487.785 69.5664 482.615 69.5664L467.103 69.6839L467.691 69.0963L467.573 82.2575L467.103 81.7874C469.688 81.7874 472.274 81.7874 474.741 81.9049L482.497 82.0225L498.008 82.14Z" fill="#EBEBEB"/>
<path d="M44.7709 65.5706L29.3771 65.9231L21.5039 66.0407C18.9187 66.0407 16.216 66.0407 13.6308 66.1582H13.1607V65.6881L13.0432 52.527V51.9395H13.6308L29.1421 52.057C34.3125 52.057 39.483 52.1745 44.6534 52.292H45.0059V52.6445C45.0059 54.8772 44.8884 57.1099 44.8884 59.3426L44.7709 65.5706ZM44.7709 65.5706L44.6534 58.8725C44.6534 56.6399 44.5359 54.5247 44.5359 52.4095L44.8884 52.762C39.718 52.8795 34.5476 52.997 29.3771 52.997L13.8658 53.1146L14.4533 52.527L14.3358 65.6881L13.8658 65.2181C16.451 65.2181 19.0362 65.2181 21.5039 65.3356L29.2596 65.4531L44.7709 65.5706Z" fill="#EBEBEB"/>
<path d="M57.7983 299.858H88.9385V286.697H57.7983V299.858Z" fill="#EBEBEB"/>
<path d="M75.2062 270.038L90.6 269.686L98.4732 269.568C101.058 269.568 103.761 269.568 106.346 269.451H106.816V269.921L106.934 283.2V283.787H106.346L90.8351 283.67C85.6646 283.67 80.4942 283.552 75.3237 283.435H74.9712V283.082C74.9712 280.849 75.0887 278.617 75.0887 276.384L75.2062 270.038ZM75.2062 270.038L75.3237 276.737C75.3237 278.969 75.4412 281.084 75.4412 283.2L75.0887 282.847C80.2591 282.73 85.4296 282.612 90.6 282.612L106.111 282.495L105.759 283.2L105.876 270.038L106.346 270.509C103.761 270.509 101.176 270.509 98.7082 270.391L90.9526 270.273L75.2062 270.038Z" fill="#EBEBEB"/>
<path d="M506.116 512.155H305.761L301.648 429.897H510.346L506.116 512.155Z" fill="#999999"/>
<path d="M313.516 439.063H400.709L399.181 467.618H315.396L313.516 439.063ZM399.534 440.003H314.456L316.102 466.56H398.006L399.534 440.003Z" fill="#DBDBDB"/>
<path d="M315.278 474.668H397.065L395.773 500.403H316.806L315.278 474.668ZM396.008 475.608H316.336L317.864 499.345H394.833L396.008 475.608Z" fill="#DBDBDB"/>
<path d="M348.181 449.522H364.045L363.105 456.455H349.004L348.181 449.522ZM362.988 450.462H349.474L350.061 455.28H362.4L362.988 450.462Z" fill="#DBDBDB"/>
<path d="M348.181 484.069H364.045L363.105 491.002H349.004L348.181 484.069ZM362.988 485.127H349.474L350.061 489.945H362.4L362.988 485.127Z" fill="#DBDBDB"/>
<path d="M411.991 439.063H499.183L497.656 467.618H413.871L411.991 439.063ZM498.126 440.003H413.048L414.694 466.56H496.598L498.126 440.003Z" fill="#DBDBDB"/>
<path d="M413.754 474.668H495.541L494.248 500.403H415.281L413.754 474.668ZM494.601 475.608H414.811L416.339 499.345H493.308L494.601 475.608Z" fill="#DBDBDB"/>
<path d="M446.773 449.521H462.637L461.697 456.454H447.596L446.773 449.521ZM461.462 450.461H447.948L448.536 455.279H460.875L461.462 450.461Z" fill="#DBDBDB"/>
<path d="M446.773 484.069H462.637L461.697 491.002H447.596L446.773 484.069ZM461.462 485.127H447.948L448.536 489.945H460.875L461.462 485.127Z" fill="#DBDBDB"/>
<path d="M488.254 512.154L489.429 521.085L492.014 539.064H496.949V512.154H488.254Z" fill="#999999"/>
<path d="M488.254 512.154L489.429 521.085H496.949V512.154H488.254Z" fill="#868484"/>
<path d="M323.741 512.154L322.566 521.085L319.981 539.064H315.045V512.154H323.741Z" fill="#999999"/>
<path d="M323.741 512.154L322.566 521.085H315.045V512.154H323.741Z" fill="#868484"/>
<path d="M451.325 429.946V369.311H436.048V429.946H451.325Z" fill="#C7C7C7"/>
<path d="M451.306 372.701V366.003H436.029V372.701H451.306Z" fill="#DBDBDB"/>
<path d="M451.363 383.687V381.22H436.086V383.687H451.363Z" fill="#DBDBDB"/>
<path d="M451.313 421.946V415.248H436.037V421.946H451.313Z" fill="#DBDBDB"/>
<path d="M436.014 429.876V359.135H425.321V429.876H436.014Z" fill="#DBDBDB"/>
<path d="M433.996 392.981V365.836H427.65V392.981H433.996Z" fill="#EBEBEB"/>
<path d="M356.891 429.845L407.202 380.114L399.685 372.509L349.374 422.24L356.891 429.845Z" fill="#C7C7C7"/>
<path d="M367.187 416.593L386.492 397.51L382.032 392.997L362.726 412.08L367.187 416.593Z" fill="#DBDBDB"/>
<path d="M425.44 429.858V376.156H407.344V429.858H425.44Z" fill="#A6A6A6"/>
<path d="M425.414 424.308V419.255H407.318V424.308H425.414Z" fill="#C7C7C7"/>
<path d="M425.354 416.022V414.025H407.257V416.022H425.354Z" fill="#C7C7C7"/>
<path d="M482.638 425.099L462.704 378.667L451.258 383.581L471.192 430.013L482.638 425.099Z" fill="#A6A6A6"/>
<path d="M480.497 420.058L478.643 415.739L467.197 420.653L469.051 424.972L480.497 420.058Z" fill="#C7C7C7"/>
<path d="M468.721 392.547L466.867 388.228L455.421 393.141L457.275 397.461L468.721 392.547Z" fill="#C7C7C7"/>
<path d="M470.712 397.25L469.97 395.522L458.524 400.436L459.266 402.164L470.712 397.25Z" fill="#C7C7C7"/>
<path d="M467.22 89.5427V0" stroke="#FE9563" stroke-width="1.1751" stroke-miterlimit="10"/>
<path d="M424.212 131.141L427.62 138.779H506.94L510.347 131.141L476.622 107.757H457.938L424.212 131.141Z" fill="#FE9563"/>
<path d="M455.588 85.3123L457.938 107.757H476.622L478.972 85.3123H455.588Z" fill="#FE9563"/>
<path d="M424.212 131.141L427.62 138.779H506.94L510.347 131.141H424.212Z" fill="#FFC7AC"/>
<path d="M374.741 64.9831V0" stroke="#FE9563" stroke-width="1.1751" stroke-miterlimit="10"/>
<path d="M331.615 106.582L335.14 114.22H414.342L417.867 106.582L384.024 83.197H365.34L331.615 106.582Z" fill="#FE9563"/>
<path d="M362.99 60.635L365.34 83.1969H384.024L386.374 60.635H362.99Z" fill="#FE9563"/>
<path d="M331.615 106.582L335.14 114.22H414.342L417.867 106.582H331.615Z" fill="#FFC7AC"/>
<path d="M33.9588 114.339L105.992 101.765L95.534 52.2932L23.5004 64.8668L33.9588 114.339Z" fill="#FE9563"/>
<path d="M68.977 51.5884L94.4767 47.123L95.5343 52.2935L68.6245 56.9939L68.977 51.5884Z" fill="#FE9563"/>
<path d="M34.077 114.222L105.993 101.766L101.293 55.5845L29.2591 68.0405L34.077 114.222Z" fill="#FFC7AC"/>
<path d="M75.3233 55.2317L100.705 50.7664L101.293 55.5843L74.3832 60.1672L75.3233 55.2317Z" fill="#FFC7AC"/>
<path d="M64.8624 163.691L154.053 169.214L155.698 107.404L66.5076 101.881L64.8624 163.691Z" fill="#FE9563"/>
<path d="M124.323 99.0608L155.816 101.058L155.698 107.404L122.325 105.406L124.323 99.0608Z" fill="#FE9563"/>
<path d="M64.9816 163.692L154.172 169.215L161.575 112.928L72.3847 107.405L64.9816 163.692Z" fill="#FFC7AC"/>
<path d="M130.788 105.172L162.398 107.053L161.575 112.928L128.202 110.93L130.788 105.172Z" fill="#FFC7AC"/>
<path d="M423.508 273.798V249.356L448.538 261.577L423.508 273.798Z" fill="#FE9563"/>
<path d="M495.659 267.57V255.584L507.88 261.577L495.659 267.57Z" fill="#FE9563"/>
<path d="M485.907 267.57V255.584L498.128 261.577L485.907 267.57Z" fill="#FE9563"/>
<path d="M376.387 255.584V267.57L364.166 261.577L376.387 255.584Z" fill="#EBEBEB"/>
<path d="M386.14 255.584V267.57L373.919 261.577L386.14 255.584Z" fill="#FE9563"/>
<path d="M364.283 251.471H361.815V271.8H364.283V251.471Z" fill="#EBEBEB"/>
<path d="M510.348 251.471H507.88V271.8H510.348V251.471Z" fill="#FE9563"/>
<path d="M459.349 458.806C459.819 446.937 459.584 435.069 458.879 423.318C457.234 398.993 453.238 374.786 447.715 350.932C444.66 337.536 440.782 324.374 436.787 311.213C436.669 310.861 436.082 310.978 436.199 311.331C448.538 357.63 458.644 405.456 457.939 453.636C457.704 467.149 456.176 480.31 454.883 493.706C454.883 494.059 455.471 494.177 455.471 493.824C457.939 482.543 458.879 470.557 459.349 458.806Z" fill="#FE9563"/>
<path d="M436.199 311.448C436.199 311.448 417.515 358.805 421.745 369.851C425.976 381.014 434.554 383.365 434.554 383.365C434.554 383.365 423.156 399.699 431.146 414.975C439.137 430.251 456.881 429.546 458.056 446.82C457.821 446.82 458.879 374.434 436.199 311.448Z" fill="#FE9563"/>
<path d="M455.823 416.973C455.823 416.855 455.823 416.855 455.823 416.738C453.238 384.54 447.48 352.46 437.726 321.555C437.726 321.437 437.491 321.437 437.609 321.555C441.252 335.421 444.542 349.287 447.362 363.271C444.895 360.803 441.722 359.393 438.432 358.335C438.314 358.335 438.314 358.453 438.432 358.453C441.839 359.98 445.13 361.626 447.597 364.563C448.185 367.266 448.655 370.086 449.125 372.789C445.012 368.089 439.137 365.856 433.379 363.623C433.261 363.623 433.261 363.741 433.379 363.741C439.372 366.209 445.365 369.381 449.477 374.552C450.888 382.425 452.18 390.298 453.238 398.171C450.183 394.998 446.422 392.883 442.074 391.826C441.957 391.826 441.839 391.943 441.957 392.061C446.422 393.353 450.183 395.821 453.238 399.229C453.238 399.229 453.238 399.229 453.355 399.229C453.708 402.049 454.06 404.752 454.413 407.572C452.063 405.574 449.477 404.047 446.657 402.872C446.54 402.872 446.54 402.989 446.657 402.989C449.595 404.282 452.18 406.044 454.413 408.16H454.53C454.883 410.862 455.118 413.448 455.47 416.15C451.24 410.98 445.952 407.22 439.607 404.869C439.489 404.869 439.372 404.987 439.489 405.104C445.6 407.69 450.888 411.92 455.118 417.09C455.235 417.208 455.353 417.208 455.47 417.208C455.823 421.321 456.176 425.316 456.528 429.429C456.528 429.429 456.646 429.546 456.646 429.429C456.528 425.316 456.176 421.086 455.823 416.973Z" fill="#263238"/>
<path d="M440.9 353.635C437.61 351.402 433.615 350.462 429.737 350.109C429.62 350.109 429.62 350.227 429.737 350.227C433.732 350.814 437.14 352.225 440.783 353.87C440.9 353.987 441.018 353.752 440.9 353.635Z" fill="#263238"/>
<path d="M443.131 403.694C440.546 402.166 437.608 401.344 434.671 400.874C434.553 400.874 434.553 400.991 434.671 400.991C437.608 401.579 440.311 402.636 443.014 403.929C443.131 403.929 443.249 403.811 443.131 403.694Z" fill="#263238"/>
<path d="M508.35 370.673C500.595 376.196 493.074 382.424 486.728 389.593C479.913 397.113 475.095 405.691 471.57 415.21C464.519 434.716 460.641 455.868 460.289 476.55C460.054 488.184 461.111 499.7 463.579 511.098C463.696 511.568 464.284 511.451 464.166 510.98C461.111 491.004 461.229 470.557 464.519 450.698C467.692 431.074 472.745 409.804 485.201 393.94C492.016 385.245 500.477 378.429 508.82 371.379C509.29 370.908 508.703 370.321 508.35 370.673Z" fill="#FE9563"/>
<path d="M463.109 462.449C463.109 462.449 469.454 451.638 478.855 442.354C488.138 433.071 496.012 426.373 497.304 420.262C498.479 414.152 487.903 409.569 487.903 409.569C487.903 409.569 500.829 411.919 504.355 406.514C507.88 401.108 509.643 369.733 509.643 369.733C509.643 369.733 486.141 386.537 475.212 410.039C464.166 433.424 463.109 462.449 463.109 462.449Z" fill="#FE9563"/>
<path d="M501.417 377.724C491.546 387.477 481.558 397.818 475.8 410.509C473.802 414.857 472.157 419.44 470.629 424.023C470.277 424.963 470.042 425.903 469.689 426.843V426.96C466.869 436.479 464.754 446.349 462.991 455.985C462.991 456.103 463.108 456.103 463.108 455.985C464.166 451.05 465.224 446.114 466.516 441.179H466.634C468.631 440.356 470.629 439.769 472.744 439.651C472.862 439.651 472.862 439.416 472.744 439.416C470.629 439.534 468.631 439.886 466.634 440.474C467.809 436.009 468.984 431.543 470.394 427.195C474.977 426.138 479.677 425.433 484.378 425.433V425.315C479.677 425.08 475.212 425.55 470.629 426.49C470.864 425.785 471.099 424.963 471.334 424.258C474.389 423.552 477.445 422.965 480.617 422.73V422.612C477.562 422.73 474.507 422.965 471.569 423.67C472.862 419.91 474.272 416.149 475.8 412.507C477.092 409.451 478.62 406.631 480.265 403.928C482.733 403.341 485.2 402.871 487.786 402.636C487.903 402.636 487.903 402.518 487.786 402.518C485.435 402.401 482.968 402.518 480.735 403.223C482.028 401.226 483.32 399.228 484.613 397.348C489.901 396.173 495.189 395.115 500.594 396.055C500.712 396.055 500.712 395.938 500.594 395.938C495.424 394.645 490.371 395.35 485.318 396.408C485.905 395.703 486.493 394.88 486.963 394.175C490.253 393.117 493.426 392.647 496.834 392.647C496.951 392.647 496.951 392.53 496.834 392.53C493.779 392.177 490.606 392.53 487.668 393.352C492.016 387.947 496.834 382.894 501.534 377.841C501.769 377.606 501.652 377.489 501.417 377.724Z" fill="#263238"/>
<path d="M501.182 399.111C499.654 398.993 498.009 398.758 496.482 398.993C496.247 398.993 496.364 399.346 496.482 399.346C498.009 399.346 499.537 399.228 501.064 399.346C501.182 399.228 501.299 399.111 501.182 399.111Z" fill="#263238"/>
<path d="M484.261 429.546C481.793 429.546 479.325 430.133 476.975 430.956V431.073C479.325 430.486 481.793 430.251 484.143 429.898C484.496 429.898 484.496 429.546 484.261 429.546Z" fill="#263238"/>
<path d="M479.208 418.97C478.15 418.97 477.093 419.087 476.153 419.205C476.035 419.205 476.035 419.44 476.153 419.44C477.093 419.44 478.268 419.44 479.208 419.322C479.325 419.322 479.325 418.97 479.208 418.97Z" fill="#263238"/>
<path d="M394.248 403.929C401.768 406.514 409.289 409.922 416.105 414.152C423.273 418.735 429.266 424.493 434.319 431.426C444.542 445.528 452.533 461.744 457.586 478.548C460.406 487.949 462.286 497.467 462.874 507.22C462.874 507.573 462.404 507.573 462.286 507.22C460.171 490.299 455.353 473.848 448.067 458.454C440.899 443.295 431.968 427.314 418.22 417.325C410.699 411.92 402.356 408.277 393.895 404.517C393.543 404.399 393.778 403.812 394.248 403.929Z" fill="#FE9563"/>
<path d="M452.063 467.854C452.063 467.854 444.425 460.568 434.671 455.163C424.918 449.757 417.045 446.232 414.694 441.532C412.344 436.831 419.747 430.721 419.747 430.721C419.747 430.721 409.877 435.539 405.764 432.013C401.651 428.488 393.073 403.458 393.073 403.458C393.073 403.458 415.987 411.567 430.206 428.136C444.425 444.587 452.063 467.854 452.063 467.854Z" fill="#FE9563"/>
<path d="M450.888 462.684C439.49 441.18 424.213 421.791 403.296 408.982C408.819 412.507 413.872 416.503 418.573 420.968C414.342 420.851 409.995 421.556 406.234 423.553C406.117 423.553 406.234 423.671 406.352 423.671C410.582 422.261 414.577 421.321 419.043 421.556C419.16 421.556 419.16 421.556 419.16 421.556C419.865 422.261 420.688 422.966 421.393 423.671C419.16 423.788 416.928 424.023 414.812 424.493V424.611C417.163 424.141 419.395 424.023 421.746 424.023C425.623 427.901 429.149 432.014 432.556 436.244C431.029 436.009 429.384 436.127 427.974 436.597C427.856 436.597 427.856 436.832 427.974 436.715C429.619 436.48 431.264 436.48 432.909 436.597C433.497 437.42 434.202 438.242 434.789 438.947C430.089 438.712 425.506 439.065 420.923 440.24C420.805 440.24 420.923 440.357 420.923 440.357C425.623 439.417 430.441 439.182 435.142 439.417C435.729 440.24 436.317 440.945 436.904 441.767C434.084 441.65 431.381 442.002 428.679 442.708C428.561 442.708 428.561 442.943 428.679 442.825C431.499 442.238 434.319 442.002 437.257 442.12C439.725 445.528 442.075 448.936 444.307 452.461C443.132 452.226 441.84 452.343 440.665 452.696C440.547 452.696 440.665 452.813 440.665 452.813C441.957 452.696 443.25 452.813 444.542 453.048C446.54 456.221 448.538 459.394 450.418 462.684C450.535 463.154 451.006 462.919 450.888 462.684Z" fill="#263238"/>
<path d="M433.027 444.822C430.794 444.587 428.561 444.94 426.328 445.645C426.211 445.645 426.328 445.762 426.328 445.762C428.561 445.41 430.676 445.175 432.909 445.057C433.262 445.057 433.262 444.822 433.027 444.822Z" fill="#263238"/>
<path d="M413.167 418.618C412.109 418.5 411.051 418.618 410.111 418.853C409.994 418.853 409.994 419.088 410.111 419.088C411.169 418.97 412.109 418.97 413.167 418.97C413.284 418.97 413.284 418.735 413.167 418.618Z" fill="#263238"/>
<path d="M481.558 538.83H429.971L437.257 484.893L439.137 471.027H472.275L474.273 484.893L481.558 538.83Z" fill="#455A64"/>
<path d="M474.272 484.893H437.257L439.137 471.027H472.275L474.272 484.893Z" fill="#263238"/>
<path d="M477.093 466.209H434.437V477.96H477.093V466.209Z" fill="#455A64"/>
<path d="M352.412 73.4434H159.225C148.414 73.4434 139.718 82.3741 139.718 93.3026V491.192C139.718 502.12 148.532 511.051 159.225 511.051H352.412C363.223 511.051 372.036 502.12 372.036 491.192V93.3026C372.036 82.3741 363.223 73.4434 352.412 73.4434ZM359.815 478.853C359.815 489.311 351.942 497.772 342.306 497.772H169.448C159.813 497.772 151.939 489.311 151.939 478.853V108.461C151.939 87.0745 159.813 86.1345 169.448 86.1345H204.114C206.112 86.1345 207.757 88.3671 207.757 91.3049V92.48C207.757 99.1781 211.4 99.1781 215.865 99.1781H296.007C300.472 99.1781 304.115 99.1781 304.115 92.48V91.3049C304.115 88.4846 305.76 86.1345 307.758 86.1345H342.423C352.059 86.1345 359.932 88.9547 359.932 108.461V478.853H359.815Z" fill="#37474F"/>
<path d="M266.747 90.8347H244.89C244.185 90.8347 243.597 90.2472 243.597 89.5421C243.597 88.8371 244.185 88.2495 244.89 88.2495H266.747C267.452 88.2495 268.04 88.8371 268.04 89.5421C268.04 90.1297 267.452 90.8347 266.747 90.8347Z" fill="#263238"/>
<path d="M359.813 108.462V478.853C359.813 489.312 351.94 497.772 342.304 497.772H169.447C159.811 497.772 151.938 489.312 151.938 478.853V108.462C151.938 87.0747 159.811 86.1346 169.447 86.1346H204.112C206.11 86.1346 207.755 88.3673 207.755 91.3051V92.4802C207.755 99.1783 211.398 99.1783 215.863 99.1783H296.005C300.47 99.1783 304.113 99.1783 304.113 92.4802V91.3051C304.113 88.4848 305.758 86.1346 307.756 86.1346H342.421C351.94 86.0171 359.813 88.9549 359.813 108.462Z" fill="white"/>
<path d="M359.813 108.462V154.761H151.821V108.462C151.821 87.075 159.694 86.1349 169.33 86.1349H203.995C205.993 86.1349 207.638 88.3676 207.638 91.3053V92.4804C207.638 99.1785 211.281 99.1785 215.746 99.1785H295.888C300.353 99.1785 303.996 99.1785 303.996 92.4804V91.3053C303.996 88.4851 305.641 86.1349 307.639 86.1349H342.304C351.94 86.0174 359.813 88.9551 359.813 108.462Z" fill="#FE9563"/>
<path d="M172.856 134.314L166.745 128.556L172.856 122.798L173.913 123.855L168.743 128.556L173.913 133.374L172.856 134.314Z" fill="white"/>
<path d="M343.715 125.03C343.715 125.735 343.128 126.205 342.54 126.205C341.952 126.205 341.365 125.618 341.365 125.03C341.365 124.443 341.952 123.855 342.54 123.855C343.128 123.855 343.715 124.325 343.715 125.03Z" fill="white"/>
<path d="M343.715 129.261C343.715 129.966 343.127 130.436 342.54 130.436C341.952 130.436 341.365 129.848 341.365 129.261C341.365 128.555 341.952 128.085 342.54 128.085C343.127 128.085 343.715 128.673 343.715 129.261Z" fill="white"/>
<path d="M343.715 133.608C343.715 134.313 343.127 134.783 342.54 134.783C341.952 134.783 341.365 134.196 341.365 133.608C341.365 132.903 341.952 132.433 342.54 132.433C343.127 132.433 343.715 132.903 343.715 133.608Z" fill="white"/>
<path d="M198.003 94.3604C197.885 94.4779 197.768 94.5954 197.65 94.7129C197.533 94.8304 197.533 94.8304 197.415 94.9479C196.475 94.1254 195.417 93.6553 194.242 93.6553C192.95 93.6553 191.892 94.1254 191.07 94.9479C190.952 94.8304 190.952 94.8304 190.835 94.7129C190.717 94.5954 190.6 94.4779 190.482 94.3604C190.6 94.2429 190.717 94.1254 190.952 94.0079C191.305 93.7728 191.54 93.5378 191.892 93.4203C192.362 93.1853 192.715 93.0678 193.185 92.9503C193.42 92.9503 193.655 92.8328 193.89 92.8328C194.007 92.8328 194.477 92.8328 194.477 92.8328C194.595 92.8328 194.83 92.8328 194.947 92.8328C195.3 92.8328 195.77 92.9503 196.123 93.0678C196.358 93.1853 196.71 93.3028 196.945 93.4203C197.18 93.5378 197.533 93.7728 197.768 94.0079C197.768 94.1254 197.885 94.2429 198.003 94.3604Z" fill="white"/>
<path d="M192.127 96.0057C191.892 95.8882 191.775 95.6532 191.54 95.5357C192.127 94.9481 192.832 94.5956 193.655 94.4781C194.947 94.3606 196.005 94.7131 196.945 95.5357C196.71 95.7707 196.592 95.8882 196.357 96.0057C195.77 95.4182 195.065 95.0656 194.242 95.0656C193.42 95.0656 192.715 95.4182 192.127 96.0057Z" fill="white"/>
<path d="M195.887 96.4759C195.769 96.5934 195.534 96.8285 195.417 96.946C195.064 96.5934 194.712 96.4759 194.359 96.4759C193.889 96.4759 193.537 96.5934 193.302 96.946C193.184 96.8285 192.949 96.5934 192.832 96.4759C193.537 95.6534 194.947 95.5359 195.887 96.4759Z" fill="white"/>
<path d="M194.711 97.5335C194.711 97.7685 194.476 98.0036 194.241 98.0036C194.006 98.0036 193.771 97.7685 193.771 97.5335C193.771 97.2985 194.006 97.0635 194.241 97.0635C194.594 97.0635 194.711 97.181 194.711 97.5335Z" fill="white"/>
<path d="M165.454 95.4182C165.454 94.7131 166.041 94.0081 166.864 94.0081C167.569 94.0081 168.274 94.5956 168.274 95.4182C168.274 96.2407 167.686 96.8283 166.864 96.8283C166.041 96.8283 165.454 96.1232 165.454 95.4182Z" fill="white"/>
<path d="M169.802 95.4182C169.802 94.7131 170.389 94.0081 171.212 94.0081C171.917 94.0081 172.622 94.5956 172.622 95.4182C172.622 96.2407 172.034 96.8283 171.212 96.8283C170.389 96.8283 169.802 96.1232 169.802 95.4182Z" fill="white"/>
<path d="M174.15 95.4182C174.15 94.7131 174.737 94.0081 175.56 94.0081C176.265 94.0081 176.97 94.5956 176.97 95.4182C176.97 96.2407 176.383 96.8283 175.56 96.8283C174.737 96.8283 174.15 96.1232 174.15 95.4182Z" fill="white"/>
<path d="M178.38 95.4182C178.38 94.7131 178.968 94.0081 179.79 94.0081C180.495 94.0081 181.2 94.5956 181.2 95.4182C181.2 96.2407 180.613 96.8283 179.79 96.8283C179.085 96.8283 178.38 96.1232 178.38 95.4182Z" fill="white"/>
<path d="M182.728 95.4182C182.728 94.7131 183.316 94.0081 184.138 94.0081C184.843 94.0081 185.549 94.5956 185.549 95.4182C185.549 96.2407 184.961 96.8283 184.138 96.8283C183.433 96.8283 182.728 96.1232 182.728 95.4182Z" fill="white"/>
<path d="M344.185 98.3552H332.904V93.1848H344.185V98.3552ZM333.492 97.7677H343.598V93.7724H333.492V97.7677Z" fill="white"/>
<path d="M341.13 94.1245H333.844V97.5323H341.13V94.1245Z" fill="white"/>
<path d="M345.125 94.3594H344.185V97.1796H345.125V94.3594Z" fill="white"/>
<path d="M183.432 475.21H181.905V482.378H178.967V478.736H173.679V482.378H170.741V475.21H169.096L176.264 467.807L183.432 475.21Z" fill="#EBEBEB"/>
<path d="M342.541 467.807H325.267V470.275H342.541V467.807Z" fill="#EBEBEB"/>
<path d="M342.541 473.917H325.267V476.385H342.541V473.917Z" fill="#EBEBEB"/>
<path d="M342.541 479.91H325.267V482.378H342.541V479.91Z" fill="#EBEBEB"/>
<path d="M260.753 474.153L255.818 479.324L250.882 474.153L251.822 473.331L255.818 477.678L259.813 473.331L260.753 474.153Z" fill="#EBEBEB"/>
<path d="M255.818 484.729C250.883 484.729 246.888 480.733 246.888 475.798C246.888 470.863 250.883 466.867 255.818 466.867C260.754 466.867 264.749 470.863 264.749 475.798C264.749 480.733 260.754 484.729 255.818 484.729ZM255.818 468.16C251.588 468.16 248.063 471.568 248.063 475.915C248.063 480.146 251.47 483.671 255.818 483.671C260.049 483.671 263.574 480.263 263.574 475.915C263.574 471.568 260.049 468.16 255.818 468.16Z" fill="#EBEBEB"/>
<path d="M338.193 354.998V357.348H335.843" stroke="#FE9563" stroke-width="1.1751" stroke-miterlimit="10"/>
<path d="M331.26 357.348H178.027" stroke="#FE9563" stroke-width="1.1751" stroke-miterlimit="10" stroke-dasharray="4.58 4.58"/>
<path d="M175.794 357.348H173.444V354.998" stroke="#FE9563" stroke-width="1.1751" stroke-miterlimit="10"/>
<path d="M173.444 350.415V231.142" stroke="#FE9563" stroke-width="1.1751" stroke-miterlimit="10" stroke-dasharray="4.68 4.68"/>
<path d="M173.444 228.792V226.442H175.794" stroke="#FFC727" stroke-width="1.1751" stroke-miterlimit="10"/>
<path d="M180.377 226.442H333.61" stroke="#FE9563" stroke-width="1.1751" stroke-miterlimit="10" stroke-dasharray="4.58 4.58"/>
<path d="M335.843 226.442H338.193V228.792" stroke="#FFC727" stroke-width="1.1751" stroke-miterlimit="10"/>
<path d="M338.193 233.493V352.765" stroke="#FE9563" stroke-width="1.1751" stroke-miterlimit="10" stroke-dasharray="4.68 4.68"/>
<path d="M194.479 308.699C194.479 317.042 200.942 323.858 209.167 324.446H298.71C308.934 324.446 317.277 316.102 317.277 305.879C317.277 296.243 309.874 288.252 300.473 287.43C299.885 270.626 286.137 257.112 269.215 257.112C255.701 257.112 244.185 265.691 239.838 277.559C237.37 276.266 234.55 275.561 231.494 275.561C221.624 275.561 213.515 283.317 212.928 292.953C212.105 292.835 211.283 292.718 210.343 292.718C201.529 292.835 194.479 300.003 194.479 308.699Z" fill="#FE9563"/>
<path d="M263.928 303.881H247.711V324.446H263.928V303.881Z" fill="white"/>
<path d="M242.188 303.881H269.45L255.819 290.25L242.188 303.881Z" fill="white"/>
<path d="M217.744 132.904C215.981 132.904 214.454 131.494 214.454 129.614V125.619C214.454 125.266 214.689 125.031 215.041 125.031C215.394 125.031 215.629 125.266 215.629 125.619V129.614C215.629 130.672 216.569 131.612 217.626 131.612C218.802 131.612 219.624 130.672 219.624 129.614V125.619C219.624 125.266 219.859 125.031 220.212 125.031C220.564 125.031 220.799 125.266 220.799 125.619V129.614C221.034 131.377 219.624 132.904 217.744 132.904Z" fill="white"/>
<path d="M226.323 129.849H224.913V132.317C224.913 132.669 224.678 132.904 224.325 132.904C223.973 132.904 223.738 132.669 223.738 132.317V125.619C223.738 125.266 223.973 125.031 224.325 125.031H226.323C227.615 125.031 228.79 126.089 228.79 127.499C228.79 128.674 227.615 129.849 226.323 129.849ZM224.913 128.557H226.323C227.028 128.557 227.498 128.087 227.498 127.381C227.498 126.676 227.028 126.206 226.323 126.206H224.913V128.557Z" fill="white"/>
<path d="M230.317 132.199V125.501C230.317 125.148 230.552 124.913 230.905 124.913C231.258 124.913 231.493 125.148 231.493 125.501V131.494H234.548C234.9 131.494 235.135 131.729 235.135 132.081C235.135 132.434 234.9 132.669 234.548 132.669H230.905C230.552 132.904 230.317 132.551 230.317 132.199Z" fill="white"/>
<path d="M242.42 125.971C243.125 126.676 243.595 127.733 243.595 128.791C243.595 129.966 243.125 130.906 242.42 131.611C241.715 132.316 240.775 132.786 239.717 132.786C238.66 132.786 237.602 132.316 236.897 131.611C236.192 130.906 235.722 129.849 235.722 128.791C235.722 127.616 236.192 126.676 236.897 125.971C237.602 125.266 238.542 124.796 239.717 124.796C240.775 124.796 241.715 125.266 242.42 125.971ZM242.303 128.791C242.303 127.968 241.95 127.263 241.48 126.793C241.01 126.323 240.422 125.971 239.717 125.971C239.012 125.971 238.307 126.206 237.837 126.793C237.367 127.263 237.015 127.968 237.015 128.791C237.015 129.614 237.25 130.319 237.837 130.789C238.307 131.259 238.895 131.611 239.717 131.611C240.422 131.611 241.01 131.259 241.48 130.789C241.95 130.319 242.303 129.614 242.303 128.791Z" fill="white"/>
<path d="M249.354 131.024H246.651L246.064 132.434C245.946 132.669 245.711 132.787 245.476 132.787C245.359 132.787 245.359 132.787 245.241 132.787C244.888 132.669 244.771 132.316 244.888 131.964L247.356 125.266C247.474 125.031 247.709 124.913 247.944 124.913C248.179 124.913 248.414 125.031 248.531 125.266L250.999 131.964C251.117 132.316 250.999 132.669 250.646 132.787C250.646 132.787 250.529 132.787 250.411 132.787C250.176 132.787 249.941 132.669 249.824 132.434L249.354 131.024ZM248.884 129.731L247.944 127.264L247.004 129.731H248.884Z" fill="white"/>
<path d="M252.645 132.199V125.501C252.645 125.148 252.88 124.913 253.232 124.913H254.525C256.757 124.913 258.52 126.676 258.52 128.909C258.52 131.141 256.757 132.904 254.525 132.904H253.232C252.88 132.904 252.645 132.551 252.645 132.199ZM253.937 131.611H254.642C256.17 131.611 257.345 130.436 257.345 128.909C257.345 127.381 256.17 126.206 254.642 126.206H253.937V131.611Z" fill="white"/>
<path d="M266.746 132.787C266.746 132.787 266.629 132.787 266.746 132.787C266.629 132.669 266.629 132.669 266.746 132.787C266.629 132.669 266.629 132.669 266.629 132.669V132.552L263.808 125.971C263.691 125.619 263.808 125.266 264.161 125.149C264.513 125.031 264.866 125.149 264.984 125.501L267.216 130.789L269.449 125.501C269.566 125.149 269.919 125.031 270.271 125.149C270.624 125.266 270.742 125.619 270.624 125.971L267.804 132.552V132.669C267.804 132.669 267.804 132.669 267.804 132.787C267.804 132.787 267.804 132.787 267.686 132.787C267.686 132.787 267.686 132.787 267.569 132.787C267.569 132.787 267.569 132.787 267.451 132.787H267.334H267.216H267.099C267.099 132.787 266.864 132.787 266.746 132.787C266.746 132.787 266.864 132.787 266.746 132.787Z" fill="white"/>
<path d="M272.151 125.619C272.151 125.266 272.386 125.031 272.739 125.031C273.091 125.031 273.326 125.266 273.326 125.619V132.317C273.326 132.669 273.091 132.904 272.739 132.904C272.386 132.904 272.151 132.669 272.151 132.317V125.619Z" fill="white"/>
<path d="M275.559 132.199V125.501C275.559 125.148 275.794 124.913 276.147 124.913H277.439C279.672 124.913 281.435 126.676 281.435 128.909C281.435 131.141 279.672 132.904 277.439 132.904H276.147C275.794 132.904 275.559 132.551 275.559 132.199ZM276.734 131.611H277.439C278.967 131.611 280.142 130.436 280.142 128.909C280.142 127.381 278.967 126.206 277.439 126.206H276.734V131.611Z" fill="white"/>
<path d="M283.08 132.199V125.501C283.08 125.148 283.315 124.913 283.668 124.913H287.311C287.663 124.913 287.898 125.148 287.898 125.501C287.898 125.853 287.663 126.088 287.311 126.088H284.373V128.204H286.958C287.311 128.204 287.546 128.439 287.546 128.791C287.546 129.144 287.311 129.379 286.958 129.379H284.373V131.494H287.428C287.781 131.494 288.016 131.729 288.016 132.081C288.016 132.434 287.781 132.669 287.428 132.669H283.785C283.315 132.904 283.08 132.551 283.08 132.199Z" fill="white"/>
<path d="M296.006 125.971C296.711 126.676 297.181 127.733 297.181 128.791C297.181 129.966 296.711 130.906 296.006 131.611C295.301 132.316 294.361 132.786 293.303 132.786C292.246 132.786 291.188 132.316 290.483 131.611C289.778 130.906 289.308 129.849 289.308 128.791C289.308 127.616 289.778 126.676 290.483 125.971C291.188 125.266 292.128 124.796 293.303 124.796C294.361 124.796 295.301 125.266 296.006 125.971ZM295.888 128.791C295.888 127.968 295.536 127.263 295.066 126.793C294.596 126.323 294.008 125.971 293.303 125.971C292.598 125.971 291.893 126.206 291.423 126.793C290.953 127.263 290.601 127.968 290.601 128.791C290.601 129.614 290.836 130.319 291.423 130.789C291.893 131.259 292.481 131.611 293.303 131.611C294.008 131.611 294.596 131.259 295.066 130.789C295.536 130.319 295.888 129.614 295.888 128.791Z" fill="white"/>
<path d="M238.897 379.909C237.37 379.909 236.195 378.734 236.195 377.206V373.916C236.195 373.681 236.43 373.446 236.665 373.446C236.9 373.446 237.135 373.681 237.135 373.916V377.206C237.135 378.146 237.84 378.852 238.78 378.852C239.72 378.852 240.425 378.146 240.425 377.206V373.916C240.425 373.681 240.66 373.446 240.895 373.446C241.13 373.446 241.365 373.681 241.365 373.916V377.206C241.6 378.734 240.308 379.909 238.897 379.909Z" fill="#C7C7C7"/>
<path d="M243.716 381.202V377.677V375.796C243.716 375.561 243.951 375.326 244.186 375.326C244.421 375.326 244.656 375.561 244.656 375.679C245.008 375.444 245.478 375.326 245.948 375.326C247.241 375.326 248.181 376.384 248.181 377.677C248.181 378.969 247.123 380.027 245.948 380.027C245.478 380.027 245.008 379.909 244.656 379.674V381.319C244.656 381.554 244.421 381.789 244.068 381.789C243.951 381.672 243.716 381.437 243.716 381.202ZM244.656 377.559C244.656 377.912 244.773 378.264 245.008 378.499C245.243 378.734 245.596 378.852 245.948 378.852C246.301 378.852 246.536 378.734 246.771 378.499C247.006 378.264 247.123 377.912 247.123 377.559C247.123 377.207 247.006 376.854 246.771 376.619C246.536 376.384 246.183 376.267 245.948 376.267C245.596 376.267 245.243 376.384 245.008 376.619C244.773 376.854 244.656 377.207 244.656 377.559Z" fill="#C7C7C7"/>
<path d="M250.296 373.329C250.531 373.329 250.766 373.564 250.766 373.799V379.322C250.766 379.557 250.531 379.792 250.296 379.792C250.061 379.792 249.826 379.557 249.826 379.322V373.799C249.708 373.564 249.943 373.329 250.296 373.329Z" fill="#C7C7C7"/>
<path d="M252.411 379.205C252.059 378.735 251.706 378.264 251.706 377.559C251.706 376.972 251.941 376.384 252.411 375.914C252.881 375.444 253.352 375.209 254.057 375.209C254.644 375.209 255.232 375.444 255.584 375.914C256.054 376.384 256.289 376.972 256.289 377.559C256.289 378.264 256.054 378.852 255.584 379.205C255.232 379.675 254.644 379.91 254.057 379.91C253.469 379.91 252.881 379.675 252.411 379.205ZM252.881 377.559C252.881 377.912 252.999 378.265 253.234 378.5C253.469 378.735 253.822 378.852 254.174 378.852C254.527 378.852 254.762 378.735 254.997 378.5C255.232 378.265 255.349 377.912 255.349 377.559C255.349 377.207 255.232 376.854 254.997 376.619C254.762 376.384 254.409 376.267 254.174 376.267C253.822 376.267 253.469 376.384 253.234 376.619C252.999 376.854 252.881 377.207 252.881 377.559Z" fill="#C7C7C7"/>
<path d="M261.812 377.559V379.44C261.812 379.675 261.577 379.91 261.342 379.91C261.107 379.91 260.872 379.675 260.872 379.557C260.519 379.792 260.049 379.91 259.579 379.91C258.992 379.91 258.404 379.675 257.934 379.205C257.581 378.735 257.346 378.147 257.346 377.559C257.346 376.854 257.581 376.384 257.934 375.914C258.287 375.444 258.874 375.209 259.579 375.209C260.049 375.209 260.519 375.327 260.872 375.679C260.872 375.444 261.107 375.209 261.342 375.209C261.577 375.209 261.812 375.444 261.812 375.679V377.559ZM260.872 377.559C260.872 377.207 260.754 376.854 260.519 376.619C260.284 376.384 259.932 376.267 259.697 376.267C259.344 376.267 258.992 376.384 258.874 376.619C258.639 376.854 258.522 377.207 258.522 377.559C258.522 377.912 258.639 378.265 258.874 378.5C259.109 378.735 259.462 378.852 259.697 378.852C260.049 378.852 260.402 378.735 260.519 378.5C260.754 378.265 260.872 377.912 260.872 377.559Z" fill="#C7C7C7"/>
<path d="M267.923 379.439C267.923 379.674 267.688 379.909 267.453 379.909C267.218 379.909 266.983 379.674 266.983 379.557C266.63 379.792 266.16 379.909 265.69 379.909C264.398 379.909 263.458 378.852 263.458 377.559C263.458 376.267 264.515 375.209 265.69 375.209C266.16 375.209 266.63 375.327 266.983 375.562V373.799C266.983 373.564 267.218 373.329 267.453 373.329C267.688 373.329 267.923 373.564 267.923 373.799V377.559V379.439ZM265.69 376.267C265.338 376.267 264.985 376.384 264.868 376.619C264.633 376.854 264.515 377.207 264.515 377.559C264.515 377.912 264.633 378.264 264.868 378.499C265.103 378.734 265.455 378.852 265.69 378.852C266.043 378.852 266.395 378.734 266.63 378.499C266.865 378.264 266.983 377.912 266.983 377.559C266.983 377.207 266.865 376.854 266.63 376.619C266.278 376.384 266.043 376.267 265.69 376.267Z" fill="#C7C7C7"/>
<path d="M270.507 378.617C270.86 378.617 271.212 378.969 271.212 379.322C271.212 379.675 270.86 380.027 270.507 380.027C270.155 380.027 269.802 379.675 269.802 379.322C269.802 378.852 270.037 378.617 270.507 378.617Z" fill="#C7C7C7"/>
<path d="M272.623 378.617C272.976 378.617 273.328 378.969 273.328 379.322C273.328 379.675 272.976 380.027 272.623 380.027C272.271 380.027 271.918 379.675 271.918 379.322C271.918 378.852 272.271 378.617 272.623 378.617Z" fill="#C7C7C7"/>
<path d="M274.739 378.617C275.091 378.617 275.444 378.969 275.444 379.322C275.444 379.675 275.091 380.027 274.739 380.027C274.386 380.027 274.033 379.675 274.033 379.322C274.151 378.852 274.386 378.617 274.739 378.617Z" fill="#C7C7C7"/>
<path d="M328.795 386.725H182.847V395.891H328.795V386.725Z" fill="#EBEBEB"/>
<path d="M231.85 388.37H184.611V394.363H231.85V388.37Z" fill="#FE9563"/>
<path opacity="0.1" d="M194.128 388.37H189.193L184.61 394.363H189.546L194.128 388.37Z" fill="black"/>
<path opacity="0.1" d="M203.529 388.37H198.711L194.011 394.363H198.946L203.529 388.37Z" fill="black"/>
<path opacity="0.1" d="M213.047 388.37H208.112L203.529 394.363H208.347L213.047 388.37Z" fill="black"/>
<path opacity="0.1" d="M222.448 388.37H217.512L212.929 394.363H217.865L222.448 388.37Z" fill="black"/>
<path opacity="0.1" d="M231.848 388.37H227.03L222.33 394.363H227.265L231.848 388.37Z" fill="black"/>
<path opacity="0.1" d="M279.088 394.363V394.246L278.971 394.363H279.088Z" fill="black"/>
<path d="M391.191 178.851C390.251 179.791 389.311 180.731 388.37 181.671C387.783 182.258 387.313 182.728 386.725 183.316C379.205 176.03 370.274 172.153 359.698 172.153C349.24 172.153 340.191 176.03 332.671 183.433C332.201 182.963 331.613 182.376 331.143 181.906C330.203 180.966 329.263 180.026 328.323 179.086C328.323 179.086 328.323 179.086 328.205 179.086C328.205 179.086 328.205 179.086 328.205 178.968C328.323 178.968 328.323 178.851 328.44 178.851C329.615 177.793 330.791 176.735 331.966 175.678C334.433 173.563 337.254 171.917 340.191 170.507C343.599 168.862 347.242 167.57 351.12 166.865C352.882 166.512 354.763 166.395 356.525 166.159C357.113 166.042 361.108 166.042 361.226 166.042C362.518 166.16 363.693 166.159 364.986 166.277C368.394 166.63 371.684 167.452 374.974 168.627C377.325 169.45 379.557 170.507 381.672 171.8C383.905 173.093 386.138 174.62 388.135 176.265C389.311 176.97 390.251 177.911 391.191 178.851Z" fill="#F6EDDF"/>
<path d="M341.602 192.129C340.074 190.601 338.664 189.191 337.136 187.781C342.189 182.845 348.182 179.672 355.115 178.732C365.574 177.322 374.622 180.495 382.26 187.781C380.732 189.308 379.322 190.718 377.795 192.246C372.742 187.428 366.749 184.725 359.698 184.725C352.765 184.608 346.655 187.193 341.602 192.129Z" fill="#F6EDDF"/>
<path d="M373.448 196.476C372.038 197.886 370.51 199.414 368.982 200.824C366.397 198.356 363.342 196.946 359.699 196.946C356.056 196.946 353.001 198.356 350.416 200.824C348.888 199.296 347.478 197.886 346.068 196.476C353.119 189.191 365.692 188.603 373.448 196.476Z" fill="#F6EDDF"/>
<path d="M363.811 204.937C363.811 207.17 362.049 208.933 359.816 208.933C357.583 208.933 355.821 207.17 355.821 204.937C355.821 202.705 357.583 200.942 359.816 200.942C361.931 200.942 363.811 202.705 363.811 204.937Z" fill="#F6EDDF"/>
<path d="M121.505 464.283L117.98 512.58C117.98 521.98 118.098 530.324 118.568 534.554C118.568 534.554 118.568 534.554 118.568 534.671C118.685 536.317 118.92 537.374 119.273 537.609C119.273 537.609 119.273 537.609 119.273 537.727C122.093 539.607 197.652 542.192 200.237 541.487C202.94 540.664 200.825 533.026 198.004 530.559C195.184 528.091 166.629 514.225 166.629 514.225L169.684 465.928L121.505 464.283Z" fill="#774442"/>
<path d="M200.355 541.252C197.652 542.075 122.21 539.489 119.39 537.492C119.39 537.492 119.39 537.492 119.273 537.374C119.038 537.139 118.803 536.082 118.568 534.436C118.568 534.436 118.568 534.436 118.568 534.319C118.098 529.971 117.98 521.745 117.98 512.345C117.98 512.345 118.568 504.001 119.273 494.248L167.804 496.481L166.747 513.872C166.747 513.872 195.184 527.738 198.122 530.206C200.942 532.909 203.057 540.547 200.355 541.252Z" fill="#EBEBEB"/>
<path d="M200.707 541.487C198.004 542.309 121.27 540.194 118.45 538.196C117.392 537.491 117.157 511.757 118.685 498.713L168.039 500.593C168.039 500.593 167.921 513.872 168.509 514.107C173.327 516.574 195.771 528.09 198.356 530.323C201.294 532.791 203.409 540.664 200.707 541.487Z" fill="#FE9563"/>
<path d="M199.767 538.314C186.959 537.491 135.019 535.494 122.328 535.729C122.211 535.729 122.211 535.846 122.328 535.846C135.019 536.904 186.959 538.549 199.767 538.667C200.002 538.549 200.002 538.314 199.767 538.314Z" fill="#263238"/>
<path d="M193.657 527.386C190.602 527.151 187.547 528.443 185.902 530.206C184.257 531.851 182.729 534.319 182.729 536.904C182.729 537.021 182.847 537.021 182.847 536.904C183.787 531.851 188.487 527.621 193.657 527.503C193.775 527.621 193.775 527.386 193.657 527.386Z" fill="#263238"/>
<path d="M171.682 515.164C166.512 514.929 160.519 516.457 157.111 520.57C156.993 520.687 157.228 520.922 157.346 520.805C162.046 518.572 166.629 516.927 171.682 515.752C172.035 515.634 172.035 515.164 171.682 515.164Z" fill="#263238"/>
<path d="M175.56 516.81C170.39 516.575 164.397 518.102 160.989 522.215C160.872 522.333 161.107 522.568 161.224 522.45C165.925 520.217 170.507 518.572 175.56 517.397C175.913 517.397 175.913 516.81 175.56 516.81Z" fill="#263238"/>
<path d="M179.439 518.454C174.268 518.219 168.275 519.747 164.867 523.86C164.75 523.977 164.985 524.212 165.102 524.095C169.803 521.862 174.386 520.217 179.439 519.042C179.909 519.042 179.791 518.572 179.439 518.454Z" fill="#263238"/>
<path d="M183.316 520.217C178.145 519.982 172.152 521.51 168.744 525.623C168.627 525.74 168.862 525.975 168.979 525.858C173.68 523.625 178.263 521.98 183.316 520.805C183.786 520.805 183.786 520.217 183.316 520.217Z" fill="#263238"/>
<path d="M126.558 503.766C120.8 503.531 120.448 512.579 126.206 512.697C132.081 512.932 132.434 503.884 126.558 503.766Z" fill="#263238"/>
<path d="M177.676 501.651C175.208 499.419 171.801 501.416 170.155 503.531C169.45 504.471 168.745 505.647 168.04 506.822C166.63 509.407 165.572 512.345 165.102 515.165C165.102 515.4 164.985 515.635 164.985 515.87C164.985 515.987 164.985 515.987 164.985 515.987C164.985 516.222 164.867 516.34 164.867 516.575C164.867 516.692 164.985 516.693 164.985 516.693C165.102 516.928 165.22 517.163 165.455 517.163C165.572 517.163 165.69 517.163 165.808 517.163C166.865 516.457 167.923 515.87 168.98 515.165L169.568 514.812C172.153 513.167 174.738 511.522 176.736 509.172C178.734 507.057 180.144 503.766 177.676 501.651ZM170.978 512.345C170.155 512.932 169.333 513.402 168.393 513.99C167.57 514.46 166.748 515.047 166.043 515.635C165.925 515.635 165.925 515.752 165.808 515.87C165.69 515.987 165.572 515.987 165.572 516.105C165.572 515.987 165.69 515.87 165.69 515.87C166.513 513.872 167.218 511.875 168.158 509.877C168.275 509.524 168.51 509.054 168.745 508.702C169.333 507.527 170.038 506.352 170.743 505.294C171.918 503.649 177.088 499.536 177.441 505.176C177.559 507.997 173.211 510.817 170.978 512.345Z" fill="#263238"/>
<path d="M166.041 516.222C166.158 516.105 166.158 516.105 166.041 515.987C165.923 515.87 165.806 515.752 165.688 515.752L165.571 515.635C165.453 515.517 165.218 515.282 165.101 515.165C162.045 512.462 157.815 510.229 153.82 509.289C151.117 508.702 147.239 509.289 146.769 512.58C146.299 515.752 149.472 517.515 152.057 517.985C154.642 518.455 157.345 518.338 160.048 517.985C161.928 517.75 163.808 517.397 165.571 517.28C166.158 517.045 166.276 516.575 166.041 516.222ZM158.755 516.575C156.17 516.81 150.882 517.397 149.119 514.93C145.829 510.347 152.41 510.229 154.407 510.817C155.7 511.169 156.875 511.639 158.168 512.227C160.635 513.285 162.868 514.577 165.101 515.87C165.218 515.87 165.218 515.987 165.336 515.987C165.218 515.987 165.101 515.987 165.101 515.987C164.866 515.987 164.631 515.987 164.278 515.987C162.398 516.105 160.635 516.34 158.755 516.575Z" fill="#263238"/>
<path d="M117.979 491.545L172.033 493.778C172.033 493.778 174.501 418.336 173.326 386.726C172.033 352.296 157.227 249.709 157.227 249.709H112.573C112.573 249.709 123.972 352.648 124.207 387.078C124.442 419.041 117.979 491.545 117.979 491.545Z" fill="#37474F"/>
<path d="M148.414 249.709L121.622 342.542C118.449 298.593 112.573 249.709 112.573 249.709H148.414Z" fill="#263238"/>
<path d="M121.034 254.761L123.854 285.314L126.439 315.984C128.084 336.431 129.73 356.878 130.905 377.324C131.257 382.495 131.375 387.548 131.257 392.718C131.14 397.889 130.905 402.942 130.67 408.112C130.2 418.335 129.495 428.559 128.672 438.782C127.849 449.006 125.029 479.088 125.029 479.088C125.029 479.088 127.144 449.006 127.732 438.782C128.319 428.559 129.025 418.335 129.495 408.112C129.73 402.942 129.965 397.889 129.965 392.718C129.965 387.665 129.847 382.495 129.495 377.442C128.437 356.995 126.792 336.548 125.264 316.102L121.034 254.761Z" fill="#263238"/>
<path d="M170.272 483.671C162.046 483.084 164.396 483.201 156.171 482.731C152.175 482.496 125.618 480.969 121.858 481.439C121.74 481.439 121.74 481.556 121.858 481.556C125.618 482.379 152.175 483.319 156.171 483.554C164.396 483.906 162.046 483.671 170.272 483.906C170.389 483.906 170.507 483.671 170.272 483.671Z" fill="#263238"/>
<path d="M35.7218 436.903L11.0446 478.619C6.81429 487.079 3.17148 494.483 1.76135 498.595C1.76135 498.595 1.76135 498.595 1.76135 498.713C1.1738 500.241 0.938784 501.298 1.05629 501.651C1.05629 501.651 1.05629 501.651 1.05629 501.768C2.70143 504.706 69.2121 540.664 71.9149 541.134C74.6176 541.604 76.2627 533.848 74.7351 530.441C73.2075 527.033 53.9358 501.886 53.9358 501.886L78.1429 460.052L35.7218 436.903Z" fill="#774442"/>
<path d="M71.9149 541.017C69.2121 540.546 2.70143 504.588 1.05629 501.651C1.05629 501.651 1.05629 501.651 1.05629 501.533C0.938784 501.181 1.1738 500.123 1.76135 498.595C1.76135 498.595 1.76135 498.595 1.76135 498.478C3.28899 494.483 6.81429 486.962 11.0446 478.501C11.0446 478.501 15.275 471.216 20.3279 462.872L62.7491 486.492L54.0533 501.651C54.0533 501.651 73.325 526.798 74.8526 530.206C76.2627 533.731 74.7351 541.487 71.9149 541.017Z" fill="#EBEBEB"/>
<path d="M72.2669 541.251C69.4467 540.781 1.76087 504.706 0.11573 501.65C-0.47182 500.475 10.6916 477.326 17.8597 466.397L61.221 490.135C61.221 490.135 55.228 502.003 55.698 502.473C58.9883 506.821 73.9121 527.15 75.2047 530.323C76.6148 533.848 74.9696 541.721 72.2669 541.251Z" fill="#FE9563"/>
<path d="M72.7371 538.079C61.5736 531.616 16.0972 506.704 4.58124 501.181C4.46373 501.181 4.46373 501.181 4.58124 501.298C15.5097 507.879 61.2211 532.438 72.6196 538.314C72.8546 538.314 72.9721 538.196 72.7371 538.079Z" fill="#263238"/>
<path d="M72.149 525.505C69.5638 523.978 66.2735 523.743 63.9233 524.565C61.6906 525.388 59.3404 526.798 58.1653 529.266C58.1653 529.383 58.2829 529.383 58.2829 529.383C61.3381 525.27 67.4486 523.625 72.149 525.74C72.149 525.74 72.2666 525.623 72.149 525.505Z" fill="#263238"/>
<path d="M57.93 504.706C53.4646 502.121 47.3541 500.946 42.5362 503.061C42.3012 503.178 42.4187 503.413 42.6537 503.413C47.9416 503.531 52.642 504.118 57.695 505.294C58.0475 505.411 58.2825 504.941 57.93 504.706Z" fill="#263238"/>
<path d="M60.634 507.996C56.1686 505.411 50.0581 504.236 45.2402 506.351C45.0051 506.468 45.1227 506.703 45.3577 506.703C50.6456 506.821 55.346 507.409 60.399 508.584C60.7515 508.701 60.9865 508.114 60.634 507.996Z" fill="#263238"/>
<path d="M63.4534 511.287C58.9881 508.702 52.8775 507.527 48.0596 509.642C47.8246 509.759 47.9421 509.994 48.1771 509.994C53.4651 510.112 58.1655 510.7 63.2184 511.875C63.5709 511.992 63.6885 511.405 63.4534 511.287Z" fill="#263238"/>
<path d="M66.1563 514.459C61.6909 511.874 55.5804 510.699 50.7625 512.814C50.5275 512.932 50.645 513.167 50.88 513.167C56.168 513.284 60.8684 513.872 65.9213 515.047C66.2738 515.164 66.5089 514.694 66.1563 514.459Z" fill="#263238"/>
<path d="M22.6774 474.506C17.6245 471.803 13.2766 479.676 18.4471 482.379C23.5 485.082 27.7304 477.209 22.6774 474.506Z" fill="#263238"/>
<path d="M69.3298 495.306C68.0372 492.133 64.1594 492.485 61.6917 493.661C60.6341 494.248 59.459 494.836 58.4014 495.658C55.9337 497.421 53.701 499.536 52.0558 501.886C51.9383 502.121 51.8208 502.239 51.7033 502.474C51.5858 502.474 51.5858 502.591 51.5858 502.591C51.4683 502.709 51.3508 502.826 51.2333 503.061C51.2333 503.179 51.2333 503.296 51.3508 503.296C51.3508 503.531 51.3508 503.884 51.5858 504.001C51.7033 504.119 51.8208 504.119 51.9383 504.119C53.1134 504.001 54.4061 503.884 55.6987 503.766H56.4037C59.459 503.531 62.5142 503.179 65.3345 501.886C67.8022 500.711 70.6224 498.361 69.3298 495.306ZM58.6364 501.886C57.5788 502.004 56.6387 502.121 55.6987 502.239C54.7586 502.356 53.8185 502.474 52.8784 502.591C52.7609 502.591 52.6434 502.591 52.5259 502.591C52.4084 502.591 52.2909 502.591 52.1734 502.591C52.2909 502.474 52.2909 502.474 52.4084 502.356C54.0535 500.946 55.5811 499.419 57.3438 498.126C57.6963 497.891 58.0489 497.538 58.4014 497.303C59.459 496.598 60.5166 495.776 61.6917 495.188C63.4543 494.248 70.0349 492.838 67.8022 498.008C66.3921 500.946 61.2216 501.534 58.6364 501.886Z" fill="#263238"/>
<path d="M52.4074 503.296C52.5249 503.296 52.5249 503.179 52.5249 503.061C52.5249 502.944 52.4074 502.826 52.4074 502.709V502.591C52.2899 502.356 52.2899 502.121 52.1724 502.004C50.6448 498.126 47.8245 494.248 44.7693 491.663C42.6541 489.9 38.8938 488.725 37.0136 491.428C35.1334 494.013 37.2486 497.068 39.3638 498.596C41.479 500.241 43.9467 501.299 46.5319 502.121C48.2946 502.709 50.0572 503.296 51.8199 503.884C52.0549 504.001 52.4074 503.649 52.4074 503.296ZM45.8269 500.241C43.3591 499.301 38.4237 497.421 37.9537 494.366C37.0136 488.843 43.0066 491.663 44.5343 493.073C45.4743 493.896 46.4144 494.953 47.237 495.893C48.8821 497.891 50.2922 500.124 51.8199 502.239C51.8199 502.356 51.9374 502.356 51.9374 502.474C51.8199 502.474 51.8199 502.356 51.7024 502.356C51.4673 502.239 51.2323 502.121 50.9973 502.004C49.2347 501.534 47.472 500.946 45.8269 500.241Z" fill="#263238"/>
<path d="M152.644 249.709C152.409 250.649 149.354 265.103 146.063 277.559C143.713 286.607 141.245 294.598 139.953 295.42C138.425 296.36 130.669 299.768 128.084 300.826C128.084 300.826 110.81 386.961 101.762 413.636C93.4188 438.313 69.6818 485.317 69.6818 485.317L20.5626 458.289C20.5626 458.289 47.4724 411.873 51.7027 399.887C58.1658 381.32 82.1378 290.602 82.1378 290.602C82.1378 290.602 81.9028 262.165 91.5386 249.827H152.644V249.709Z" fill="#37474F"/>
<path d="M71.6808 474.153C64.5127 470.158 66.6279 471.215 59.3422 467.22C55.8169 465.34 32.4324 452.649 28.7896 451.356C28.6721 451.356 28.6721 451.474 28.6721 451.474C31.7274 453.824 55.2294 466.045 58.8722 467.925C66.1578 471.685 64.1602 470.51 71.4458 474.271C71.6808 474.388 71.7983 474.271 71.6808 474.153Z" fill="#263238"/>
<path d="M95.0657 282.612C96.4759 282.259 97.886 282.142 99.2961 281.907C100.471 281.672 101.529 281.554 102.704 281.319C104.819 280.849 106.934 280.144 108.697 278.851C110.695 277.324 111.635 274.974 112.575 272.858C113.162 271.566 113.75 270.273 114.337 268.981C114.572 268.393 114.925 267.688 115.16 267.1C115.512 266.395 115.983 265.573 116.218 264.868C116.218 264.75 116.453 264.868 116.335 264.868C116.1 265.338 115.983 265.925 115.865 266.513C115.63 267.1 115.512 267.805 115.277 268.393C114.925 269.568 114.572 270.626 114.22 271.801C113.515 273.798 112.927 275.914 111.87 277.794C109.754 281.084 106.112 282.494 102.351 282.964C101.294 283.082 100.236 283.199 99.1786 283.199C97.886 283.317 96.4759 283.434 95.0657 283.199C94.9482 282.964 94.8307 282.612 95.0657 282.612Z" fill="#263238"/>
<path d="M143.95 293.422C138.427 295.303 133.139 298.005 128.086 300.825C127.851 300.943 127.968 301.296 128.203 301.178C133.491 298.945 139.014 296.713 144.185 294.127C144.655 293.892 144.42 293.305 143.95 293.422Z" fill="#263238"/>
<path d="M145.594 256.994C145.594 256.759 145.241 256.759 145.241 256.994C145.241 263.34 144.889 268.863 144.301 274.738C144.066 277.441 141.834 292.6 137.133 291.542C136.311 291.307 135.958 290.602 135.841 289.427C135.723 288.017 136.193 286.254 136.428 284.727C136.898 281.554 137.368 278.381 137.603 275.208C138.073 269.215 138.191 263.222 137.368 257.229C137.368 256.994 137.016 256.994 137.016 257.229C137.016 265.455 136.781 273.798 135.606 282.024C135.018 286.019 133.02 291.895 137.133 292.482C141.364 293.07 144.066 283.199 144.536 280.496C146.064 272.858 146.182 264.633 145.594 256.994Z" fill="#263238"/>
<path d="M137.251 292.012C136.781 293.07 136.429 294.127 136.194 295.185C135.959 296.008 135.606 296.948 135.724 297.77C135.724 297.888 135.959 298.005 136.076 297.888C136.664 297.183 136.899 296.243 137.134 295.42C137.486 294.48 137.839 293.54 138.192 292.482C138.427 291.66 137.486 291.307 137.251 292.012Z" fill="#263238"/>
<path d="M32.7857 451.473C39.9538 437.96 51.2348 416.808 54.7601 410.227C58.1679 403.647 60.5181 396.714 62.7508 389.545C67.2162 375.092 71.4465 360.638 75.3244 346.067C79.3197 331.496 82.9625 316.807 86.4878 302.118C87.3104 298.475 88.368 294.715 89.073 291.072C89.7781 287.194 89.5431 283.669 89.073 279.791C88.603 276.266 88.4855 272.741 88.9555 269.215C89.5431 265.69 90.3656 262.282 91.4232 258.874C92.0108 257.112 92.5983 255.349 93.1859 253.586C93.3034 253.351 93.5384 253.469 93.5384 253.704C91.4232 260.872 89.1905 268.04 89.6606 275.561C89.8956 279.204 90.8357 282.729 90.8357 286.372C90.7182 290.014 89.7781 293.54 88.9555 297.065C85.5477 311.871 81.7874 326.56 77.9096 341.249C74.0317 355.938 69.8014 370.509 65.4535 384.963C63.3383 392.013 61.3407 399.181 58.2854 405.879C55.2301 412.577 43.7141 433.259 36.076 446.538C35.1359 448.183 34.0783 449.828 33.1382 451.591C32.9032 451.708 32.6682 451.591 32.7857 451.473Z" fill="#263238"/>
<path d="M128.437 174.268C143.831 182.728 170.036 198.357 180.729 199.532C188.955 200.472 227.616 174.855 239.249 164.867C242.774 161.812 222.798 139.72 218.685 142.657C207.404 150.766 176.969 169.802 175.676 170.037C170.623 170.977 150.529 165.337 132.55 161.929C112.456 158.169 120.916 170.155 128.437 174.268Z" fill="#774442"/>
<path d="M156.404 191.777L168.625 169.097C168.625 169.097 138.543 159.814 124.911 160.872C111.28 162.047 119.741 169.215 126.674 174.033C133.372 178.851 156.404 191.777 156.404 191.777Z" fill="#C7C7C7"/>
<path d="M156.404 191.777L168.625 169.097C168.625 169.097 138.543 159.814 124.911 160.872C111.28 162.047 119.741 169.215 126.674 174.033C133.372 178.851 156.404 191.777 156.404 191.777Z" fill="#FE9563"/>
<path d="M168.51 169.215L168.392 169.45C168.157 169.332 167.805 169.215 167.57 169.097C167.1 168.98 166.747 168.745 166.277 168.627L164.984 168.157C164.514 168.039 164.044 167.922 163.574 167.804L162.869 167.687C162.634 167.687 162.399 167.569 162.164 167.569C158.521 166.982 154.644 167.334 151.118 168.392C147.593 169.45 144.185 171.212 141.012 173.092C138.545 174.62 136.077 176.265 133.727 177.91C133.609 178.028 133.492 178.145 133.374 178.145C133.257 178.263 133.257 178.263 133.139 178.263C133.022 178.145 132.787 178.028 132.669 178.028C132.787 178.028 132.904 177.91 132.904 177.91C133.022 177.793 133.139 177.793 133.257 177.675C135.724 176.03 138.192 174.268 140.777 172.74C143.95 170.86 147.358 169.097 151.001 168.039C154.526 166.982 158.286 166.747 161.812 167.217C164.867 168.039 167.217 168.745 168.04 168.98C168.275 169.097 168.392 169.097 168.51 169.215ZM160.519 183.081C157.229 184.138 153.938 185.431 150.766 186.724C150.178 186.959 149.473 187.194 148.886 187.429C149.121 187.546 149.238 187.664 149.473 187.781C149.943 187.546 150.531 187.429 151.001 187.194C154.173 185.901 157.464 184.608 160.637 183.433C160.754 183.433 160.872 183.316 160.872 183.316L161.107 182.728C160.989 182.846 160.754 182.963 160.519 183.081ZM133.727 177.91C133.609 177.793 133.492 177.675 133.257 177.675C132.082 176.853 130.789 176.265 129.496 175.795C129.261 175.678 128.909 175.678 128.674 175.56C129.026 175.795 129.496 176.03 129.849 176.265C130.906 176.618 131.964 177.205 132.904 177.793C133.022 177.91 133.139 178.028 133.374 178.028C133.727 178.263 133.962 178.498 134.314 178.733C134.549 178.968 134.902 179.203 135.137 179.438C135.607 179.79 136.194 180.026 136.782 180.378C136.077 179.673 135.372 178.968 134.549 178.38C134.314 178.263 133.962 178.028 133.727 177.91Z" fill="white"/>
<path d="M151.94 188.133C153.35 184.843 155.23 181.67 156.875 178.498C158.638 175.207 160.635 172.152 162.398 168.979C162.398 168.862 162.633 168.979 162.516 169.097C160.87 172.27 159.343 175.56 157.58 178.733C155.817 181.905 154.055 185.196 151.94 188.133C151.94 188.251 151.94 188.251 151.94 188.133Z" fill="#263238"/>
<path opacity="0.1" d="M162.633 180.143L156.405 191.776C156.405 191.776 133.491 178.85 126.558 174.15C122.327 171.212 117.627 167.452 117.627 164.631L162.633 180.143Z" fill="black"/>
<path d="M84.1366 258.64C84.3716 258.875 157.58 257.582 158.285 256.76C159.226 255.585 149.002 187.311 138.661 169.097C133.726 160.402 120.212 155.701 112.339 169.215C93.5374 201.413 83.5491 257.935 84.1366 258.64Z" fill="#FE9563"/>
<path d="M158.168 254.175C157.815 254.175 157.463 254.175 157.11 254.175C156.875 254.175 156.64 254.175 156.405 254.175H155.7C155.23 254.175 154.76 254.175 154.29 254.057L152.88 253.822C152.41 253.822 151.94 253.705 151.47 253.587C150.53 253.47 149.59 253.117 148.767 252.882C147.827 252.529 147.004 252.294 146.182 251.824C145.359 251.472 144.537 251.002 143.597 250.532C142.774 250.062 141.951 249.592 141.246 249.122C140.424 248.652 139.719 248.064 138.896 247.477C138.191 246.889 137.369 246.301 136.663 245.714C135.841 245.009 135.018 244.304 134.196 243.599C134.078 243.481 133.961 243.481 133.961 243.364C132.081 241.719 130.2 239.956 128.438 238.193C125.735 235.608 123.032 233.023 120.095 230.673C118.684 229.498 117.157 228.44 115.512 227.617C115.159 227.382 114.807 227.265 114.454 227.147C114.337 227.03 114.102 227.03 113.984 226.912C112.809 226.442 111.516 226.09 110.224 225.855C109.754 225.855 109.284 225.737 108.814 225.737H107.403C106.933 225.737 106.463 225.737 105.993 225.855L104.583 225.972L103.878 226.09L103.173 226.207L101.763 226.442C100.823 226.677 100 226.912 99.0603 227.265C98.7077 227.382 98.2377 227.5 97.8852 227.735C97.6501 227.852 97.5326 227.852 97.4151 227.97C96.24 228.44 95.0649 229.027 94.0073 229.615C92.4797 230.438 90.8345 231.143 89.1894 231.848C89.1894 231.73 89.1894 231.613 89.3069 231.613C90.8345 231.025 92.3622 230.203 93.8898 229.38C94.9474 228.792 96.005 228.322 97.0626 227.852C97.1801 227.735 97.4151 227.735 97.5326 227.617C98.0027 227.382 98.4727 227.265 98.9427 227.03C99.8828 226.677 100.705 226.442 101.645 226.207L103.056 225.972L103.761 225.855L104.466 225.737L105.876 225.62C106.346 225.62 106.816 225.62 107.286 225.502H108.696C109.166 225.502 109.636 225.502 110.106 225.62C111.516 225.737 112.809 226.207 114.102 226.677C114.219 226.795 114.454 226.795 114.572 226.912C114.924 227.03 115.159 227.147 115.512 227.382C117.157 228.322 118.684 229.38 120.212 230.555C123.15 232.905 125.853 235.608 128.438 238.193C130.318 240.073 132.198 241.836 134.078 243.599C134.196 243.716 134.313 243.834 134.313 243.834C135.018 244.539 135.841 245.126 136.663 245.831C138.074 247.007 139.601 248.182 141.129 249.122C141.951 249.592 142.774 250.062 143.479 250.532C144.302 250.884 145.124 251.354 146.064 251.707C146.887 252.059 147.827 252.412 148.65 252.765C149.59 253 150.412 253.352 151.352 253.47C151.822 253.587 152.292 253.705 152.762 253.705L154.172 253.822C154.643 253.822 155.113 253.822 155.583 253.94H156.288C156.523 253.94 156.758 253.94 156.993 253.94C157.345 253.94 157.698 253.94 158.05 253.822C158.168 254.057 158.168 254.175 158.168 254.175ZM156.053 237.958C155.935 237.958 155.935 238.076 155.818 238.076C152.762 239.721 149.59 241.131 146.299 242.189C143.009 243.129 139.484 243.599 136.076 243.716C135.488 243.716 134.901 243.716 134.313 243.716C134.196 243.716 134.078 243.716 133.961 243.716C131.258 243.599 128.438 243.129 125.853 242.424C124.207 241.954 122.562 241.366 120.917 240.778C119.272 240.073 117.744 239.368 116.217 238.546C113.396 237.136 110.694 235.373 107.991 233.728C107.874 233.61 107.756 233.61 107.521 233.493C107.403 233.375 107.286 233.375 107.286 233.258C104.348 231.378 101.41 229.615 98.2377 228.087H98.1202C98.0027 227.97 97.8851 227.97 97.7676 227.852C95.6525 226.912 93.3023 226.207 91.0696 225.855C91.0696 225.972 90.9521 226.09 90.9521 226.207C91.7746 226.325 92.4797 226.442 93.3023 226.677C94.7124 227.03 96.005 227.5 97.2976 227.97C97.4151 227.97 97.5326 228.087 97.6501 228.087C97.7676 228.205 98.0027 228.205 98.1202 228.322C101.293 229.733 104.231 231.495 107.168 233.258C107.286 233.258 107.286 233.375 107.403 233.375C107.521 233.493 107.638 233.493 107.874 233.61C110.576 235.256 113.396 236.901 116.217 238.428C117.744 239.251 119.389 239.956 120.917 240.661C122.562 241.366 124.207 241.954 125.853 242.306C128.555 243.129 131.493 243.599 134.313 243.716C134.431 243.716 134.548 243.716 134.666 243.716C135.136 243.716 135.606 243.716 136.193 243.716C139.719 243.716 143.127 243.246 146.534 242.306C149.942 241.366 153.115 239.956 156.17 238.311C156.053 238.311 156.053 238.076 156.053 237.958ZM151.587 213.634C150.765 213.281 149.942 212.929 149.12 212.694C148.179 212.459 147.357 212.106 146.417 211.989C145.947 211.871 145.477 211.753 145.007 211.753L143.597 211.636C143.127 211.518 142.656 211.636 142.186 211.518H141.481C141.246 211.518 141.011 211.518 140.776 211.518C137.016 211.636 133.256 212.576 129.965 214.339C126.558 215.984 123.62 218.334 120.8 220.802C118.567 222.799 116.452 224.915 114.337 227.03C114.219 227.147 114.102 227.265 113.984 227.382L112.691 228.675C111.046 230.32 109.401 231.965 107.521 233.61C107.403 233.61 107.403 233.728 107.286 233.728C106.346 234.55 105.288 235.373 104.231 236.078C102.703 237.136 101.058 238.076 99.4128 238.663C97.6501 239.368 95.8875 239.603 94.0073 239.603C92.1272 239.603 90.3645 239.368 88.4843 238.781C88.2493 238.663 88.0143 238.663 87.7793 238.546C87.7793 238.663 87.7793 238.781 87.6618 238.898C87.8968 239.016 88.1318 239.016 88.3668 239.133C90.247 239.603 92.1272 239.956 94.0073 239.956H94.7124H95.4174H96.1225L96.8276 239.838L97.5326 239.721C97.7676 239.721 98.0027 239.603 98.2377 239.486L98.9427 239.251C99.1778 239.133 99.4128 239.133 99.6478 239.016C101.41 238.311 103.056 237.371 104.583 236.313C105.641 235.491 106.698 234.668 107.756 233.845C107.874 233.728 107.874 233.728 107.991 233.728C108.344 233.493 108.696 233.14 108.931 232.788C110.341 231.495 111.634 230.203 112.926 228.91C113.396 228.44 113.867 227.97 114.337 227.5C114.454 227.382 114.572 227.265 114.689 227.147C116.804 225.032 118.802 223.034 120.917 221.037C123.737 218.569 126.675 216.219 129.965 214.574C133.256 212.929 136.898 211.871 140.659 211.753C140.894 211.753 141.129 211.753 141.364 211.753H142.069C142.539 211.753 143.009 211.753 143.479 211.871L144.889 211.989C145.359 211.989 145.829 212.106 146.299 212.224C147.239 212.341 148.062 212.694 149.002 212.929C149.825 213.281 150.765 213.516 151.587 213.869C151.587 213.751 151.587 213.634 151.587 213.634ZM140.541 172.858C138.074 174.385 135.723 176.03 133.256 177.558C133.138 177.676 133.021 177.676 132.903 177.793C132.433 178.146 131.846 178.498 131.376 178.851C128.32 180.966 125.147 183.081 121.857 184.609C121.27 184.844 120.682 185.079 119.977 185.314C119.86 185.314 119.742 185.431 119.625 185.431C118.684 185.784 117.627 186.019 116.569 186.254C114.807 186.606 112.926 186.489 111.046 186.136C109.284 185.784 107.403 185.196 105.758 184.374C105.406 184.256 105.171 184.021 104.818 183.904C104.701 184.021 104.701 184.139 104.701 184.256C104.936 184.374 105.288 184.609 105.523 184.726C107.168 185.549 109.049 186.136 110.811 186.606L111.634 186.841L112.339 186.959L113.044 187.076H113.749H114.454C114.689 187.076 114.924 187.076 115.159 186.959L115.864 186.841C116.099 186.841 116.334 186.724 116.569 186.724C117.744 186.489 118.919 186.136 120.095 185.784C120.212 185.784 120.33 185.666 120.447 185.666C120.917 185.431 121.505 185.196 121.975 184.961C123.737 184.139 125.265 183.199 126.91 182.258C128.555 181.318 130.083 180.261 131.611 179.203C132.198 178.851 132.668 178.498 133.256 178.028C133.373 177.911 133.491 177.911 133.608 177.793C135.958 176.265 138.191 174.62 140.541 173.21C140.659 173.093 140.541 172.975 140.541 172.858ZM145.829 188.604C145.124 188.839 144.419 189.074 143.832 189.309C143.714 189.309 143.597 189.309 143.597 189.427C142.774 189.662 141.951 189.897 141.011 190.132C137.604 190.837 134.196 190.954 130.788 190.132C127.38 189.427 124.09 188.251 121.27 186.371C121.035 186.254 120.8 186.136 120.682 185.901C120.447 185.784 120.33 185.666 120.212 185.549C117.744 183.786 115.512 181.788 112.809 180.378C111.281 179.556 109.636 178.851 107.991 178.263C107.874 178.263 107.874 178.263 107.874 178.263C107.874 178.263 107.874 178.263 107.874 178.381C107.874 178.381 107.874 178.381 107.874 178.498C107.991 178.498 107.991 178.498 108.109 178.616C108.931 178.968 109.754 179.203 110.576 179.556C111.399 179.908 112.104 180.261 112.926 180.731C115.512 182.141 117.627 184.139 120.095 185.901C120.212 186.019 120.447 186.136 120.565 186.254C120.8 186.489 121.152 186.606 121.387 186.841C124.325 188.839 127.615 190.014 131.023 190.719C134.431 191.659 138.074 191.542 141.481 190.719C142.421 190.484 143.362 190.249 144.184 190.014C144.302 190.014 144.419 190.014 144.419 189.897C145.007 189.662 145.712 189.544 146.299 189.309C145.829 188.839 145.829 188.722 145.829 188.604ZM147.239 194.127C146.534 193.187 145.947 192.364 145.359 191.424C144.889 190.837 144.537 190.249 144.067 189.662C143.949 189.544 143.832 189.427 143.714 189.192C142.069 186.841 140.424 184.609 138.544 182.376C137.251 180.966 135.958 179.556 134.548 178.381C134.313 178.146 134.078 177.911 133.726 177.793C133.608 177.676 133.491 177.558 133.256 177.558C132.081 176.735 130.788 176.148 129.495 175.678C129.025 175.56 128.555 175.443 128.085 175.325L126.675 175.09C126.205 174.973 125.735 174.973 125.265 174.855L123.855 174.738H123.15H122.445H121.035C120.095 174.855 119.154 174.855 118.214 175.09C116.334 175.325 114.572 175.913 112.691 176.383C111.046 176.853 109.284 177.441 107.521 177.793C107.521 177.911 107.521 177.911 107.403 178.028C107.403 178.028 107.403 178.028 107.403 178.146C107.521 178.146 107.521 178.146 107.638 178.146C109.401 177.793 111.046 177.323 112.809 176.853C114.572 176.383 116.452 175.795 118.214 175.56C119.154 175.443 120.095 175.325 121.035 175.325H123.15H123.855L125.265 175.443C125.735 175.443 126.205 175.56 126.675 175.678L128.085 175.913C128.555 176.03 129.025 176.148 129.378 176.265C130.67 176.618 131.728 177.206 132.903 177.911C133.021 178.028 133.138 178.146 133.373 178.146C133.726 178.381 133.961 178.616 134.313 178.851C135.723 180.026 137.134 181.318 138.309 182.729C140.189 184.844 141.834 187.076 143.479 189.309C143.597 189.427 143.714 189.544 143.832 189.779C144.302 190.367 144.772 191.072 145.124 191.659C145.947 192.717 146.652 193.774 147.474 194.832C147.357 194.597 147.239 194.362 147.239 194.127Z" fill="white"/>
<path d="M133.727 174.856C130.437 175.208 123.269 169.685 120.214 164.632C119.979 164.28 120.331 160.637 120.566 156.054C120.684 153.351 120.801 150.296 120.684 147.476L138.31 150.884C138.31 150.884 136.9 156.759 137.135 161.695C137.135 162.047 137.252 162.517 137.252 162.87C137.252 162.87 137.252 162.987 137.252 163.105C137.84 165.22 138.898 174.268 133.727 174.856Z" fill="#774442"/>
<path d="M120.683 155.349C124.443 160.402 130.084 165.337 137.605 164.162C137.487 163.692 137.487 163.34 137.37 163.105C137.37 162.987 137.37 162.987 137.37 162.87C137.252 162.517 137.252 162.165 137.252 161.695C137.017 156.877 138.427 150.884 138.427 150.884L120.801 147.476C120.918 150.061 120.801 152.764 120.683 155.349Z" fill="#263238"/>
<path d="M116.102 127.616C114.457 133.962 118.687 151.706 123.27 155.466C129.968 160.989 140.427 160.989 145.01 153.116C149.357 145.478 143.599 122.446 138.546 119.038C130.908 113.985 118.452 118.333 116.102 127.616Z" fill="#774442"/>
<path d="M133.61 136.782L133.493 136.9C133.845 138.075 134.08 139.485 133.14 140.19V140.308C134.433 139.602 134.198 137.722 133.61 136.782Z" fill="#263238"/>
<path d="M132.2 135.725C130.203 136.077 131.143 139.955 132.905 139.603C134.785 139.368 133.845 135.49 132.2 135.725Z" fill="#263238"/>
<path d="M140.663 134.785C140.663 134.785 140.781 134.902 140.663 134.785C141.016 136.077 141.486 137.37 142.661 137.605V137.722C141.251 137.84 140.663 135.96 140.663 134.785Z" fill="#263238"/>
<path d="M141.368 133.375C143.248 132.787 144.305 136.548 142.543 137.135C140.897 137.605 139.84 133.845 141.368 133.375Z" fill="#263238"/>
<path d="M130.321 134.315C130.791 134.08 131.261 133.727 131.731 133.492C132.201 133.14 132.671 132.905 132.906 132.317C133.024 131.965 132.788 131.495 132.553 131.377C131.848 131.024 131.143 131.26 130.438 131.612C129.733 132.082 129.263 132.552 129.028 133.257C128.793 134.08 129.616 134.667 130.321 134.315Z" fill="#263238"/>
<path d="M142.425 131.495C141.837 131.495 141.367 131.495 140.779 131.495C140.192 131.495 139.604 131.495 139.134 131.142C138.899 130.907 138.782 130.437 138.899 130.085C139.252 129.379 140.074 129.262 140.779 129.262C141.602 129.262 142.19 129.497 142.895 129.967C143.6 130.437 143.13 131.495 142.425 131.495Z" fill="#263238"/>
<path d="M135.139 148.063C135.492 148.298 135.844 148.651 136.314 148.533C136.784 148.416 137.137 148.181 137.49 147.946H137.607C137.372 148.533 136.784 148.886 136.197 149.003C135.609 149.003 135.257 148.651 135.139 148.063C135.022 148.063 135.022 148.063 135.139 148.063Z" fill="#263238"/>
<path d="M135.492 144.186C136.432 145.126 137.49 145.361 138.665 145.361C139.135 145.361 139.722 145.243 140.192 145.126C140.31 145.126 140.428 145.126 140.428 145.008C140.545 145.008 140.545 144.891 140.663 144.891C140.78 144.891 140.898 144.656 140.898 144.538V144.421V144.303C140.663 143.363 140.31 141.953 140.31 141.953C140.663 142.071 142.543 142.423 142.425 141.953C141.25 138.075 139.957 133.61 137.96 129.967C137.842 129.85 137.725 129.967 137.725 130.085C138.665 133.845 140.31 137.488 141.368 141.366C140.78 141.248 139.84 141.131 139.252 141.248C139.135 141.366 140.075 143.951 140.192 144.303C138.665 144.891 137.372 144.656 135.727 143.951C135.492 144.068 135.375 144.186 135.492 144.186Z" fill="#263238"/>
<path d="M139.486 144.774C139.486 144.774 138.899 146.066 137.959 146.771C137.606 147.006 137.136 147.124 136.666 147.124C135.608 147.124 135.373 146.184 135.373 145.479C135.373 144.774 135.491 144.186 135.491 144.186C135.491 144.186 137.254 145.126 139.486 144.774Z" fill="#263238"/>
<path d="M137.959 146.771C137.606 147.006 137.136 147.124 136.666 147.124C135.608 147.124 135.373 146.184 135.373 145.479C136.431 145.243 137.606 145.714 137.959 146.771Z" fill="#FF99BA"/>
<path d="M117.159 142.775C116.454 141.248 109.639 124.561 109.874 122.564C109.991 120.801 111.989 121.153 111.989 121.036C111.989 120.918 111.871 119.391 112.694 118.568C113.516 117.863 114.809 118.333 114.809 118.333C114.809 118.333 114.809 116.688 115.867 115.983C116.807 115.395 117.982 116.101 117.982 116.101C117.982 116.101 118.099 114.455 119.392 113.868C120.685 113.28 121.507 114.338 121.507 114.338C121.507 114.338 121.742 112.693 122.8 112.223C123.857 111.753 124.915 112.81 124.915 112.81C124.915 112.81 125.267 111.283 126.56 111.048C127.853 110.813 128.558 112.223 128.558 112.223C128.558 112.223 129.145 110.695 130.32 110.46C131.495 110.225 132.2 111.753 132.2 111.753C132.2 111.753 132.553 110.343 133.728 110.225C134.903 110.107 135.373 111.753 135.373 111.753C135.373 111.753 135.491 110.46 136.901 110.695C139.134 111.048 141.719 121.858 142.894 126.206C142.894 126.206 141.484 123.034 140.661 123.151C139.721 123.269 139.251 124.679 137.723 125.384C135.491 126.324 131.025 124.091 127.853 125.266C124.797 126.441 122.917 130.084 122.565 135.255C122.095 141.013 118.804 146.418 117.159 142.775Z" fill="#263238"/>
<path d="M120.566 142.07C120.566 142.07 116.101 136.547 113.633 138.192C111.165 139.837 114.691 147.946 117.863 148.886C121.036 149.826 121.976 146.888 121.976 146.888L120.566 142.07Z" fill="#774442"/>
<path d="M114.69 140.542C116.923 141.365 118.216 143.245 119.156 145.242C118.451 144.537 117.511 144.067 116.57 144.89C116.57 144.89 116.57 145.007 116.688 145.007C117.511 144.772 118.216 144.89 118.803 145.477C119.273 145.947 119.626 146.535 119.978 147.123C120.096 147.358 120.448 147.24 120.331 147.005C120.096 144.302 117.746 140.542 114.69 140.542Z" fill="#263238"/>
<path d="M138.544 165.573C138.544 165.455 138.427 165.455 138.544 165.573C139.249 168.981 140.777 176.854 135.371 177.206C133.139 177.324 131.024 176.384 129.143 175.209C127.263 174.151 125.501 172.741 123.855 171.331C122.093 169.686 120.213 168.04 118.685 166.043C118.567 165.925 118.45 166.043 118.567 166.16C120.213 168.04 121.623 170.038 123.385 171.801C125.148 173.446 127.028 174.974 129.143 176.149C131.141 177.206 133.491 178.264 135.724 177.911C137.957 177.676 139.249 176.031 139.602 173.916C139.954 171.213 139.367 168.158 138.544 165.573Z" fill="#263238"/>
<path d="M305.396 139.021L140.653 154.386L152.909 285.783L317.651 270.417L305.396 139.021Z" fill="#263238"/>
<path d="M209.874 239.486L205.526 192.835L255.585 211.636L209.874 239.486Z" fill="#FE9563"/>
<path d="M158.301 159.383L148.59 160.289L149.234 167.192L158.945 166.286L158.301 159.383Z" fill="#FE9563"/>
<path d="M159.601 173.368L149.89 174.273L150.534 181.177L160.245 180.271L159.601 173.368Z" fill="#FE9563"/>
<path d="M160.89 187.235L151.179 188.14L151.822 195.044L161.534 194.138L160.89 187.235Z" fill="#FE9563"/>
<path d="M162.179 201.101L152.467 202.007L153.111 208.91L162.822 208.004L162.179 201.101Z" fill="#FE9563"/>
<path d="M163.478 215.086L153.767 215.991L154.411 222.895L164.122 221.989L163.478 215.086Z" fill="#FE9563"/>
<path d="M164.767 228.953L155.056 229.859L155.699 236.762L165.411 235.857L164.767 228.953Z" fill="#FE9563"/>
<path d="M166.056 242.82L156.344 243.726L156.988 250.629L166.7 249.724L166.056 242.82Z" fill="#FE9563"/>
<path d="M167.472 256.793L157.761 257.699L158.405 264.602L168.116 263.696L167.472 256.793Z" fill="white"/>
<path d="M168.761 270.661L159.049 271.566L159.693 278.47L169.405 277.564L168.761 270.661Z" fill="white"/>
<path d="M298.613 146.333L288.902 147.239L289.546 154.143L299.257 153.237L298.613 146.333Z" fill="#FE9563"/>
<path d="M299.902 160.201L290.19 161.107L290.834 168.01L300.546 167.104L299.902 160.201Z" fill="#FE9563"/>
<path d="M301.2 174.185L291.489 175.091L292.133 181.994L301.844 181.089L301.2 174.185Z" fill="#FE9563"/>
<path d="M302.489 188.052L292.778 188.958L293.422 195.861L303.133 194.955L302.489 188.052Z" fill="#FE9563"/>
<path d="M303.779 201.919L294.067 202.825L294.711 209.728L304.423 208.822L303.779 201.919Z" fill="#FE9563"/>
<path d="M305.079 215.903L295.367 216.809L296.011 223.712L305.723 222.807L305.079 215.903Z" fill="#FE9563"/>
<path d="M306.366 229.77L296.655 230.676L297.299 237.579L307.01 236.674L306.366 229.77Z" fill="#FE9563"/>
<path d="M307.655 243.638L297.943 244.543L298.587 251.447L308.299 250.541L307.655 243.638Z" fill="#FE9563"/>
<path d="M308.955 257.621L299.243 258.527L299.887 265.43L309.598 264.525L308.955 257.621Z" fill="#FE9563"/>
<path d="M126.087 183.081C129.26 192.247 141.716 229.615 143.479 231.378C150.882 238.193 169.683 250.297 171.916 252.764C175.089 256.172 160.988 277.089 156.052 276.501C154.055 276.266 128.907 259.815 121.152 251.707C114.924 245.244 111.633 203.528 111.398 184.139C111.398 167.452 119.859 165.219 126.087 183.081Z" fill="#774442"/>
<path d="M111.987 215.513L137.604 213.751C137.604 213.751 129.496 183.316 121.27 172.387C113.044 161.459 111.399 172.505 111.047 180.848C110.694 189.191 111.987 215.513 111.987 215.513Z" fill="#FE9563"/>
<path d="M137.133 212.106C134.901 212.459 132.668 213.281 130.67 214.339L129.73 214.456C129.848 214.339 129.965 214.339 129.965 214.339C132.198 213.164 134.548 212.341 137.016 211.989C137.016 211.871 137.133 211.989 137.133 212.106ZM126.675 182.024C125.147 182.964 123.502 183.904 121.857 184.609C121.269 184.844 120.682 185.079 119.977 185.314C119.859 185.314 119.742 185.431 119.624 185.431C118.684 185.784 117.627 186.019 116.569 186.254C114.806 186.606 112.926 186.489 111.046 186.136C111.046 186.136 111.046 186.136 110.928 186.136V186.606L111.634 186.841L112.339 186.959L113.044 187.077H113.749H114.454C114.689 187.077 114.924 187.077 115.159 186.959L115.864 186.841C116.099 186.841 116.334 186.724 116.569 186.724C117.744 186.489 118.919 186.136 120.094 185.784C120.212 185.784 120.329 185.666 120.447 185.666C120.917 185.431 121.504 185.196 121.974 184.961C123.62 184.256 125.265 183.316 126.792 182.376C126.792 182.376 126.675 182.141 126.675 182.024ZM129.848 189.779C126.792 189.074 123.737 187.899 121.152 186.136C120.917 186.019 120.682 185.901 120.564 185.666C120.329 185.549 120.212 185.431 120.094 185.314C117.627 183.551 115.394 181.554 112.691 180.143C112.221 179.908 111.751 179.673 111.164 179.438C111.164 179.556 111.164 179.556 111.164 179.673C111.634 179.908 112.104 180.143 112.574 180.378C115.159 181.789 117.274 183.786 119.742 185.549C119.859 185.666 120.094 185.784 120.212 185.901C120.447 186.136 120.799 186.254 121.034 186.489C123.737 188.369 126.91 189.544 130.083 190.249C129.965 190.132 129.848 189.897 129.848 189.779ZM122.915 174.855H122.562H121.152C120.212 174.973 119.272 174.973 118.332 175.208C116.451 175.443 114.689 176.031 112.809 176.501C112.339 176.618 111.751 176.853 111.281 176.971C111.281 177.088 111.281 177.206 111.281 177.206C111.869 177.088 112.339 176.853 112.926 176.736C114.689 176.266 116.569 175.678 118.332 175.443C119.272 175.326 120.212 175.208 121.152 175.208H123.15C123.032 175.09 123.032 174.973 122.915 174.855Z" fill="white"/>
<path d="M112.574 209.756C116.099 209.168 119.742 209.051 123.385 208.816C127.027 208.581 130.788 208.581 134.431 208.463C134.548 208.463 134.548 208.581 134.431 208.698C130.788 209.051 127.262 209.521 123.62 209.638C119.977 209.873 116.334 210.109 112.574 209.756C112.574 209.756 112.574 209.874 112.574 209.756Z" fill="#263238"/>
<path d="M109.989 193.892C110.224 195.42 110.459 196.947 110.811 198.475C110.811 195.302 110.811 192.012 110.929 188.839C110.929 188.722 111.046 188.722 111.046 188.839C111.399 193.304 111.634 197.77 111.751 202.235C111.869 206.583 112.221 210.931 111.986 215.161C112.339 215.161 112.574 215.161 112.927 215.279C113.044 215.279 113.044 215.514 112.927 215.514C112.574 215.514 112.104 215.631 111.751 215.631C111.634 215.631 111.516 215.514 111.516 215.396C111.046 210.931 110.929 206.466 110.929 202C110.929 201.295 110.929 200.59 110.929 199.768C110.459 197.77 110.106 195.772 109.871 193.775C109.754 193.775 109.989 193.657 109.989 193.892Z" fill="#263238"/>
<path d="M136.663 213.869L137.603 213.752L137.486 213.869C136.781 211.989 136.076 210.109 135.488 208.111C134.901 206.231 134.195 204.233 133.608 202.353C133.02 200.473 132.433 198.475 131.963 196.478C131.493 194.48 130.905 192.6 130.553 190.602C131.258 192.482 131.963 194.363 132.668 196.36C133.373 198.24 133.96 200.238 134.548 202.118C135.136 203.998 135.723 205.996 136.193 207.994C136.663 209.991 137.251 211.872 137.721 213.869V213.987H137.603L136.663 213.869Z" fill="#263238"/>
<path d="M132.785 192.717C133.02 193.657 133.138 194.597 133.255 195.655C133.255 196.595 133.255 197.652 133.138 198.592C132.903 197.652 132.785 196.712 132.668 195.655C132.55 194.714 132.55 193.774 132.785 192.717Z" fill="#263238"/>
<path d="M184.256 264.398C183.081 262.871 183.904 262.283 187.194 263.106C190.484 264.046 202.706 270.509 204.703 266.043C206.583 261.578 189.192 252.765 183.551 251.59C177.911 250.415 168.51 250.65 168.51 250.65C171.565 253 178.381 259.58 184.256 264.398Z" fill="#774442"/>
<path d="M153.351 274.857C162.164 282.73 172.74 289.898 185.078 291.073C187.546 291.308 188.956 290.251 188.956 290.251C194.479 290.956 196.359 288.488 196.359 288.488C201.647 287.548 203.292 284.845 203.292 284.845C203.292 284.845 207.758 284.845 207.993 281.672C208.228 278.617 201.06 276.149 196.007 272.977C184.373 265.691 171.565 253 168.392 250.532L153.351 274.857Z" fill="#774442"/>
<path d="M180.143 274.974C183.668 277.09 186.959 279.205 190.719 280.85C194.832 282.613 199.062 283.67 203.293 284.728C203.41 284.728 203.41 284.963 203.293 284.963C195.184 284.14 186.371 280.262 180.026 275.092C179.908 274.974 179.908 274.857 180.143 274.974Z" fill="#263238"/>
<path d="M174.738 281.32C178.263 283.2 184.374 286.372 196.477 288.37V288.488C188.487 288.253 181.318 285.785 174.62 281.555C174.385 281.32 174.503 281.202 174.738 281.32Z" fill="#263238"/>
<path d="M171.799 284.846C177.792 287.783 182.023 288.841 188.956 290.251V290.368C180.965 289.546 178.145 288.371 171.682 285.081C171.447 284.963 171.564 284.728 171.799 284.846Z" fill="#263238"/>
<path d="M215.513 141.953C219.979 139.838 225.384 134.55 229.027 134.08C232.317 133.727 233.492 136.43 233.492 136.43C233.492 136.43 235.255 132.787 238.663 132.905C240.425 133.022 241.836 135.842 241.836 135.842C241.836 135.842 243.363 133.022 246.301 133.257C248.651 133.492 249.709 136.312 249.709 136.312C249.709 136.312 252.411 134.315 254.762 135.255C259.462 137.37 259.58 157.699 252.059 160.872C248.534 162.4 248.769 157.347 248.769 157.347C248.769 157.347 246.653 164.397 242.423 164.515C238.193 164.632 238.898 158.169 238.898 158.169C238.898 158.169 236.783 164.985 232.435 164.75C227.852 164.397 229.732 158.052 229.732 158.052C229.732 158.052 226.677 162.635 223.386 161.577C217.981 159.932 224.797 151.354 223.621 146.771L216.218 144.303L215.513 141.953Z" fill="#774442"/>
<path d="M221.859 137.723C217.511 139.368 212.106 133.963 207.758 134.903C201.765 136.195 207.64 142.893 216.336 144.303H223.269L221.859 137.723Z" fill="#774442"/>
<path d="M249.827 136.665C249.827 136.548 249.944 136.548 249.827 136.665C251.59 143.363 251.355 151.237 248.769 157.7C248.652 157.935 248.299 157.817 248.299 157.582C249.709 150.414 250.415 143.951 249.827 136.665Z" fill="#263238"/>
<path d="M241.718 135.608C241.718 135.49 241.835 135.49 241.835 135.608C243.48 142.541 243.01 151.354 239.133 158.405C239.015 158.64 238.663 158.757 238.78 158.405C241.013 153.587 242.305 142.188 241.718 135.608Z" fill="#263238"/>
<path d="M229.38 158.522C232.788 151.589 233.728 144.303 233.493 136.548C233.493 136.43 233.61 136.43 233.61 136.548C234.668 140.308 234.315 145.126 233.728 149.004C233.14 152.646 231.848 155.819 229.615 158.64C229.498 158.757 229.263 158.639 229.38 158.522Z" fill="#263238"/>
</svg>
