<svg width="76" height="76" viewBox="0 0 76 76" fill="none" xmlns="http://www.w3.org/2000/svg">
<rect x="4.75" y="4.75" width="66.5" height="66.5" rx="11.875" fill="#FE9C69"/>
<path d="M32.067 52.7206C32.068 53.1871 32.2063 53.643 32.4648 54.0313L33.7339 55.938C34.1221 56.5251 35.0082 56.9978 35.7111 56.9978H40.2904C40.9932 56.9978 41.8794 56.5251 42.2676 55.938L43.536 54.0313C43.7771 53.6348 43.9151 53.1842 43.9375 52.7206V49.8751H32.0625L32.067 52.7206ZM37.9592 19.0001C30.3881 19.0231 24.9375 25.1602 24.9375 32.0626C24.9331 35.225 26.0826 38.2804 28.1705 40.6556C29.3966 42.0546 31.3144 44.9766 32.0454 47.4422C32.0454 47.463 32.0506 47.4815 32.0536 47.5001H43.9464C43.9464 47.4815 43.9516 47.463 43.9546 47.4422C44.6856 44.9766 46.6034 42.0546 47.8295 40.6556C49.9174 38.2804 51.0669 35.225 51.0625 32.0626C51.0625 24.8359 45.1925 18.9771 37.9592 19.0001ZM38 26.1251C36.4258 26.1268 34.9166 26.753 33.8035 27.8661C32.6904 28.9792 32.0643 30.4884 32.0625 32.0626C32.0625 32.3775 31.9374 32.6796 31.7147 32.9023C31.492 33.125 31.1899 33.2501 30.875 33.2501C30.5601 33.2501 30.258 33.125 30.0353 32.9023C29.8126 32.6796 29.6875 32.3775 29.6875 32.0626C29.6899 29.8587 30.5664 27.7457 32.1248 26.1873C33.6832 24.629 35.7961 23.7524 38 23.7501C38.3149 23.7501 38.617 23.8752 38.8397 24.0979C39.0624 24.3206 39.1875 24.6226 39.1875 24.9376C39.1875 25.2525 39.0624 25.5546 38.8397 25.7773C38.617 26 38.3149 26.1251 38 26.1251ZM22.5625 33.2501C22.5625 32.7777 22.3748 32.3246 22.0408 31.9905C21.7067 31.6565 21.2537 31.4688 20.7812 31.4688H16.0312C15.5588 31.4688 15.1058 31.6565 14.7717 31.9905C14.4377 32.3246 14.25 32.7777 14.25 33.2501C14.25 33.7225 14.4377 34.1756 14.7717 34.5096C15.1058 34.8437 15.5588 35.0313 16.0312 35.0313H20.7812C21.2537 35.0313 21.7067 34.8437 22.0408 34.5096C22.3748 34.1756 22.5625 33.7225 22.5625 33.2501V33.2501ZM59.9688 31.4688H55.2188C54.7463 31.4688 54.2933 31.6565 53.9592 31.9905C53.6252 32.3246 53.4375 32.7777 53.4375 33.2501C53.4375 33.7225 53.6252 34.1756 53.9592 34.5096C54.2933 34.8437 54.7463 35.0313 55.2188 35.0313H59.9688C60.4412 35.0313 60.8942 34.8437 61.2283 34.5096C61.5623 34.1756 61.75 33.7225 61.75 33.2501C61.75 32.7777 61.5623 32.3246 61.2283 31.9905C60.8942 31.6565 60.4412 31.4688 59.9688 31.4688ZM23.9786 23.0984L19.8654 20.7234C19.6626 20.6014 19.4376 20.5209 19.2034 20.4868C18.9693 20.4527 18.7306 20.4656 18.5015 20.5247C18.2723 20.5839 18.0573 20.6881 17.8689 20.8313C17.6805 20.9744 17.5225 21.1537 17.4041 21.3587C17.2858 21.5636 17.2094 21.7901 17.1796 22.0248C17.1498 22.2596 17.167 22.4979 17.2303 22.726C17.2936 22.954 17.4017 23.1671 17.5483 23.3529C17.6949 23.5387 17.8771 23.6934 18.0841 23.808L22.1973 26.183C22.4001 26.305 22.6251 26.3855 22.8593 26.4196C23.0935 26.4537 23.3321 26.4408 23.5612 26.3817C23.7904 26.3225 24.0055 26.2183 24.1939 26.0751C24.3823 25.9319 24.5403 25.7526 24.6586 25.5477C24.777 25.3428 24.8533 25.1163 24.8831 24.8816C24.913 24.6468 24.8957 24.4084 24.8324 24.1804C24.7691 23.9524 24.661 23.7393 24.5144 23.5535C24.3678 23.3677 24.1857 23.213 23.9786 23.0984V23.0984ZM57.9159 42.6922L53.8027 40.3172C53.5999 40.1951 53.3749 40.1147 53.1407 40.0806C52.9065 40.0464 52.6679 40.0593 52.4388 40.1185C52.2096 40.1776 51.9945 40.2818 51.8061 40.425C51.6177 40.5682 51.4597 40.7475 51.3414 40.9524C51.223 41.1574 51.1467 41.3838 51.1169 41.6186C51.087 41.8533 51.1043 42.0917 51.1676 42.3197C51.2309 42.5478 51.339 42.7609 51.4856 42.9466C51.6322 43.1324 51.8143 43.2871 52.0214 43.4017L56.1346 45.7767C56.543 46.0027 57.0239 46.0594 57.4736 45.9345C57.9234 45.8096 58.3062 45.5132 58.5396 45.109C58.7731 44.7047 58.8385 44.225 58.7218 43.7731C58.6052 43.3211 58.3158 42.9329 57.9159 42.6922ZM22.1973 40.3172L18.0841 42.6922C17.8771 42.8068 17.6949 42.9615 17.5483 43.1472C17.4017 43.333 17.2936 43.5461 17.2303 43.7742C17.167 44.0022 17.1498 44.2405 17.1796 44.4753C17.2094 44.7101 17.2858 44.9365 17.4041 45.1415C17.5225 45.3464 17.6805 45.5257 17.8689 45.6689C18.0573 45.8121 18.2723 45.9163 18.5015 45.9754C18.7306 46.0346 18.9693 46.0474 19.2034 46.0133C19.4376 45.9792 19.6626 45.8988 19.8654 45.7767L23.9786 43.4017C24.3785 43.1609 24.6679 42.7728 24.7846 42.3208C24.9012 41.8689 24.8358 41.3891 24.6024 40.9849C24.3689 40.5807 23.9861 40.2842 23.5364 40.1594C23.0866 40.0345 22.6058 40.0912 22.1973 40.3172V40.3172ZM52.9135 26.4219C53.2263 26.4225 53.5337 26.3401 53.8041 26.183L57.9173 23.808C58.3172 23.5672 58.6067 23.1791 58.7233 22.7271C58.84 22.2751 58.7745 21.7954 58.5411 21.3912C58.3077 20.9869 57.9249 20.6905 57.4751 20.5656C57.0253 20.4407 56.5445 20.4974 56.1361 20.7234L52.0229 23.0984C51.6835 23.2946 51.4182 23.5972 51.2683 23.9594C51.1184 24.3216 51.0921 24.7231 51.1936 25.1018C51.295 25.4804 51.5186 25.815 51.8295 26.0537C52.1405 26.2924 52.5215 26.4218 52.9135 26.4219Z" fill="#FAFBFC"/>
</svg>
