<svg width="76" height="76" viewBox="0 0 76 76" fill="none" xmlns="http://www.w3.org/2000/svg">
<rect x="4.75" y="4.75" width="66.5" height="66.5" rx="11.875" fill="#FE9C69"/>
<path d="M16.0312 30.5452V29.2354C16.0312 28.1504 16.9658 27.2708 18.1187 27.2708H49.4297V23.3416C49.4297 21.5925 51.6823 20.7186 52.9931 21.9523L59.9512 28.5011C60.7663 29.2683 60.7663 30.5122 59.9512 31.2794L52.9931 37.8281C51.6872 39.057 49.4297 38.1954 49.4297 36.439V32.5098H18.1187C16.9658 32.5098 16.0312 31.6302 16.0312 30.5452ZM58.4751 42.9877H27.1641V39.0585C27.1641 37.3137 24.9147 36.4325 23.6006 37.6693L16.6426 44.218C15.8275 44.9852 15.8275 46.2292 16.6426 46.9963L23.6006 53.5451C24.9077 54.7751 27.1641 53.9107 27.1641 52.1559V48.2267H58.4751C59.628 48.2267 60.5625 47.3471 60.5625 46.2621V44.9523C60.5625 43.8673 59.628 42.9877 58.4751 42.9877Z" fill="#FAFBFC"/>
</svg>
