<svg width="76" height="76" viewBox="0 0 76 76" fill="none" xmlns="http://www.w3.org/2000/svg">
<rect x="4.75" y="4.75" width="66.5" height="66.5" rx="11.875" fill="#FE9C69"/>
<path d="M57.7793 26.7559V23.9727H59.5188C60.0952 23.9727 60.5625 23.5053 60.5625 22.929V19.45C60.5625 18.8736 60.0952 18.4062 59.5188 18.4062H56.0398C55.4634 18.4062 54.9961 18.8736 54.9961 19.45V21.1895H21.5977V19.45C21.5977 18.8736 21.1303 18.4062 20.554 18.4062H17.075C16.4986 18.4062 16.0312 18.8736 16.0312 19.45V22.929C16.0312 23.5053 16.4986 23.9727 17.075 23.9727H18.8145V51.8047H17.075C16.4986 51.8047 16.0312 52.272 16.0312 52.8484V56.3274C16.0312 56.9038 16.4986 57.3711 17.075 57.3711H20.554C21.1303 57.3711 21.5977 56.9038 21.5977 56.3274V54.5879H54.9961V56.3274C54.9961 56.9038 55.4634 57.3711 56.0398 57.3711H59.5188C60.0952 57.3711 60.5625 56.9038 60.5625 56.3274V52.8484C60.5625 52.272 60.0952 51.8047 59.5188 51.8047H57.7793V26.7559ZM24.3809 39.6282V27.7996C24.3809 27.2232 24.8482 26.7559 25.4246 26.7559H40.0364C40.6128 26.7559 41.0801 27.2232 41.0801 27.7996V39.6282C41.0801 40.2046 40.6128 40.6719 40.0364 40.6719H25.4246C24.8482 40.6719 24.3809 40.2046 24.3809 39.6282ZM52.2129 47.9778C52.2129 48.5542 51.7456 49.0215 51.1692 49.0215H36.5574C35.981 49.0215 35.5137 48.5542 35.5137 47.9778V43.4551H41.7759C42.9287 43.4551 43.8633 42.5205 43.8633 41.3677V35.1055H51.1692C51.7456 35.1055 52.2129 35.5728 52.2129 36.1492V47.9778Z" fill="#FAFBFC"/>
</svg>
