<svg width="28" height="28" viewBox="0 0 28 28" fill="none" xmlns="http://www.w3.org/2000/svg">
<g id="Group 1605">
<circle id="Ellipse 2" cx="14" cy="14" r="14" fill="#FE9563"/>
<g id="Instagram">
<path id="Vector" d="M17.2892 19.106H10.7104C9.80129 19.106 9.05859 18.3633 9.05859 17.4542V10.8754C9.05859 9.96633 9.80129 9.22363 10.7104 9.22363H17.2892C18.1982 9.22363 18.9409 9.96633 18.9409 10.8754V17.4542C18.9409 18.3673 18.2023 19.106 17.2892 19.106Z" fill="white"/>
<path id="Vector_2" d="M14.0014 16.7039C13.3236 16.7039 12.6864 16.4401 12.2075 15.9612C11.7286 15.4823 11.4648 14.8452 11.4648 14.1674C11.4648 13.4896 11.7286 12.8525 12.2075 12.3736C12.6864 11.8947 13.3236 11.6309 14.0014 11.6309C14.6791 11.6309 15.3163 11.8947 15.7952 12.3736C16.2741 12.8525 16.5379 13.4896 16.5379 14.1674C16.5379 14.8452 16.2741 15.4823 15.7952 15.9612C15.3123 16.4401 14.6791 16.7039 14.0014 16.7039ZM14.0014 12.1706C12.9015 12.1706 12.0046 13.0635 12.0046 14.1674C12.0046 15.2672 12.8975 16.1642 14.0014 16.1642C15.1012 16.1642 15.9981 15.2713 15.9981 14.1674C15.9941 13.0676 15.1012 12.1706 14.0014 12.1706Z" fill="#FE9563"/>
<path id="Vector_3" d="M17.0339 11.5463C17.3029 11.5463 17.5209 11.3283 17.5209 11.0593C17.5209 10.7903 17.3029 10.5723 17.0339 10.5723C16.7649 10.5723 16.5469 10.7903 16.5469 11.0593C16.5469 11.3283 16.7649 11.5463 17.0339 11.5463Z" fill="#FE9563"/>
</g>
</g>
</svg>
