<svg width="28" height="28" viewBox="0 0 28 28" fill="none" xmlns="http://www.w3.org/2000/svg">
<g id="Group 1603">
<circle id="Ellipse 4" cx="14" cy="14" r="14" fill="#FE9563"/>
<g id="LinkedIn">
<path id="Vector" d="M10.8388 12.1914H8.42969V19.874H10.8388V12.1914Z" fill="white"/>
<path id="Vector_2" d="M17.3516 12.024C17.2628 12.0129 17.1684 12.0073 17.074 12.0018C15.7251 11.9463 14.9646 12.7456 14.6982 13.0898C14.626 13.1841 14.5927 13.2396 14.5927 13.2396V12.2127H12.2891V19.8953H14.5927H14.6982C14.6982 19.1126 14.6982 18.3355 14.6982 17.5528C14.6982 17.1309 14.6982 16.709 14.6982 16.2871C14.6982 15.7653 14.6593 15.2102 14.9202 14.7329C15.1423 14.3332 15.5419 14.1334 15.9916 14.1334C17.3238 14.1334 17.3516 15.3379 17.3516 15.4489C17.3516 15.4545 17.3516 15.46 17.3516 15.46V19.9286H19.7607V14.916C19.7607 13.2008 18.8892 12.1905 17.3516 12.024Z" fill="white"/>
<path id="Vector_3" d="M9.63322 11.1971C10.4058 11.1971 11.0321 10.5708 11.0321 9.79827C11.0321 9.0257 10.4058 8.39941 9.63322 8.39941C8.86066 8.39941 8.23438 9.0257 8.23438 9.79827C8.23438 10.5708 8.86066 11.1971 9.63322 11.1971Z" fill="white"/>
</g>
</g>
</svg>
