<svg width="18" height="18" viewBox="0 0 18 18" fill="none" xmlns="http://www.w3.org/2000/svg">
<g clip-path="url(#clip0_8_5589)">
<path d="M15.75 12.315V14.967C15.7501 15.1569 15.6781 15.3397 15.5487 15.4786C15.4192 15.6176 15.2419 15.7022 15.0525 15.7155C14.7247 15.738 14.457 15.75 14.25 15.75C7.62225 15.75 2.25 10.3778 2.25 3.75C2.25 3.543 2.26125 3.27525 2.2845 2.9475C2.29779 2.75808 2.38244 2.58076 2.52135 2.45131C2.66027 2.32186 2.84312 2.24991 3.033 2.25H5.685C5.77803 2.24991 5.86777 2.28439 5.9368 2.34677C6.00582 2.40914 6.0492 2.49494 6.0585 2.5875C6.07575 2.76 6.0915 2.89725 6.1065 3.0015C6.25555 4.04169 6.561 5.05337 7.0125 6.00225C7.08375 6.15225 7.03725 6.3315 6.90225 6.4275L5.28375 7.584C6.27334 9.88984 8.11091 11.7274 10.4167 12.717L11.5717 11.1015C11.619 11.0355 11.6878 10.9882 11.7664 10.9677C11.8449 10.9473 11.9281 10.9551 12.0015 10.9897C12.9503 11.4404 13.9617 11.7451 15.0015 11.8935C15.1058 11.9085 15.243 11.925 15.414 11.9415C15.5064 11.951 15.592 11.9944 15.6543 12.0634C15.7165 12.1324 15.7509 12.2221 15.7507 12.315H15.75Z" fill="#FE9563"/>
</g>
<defs>
<clipPath id="clip0_8_5589">
<rect width="18" height="18" fill="white"/>
</clipPath>
</defs>
</svg>
