<svg width="28" height="28" viewBox="0 0 28 28" fill="none" xmlns="http://www.w3.org/2000/svg">
<g id="Group 1601">
<circle id="Ellipse 19" cx="14" cy="14" r="14" fill="#FE9563"/>
<path id="Pinterest" fill-rule="evenodd" clip-rule="evenodd" d="M13.1552 16.28C13.5202 16.2918 13.8498 16.7745 14.8153 16.7745C16.6284 16.7863 17.8764 15.397 18.2649 13.5721C19.6189 7.24968 10.4002 6.74342 9.45829 11.9473C9.23459 13.1718 9.59957 14.5846 10.5532 15.0438C11.2832 15.397 11.3303 14.3845 11.1066 13.9488C10.1176 12.018 11.3067 10.2755 12.8608 9.78099C14.3208 9.31005 15.3568 9.69858 16.1457 10.511C17.1582 11.5588 16.699 14.408 15.4981 15.3146C15.0743 15.6325 14.2972 15.7031 13.8969 15.3263C13.0728 14.5611 14.3443 12.9363 14.1559 11.7472C13.9676 10.5698 12.1073 10.7464 12.0131 12.4771C11.9661 13.3602 12.2251 13.6192 12.0249 14.5022C11.707 15.915 10.7416 18.7995 11.4245 19.9298C12.4252 19.4589 12.9197 16.6332 13.1552 16.28Z" fill="white"/>
</g>
</svg>
