<svg width="502" height="516" viewBox="0 0 502 516" fill="none" xmlns="http://www.w3.org/2000/svg">
<g clip-path="url(#clip0_2_7143)">
<path d="M412.657 417.401H453.111V404.53H412.657V417.401Z" fill="#EBEBEB"/>
<path d="M167.102 210.148H207.555V197.277H167.102V210.148Z" fill="#EBEBEB"/>
<path d="M435.337 433.729C442.002 433.614 459.241 433.384 465.677 433.269H475.675L475.101 433.844V420.972L475.675 421.547C469.01 421.547 451.886 421.432 445.335 421.317L435.222 421.202L435.452 420.972L435.337 433.729ZM435.337 433.729L435.107 420.857V420.627H435.337C440.393 420.512 450.507 420.397 455.563 420.397L475.79 420.282H476.365V420.857V433.729V434.303H475.79H465.562C459.126 434.073 442.002 433.844 435.337 433.729Z" fill="#EBEBEB"/>
<path d="M243.182 337.766C249.848 337.651 267.087 337.421 273.523 337.306H283.521L282.946 337.881V325.009L283.521 325.584C276.855 325.584 259.732 325.469 253.181 325.354L243.067 325.239L243.297 325.009L243.182 337.766ZM243.182 337.766L242.952 324.894V324.665H243.182C248.239 324.55 258.352 324.435 263.409 324.435L283.636 324.32H284.211V324.894V337.766V338.341H283.636H273.408C266.972 338.226 249.848 337.881 243.182 337.766Z" fill="#FE9563"/>
<path d="M265.707 353.97C272.373 353.855 289.611 353.625 296.047 353.511H306.046L305.471 354.085V341.213L306.046 341.788C299.38 341.788 282.256 341.673 275.705 341.558L265.592 341.443L265.822 341.213L265.707 353.97ZM265.707 353.97L265.477 341.099V340.869H265.707C270.764 340.754 280.877 340.639 285.934 340.639L306.161 340.524H306.735V341.099V353.97V354.545H306.161H295.932C289.496 354.43 272.373 354.085 265.707 353.97Z" fill="#FE9563"/>
<path d="M288.134 337.86H328.587V324.988H288.134V337.86Z" fill="#FE9563"/>
<path d="M0.278019 433.628H40.7318V420.757H0.278019V433.628Z" fill="#FE9563"/>
<path d="M22.7154 20.7639L63.1691 20.7639V7.89227L22.7154 7.89227V20.7639Z" fill="#FE9563"/>
<path d="M0.229057 36.8913L20.5708 36.5466L30.5694 36.4316H40.5679L39.9932 37.0063V24.1346L40.5679 24.7092L20.341 24.5943L10.3425 24.4794L0.229057 24.3645L0.458908 24.1346L0.229057 36.8913ZM0.229057 36.8913L-0.000793457 24.0197V23.7898H0.229057L10.3425 23.6749L20.4559 23.56L40.6828 23.4451H41.2574V24.0197V36.8913V37.466H40.6828H30.4544L20.341 37.351L0.229057 36.8913Z" fill="#FE9563"/>
<path d="M412.811 20.6867L433.153 20.342L443.152 20.227H453.15L452.576 20.8017V7.93003L453.15 8.50466L432.923 8.38973L422.81 8.27481L412.696 8.15988L412.926 7.93003L412.811 20.6867ZM412.811 20.6867L412.582 7.81511V7.58525H412.811L422.925 7.47033L433.038 7.3554L453.265 7.24048H453.84V7.81511V20.6867V21.2614H453.265H443.037L432.923 21.1464L412.811 20.6867Z" fill="#FE9563"/>
<path d="M332.249 463.494H466.482L470.735 378.334H327.997L332.249 463.494Z" fill="#53595B"/>
<path d="M337.422 388.333H457.979L456.14 416.834H338.916L337.422 388.333Z" stroke="#DBDBDB" stroke-width="1.14925" stroke-miterlimit="10"/>
<path d="M341.1 425.224L342.364 450.852H454.531L456.14 425.224H341.1Z" stroke="#DBDBDB" stroke-width="1.14925" stroke-miterlimit="10"/>
<path d="M410.629 405.227H386.495L385.805 399.136H411.433L410.629 405.227Z" stroke="#DBDBDB" stroke-width="1.14925" stroke-miterlimit="10"/>
<path d="M410.629 441.084H386.495L385.805 434.993H411.433L410.629 441.084Z" stroke="#DBDBDB" stroke-width="1.14925" stroke-miterlimit="10"/>
<path d="M350.867 463.494L349.603 472.803L346.96 491.421H341.788V463.494H350.867Z" fill="#53595B"/>
<path d="M350.867 463.494L349.603 472.803H341.788V463.494H350.867Z" fill="#455A64"/>
<path d="M447.864 463.494L449.128 472.803L451.772 491.421H456.943V463.494H447.864Z" fill="#53595B"/>
<path d="M447.864 463.494L449.128 472.803H456.943V463.494H447.864Z" fill="#455A64"/>
<path d="M477.974 0.574463H285.934V165.607H477.974V0.574463Z" stroke="#FE9563" stroke-width="1.14925" stroke-miterlimit="10"/>
<path d="M294.898 6.32072C294.898 7.5849 293.864 8.61923 292.6 8.61923C291.335 8.61923 290.301 7.5849 290.301 6.32072C290.301 5.05655 291.335 4.02222 292.6 4.02222C293.864 4.02222 294.898 5.05655 294.898 6.32072Z" fill="#A6A6A6"/>
<path d="M304.552 6.32072C304.552 7.5849 303.518 8.61923 302.254 8.61923C300.99 8.61923 299.955 7.5849 299.955 6.32072C299.955 5.05655 300.99 4.02222 302.254 4.02222C303.518 4.02222 304.552 5.05655 304.552 6.32072Z" fill="#EBEBEB"/>
<path d="M314.091 6.32072C314.091 7.5849 313.056 8.61923 311.792 8.61923C310.528 8.61923 309.494 7.5849 309.494 6.32072C309.494 5.05655 310.528 4.02222 311.792 4.02222C313.056 4.02222 314.091 5.05655 314.091 6.32072Z" fill="#FE9563"/>
<path d="M285.934 12.0669H477.859" stroke="#FE9563" stroke-width="1.14925" stroke-miterlimit="10"/>
<path d="M412.467 363.854C413.386 370.29 413.042 376.955 411.433 383.276C410.743 386.264 409.709 389.023 408.445 391.896C406.951 395.458 405.342 398.906 405.686 402.814C406.031 403.044 404.767 403.044 404.767 402.699C394.424 396.838 381.092 395.688 373.163 386.035C369.37 381.438 367.531 375.691 366.612 369.83C365.578 363.509 365.348 356.499 366.957 350.293C368.336 345.006 371.439 339.95 376.38 337.421C381.437 334.778 388.103 335.008 393.504 336.617C405.112 340.179 410.858 352.706 412.467 363.854Z" fill="#FE9563"/>
<path d="M417.754 440.624C416.375 435.912 414.88 431.2 413.501 426.488C410.628 417.294 407.755 408.1 404.422 399.021C402.469 393.62 400.4 388.218 398.216 382.932C398.561 379.599 398.791 376.266 399.481 372.933C400.4 368.911 401.549 365.003 402.813 361.096C402.928 360.866 402.469 360.751 402.354 360.981C400.055 366.382 396.952 373.278 396.952 379.714C394.424 373.738 391.666 367.761 388.792 361.9C388.678 356.959 388.448 352.017 389.252 347.075C389.252 346.845 388.907 346.73 388.907 346.96C388.103 351.212 387.528 355.694 387.873 360.061C385.689 355.694 383.276 351.327 380.748 347.075C380.518 346.73 379.943 347.075 380.173 347.42C384.08 354.89 387.643 362.59 391.091 370.29C386.379 366.153 380.748 362.935 374.886 360.866C374.657 360.751 374.427 361.096 374.657 361.211C381.322 363.969 386.954 367.991 392.24 372.818C394.654 378.45 396.952 384.196 399.251 390.057C392.815 383.736 383.851 379.484 375.346 377.3C375.001 377.185 375.001 377.645 375.231 377.76C385.115 380.748 392.93 386.379 400.4 393.16C401.319 395.459 402.124 397.872 402.928 400.17C406.146 409.02 409.134 417.984 412.122 426.948C413.501 431.2 414.881 435.567 416.26 439.935C417.754 444.532 418.788 449.473 420.742 453.956C420.972 454.415 421.661 454.3 421.546 453.726C420.742 449.359 419.133 444.991 417.754 440.624Z" fill="#263238"/>
<path d="M400.63 354.775C398.792 357.648 397.527 360.751 396.953 364.084C396.953 364.199 397.068 364.199 397.068 364.084C398.217 360.981 399.596 357.878 401.09 355.005C401.205 354.775 400.745 354.545 400.63 354.775Z" fill="#263238"/>
<path d="M382.127 376.381C379.484 374.887 375.921 373.623 372.818 373.278C372.703 373.278 372.703 373.393 372.818 373.393C374.312 373.967 375.921 374.427 377.415 375.002C378.909 375.576 380.403 376.266 381.897 376.841C382.242 377.07 382.472 376.611 382.127 376.381Z" fill="#263238"/>
<path d="M376.956 350.408C376.036 349.833 375.002 349.029 373.968 348.569C373.853 348.454 373.623 348.684 373.853 348.799C374.657 349.603 375.807 350.178 376.841 350.753C376.841 350.867 377.071 350.523 376.956 350.408Z" fill="#263238"/>
<path d="M447.404 399.136C439.934 401.32 432.464 403.388 424.994 405.572C424.304 405.802 411.778 381.553 416.26 369.141C420.512 357.648 430.166 349.029 441.658 345.006C446.945 343.168 453.496 341.673 459.127 342.938C464.184 344.087 467.631 348.109 469.355 352.821C471.539 359.257 470.849 366.842 469.585 373.393C468.436 379.484 466.252 385.46 462.23 390.172C458.322 394.884 453.266 397.412 447.404 399.136Z" fill="#FE9563"/>
<path d="M458.208 376.151C453.496 378.564 448.669 380.288 443.612 381.897C440.394 382.931 436.831 383.851 433.843 385.46C436.946 378.449 440.509 371.554 444.072 364.773C448.899 363.394 453.955 361.211 457.633 357.763C457.863 357.533 457.633 357.303 457.403 357.418C453.381 360.176 449.014 361.9 444.646 363.854C445.681 362.015 446.6 360.176 447.634 358.337C447.864 357.878 447.175 357.303 446.83 357.763C442.923 363.394 439.36 369.37 436.257 375.576C435.452 370.175 435.223 364.773 435.452 359.257C435.452 359.142 435.223 359.142 435.223 359.257C434.303 365.118 434.303 371.324 435.452 377.185C432.809 382.357 430.396 387.758 428.327 393.16C427.523 389.942 426.373 386.724 425.684 383.391C424.649 378.679 424.075 373.852 424.649 369.025C424.649 368.911 424.42 368.911 424.42 369.025C422.925 377.645 424.305 387.299 427.523 395.458C426.258 398.676 425.109 402.009 423.96 405.227C418.328 422.006 414.996 439.36 414.076 457.058C414.076 457.518 414.651 457.518 414.651 457.058C416.72 439.705 420.282 422.466 425.799 405.917C427.982 399.366 430.511 393.045 433.154 386.839C437.521 385.575 442.003 383.736 446.255 382.242C450.508 380.748 454.76 379.139 458.323 376.266C458.552 376.266 458.437 376.036 458.208 376.151Z" fill="#263238"/>
<path d="M465.218 369.141C460.621 370.75 456.369 373.048 451.772 374.657C451.542 374.772 451.657 375.117 451.887 375.002C456.714 373.968 461.541 372.474 465.333 369.371C465.563 369.256 465.333 369.026 465.218 369.141Z" fill="#263238"/>
<path d="M427.982 359.257C427.982 359.027 427.638 358.912 427.638 359.142C426.373 363.394 425.569 367.762 426.718 372.129C426.718 372.244 427.063 372.359 427.063 372.129C427.178 367.762 426.948 363.509 427.982 359.257Z" fill="#263238"/>
<path d="M446.83 349.488C445.336 351.442 444.762 354.2 444.877 356.614C444.877 356.729 445.107 356.843 445.222 356.729C445.796 354.315 446.716 352.132 447.405 349.833C447.52 349.488 447.06 349.258 446.83 349.488Z" fill="#263238"/>
<path d="M358.681 409.824C360.864 416.719 366.036 426.373 374.311 426.488C379.597 426.488 384.999 425.913 390.4 425.798C396.146 425.683 401.893 425.683 407.639 426.028C408.099 426.028 406.949 408.904 393.158 400.515C389.251 398.216 384.539 397.412 380.172 396.492C375.115 395.458 369.943 394.654 364.887 394.883C361.669 394.998 359.14 395.688 357.991 398.906C356.727 402.239 357.532 406.491 358.681 409.824Z" fill="#FE9563"/>
<path d="M364.541 401.089C367.874 401.894 371.322 402.928 374.655 403.963C373.735 403.043 372.931 402.124 371.896 401.204C370.402 400.055 368.908 399.021 367.299 397.986C367.185 397.872 367.299 397.642 367.414 397.757C370.517 398.906 373.62 401.434 375.574 404.192C379.711 405.572 383.964 407.066 387.871 408.675C390.744 409.824 393.273 411.203 395.801 412.812C394.882 411.088 394.077 409.364 392.928 407.87C391.089 405.457 388.676 404.192 386.262 402.469C386.032 402.354 386.262 402.009 386.492 402.124C391.893 404.537 395.226 408.445 397.18 413.731C400.053 415.8 402.582 418.098 404.995 420.857C414.074 431.2 421.314 444.991 421.314 459.012C421.314 459.357 420.74 459.472 420.74 459.127C418.096 445.221 412.695 432.579 403.386 421.776C402.696 420.972 402.122 420.282 401.432 419.592C398.904 419.363 396.491 419.018 393.847 419.018C390.859 419.018 387.986 419.478 385.113 419.707C380.286 420.052 374.999 420.167 370.632 417.754C370.402 417.639 370.517 417.294 370.747 417.409C380.401 420.972 390.514 416.49 400.283 418.558C396.146 414.536 391.434 411.548 386.032 409.364C385.688 409.249 385.458 409.134 385.113 409.019C378.907 409.709 372.356 411.433 366.265 409.364C366.035 409.249 366.15 409.019 366.38 409.134C372.241 410.628 377.873 408.789 383.619 408.445C377.298 406.031 370.977 404.078 364.656 401.664C363.967 401.434 363.967 400.975 364.541 401.089Z" fill="#263238"/>
<path d="M361.783 407.181C364.771 407.64 367.759 407.64 370.862 407.87C370.977 407.87 370.977 407.985 370.862 407.985C367.874 408.675 364.656 408.215 361.783 407.411C361.553 407.411 361.668 407.181 361.783 407.181Z" fill="#263238"/>
<path d="M382.24 401.205C383.849 401.779 385.458 403.158 386.722 404.308C386.837 404.422 386.722 404.767 386.492 404.652C385.687 404.078 384.998 403.618 384.193 403.043C383.504 402.584 382.699 402.239 382.01 401.664C381.78 401.549 382.01 401.205 382.24 401.205Z" fill="#263238"/>
<path d="M430.854 423.615C430.739 423.845 431.084 424.075 431.199 423.845C431.199 423.96 431.313 423.96 431.428 423.96C436.945 425.109 442.576 426.373 448.207 426.948C452.804 427.408 457.976 427.638 461.999 424.994C467.4 421.432 470.963 411.893 468.09 405.802C464.642 398.561 454.184 402.469 449.012 405.112C440.967 408.79 434.531 415.455 430.854 423.615Z" fill="#FE9563"/>
<path d="M426.832 426.948C429.935 423.96 433.267 421.432 436.83 419.248C439.243 415.111 443.036 411.548 447.058 408.905C447.288 408.79 447.403 409.135 447.288 409.25C443.841 411.893 441.197 414.996 438.669 418.329C442.691 416.03 446.944 414.191 451.311 412.582C452.805 409.824 455.333 407.181 458.091 405.802C458.091 405.802 458.206 405.802 458.206 405.917C455.793 407.87 453.839 409.824 452.115 412.352C454.643 411.433 457.287 410.514 459.815 409.594C460.045 409.479 460.16 409.824 459.93 409.939C455.333 411.778 450.621 413.617 446.024 415.8C451.77 416.605 456.942 416.72 462.803 415.8C462.918 415.8 463.033 416.03 462.918 416.03C457.287 417.639 450.736 417.984 445.105 416.26C442.232 417.639 439.358 419.248 436.6 420.972C438.899 420.627 441.082 421.087 443.381 421.547C447.403 422.351 451.311 423.041 455.333 422.926C455.448 422.926 455.563 423.155 455.333 423.155C448.323 424.305 441.772 421.202 434.876 422.006C432.348 423.73 429.935 425.684 427.636 427.867C423.269 432.12 419.821 437.176 417.178 442.693C414.305 448.554 412.696 454.875 410.397 460.966C410.282 461.196 409.938 461.081 409.938 460.851C412.006 448.784 417.982 435.567 426.832 426.948Z" fill="#263238"/>
<path d="M447.864 410.399C448.323 409.594 449.013 408.905 449.702 408.215C450.277 407.641 450.966 406.951 451.771 406.721C451.886 406.721 451.886 406.836 451.886 406.836C451.311 407.526 450.507 407.985 449.932 408.56C449.358 409.135 448.783 409.939 448.208 410.514C447.863 410.629 447.749 410.514 447.864 410.399Z" fill="#263238"/>
<path d="M459.355 414.192C460.39 413.962 461.424 413.962 462.573 413.732C463.608 413.502 464.642 413.157 465.676 412.812C465.791 412.812 465.906 412.927 465.791 413.042C464.067 414.077 461.424 414.881 459.47 414.536C459.125 414.421 459.125 414.192 459.355 414.192Z" fill="#263238"/>
<path d="M398.1 446.025L399.019 456.369L402.122 491.421H429.59L433.497 456.369L434.646 446.025H398.1Z" fill="#37474F"/>
<path d="M398.1 446.025L399.019 456.369H433.497L434.646 446.025H398.1Z" fill="#263238"/>
<path d="M395.323 451.647H437.271V443.257H395.323V451.647Z" fill="#37474F"/>
<path d="M5.17188 491.421L63.439 491.191L121.591 491.076L238.011 490.846L354.43 491.076L412.582 491.191L470.735 491.421L412.582 491.766L354.43 491.881L238.011 491.995L121.591 491.881L63.439 491.766L5.17188 491.421Z" fill="#E3D7C3"/>
<path d="M449.588 21.2612H26.3182V289.037H449.588V21.2612Z" fill="white"/>
<path d="M449.588 289.037C449.473 289.152 26.3179 289.152 26.2029 289.267C26.088 289.152 26.2029 21.491 26.088 21.3761V21.1462H26.3179C26.3179 21.1462 449.588 21.3761 449.703 21.3761C449.818 21.2612 449.588 288.922 449.588 289.037ZM449.588 289.037C449.588 289.037 449.358 20.8015 449.588 21.3761L26.3179 21.6059L26.5477 21.3761C26.5477 21.2612 26.6626 289.957 26.3179 288.922L449.588 289.037Z" fill="#FF7B3D"/>
<path d="M449.588 21.2612H26.3179V31.6045H449.588V21.2612Z" fill="#FF7B3D"/>
<path d="M36.316 26.4329C36.316 27.5822 35.3966 28.5016 34.2473 28.5016C33.0981 28.5016 32.1786 27.5822 32.1786 26.4329C32.1786 25.2837 33.0981 24.3643 34.2473 24.3643C35.3966 24.3643 36.316 25.2837 36.316 26.4329Z" fill="#8E4C2D"/>
<path d="M44.821 26.4329C44.821 27.5822 43.9016 28.5016 42.7524 28.5016C41.6031 28.5016 40.6837 27.5822 40.6837 26.4329C40.6837 25.2837 41.6031 24.3643 42.7524 24.3643C43.9016 24.3643 44.821 25.2837 44.821 26.4329Z" fill="white"/>
<path d="M53.2104 26.4329C53.2104 27.5822 52.291 28.5016 51.1417 28.5016C49.9925 28.5016 49.0731 27.5822 49.0731 26.4329C49.0731 25.2837 49.9925 24.3643 51.1417 24.3643C52.291 24.3643 53.2104 25.2837 53.2104 26.4329Z" fill="#455A64"/>
<path d="M154.575 161.125H110.789V218.473H154.575V161.125Z" fill="#FE9563"/>
<path d="M207.211 161.125H163.424V218.473H207.211V161.125Z" fill="#FE9563"/>
<path d="M259.962 161.125H216.175V218.473H259.962V161.125Z" fill="#FE9563"/>
<path d="M312.598 161.125H268.811V218.473H312.598V161.125Z" fill="#FE9563"/>
<path d="M365.233 161.125H321.447V218.473H365.233V161.125Z" fill="#FE9563"/>
<path d="M138.945 186.869C141.014 188.937 142.048 191.695 142.048 194.454C142.048 197.097 141.014 199.855 138.945 201.924C136.876 203.992 134.118 205.027 131.475 205.027C131.36 205.027 131.36 205.027 131.36 205.027C128.717 205.027 125.958 203.992 123.89 201.924C122.855 201.004 122.855 199.51 123.89 198.476C124.809 197.557 126.418 197.557 127.338 198.476C128.487 199.625 129.866 200.2 131.475 200.2C132.969 200.2 134.463 199.625 135.497 198.476C136.647 197.327 137.221 195.833 137.221 194.454C137.221 192.96 136.647 191.466 135.497 190.316C134.348 189.167 132.969 188.592 131.475 188.592C129.981 188.592 128.487 189.052 127.338 190.316C126.418 191.236 124.809 191.236 123.89 190.316C123.775 190.201 123.545 189.972 123.43 189.742C123.43 189.627 123.43 189.627 123.43 189.627C123.43 189.512 123.43 189.512 123.315 189.397C123.315 189.282 123.315 189.167 123.315 189.052C123.315 189.052 123.315 189.052 123.315 188.937C123.315 188.707 123.315 188.478 123.315 188.248L124.579 177.215C124.694 176.525 125.039 175.836 125.614 175.491C125.729 175.491 125.729 175.491 125.729 175.376C125.729 175.376 125.844 175.376 125.844 175.261C126.188 175.146 126.533 175.031 126.993 175.031H139.635C141.014 175.031 142.048 176.066 142.048 177.445C142.048 178.709 141.014 179.858 139.635 179.858H129.061L128.602 184.11C129.521 183.88 130.555 183.766 131.475 183.766C134.118 183.766 136.876 184.8 138.945 186.869Z" fill="#455A64"/>
<path d="M191.58 186.869C193.649 188.937 194.683 191.695 194.683 194.339C194.683 196.982 193.649 199.74 191.58 201.924C189.512 203.992 186.753 205.027 183.995 205.027C181.352 205.027 178.594 203.992 176.525 201.924C175.606 201.004 175.606 199.395 176.525 198.476C177.444 197.557 179.053 197.557 179.973 198.476C181.122 199.625 182.501 200.2 183.995 200.2C185.489 200.2 186.983 199.625 188.132 198.476C189.282 197.327 189.856 195.833 189.856 194.339C189.856 192.845 189.282 191.351 188.132 190.316C186.983 189.167 185.604 188.592 184.11 188.592C183.421 188.592 182.731 188.363 182.386 187.788C181.352 186.869 181.352 185.375 182.271 184.34L186.638 179.858H179.743C178.364 179.858 177.329 178.824 177.329 177.445C177.329 176.066 178.364 175.031 179.743 175.031H192.385C193.764 175.031 194.798 176.066 194.798 177.445C194.798 177.904 194.683 178.249 194.453 178.594C194.338 178.824 194.224 179.054 193.994 179.169L188.592 184.685C189.741 185.26 190.776 185.949 191.58 186.869Z" fill="#455A64"/>
<path d="M244.332 186.869C246.4 188.937 247.435 191.695 247.435 194.339C247.435 196.982 246.4 199.74 244.332 201.924C242.263 203.992 239.505 205.027 236.747 205.027C234.103 205.027 231.345 203.992 229.277 201.924C228.357 201.004 228.357 199.395 229.277 198.476C230.196 197.557 231.805 197.557 232.724 198.476C233.874 199.625 235.253 200.2 236.747 200.2C238.241 200.2 239.735 199.625 240.884 198.476C242.033 197.327 242.608 195.833 242.608 194.339C242.608 192.845 242.033 191.351 240.884 190.316C239.735 189.167 238.356 188.592 236.862 188.592C236.172 188.592 235.483 188.363 235.138 187.788C234.103 186.869 234.103 185.375 235.023 184.34L239.39 179.858H232.495C231.115 179.858 230.081 178.824 230.081 177.445C230.081 176.066 231.115 175.031 232.495 175.031H245.136C246.515 175.031 247.55 176.066 247.55 177.445C247.55 177.904 247.435 178.249 247.205 178.594C247.09 178.824 246.975 179.054 246.745 179.169L241.344 184.685C242.378 185.26 243.412 185.949 244.332 186.869Z" fill="#455A64"/>
<path d="M300.874 194.913C300.874 200.545 296.277 205.142 290.646 205.142C285.015 205.142 280.418 200.545 280.418 194.913C280.418 191.35 282.256 188.247 285.015 186.409C284.095 185.259 283.636 183.765 283.636 182.156C283.636 178.249 286.853 175.146 290.761 175.146C294.668 175.146 297.771 178.364 297.771 182.156C297.771 183.765 297.312 185.259 296.392 186.409C299.036 188.133 300.874 191.35 300.874 194.913ZM296.277 194.913C296.277 191.925 293.749 189.397 290.761 189.397C287.658 189.397 285.244 191.925 285.13 194.913C285.13 197.901 287.658 200.43 290.761 200.43C293.749 200.43 296.277 197.901 296.277 194.913ZM288.233 182.156C288.233 183.536 289.267 184.57 290.646 184.57C291.91 184.57 292.944 183.421 292.944 182.156C292.944 180.892 291.91 179.858 290.646 179.858C289.382 179.743 288.233 180.777 288.233 182.156Z" fill="#455A64"/>
<path d="M269.04 238.585H206.866V258.122H269.04V238.585Z" fill="#FE9563"/>
<path d="M220.197 249.848C220.427 249.618 220.657 249.618 220.887 249.733C221.347 250.078 222.036 250.537 222.726 250.422C223.185 250.422 223.645 250.307 223.875 250.078C224.22 249.848 224.335 249.618 224.335 249.388C224.335 249.273 224.335 249.158 224.22 249.043C224.105 248.928 224.105 248.813 223.875 248.699C223.645 248.469 223.071 248.354 222.611 248.239C222.151 248.124 221.691 248.009 221.347 247.894C221.002 247.664 220.657 247.434 220.427 247.09C220.312 246.86 220.197 246.63 220.197 246.285C220.197 245.71 220.542 245.251 221.002 244.906C221.462 244.561 222.036 244.446 222.611 244.446C223.53 244.446 224.22 244.906 224.679 245.251C224.909 245.366 225.024 245.71 224.794 245.94C224.68 246.17 224.335 246.285 224.105 246.055C223.645 245.71 223.185 245.481 222.611 245.481C222.151 245.481 221.806 245.596 221.577 245.825C221.347 246.055 221.232 246.285 221.232 246.4C221.232 246.515 221.232 246.63 221.347 246.63C221.347 246.745 221.462 246.745 221.577 246.86C221.806 247.09 222.266 247.204 222.726 247.319C223.185 247.434 223.645 247.549 224.105 247.779C224.45 248.009 224.794 248.239 225.024 248.584C225.139 248.813 225.254 249.158 225.254 249.388C225.254 249.963 224.909 250.537 224.45 250.882C223.99 251.227 223.3 251.457 222.611 251.457C221.577 251.457 220.657 250.882 220.197 250.537C219.968 250.422 219.968 250.078 220.197 249.848Z" fill="white"/>
<path d="M229.622 251.572C228.128 251.572 226.863 250.307 226.863 248.813V245.366C226.863 245.021 227.093 244.791 227.438 244.791C227.783 244.791 228.013 245.021 228.013 245.366V248.813C228.013 249.733 228.817 250.537 229.737 250.537C230.656 250.537 231.461 249.733 231.461 248.813V245.366C231.461 245.021 231.69 244.791 232.035 244.791C232.38 244.791 232.61 245.021 232.61 245.366V248.813C232.38 250.307 231.116 251.572 229.622 251.572Z" fill="white"/>
<path d="M234.564 250.997V245.366C234.564 245.021 234.794 244.791 235.138 244.791H236.517C237.552 244.791 238.356 245.596 238.356 246.63C238.356 247.09 238.241 247.434 238.011 247.779C238.586 248.124 238.931 248.813 238.931 249.503C238.931 250.652 238.011 251.572 236.862 251.572H235.138C234.908 251.572 234.564 251.342 234.564 250.997ZM235.713 247.434H236.517C236.977 247.434 237.322 247.09 237.322 246.63C237.322 246.17 236.977 245.825 236.517 245.825H235.713V247.434ZM235.713 250.422H236.862C237.437 250.422 237.897 249.963 237.897 249.388C237.897 248.813 237.437 248.354 236.862 248.354H235.713V250.422Z" fill="white"/>
<path d="M246.17 245.366V250.997C246.17 251.342 245.941 251.572 245.596 251.572C245.251 251.572 245.021 251.342 245.021 250.997V246.975L243.642 248.928C243.527 249.043 243.412 249.158 243.182 249.158C242.953 249.158 242.838 249.043 242.723 248.928L241.344 246.975V250.997C241.344 251.342 241.114 251.572 240.769 251.572C240.424 251.572 240.194 251.342 240.194 250.997V245.366C240.194 245.021 240.424 244.791 240.769 244.791C240.884 244.791 241.114 244.906 241.229 245.021L243.182 247.664L245.136 245.021C245.251 244.906 245.366 244.791 245.596 244.791C245.826 244.791 246.17 245.021 246.17 245.366Z" fill="white"/>
<path d="M248.469 245.366C248.469 245.021 248.699 244.791 249.044 244.791C249.389 244.791 249.618 245.021 249.618 245.366V250.997C249.618 251.342 249.389 251.572 249.044 251.572C248.699 251.572 248.469 251.342 248.469 250.997V245.366Z" fill="white"/>
<path d="M255.48 245.825H253.986V250.997C253.986 251.342 253.756 251.572 253.411 251.572C253.066 251.572 252.836 251.342 252.836 250.997V245.825H251.342C250.998 245.825 250.768 245.595 250.768 245.251C250.768 244.906 250.998 244.676 251.342 244.676H255.48C255.824 244.676 256.054 244.906 256.054 245.251C256.054 245.595 255.824 245.825 255.48 245.825Z" fill="white"/>
<path d="M246.057 68.2654V76.9997H243.644V68.2654C243.644 64.9326 241.115 62.2893 238.012 62.2893C234.909 62.2893 232.381 65.0475 232.381 68.2654V76.9997H229.853V68.2654C229.853 63.5535 233.53 59.646 238.012 59.646C242.494 59.646 246.057 63.4385 246.057 68.2654Z" fill="#FFB592"/>
<path d="M229.853 70.5637H232.381V76.9995H229.853V70.5637Z" fill="#FE9563"/>
<path d="M246.057 71.1384V76.9996H243.644V71.0234L246.057 71.1384Z" fill="#FE9563"/>
<path d="M249.275 73.782H226.749V92.5148H249.275V73.782Z" fill="#FE9563"/>
<path d="M238.932 82.9759L239.851 87.458H235.829L236.748 82.9759C236.174 82.6312 235.829 81.9416 235.829 81.2521C235.829 80.1028 236.748 79.2983 237.783 79.2983C238.932 79.2983 239.736 80.2177 239.736 81.2521C239.851 82.0565 239.507 82.6312 238.932 82.9759Z" fill="#263238"/>
<path d="M115.731 139.519C115.731 139.404 115.845 139.29 115.96 139.29H118.029C119.178 139.29 120.098 140.209 120.098 141.358C120.098 142.507 119.178 143.427 118.029 143.427H116.19V146.3C116.19 146.415 116.075 146.53 115.96 146.53C115.845 146.53 115.731 146.415 115.731 146.3V139.519ZM118.029 142.967C118.948 142.967 119.638 142.278 119.638 141.358C119.638 140.439 118.948 139.749 118.029 139.749H116.19V142.967H118.029Z" fill="#263238"/>
<path d="M121.821 139.519C121.821 139.404 121.936 139.29 122.051 139.29C122.166 139.29 122.281 139.404 122.281 139.519V146.415C122.281 146.53 122.166 146.645 122.051 146.645C121.936 146.645 121.821 146.53 121.821 146.415V139.519Z" fill="#263238"/>
<path d="M124.464 144.116C124.464 142.737 125.614 141.588 126.993 141.588C128.372 141.588 129.406 142.622 129.521 144.002C129.521 144.116 129.406 144.231 129.291 144.231H125.039C125.039 145.381 125.958 146.185 126.993 146.185C127.682 146.185 128.257 145.84 128.602 145.266C128.717 145.151 128.832 145.151 128.947 145.151C129.061 145.266 129.061 145.381 129.061 145.496C128.602 146.185 127.797 146.645 126.993 146.645C125.614 146.645 124.464 145.496 124.464 144.116ZM125.039 143.657H128.947C128.832 142.737 127.912 141.933 126.993 141.933C125.958 142.048 125.154 142.737 125.039 143.657Z" fill="#263238"/>
<path d="M135.498 141.818V146.415C135.498 146.53 135.383 146.645 135.268 146.645C135.153 146.645 135.038 146.53 135.038 146.415V145.611C134.578 146.185 133.889 146.645 133.084 146.645C131.705 146.645 130.671 145.496 130.671 144.116C130.671 142.737 131.705 141.588 133.084 141.588C133.889 141.588 134.578 141.933 135.038 142.622V141.818C135.038 141.703 135.153 141.588 135.268 141.588C135.383 141.588 135.498 141.588 135.498 141.818ZM135.038 144.116C135.038 142.967 134.119 142.048 133.084 142.048C132.05 142.048 131.131 142.967 131.131 144.116C131.131 145.266 132.05 146.185 133.084 146.185C134.119 146.185 135.038 145.266 135.038 144.116Z" fill="#263238"/>
<path d="M137.336 145.611C137.451 145.496 137.566 145.496 137.681 145.611C138.026 145.84 138.6 146.185 139.29 146.185C139.635 146.185 139.98 146.07 140.324 145.84C140.554 145.726 140.669 145.496 140.669 145.266C140.669 145.036 140.554 144.806 140.324 144.691C140.095 144.576 139.75 144.346 139.175 144.346C138.715 144.231 138.256 144.117 138.026 144.002C137.681 143.772 137.451 143.427 137.451 143.082C137.451 142.623 137.681 142.278 138.026 142.048C138.371 141.818 138.715 141.703 139.29 141.703C139.98 141.703 140.439 142.048 140.784 142.278C140.899 142.393 140.899 142.508 140.899 142.623C140.784 142.737 140.669 142.737 140.554 142.737C140.209 142.508 139.75 142.278 139.29 142.278C138.83 142.278 138.486 142.393 138.256 142.623C138.026 142.737 137.911 142.967 137.911 143.197C137.911 143.427 138.026 143.542 138.256 143.657C138.486 143.772 138.83 143.887 139.29 144.002C139.75 144.117 140.209 144.231 140.554 144.461C140.899 144.691 141.129 145.036 141.129 145.496C141.129 145.955 140.899 146.3 140.554 146.53C140.209 146.76 139.75 146.99 139.29 146.99C138.486 146.99 137.796 146.645 137.336 146.3C137.336 145.84 137.336 145.726 137.336 145.611Z" fill="#263238"/>
<path d="M142.508 144.116C142.508 142.737 143.657 141.588 145.036 141.588C146.415 141.588 147.45 142.622 147.565 144.002C147.565 144.116 147.45 144.231 147.335 144.231H143.083C143.083 145.381 144.002 146.185 145.036 146.185C145.726 146.185 146.3 145.84 146.645 145.266C146.76 145.151 146.875 145.151 146.99 145.151C147.105 145.266 147.105 145.381 147.105 145.496C146.645 146.185 145.841 146.645 145.036 146.645C143.657 146.645 142.508 145.496 142.508 144.116ZM143.083 143.657H146.99C146.875 142.737 145.956 141.933 145.036 141.933C144.117 142.048 143.312 142.737 143.083 143.657Z" fill="#263238"/>
<path d="M152.047 144.116C152.047 142.737 153.196 141.588 154.575 141.588C155.954 141.588 156.988 142.622 157.103 144.002C157.103 144.116 156.988 144.231 156.873 144.231H152.621C152.621 145.381 153.541 146.185 154.575 146.185C155.264 146.185 155.839 145.84 156.184 145.266C156.299 145.151 156.414 145.151 156.529 145.151C156.644 145.266 156.644 145.381 156.644 145.496C156.184 146.185 155.379 146.645 154.575 146.645C153.196 146.645 152.047 145.496 152.047 144.116ZM152.621 143.657H156.529C156.414 142.737 155.494 141.933 154.575 141.933C153.655 142.048 152.851 142.737 152.621 143.657Z" fill="#263238"/>
<path d="M162.505 143.657C162.505 142.737 161.816 142.048 160.896 142.048C159.977 142.048 159.287 142.737 159.287 143.657V146.415V146.53C159.287 146.645 159.172 146.645 159.057 146.645H158.943C158.828 146.645 158.828 146.53 158.828 146.53V146.415V143.657V143.542V141.818C158.828 141.703 158.942 141.588 159.057 141.588C159.172 141.588 159.287 141.703 159.287 141.818V142.278C159.632 141.818 160.207 141.588 160.896 141.588C162.045 141.588 162.965 142.508 162.965 143.657V146.415C162.965 146.53 162.85 146.645 162.735 146.645C162.62 146.645 162.505 146.53 162.505 146.415V143.657Z" fill="#263238"/>
<path d="M167.102 141.818C167.102 141.933 166.987 142.048 166.872 142.048H166.182V145.84C166.182 146.07 166.412 146.185 166.527 146.185C166.642 146.185 166.757 146.3 166.757 146.415C166.757 146.53 166.642 146.645 166.527 146.645C166.067 146.645 165.608 146.3 165.608 145.725V141.933H164.918C164.688 141.933 164.688 141.818 164.688 141.703C164.688 141.588 164.688 141.473 164.918 141.473H165.608V139.519C165.608 139.404 165.723 139.29 165.838 139.29C165.953 139.29 166.067 139.404 166.067 139.519V141.473H166.757C166.987 141.473 167.102 141.588 167.102 141.818Z" fill="#263238"/>
<path d="M168.711 144.116C168.711 142.737 169.86 141.588 171.239 141.588C172.618 141.588 173.652 142.622 173.767 144.002C173.767 144.116 173.652 144.231 173.538 144.231H169.285C169.285 145.381 170.205 146.185 171.239 146.185C171.929 146.185 172.503 145.84 172.848 145.266C172.963 145.151 173.078 145.151 173.193 145.151C173.308 145.266 173.308 145.381 173.308 145.496C172.848 146.185 172.044 146.645 171.239 146.645C169.86 146.645 168.711 145.496 168.711 144.116ZM169.285 143.657H173.193C173.078 142.737 172.158 141.933 171.239 141.933C170.205 142.048 169.4 142.737 169.285 143.657Z" fill="#263238"/>
<path d="M175.262 141.818C175.262 141.703 175.377 141.588 175.492 141.588C175.606 141.588 175.721 141.703 175.721 141.818V142.967C175.721 142.967 175.721 142.852 175.836 142.852C176.181 142.278 176.871 141.588 177.905 141.588C178.02 141.588 178.135 141.703 178.135 141.818C178.135 141.933 178.02 142.048 177.905 142.048C177.215 142.048 176.756 142.393 176.411 142.852C176.066 143.312 175.836 143.887 175.836 144.002V144.116V146.415C175.836 146.53 175.721 146.645 175.606 146.645C175.492 146.645 175.377 146.53 175.377 146.415V141.818H175.262Z" fill="#263238"/>
<path d="M184.8 141.818C184.8 141.933 184.685 142.048 184.57 142.048H183.881V145.84C183.881 146.07 184.111 146.185 184.226 146.185C184.341 146.185 184.455 146.3 184.455 146.415C184.455 146.53 184.341 146.645 184.226 146.645C183.766 146.645 183.306 146.3 183.306 145.725V141.933H182.732C182.502 141.933 182.502 141.818 182.502 141.703C182.502 141.588 182.502 141.473 182.732 141.473H183.421V139.519C183.421 139.404 183.536 139.29 183.651 139.29C183.766 139.29 183.881 139.404 183.881 139.519V141.473H184.57C184.685 141.473 184.8 141.588 184.8 141.818Z" fill="#263238"/>
<path d="M190.777 143.542C190.777 142.623 190.088 142.048 189.168 142.048C188.249 142.048 187.559 142.623 187.559 143.542V146.415C187.559 146.53 187.444 146.53 187.444 146.53C187.329 146.53 187.329 146.53 187.214 146.415C187.214 146.415 187.214 146.415 187.214 146.3C187.214 146.3 187.214 146.3 187.214 146.185V143.312V143.197V139.29C187.214 139.175 187.329 139.06 187.444 139.06C187.559 139.06 187.674 139.175 187.674 139.29V142.048C188.019 141.588 188.708 141.243 189.283 141.243C190.432 141.243 191.467 142.048 191.467 143.312V146.185C191.467 146.3 191.352 146.415 191.237 146.415C191.122 146.415 191.007 146.3 191.007 146.185V143.542H190.777Z" fill="#263238"/>
<path d="M193.075 144.116C193.075 142.737 194.224 141.588 195.603 141.588C196.983 141.588 198.017 142.622 198.132 144.002C198.132 144.116 198.017 144.231 197.902 144.231H193.65C193.65 145.381 194.569 146.185 195.603 146.185C196.293 146.185 196.868 145.84 197.212 145.266C197.327 145.151 197.442 145.151 197.557 145.151C197.672 145.266 197.672 145.381 197.672 145.496C197.212 146.185 196.408 146.645 195.603 146.645C194.224 146.645 193.075 145.496 193.075 144.116ZM193.65 143.657H197.557C197.442 142.737 196.523 141.933 195.603 141.933C194.569 142.048 193.765 142.737 193.65 143.657Z" fill="#263238"/>
<path d="M206.292 139.175C208.246 139.175 209.855 140.899 209.855 142.852C209.855 144.921 208.246 146.53 206.292 146.53C204.338 146.53 202.729 144.806 202.729 142.852C202.844 140.899 204.338 139.175 206.292 139.175ZM206.292 146.185C207.901 146.185 209.28 144.806 209.28 142.967C209.28 141.129 207.901 139.749 206.292 139.749C204.568 139.749 203.304 141.129 203.304 142.967C203.304 144.691 204.683 146.185 206.292 146.185Z" fill="#263238"/>
<path d="M213.302 139.864H211.118C211.003 139.864 210.889 139.749 210.889 139.634C210.889 139.519 211.003 139.405 211.118 139.405H216.06C216.175 139.405 216.29 139.519 216.29 139.634C216.29 139.749 216.175 139.864 216.06 139.864H213.877V146.415C213.877 146.53 213.762 146.645 213.647 146.645C213.532 146.645 213.417 146.53 213.417 146.415V139.864H213.302Z" fill="#263238"/>
<path d="M218.244 139.519C218.244 139.404 218.359 139.29 218.474 139.29H220.543C221.692 139.29 222.611 140.209 222.611 141.358C222.611 142.507 221.692 143.427 220.543 143.427H218.704V146.3C218.704 146.415 218.589 146.53 218.474 146.53C218.359 146.53 218.244 146.415 218.244 146.3V139.519ZM220.543 142.967C221.462 142.967 222.152 142.278 222.152 141.358C222.152 140.439 221.462 139.749 220.543 139.749H218.704V142.967H220.543Z" fill="#263238"/>
<path d="M227.094 144.116C227.094 142.737 228.243 141.588 229.737 141.588C230.312 141.588 230.886 141.818 231.346 142.163C231.461 142.278 231.461 142.393 231.346 142.508C231.231 142.622 231.116 142.622 231.001 142.508C230.656 142.163 230.197 142.048 229.622 142.048C228.473 142.048 227.438 142.967 227.438 144.116C227.438 145.266 228.358 146.185 229.622 146.185C230.082 146.185 230.541 146.07 231.001 145.725C231.116 145.611 231.231 145.725 231.346 145.725C231.461 145.84 231.461 145.955 231.346 146.07C230.886 146.415 230.312 146.645 229.737 146.645C228.243 146.645 227.094 145.496 227.094 144.116Z" fill="#263238"/>
<path d="M235.482 141.473C236.861 141.473 237.896 142.623 237.896 144.002C237.896 145.381 236.861 146.53 235.482 146.53C234.103 146.53 233.069 145.381 233.069 144.002C233.069 142.738 234.103 141.473 235.482 141.473ZM235.482 146.185C236.517 146.185 237.436 145.266 237.436 144.117C237.436 142.967 236.517 142.048 235.482 142.048C234.448 142.048 233.529 142.967 233.529 144.117C233.529 145.266 234.448 146.185 235.482 146.185Z" fill="#263238"/>
<path d="M243.988 145.611C243.528 146.185 242.838 146.645 242.034 146.645C240.655 146.645 239.505 145.496 239.505 144.116C239.505 142.737 240.655 141.588 242.034 141.588C242.838 141.588 243.528 141.933 243.988 142.622V139.634C243.988 139.519 244.102 139.405 244.217 139.405C244.332 139.405 244.447 139.519 244.447 139.634V144.116V144.231V146.53C244.447 146.645 244.332 146.76 244.217 146.76C244.102 146.76 243.988 146.645 243.988 146.53V145.611ZM243.988 144.231V144.116C243.988 142.967 243.068 142.163 242.034 142.163C240.999 142.163 240.08 143.082 240.08 144.231C240.08 145.381 240.999 146.3 242.034 146.3C243.068 146.185 243.873 145.266 243.988 144.231Z" fill="#263238"/>
<path d="M246.285 144.116C246.285 142.737 247.435 141.588 248.814 141.588C250.193 141.588 251.227 142.622 251.342 144.002C251.342 144.116 251.227 144.231 251.112 144.231H246.86C246.86 145.381 247.779 146.185 248.814 146.185C249.503 146.185 250.078 145.84 250.423 145.266C250.538 145.151 250.652 145.151 250.767 145.151C250.882 145.266 250.882 145.381 250.882 145.496C250.423 146.185 249.618 146.645 248.814 146.645C247.32 146.645 246.285 145.496 246.285 144.116ZM246.745 143.657H250.653C250.538 142.737 249.618 141.933 248.699 141.933C247.779 142.048 246.975 142.737 246.745 143.657Z" fill="#263238"/>
<path d="M255.825 145.611C255.94 145.496 256.055 145.496 256.17 145.611C256.514 145.84 257.089 146.185 257.779 146.185C258.123 146.185 258.468 146.07 258.813 145.84C259.043 145.726 259.158 145.496 259.158 145.266C259.158 145.036 259.043 144.806 258.813 144.691C258.583 144.576 258.238 144.346 257.664 144.346C257.204 144.231 256.744 144.117 256.514 144.002C256.17 143.772 255.94 143.427 255.94 143.082C255.94 142.623 256.17 142.278 256.514 142.048C256.859 141.818 257.204 141.703 257.779 141.703C258.468 141.703 258.928 142.048 259.273 142.278C259.387 142.393 259.387 142.508 259.387 142.623C259.273 142.737 259.158 142.737 259.043 142.737C258.698 142.508 258.238 142.278 257.779 142.278C257.319 142.278 256.974 142.393 256.744 142.623C256.514 142.737 256.399 142.967 256.399 143.197C256.399 143.427 256.514 143.542 256.744 143.657C256.974 143.772 257.319 143.887 257.779 144.002C258.238 144.117 258.698 144.231 259.043 144.461C259.387 144.691 259.617 145.036 259.617 145.496C259.617 145.955 259.387 146.3 259.043 146.53C258.698 146.76 258.238 146.99 257.779 146.99C256.974 146.99 256.285 146.645 255.825 146.3C255.71 145.84 255.71 145.726 255.825 145.611Z" fill="#263238"/>
<path d="M260.997 144.116C260.997 142.737 262.146 141.588 263.525 141.588C264.904 141.588 265.938 142.622 266.053 144.002C266.053 144.116 265.938 144.231 265.824 144.231H261.571C261.571 145.381 262.491 146.185 263.525 146.185C264.215 146.185 264.789 145.84 265.134 145.266C265.249 145.151 265.364 145.151 265.479 145.151C265.594 145.266 265.594 145.381 265.594 145.496C265.134 146.185 264.33 146.645 263.525 146.645C262.031 146.645 260.997 145.496 260.997 144.116ZM261.456 143.657H265.364C265.249 142.737 264.33 141.933 263.41 141.933C262.491 142.048 261.686 142.737 261.456 143.657Z" fill="#263238"/>
<path d="M271.34 143.657C271.34 142.737 270.65 142.048 269.731 142.048C268.811 142.048 268.122 142.737 268.122 143.657V146.415V146.53C268.122 146.645 268.007 146.645 267.892 146.645H267.777C267.662 146.645 267.662 146.53 267.662 146.53V146.415V143.657V143.542V141.818C267.662 141.703 267.777 141.588 267.892 141.588C268.007 141.588 268.122 141.703 268.122 141.818V142.278C268.467 141.818 269.041 141.588 269.731 141.588C270.88 141.588 271.799 142.508 271.799 143.657V146.415C271.799 146.53 271.685 146.645 271.57 146.645C271.455 146.645 271.34 146.53 271.34 146.415V143.657Z" fill="#263238"/>
<path d="M275.936 141.818C275.936 141.933 275.821 142.048 275.706 142.048H275.017V145.84C275.017 146.07 275.247 146.185 275.362 146.185C275.477 146.185 275.592 146.3 275.592 146.415C275.592 146.53 275.477 146.645 275.362 146.645C274.902 146.645 274.442 146.3 274.442 145.725V141.933H273.753C273.523 141.933 273.523 141.818 273.523 141.703C273.523 141.588 273.523 141.473 273.753 141.473H274.442V139.519C274.442 139.404 274.557 139.29 274.672 139.29C274.787 139.29 274.902 139.404 274.902 139.519V141.473H275.592C275.821 141.473 275.936 141.588 275.936 141.818Z" fill="#263238"/>
<path d="M283.292 141.818C283.292 141.933 283.177 142.048 283.062 142.048H282.373V145.84C282.373 146.07 282.602 146.185 282.717 146.185C282.832 146.185 282.947 146.3 282.947 146.415C282.947 146.53 282.832 146.645 282.717 146.645C282.258 146.645 281.798 146.3 281.798 145.725V141.933H281.108C280.879 141.933 280.879 141.818 280.879 141.703C280.879 141.588 280.879 141.473 281.108 141.473H281.798V139.519C281.798 139.404 281.913 139.29 282.028 139.29C282.143 139.29 282.258 139.404 282.258 139.519V141.473H282.947C283.177 141.473 283.292 141.588 283.292 141.818Z" fill="#263238"/>
<path d="M287.773 141.473C289.153 141.473 290.187 142.623 290.187 144.002C290.187 145.381 289.153 146.53 287.773 146.53C286.394 146.53 285.36 145.381 285.36 144.002C285.36 142.738 286.394 141.473 287.773 141.473ZM287.773 146.185C288.808 146.185 289.727 145.266 289.727 144.117C289.727 142.967 288.808 142.048 287.773 142.048C286.739 142.048 285.82 142.967 285.82 144.117C285.82 145.266 286.739 146.185 287.773 146.185Z" fill="#263238"/>
<path d="M294.785 141.703C294.785 141.588 294.899 141.473 295.014 141.473C295.129 141.473 295.244 141.588 295.244 141.703V144.461C295.244 145.381 295.934 146.07 296.853 146.07C297.773 146.07 298.462 145.381 298.462 144.461V141.703V141.588C298.462 141.588 298.577 141.588 298.577 141.473H298.692C298.692 141.473 298.692 141.473 298.807 141.588V141.703V144.461V144.576V146.185C298.807 147.564 297.658 148.599 296.393 148.599C296.049 148.599 295.704 148.484 295.359 148.369C295.244 148.254 295.244 148.139 295.244 148.024C295.359 147.909 295.474 147.909 295.589 147.909C295.819 148.024 296.164 148.139 296.393 148.139C297.428 148.139 298.347 147.335 298.347 146.185V145.955C298.002 146.415 297.428 146.645 296.738 146.645C295.589 146.645 294.67 145.726 294.67 144.576V141.703H294.785Z" fill="#263238"/>
<path d="M303.288 141.473C304.667 141.473 305.702 142.623 305.702 144.002C305.702 145.381 304.667 146.53 303.288 146.53C301.909 146.53 300.875 145.381 300.875 144.002C300.875 142.738 302.024 141.473 303.288 141.473ZM303.288 146.185C304.323 146.185 305.242 145.266 305.242 144.117C305.242 142.967 304.323 142.048 303.288 142.048C302.254 142.048 301.335 142.967 301.335 144.117C301.335 145.266 302.254 146.185 303.288 146.185Z" fill="#263238"/>
<path d="M307.426 141.703C307.426 141.588 307.541 141.473 307.656 141.473C307.771 141.473 307.886 141.588 307.886 141.703V144.461C307.886 145.381 308.575 146.07 309.494 146.07C310.414 146.07 311.103 145.381 311.103 144.461V141.703C311.103 141.588 311.218 141.473 311.333 141.473C311.448 141.473 311.563 141.588 311.563 141.703V144.461C311.563 145.611 310.644 146.53 309.494 146.53C308.345 146.53 307.426 145.611 307.426 144.461V141.703Z" fill="#263238"/>
<path d="M313.977 141.818C313.977 141.703 314.092 141.588 314.207 141.588C314.322 141.588 314.437 141.703 314.437 141.818V142.967C314.437 142.967 314.437 142.852 314.551 142.852C314.896 142.278 315.586 141.588 316.62 141.588C316.735 141.588 316.85 141.703 316.85 141.818C316.85 141.933 316.735 142.048 316.62 142.048C315.931 142.048 315.471 142.393 315.126 142.852C314.781 143.312 314.551 143.887 314.551 144.002V144.116V146.415C314.551 146.53 314.437 146.645 314.322 146.645C314.207 146.645 314.092 146.53 314.092 146.415V141.818H313.977Z" fill="#263238"/>
<path d="M325.355 143.657C325.355 142.737 324.665 142.048 323.746 142.048C322.826 142.048 322.137 142.737 322.137 143.657V146.415V146.53C322.137 146.645 322.022 146.645 321.907 146.645H321.792C321.677 146.645 321.677 146.53 321.677 146.53V146.415V143.657V143.542V141.818C321.677 141.703 321.792 141.588 321.907 141.588C322.022 141.588 322.137 141.703 322.137 141.818V142.278C322.482 141.818 323.056 141.588 323.746 141.588C324.895 141.588 325.814 142.508 325.814 143.657V146.415C325.814 146.53 325.699 146.645 325.585 146.645C325.47 146.645 325.355 146.53 325.355 146.415V143.657Z" fill="#263238"/>
<path d="M328.112 141.703C328.112 141.588 328.227 141.473 328.342 141.473C328.457 141.473 328.572 141.588 328.572 141.703V144.461C328.572 145.381 329.262 146.07 330.181 146.07C331.1 146.07 331.79 145.381 331.79 144.461V141.703C331.79 141.588 331.905 141.473 332.02 141.473C332.135 141.473 332.25 141.588 332.25 141.703V144.461C332.25 145.611 331.33 146.53 330.181 146.53C329.032 146.53 328.112 145.611 328.112 144.461V141.703Z" fill="#263238"/>
<path d="M342.018 143.657C342.018 142.737 341.329 142.048 340.409 142.048C339.49 142.048 338.8 142.737 338.8 143.657V146.415C338.8 146.53 338.685 146.53 338.685 146.53H338.57C338.57 146.53 338.57 146.53 338.456 146.53V143.657C338.456 142.737 337.766 142.048 336.847 142.048C335.927 142.048 335.238 142.737 335.238 143.657V146.415C335.238 146.53 335.238 146.53 335.123 146.645C335.123 146.645 335.123 146.645 335.008 146.645C334.893 146.645 334.778 146.53 334.778 146.415V143.657V143.542V141.818C334.778 141.703 334.893 141.588 335.008 141.588C335.123 141.588 335.238 141.703 335.238 141.818V142.278C335.582 141.818 336.157 141.588 336.847 141.588C337.651 141.588 338.341 142.048 338.685 142.737C339.03 142.048 339.72 141.588 340.524 141.588C341.673 141.588 342.593 142.508 342.593 143.657V146.415C342.593 146.53 342.478 146.645 342.363 146.645C342.248 146.645 342.133 146.53 342.133 146.415V143.657H342.018Z" fill="#263238"/>
<path d="M344.547 144.231V144.001V139.519C344.547 139.404 344.661 139.29 344.776 139.29C344.891 139.29 345.006 139.404 345.006 139.519V142.507C345.466 141.933 346.155 141.473 346.96 141.473C348.339 141.473 349.488 142.622 349.488 144.001C349.488 145.381 348.339 146.53 346.96 146.53C346.155 146.53 345.466 146.185 345.006 145.496V146.185C345.006 146.3 344.891 146.415 344.776 146.415C344.661 146.415 344.547 146.3 344.547 146.185V144.231ZM345.121 144.116C345.121 145.266 346.041 146.185 347.075 146.185C348.224 146.185 349.029 145.266 349.029 144.116C349.029 142.967 348.109 142.048 347.075 142.048C346.041 142.048 345.121 142.967 345.121 144.116Z" fill="#263238"/>
<path d="M351.213 144.116C351.213 142.737 352.362 141.588 353.741 141.588C355.121 141.588 356.155 142.622 356.27 144.002C356.27 144.116 356.155 144.231 356.04 144.231H351.673C351.673 145.381 352.592 146.185 353.627 146.185C354.316 146.185 354.891 145.84 355.235 145.266C355.35 145.151 355.465 145.151 355.58 145.151C355.695 145.266 355.695 145.381 355.695 145.496C355.235 146.185 354.431 146.645 353.627 146.645C352.247 146.645 351.213 145.496 351.213 144.116ZM351.673 143.657H355.58C355.465 142.737 354.546 141.933 353.627 141.933C352.707 142.048 351.903 142.737 351.673 143.657Z" fill="#263238"/>
<path d="M357.648 141.818C357.648 141.703 357.763 141.588 357.878 141.588C357.993 141.588 358.108 141.703 358.108 141.818V142.967C358.108 142.967 358.108 142.852 358.223 142.852C358.568 142.278 359.257 141.588 360.292 141.588C360.407 141.588 360.522 141.703 360.522 141.818C360.522 141.933 360.407 142.048 360.292 142.048C359.602 142.048 359.142 142.393 358.798 142.852C358.453 143.312 358.223 143.887 358.223 144.002V144.116V146.415C358.223 146.53 358.108 146.645 357.993 146.645C357.878 146.645 357.763 146.53 357.763 146.415V141.818H357.648Z" fill="#263238"/>
<path d="M186.525 118.718L186.41 118.603C186.41 118.603 186.41 118.603 186.41 118.488L186.295 118.373L186.18 118.258L181.238 106.421C181.009 105.846 181.238 105.157 181.813 104.927C182.388 104.697 182.962 104.927 183.307 105.501L187.215 114.925L191.122 105.501C191.352 104.927 192.041 104.697 192.616 104.927C193.191 105.157 193.421 105.846 193.191 106.421L188.134 118.258C188.134 118.258 188.134 118.373 188.019 118.373L187.904 118.488C187.904 118.488 187.904 118.488 187.904 118.603L187.789 118.718L187.674 118.833C187.559 118.833 187.559 118.833 187.559 118.833C187.444 118.833 187.444 118.833 187.329 118.833C187.215 118.833 187.215 118.833 187.1 118.833H186.985C186.64 118.833 186.525 118.833 186.525 118.718Z" fill="#263238"/>
<path d="M194.684 113.891C194.684 111.133 196.868 108.834 199.626 108.834C202.269 108.834 204.338 110.788 204.568 113.546V113.661C204.568 113.661 204.568 113.776 204.568 113.891C204.453 114.351 204.108 114.696 203.534 114.696H197.098C197.213 115.155 197.443 115.73 197.787 116.075C198.247 116.534 199.052 116.879 199.741 116.994C200.431 117.109 201.35 116.879 201.81 116.534C202.269 116.075 203.074 116.19 203.304 116.42C203.534 116.649 203.763 117.339 203.304 117.684C202.269 118.603 201.12 119.063 199.626 119.063C196.868 118.948 194.799 116.649 194.684 113.891ZM196.983 112.857H202.729C202.499 112.052 201.465 110.903 199.741 110.673C197.902 110.788 197.098 112.052 196.983 112.857Z" fill="#263238"/>
<path d="M213.648 109.869C213.648 110.443 213.188 110.903 212.613 110.903C212.154 110.903 211.694 111.018 211.349 111.248C211.004 111.478 210.66 111.822 210.43 112.167C209.97 112.857 209.74 113.546 209.625 113.891V117.799C209.625 118.373 209.166 118.833 208.476 118.833C207.901 118.833 207.442 118.373 207.442 117.799V109.754C207.442 109.179 207.901 108.719 208.476 108.719C209.051 108.719 209.625 109.179 209.625 109.754V109.869C209.74 109.754 209.855 109.524 210.085 109.409C210.775 108.949 211.579 108.604 212.613 108.604C213.188 108.834 213.648 109.294 213.648 109.869Z" fill="#263238"/>
<path d="M218.474 106.306C218.474 106.881 218.014 107.455 217.325 107.455C216.75 107.455 216.176 106.996 216.176 106.306V105.846C216.176 105.272 216.635 104.697 217.325 104.697C217.9 104.697 218.474 105.157 218.474 105.846V106.306ZM218.474 109.984V117.913C218.474 118.488 218.014 119.063 217.325 119.063C216.75 119.063 216.176 118.603 216.176 117.913V109.984C216.176 109.294 216.635 108.834 217.325 108.834C218.014 108.834 218.474 109.294 218.474 109.984Z" fill="#263238"/>
<path d="M225.255 108.145V108.375H225.83C226.404 108.375 226.979 108.834 226.979 109.524C226.979 110.099 226.519 110.673 225.83 110.673H225.255V117.799C225.255 118.373 224.795 118.948 224.106 118.948C223.531 118.948 222.957 118.488 222.957 117.799V110.673H222.382C221.807 110.673 221.233 110.214 221.233 109.524C221.233 108.949 221.692 108.375 222.382 108.375H222.957V108.145C222.957 107.34 223.072 106.766 223.301 106.191C223.531 105.616 224.106 105.157 224.795 104.927C225.255 104.812 225.6 104.812 226.06 104.812C226.634 104.812 227.209 105.272 227.209 105.961C227.209 106.536 226.749 107.111 226.06 107.111C225.83 107.111 225.6 107.111 225.485 107.225C225.37 107.225 225.37 107.225 225.37 107.34C225.485 107.111 225.255 107.455 225.255 108.145Z" fill="#263238"/>
<path d="M231.576 106.306C231.576 106.881 231.116 107.455 230.427 107.455C229.852 107.455 229.278 106.996 229.278 106.306V105.846C229.278 105.272 229.737 104.697 230.427 104.697C231.001 104.697 231.576 105.157 231.576 105.846V106.306ZM231.576 109.984V117.913C231.576 118.488 231.116 119.063 230.427 119.063C229.852 119.063 229.278 118.603 229.278 117.913V109.984C229.278 109.294 229.737 108.834 230.427 108.834C231.116 108.834 231.576 109.294 231.576 109.984Z" fill="#263238"/>
<path d="M234.334 113.891C234.334 111.018 236.632 108.834 239.505 108.834C240.769 108.834 241.804 109.294 242.723 109.984C243.183 110.329 243.298 111.018 242.953 111.478C242.493 111.937 241.919 112.052 241.459 111.708C240.884 111.363 240.31 111.018 239.505 111.018C237.896 111.018 236.517 112.397 236.517 113.891C236.517 115.5 237.896 116.764 239.505 116.764C240.195 116.764 240.884 116.534 241.459 116.075C241.919 115.73 242.608 115.845 242.953 116.305C243.298 116.764 243.183 117.454 242.723 117.799C241.804 118.373 240.769 118.833 239.505 118.833C236.632 118.948 234.334 116.649 234.334 113.891Z" fill="#263238"/>
<path d="M255.25 113.891V117.914C255.25 118.488 254.791 118.948 254.216 118.948C253.642 118.948 253.297 118.603 253.182 118.029C252.377 118.603 251.458 118.948 250.539 118.948C249.159 118.948 248.01 118.373 247.091 117.454C246.171 116.534 245.712 115.27 245.712 113.891C245.712 112.512 246.171 111.248 247.091 110.329C248.01 109.409 249.159 108.834 250.539 108.834C251.573 108.834 252.492 109.179 253.182 109.754C253.297 109.294 253.756 108.834 254.216 108.834C254.791 108.834 255.25 109.294 255.25 109.984V113.891ZM253.067 113.891C253.067 113.087 252.722 112.282 252.262 111.823C251.803 111.248 251.113 111.018 250.424 111.018C249.734 111.018 249.045 111.248 248.585 111.823C248.125 112.282 247.78 113.087 247.78 113.891C247.78 114.696 248.01 115.5 248.585 115.96C249.045 116.42 249.734 116.764 250.424 116.764C251.113 116.764 251.803 116.534 252.262 115.96C252.722 115.5 253.067 114.811 253.067 113.891Z" fill="#263238"/>
<path d="M263.755 109.984C263.755 110.558 263.18 111.133 262.605 111.133H262.146V116.764C262.72 116.764 263.295 117.224 263.295 117.913C263.295 118.603 262.835 119.063 262.146 119.063C260.882 119.063 259.847 118.028 259.847 116.764V111.133H259.273C258.698 111.133 258.123 110.673 258.123 109.984C258.123 109.409 258.583 108.834 259.273 108.834H259.847V105.846C259.847 105.272 260.307 104.697 260.997 104.697C261.571 104.697 262.146 105.157 262.146 105.846V108.834H262.605C263.18 108.834 263.755 109.294 263.755 109.984Z" fill="#263238"/>
<path d="M269.501 106.306C269.501 106.881 269.042 107.455 268.352 107.455C267.778 107.455 267.203 106.996 267.203 106.306V105.846C267.203 105.272 267.663 104.697 268.352 104.697C268.927 104.697 269.501 105.157 269.501 105.846V106.306ZM269.501 109.984V117.913C269.501 118.488 269.042 119.063 268.352 119.063C267.778 119.063 267.203 118.603 267.203 117.913V109.984C267.203 109.294 267.663 108.834 268.352 108.834C269.042 108.834 269.501 109.294 269.501 109.984Z" fill="#263238"/>
<path d="M273.983 117.454C273.063 116.534 272.604 115.27 272.604 113.891C272.604 112.512 273.178 111.363 273.983 110.329C274.902 109.409 276.051 108.834 277.43 108.834C278.81 108.834 279.959 109.409 280.763 110.329C281.683 111.248 282.142 112.512 282.142 113.891C282.142 115.27 281.683 116.534 280.763 117.454C279.959 118.373 278.695 118.948 277.43 118.948C276.051 119.063 274.902 118.488 273.983 117.454ZM274.787 113.891C274.787 114.811 275.017 115.5 275.477 116.075C275.936 116.534 276.626 116.879 277.43 116.879C278.12 116.879 278.81 116.649 279.269 116.075C279.729 115.5 280.074 114.811 280.074 113.891C280.074 113.087 279.844 112.282 279.269 111.823C278.81 111.363 278.12 111.018 277.43 111.018C276.626 111.018 275.936 111.363 275.477 111.823C275.017 112.397 274.787 113.087 274.787 113.891Z" fill="#263238"/>
<path d="M294.095 113.086V117.913C294.095 118.488 293.635 118.948 293.06 118.948C292.486 118.948 292.026 118.488 292.026 117.913V113.086C292.026 111.937 291.107 111.018 289.957 111.018C288.808 111.018 287.889 111.937 287.889 113.086V117.913C287.889 118.028 287.889 118.028 287.889 118.143C287.774 118.603 287.314 119.063 286.854 119.063C286.28 119.063 285.82 118.603 285.82 118.028V113.201V110.098C285.82 109.524 286.28 109.064 286.854 109.064C287.314 109.064 287.659 109.294 287.889 109.639C288.463 109.294 289.268 109.064 290.072 109.064C292.256 108.834 294.095 110.788 294.095 113.086Z" fill="#263238"/>
<path d="M501.419 45.0508C501.419 45.0508 493.834 105.501 481.422 119.063C466.481 135.382 455.678 132.969 449.702 141.358C443.726 132.969 432.923 135.382 417.983 118.948C405.571 105.387 397.986 44.9358 397.986 44.9358C430.74 29.0761 449.702 11.2627 449.702 11.2627C450.277 11.9522 469.24 29.4209 501.419 45.0508Z" fill="#FE9563"/>
<path opacity="0.1" d="M449.702 11.3777V141.358C443.726 132.969 432.923 135.382 417.983 118.948C405.571 105.387 397.986 44.9359 397.986 44.9359C430.74 29.0762 449.702 11.3777 449.702 11.3777Z" fill="#FF9564"/>
<path d="M406.031 49.8775C406.031 49.8775 412.352 100.904 422.925 112.397C435.567 126.188 444.646 124.119 449.703 131.245C454.759 124.119 463.954 126.188 476.48 112.397C486.939 100.904 493.374 49.8775 493.374 49.8775C465.792 36.4313 449.703 21.491 449.703 21.491C449.703 21.491 433.728 36.4313 406.031 49.8775Z" fill="#FF7B3D"/>
<path d="M449.702 96.6525C460.873 96.6525 469.929 87.5966 469.929 76.4256C469.929 65.2546 460.873 56.1987 449.702 56.1987C438.532 56.1987 429.476 65.2546 429.476 76.4256C429.476 87.5966 438.532 96.6525 449.702 96.6525Z" fill="#455A64"/>
<path d="M447.404 89.527L438.44 80.1032L441.772 76.8852L446.714 82.0569L457.402 65.6226L461.31 68.1509L447.404 89.527Z" fill="white"/>
<path d="M493.375 132.509L490.502 133.084L489.927 136.072L489.237 133.084L486.364 132.509L489.237 131.819L489.927 128.946L490.502 131.819L493.375 132.509Z" fill="#FFC727"/>
<path d="M408.56 109.524L405.687 110.099L405.112 113.087L404.423 110.099L401.55 109.524L404.423 108.834L405.112 106.076L405.687 108.834L408.56 109.524Z" fill="#FFC727"/>
<path d="M421.661 29.9955L418.788 30.5702L418.098 33.5582L417.524 30.5702L414.65 29.9955L417.524 29.306L418.098 26.4329L418.788 29.306L421.661 29.9955Z" fill="#FFC727"/>
<path d="M488.318 118.948L486.709 119.293L486.364 120.902L485.904 119.293L484.41 118.948L485.904 118.603L486.364 116.994L486.709 118.603L488.318 118.948Z" fill="#FFC727"/>
<path d="M499.35 85.3893L497.741 85.6191L497.396 87.343L497.052 85.6191L495.443 85.3893L497.052 84.9296L497.396 83.4355L497.741 84.9296L499.35 85.3893Z" fill="#FFC727"/>
<path d="M485.789 26.433L484.18 26.7778L483.835 28.3867L483.491 26.7778L481.882 26.433L483.491 26.0882L483.835 24.4792L484.18 26.0882L485.789 26.433Z" fill="#FFC727"/>
<path d="M444.876 148.713L443.267 148.943L442.922 150.667L442.578 148.943L440.969 148.713L442.578 148.253L442.922 146.645L443.267 148.253L444.876 148.713Z" fill="#FFC727"/>
<path d="M399.711 113.546L398.102 113.776L397.757 115.5L397.412 113.776L395.803 113.546L397.412 113.086L397.757 111.478L398.102 113.086L399.711 113.546Z" fill="#FFC727"/>
<path d="M402.124 66.7718L400.515 67.0016L400.17 68.7255L399.825 67.0016L398.216 66.7718L399.825 66.3121L400.17 64.7031L400.63 66.3121L402.124 66.7718Z" fill="#FFC727"/>
<path d="M469.356 126.533C468.781 126.533 468.781 127.452 469.356 127.452C469.93 127.452 469.93 126.533 469.356 126.533Z" fill="#FFC727"/>
<path d="M395.573 42.4075C394.999 42.4075 394.999 43.3269 395.573 43.3269C396.148 43.3269 396.148 42.4075 395.573 42.4075Z" fill="#FFC727"/>
<path d="M483.836 129.176C483.261 129.176 483.261 130.095 483.836 130.095C484.41 130.095 484.41 129.176 483.836 129.176Z" fill="#FFC727"/>
<path d="M436.831 56.6582C436.256 56.6582 436.256 57.5776 436.831 57.5776C437.405 57.5776 437.405 56.6582 436.831 56.6582Z" fill="#FFC727"/>
<path d="M393.849 75.3909C393.275 75.3909 393.275 76.3103 393.849 76.3103C394.424 76.3103 394.424 75.3909 393.849 75.3909Z" fill="#FFC727"/>
<path d="M383.046 70.3342C382.586 70.3342 382.586 71.0238 383.046 71.0238C383.506 70.9089 383.506 70.3342 383.046 70.3342Z" fill="#FFC727"/>
<path d="M471.539 20.3418C471.079 20.3418 471.079 21.0313 471.539 21.0313C471.998 21.0313 471.998 20.3418 471.539 20.3418Z" fill="#FFC727"/>
<path d="M425.799 132.739C425.339 132.739 425.339 133.428 425.799 133.428C426.143 133.428 426.143 132.739 425.799 132.739Z" fill="#FFC727"/>
<path d="M415.455 126.763C414.306 126.763 414.306 128.487 415.455 128.487C416.604 128.487 416.604 126.763 415.455 126.763Z" fill="#FFC727"/>
<path opacity="0.2" d="M493.672 49.8775C493.672 49.8775 487.351 100.904 476.778 112.397C464.251 126.188 455.057 124.119 450 131.245V21.491C450.575 21.9507 466.549 36.6611 493.672 49.8775Z" fill="white"/>
<path d="M194.568 204.452V223.76H199.625V232.609L208.474 223.76H268.35V204.452H194.568Z" fill="white"/>
<path d="M194.568 204.452C194.568 211.003 194.798 217.439 194.798 223.76L194.568 223.53H199.625H199.854V223.76V232.609L199.395 232.379L208.129 223.53C208.244 223.415 208.244 223.415 208.359 223.415C223.299 223.415 253.295 223.3 268.235 223.3L267.775 223.76V204.452L268.12 204.797C249.962 204.797 212.956 204.567 194.568 204.452ZM194.568 204.452L231.344 204.223L268.35 204.108H268.695V204.452V223.76V224.22H268.235H238.354C238.469 224.105 207.554 224.335 208.704 224.105L199.854 232.839L199.395 233.299V232.609V223.76L199.625 223.99H194.568H194.338V223.76C194.338 217.324 194.453 210.888 194.568 204.452Z" fill="#FE9563"/>
<path d="M207.44 211.463V214.106H206.751V211.463C206.751 210.429 205.946 209.624 205.027 209.624C204.108 209.624 203.303 210.429 203.303 211.463V214.106H202.614V211.463C202.614 210.084 203.648 208.935 205.027 208.935C206.406 208.935 207.44 210.084 207.44 211.463Z" fill="#FE9563"/>
<path d="M202.614 212.153H203.418V214.106H202.614V212.153Z" fill="#263238"/>
<path d="M207.44 212.382V214.106H206.75V212.267L207.44 212.382Z" fill="#263238"/>
<path d="M208.36 213.072H201.695V218.588H208.36V213.072Z" fill="#FE9563"/>
<path d="M219.046 211.807C218.126 213.646 216.747 215.025 214.909 215.945C215.828 214.221 217.207 212.842 219.046 211.807Z" fill="#FE9563"/>
<path d="M214.909 211.807C216.747 212.727 218.126 214.106 219.046 215.945C217.207 215.025 215.828 213.646 214.909 211.807Z" fill="#FE9563"/>
<path d="M219.85 213.876C217.896 214.451 215.943 214.451 213.989 213.876C215.943 213.301 218.011 213.301 219.85 213.876Z" fill="#FE9563"/>
<path d="M216.977 211.003C217.551 212.957 217.551 214.91 216.977 216.864C216.402 214.91 216.402 212.957 216.977 211.003Z" fill="#FE9563"/>
<path d="M229.16 211.808C228.241 213.646 226.862 215.026 225.023 215.945C225.943 214.221 227.322 212.842 229.16 211.808Z" fill="#FE9563"/>
<path d="M225.023 211.808C226.862 212.727 228.241 214.106 229.16 215.945C227.322 215.026 225.943 213.646 225.023 211.808Z" fill="#FE9563"/>
<path d="M230.08 213.876C228.126 214.451 226.172 214.451 224.218 213.876C226.057 213.302 228.126 213.302 230.08 213.876Z" fill="#FE9563"/>
<path d="M227.091 211.003C227.666 212.957 227.666 214.91 227.091 216.864C226.517 214.91 226.517 212.957 227.091 211.003Z" fill="#FE9563"/>
<path d="M239.274 211.808C238.354 213.646 236.975 215.026 235.136 215.945C236.056 214.221 237.55 212.842 239.274 211.808Z" fill="#FE9563"/>
<path d="M235.136 211.808C236.975 212.727 238.354 214.106 239.274 215.945C237.55 215.026 236.056 213.646 235.136 211.808Z" fill="#FE9563"/>
<path d="M240.193 213.876C238.239 214.451 236.285 214.451 234.332 213.876C236.285 213.302 238.239 213.302 240.193 213.876Z" fill="#FE9563"/>
<path d="M237.204 211.003C237.779 212.957 237.779 214.91 237.204 216.864C236.63 214.91 236.63 212.957 237.204 211.003Z" fill="#FE9563"/>
<path d="M249.387 211.808C248.467 213.646 247.088 215.026 245.249 215.945C246.169 214.221 247.663 212.842 249.387 211.808Z" fill="#FE9563"/>
<path d="M245.249 211.808C247.088 212.727 248.467 214.106 249.387 215.945C247.663 215.026 246.169 213.646 245.249 211.808Z" fill="#FE9563"/>
<path d="M250.306 213.876C248.352 214.451 246.398 214.451 244.445 213.876C246.398 213.302 248.352 213.302 250.306 213.876Z" fill="#FE9563"/>
<path d="M247.317 211.003C247.892 212.957 247.892 214.91 247.317 216.864C246.743 214.91 246.743 212.957 247.317 211.003Z" fill="#FE9563"/>
<path d="M259.5 211.807C258.58 213.646 257.201 215.025 255.362 215.945C256.397 214.221 257.776 212.842 259.5 211.807Z" fill="#FE9563"/>
<path d="M255.362 211.807C257.201 212.727 258.58 214.106 259.5 215.945C257.776 215.025 256.397 213.646 255.362 211.807Z" fill="#FE9563"/>
<path d="M260.419 213.876C258.465 214.451 256.511 214.451 254.558 213.876C256.511 213.301 258.465 213.301 260.419 213.876Z" fill="#FE9563"/>
<path d="M257.431 211.003C258.006 212.957 258.006 214.91 257.431 216.864C256.857 214.91 256.857 212.957 257.431 211.003Z" fill="#FE9563"/>
<path d="M113.775 437.981L47.3486 491.421H51.1411L127.796 437.981H113.775Z" fill="#53595B"/>
<path d="M119.982 437.981L87.2279 491.421H90.9055L131.129 437.981H119.982Z" fill="#53595B"/>
<path d="M136.071 437.981L168.825 491.421H165.147L124.923 437.981H136.071Z" fill="#53595B"/>
<path d="M141.817 437.981L208.129 491.421H204.452L127.796 437.981H141.817Z" fill="#C7C7C7"/>
<path d="M252.605 418.328V402.699L161.469 398.906L113.316 270.419H2.98737L42.062 418.328L135.266 444.531H141.128L252.605 418.328Z" fill="#455A64"/>
<path opacity="0.1" d="M2.98737 270.419H15.6292L56.3127 405.227L138.714 428.557L252.605 402.699V418.328L141.128 444.531H135.266L42.062 418.328L2.98737 270.419Z" fill="black"/>
<path d="M202.959 515.785C200.2 514.751 137.566 463.494 136.417 460.046C135.957 458.782 142.853 449.243 151.587 437.866C153.426 435.452 155.38 432.924 157.448 430.396C170.435 413.961 184.571 396.722 184.571 396.722L226.518 430.855L198.247 463.609L192.041 470.849C192.041 470.849 207.211 501.19 208.015 505.097C208.935 509.004 205.717 516.819 202.959 515.785Z" fill="#AD6359"/>
<path d="M202.959 515.785C200.2 514.751 137.566 463.494 136.417 460.046C135.842 458.437 146.186 444.646 157.448 430.396L198.247 463.609L192.041 470.849C192.041 470.849 207.211 501.19 208.015 505.097C208.935 509.004 205.717 516.819 202.959 515.785Z" fill="#EBEBEB"/>
<path d="M202.958 515.785C200.2 514.751 137.566 463.494 136.416 460.046C135.957 458.782 142.852 449.243 151.587 437.866L192.04 470.849C192.04 470.849 207.21 501.19 208.015 505.097C208.934 509.005 205.716 516.819 202.958 515.785Z" fill="#FE9563"/>
<path d="M204.108 512.567C193.88 503.718 151.587 469.011 140.669 461.081C140.554 460.966 140.554 461.081 140.669 461.196C150.668 470.16 193.19 504.523 203.993 512.797C204.223 512.912 204.338 512.682 204.108 512.567Z" fill="#263238"/>
<path d="M205.947 499.466C203.533 497.282 200.201 496.478 197.557 496.937C195.144 497.282 192.386 498.431 190.662 500.615C190.662 500.73 190.777 500.73 190.777 500.73C194.684 497.167 201.465 496.593 205.832 499.696C205.947 499.696 206.062 499.581 205.947 499.466Z" fill="#263238"/>
<path d="M195.258 475.217C191.121 471.769 185.03 469.241 179.629 470.505C179.399 470.505 179.514 470.85 179.629 470.85C185.03 471.999 189.857 473.493 194.914 475.791C195.258 475.906 195.603 475.447 195.258 475.217Z" fill="#263238"/>
<path d="M197.557 479.124C193.42 475.676 187.329 473.148 181.927 474.412C181.697 474.412 181.812 474.757 181.927 474.757C187.329 475.906 192.155 477.4 197.212 479.699C197.557 479.814 197.787 479.354 197.557 479.124Z" fill="#263238"/>
<path d="M199.741 483.032C195.604 479.584 189.513 477.056 184.111 478.32C183.881 478.32 183.996 478.665 184.111 478.665C189.513 479.814 194.339 481.308 199.396 483.606C199.741 483.721 199.971 483.262 199.741 483.032Z" fill="#263238"/>
<path d="M201.924 486.939C197.787 483.491 191.696 480.963 186.294 482.227C186.064 482.227 186.179 482.572 186.294 482.572C191.696 483.721 196.522 485.215 201.579 487.514C201.924 487.629 202.154 487.169 201.924 486.939Z" fill="#263238"/>
<path d="M151.587 453.266C146.875 449.473 140.899 456.714 145.611 460.621C150.323 464.414 156.299 457.058 151.587 453.266Z" fill="white"/>
<path d="M209.049 467.632C208.36 464.184 204.337 463.609 201.464 464.414C196.867 465.678 192.04 468.551 188.823 471.999C188.708 472.114 188.823 472.229 188.823 472.229C188.708 472.573 188.822 473.148 189.282 473.148C193.994 473.493 198.936 474.527 203.533 473.493C206.406 472.918 209.624 470.964 209.049 467.632ZM196.522 472.344C194.224 472.229 191.925 471.999 189.627 471.884C192.04 470.39 194.454 468.781 197.097 467.632C198.361 467.057 199.625 466.482 201.005 466.023C203.073 465.333 210.084 465.218 206.751 470.16C204.797 472.918 199.281 472.573 196.522 472.344Z" fill="#263238"/>
<path d="M177.1 465.103C180.318 468.666 184.915 470.735 188.937 473.148C189.397 473.378 189.742 473.033 189.857 472.688C189.971 472.688 190.086 472.688 189.971 472.574C189.282 467.976 187.098 462.69 183.995 459.127C182.157 456.944 178.479 454.875 175.951 457.403C173.652 459.472 175.261 463.035 177.1 465.103ZM176.525 460.621C176.64 454.645 182.271 458.782 183.536 460.506C184.34 461.656 185.145 462.805 185.834 464.069C187.213 466.597 188.248 469.241 189.512 471.884C187.558 470.62 185.604 469.471 183.651 468.206C181.237 466.712 176.525 463.839 176.525 460.621Z" fill="#263238"/>
<path d="M270.074 366.727C266.856 388.678 211.922 451.542 205.601 458.782C204.682 459.817 204.107 460.391 204.107 460.391L159.746 425.339L160.32 424.649L200.429 373.393L82.6309 371.209L127.797 336.961C127.797 336.961 131.359 339.145 138.944 338.111C165.032 334.663 223.759 326.963 237.55 327.652C255.249 328.687 273.062 346.5 270.074 366.727Z" fill="#263238"/>
<path d="M214.795 354.43C213.301 355.924 212.037 357.878 210.658 359.601C209.279 361.44 207.785 363.164 206.406 365.003C206.636 364.428 206.866 363.969 207.21 363.394C208.13 361.555 208.819 359.716 209.854 357.992C209.969 357.878 209.739 357.763 209.739 357.878C208.704 359.601 207.44 361.21 206.406 363.049C205.946 363.854 205.601 364.773 205.142 365.692C204.912 366.152 204.682 366.612 204.567 367.186C204.452 367.416 204.337 367.646 204.337 367.876C203.648 368.681 203.073 369.6 202.498 370.404C201.119 372.358 199.97 374.312 198.591 376.266C198.476 376.38 198.706 376.495 198.706 376.38C200.085 374.657 201.694 372.933 203.073 371.209C204.452 369.37 205.831 367.531 207.21 365.692C208.475 363.854 209.854 362.015 211.118 360.176C212.267 358.337 213.761 356.498 214.795 354.43C214.91 354.43 214.795 354.315 214.795 354.43Z" fill="#37474F"/>
<path d="M210.313 450.048C207.785 447.864 205.027 445.795 202.384 443.727C199.74 441.658 196.982 439.589 194.339 437.636C188.937 433.613 183.536 429.476 178.134 425.454C175.146 423.27 172.158 421.086 169.055 419.133C168.94 419.018 168.825 419.248 168.94 419.362C174.112 423.73 179.513 427.752 184.915 431.774C190.316 435.797 195.718 439.819 201.234 443.842C204.222 446.025 207.21 448.209 210.313 450.277C210.313 450.392 210.428 450.162 210.313 450.048Z" fill="#37474F"/>
<path d="M114.581 279.039C126.763 302.369 141.358 326.963 155.034 330.64C168.136 334.088 199.166 301.449 204.452 290.646C206.291 286.969 181.697 270.534 178.134 273.293C171.584 278.464 157.218 294.898 155.149 294.439C152.966 293.979 135.612 278.464 119.867 265.363C110.443 257.548 106.191 262.949 114.581 279.039Z" fill="#AD6359"/>
<path d="M182.731 235.482L173.307 268.466C172.963 269.385 173.422 270.189 174.342 270.304L191.465 270.879C192.385 270.879 193.534 270.189 193.879 269.155L203.303 236.171C203.648 235.252 203.188 234.448 202.268 234.333L185.145 233.758C184.225 233.758 183.076 234.563 182.731 235.482Z" fill="#A6A6A6"/>
<path d="M184.8 235.597L175.376 268.581C175.031 269.5 175.491 270.304 176.41 270.419L193.534 270.994C194.453 270.994 195.603 270.304 195.947 269.27L205.371 236.286C205.716 235.367 205.256 234.563 204.337 234.448L187.213 233.873C186.179 233.873 185.144 234.563 184.8 235.597Z" fill="#DBDBDB"/>
<path d="M189.397 237.206C189.397 238.01 188.707 238.585 187.903 238.585C187.098 238.585 186.524 237.895 186.524 237.091C186.524 236.286 187.213 235.712 188.018 235.712C188.822 235.712 189.397 236.401 189.397 237.206Z" fill="#455A64"/>
<path d="M212.497 271.913C213.991 262.374 212.842 259.616 218.358 252.261C221.921 247.434 220.427 242.952 214.681 245.71C205.372 250.192 200.89 262.144 200.545 266.742L212.497 271.913Z" fill="#AD6359"/>
<path d="M200.085 297.082C200.085 297.082 209.049 286.624 211.577 276.625C213.301 269.73 215.485 254.1 200.314 239.045C196.752 235.482 189.052 232.954 192.844 240.884C195.487 246.515 198.935 249.388 199.855 252.951C199.855 252.951 189.741 250.882 186.293 254.675C184.799 256.399 180.662 260.996 178.019 265.133C178.019 265.133 178.708 265.937 179.858 266.857C179.858 266.857 176.985 270.649 177.559 277.89L200.085 297.082Z" fill="#AD6359"/>
<path d="M212.267 269.73C210.543 266.397 206.866 259.386 201.809 254.674C196.177 249.503 183.995 240.883 180.203 245.021C177.445 248.124 181.812 251.801 181.812 251.801C181.812 251.801 176.066 249.273 174.112 252.606C172.388 255.594 175.951 258.237 175.951 258.237C175.951 258.237 172.158 257.318 171.009 260.536C169.63 264.443 177.789 265.707 179.858 270.764C180.203 272.028 212.267 269.73 212.267 269.73Z" fill="#AD6359"/>
<path d="M197.212 261.455C195.143 258.582 188.592 253.181 181.812 251.687C181.697 251.687 181.582 251.801 181.697 251.801C188.822 255.019 194.798 259.501 197.212 261.455Z" fill="#263238"/>
<path d="M191.81 266.972C189.742 264.673 182.846 259.501 175.836 258.122C175.721 258.122 175.606 258.237 175.721 258.237C183.306 261.34 189.282 265.133 191.81 266.972Z" fill="#263238"/>
<path d="M169.745 277.545L195.373 304.782C195.373 304.782 168.251 335.122 155.609 332.019C142.852 328.801 118.833 294.439 111.133 272.603C105.846 257.433 114.236 259.961 123.085 267.316C131.934 274.786 155.034 293.174 156.068 292.83C156.988 292.485 169.745 277.545 169.745 277.545Z" fill="#FE9563"/>
<path opacity="0.1" d="M161.125 331.674C159.171 332.249 157.218 332.364 155.609 331.904C142.852 328.686 118.833 294.324 111.133 272.488C107.57 262.489 110.098 260.191 114.695 261.915C128.601 282.371 146.989 309.954 161.125 331.674Z" fill="black"/>
<path d="M187.098 309.264C183.42 305.472 168.71 289.612 165.837 285.934C165.607 285.704 165.722 285.474 165.952 285.704C177.329 296.622 183.765 305.242 187.213 309.034C187.328 309.264 187.213 309.379 187.098 309.264Z" fill="#263238"/>
<path d="M143.197 352.706C143.197 352.706 58.9567 368.106 58.497 367.646C58.1523 367.187 67.806 276.051 96.3075 260.651C100.79 258.237 111.822 256.743 116.419 261.57C129.866 275.131 144.231 351.442 143.197 352.706Z" fill="#FE9563"/>
<path d="M142.278 345.121L59.3019 359.372C59.6467 356.843 59.9914 353.855 60.5661 350.522L140.784 336.731C141.359 339.949 141.933 342.822 142.278 345.121Z" fill="#EBEBEB"/>
<path d="M139.864 332.364L61.3703 345.81C61.6002 344.316 61.83 342.822 62.1748 341.213L139.06 327.997C139.29 329.491 139.635 330.985 139.864 332.364Z" fill="#EBEBEB"/>
<path d="M112.742 275.361C108.03 275.361 102.054 266.742 100.33 260.421C100.215 259.961 101.709 256.169 103.433 251.342C104.467 248.469 105.502 245.251 106.191 242.148L124.005 251.342C124.005 251.342 120.557 257.203 119.408 262.489C119.293 262.949 119.293 263.409 119.293 263.754C119.293 263.869 119.293 263.869 119.293 263.984C119.063 266.627 117.339 275.361 112.742 275.361Z" fill="#AD6359"/>
<path d="M124.12 251.571C124.12 251.571 120.672 257.433 119.523 262.719C119.408 263.179 119.408 263.524 119.408 263.983C119.408 264.098 119.408 264.098 119.408 264.213C118.833 264.213 118.144 264.098 117.454 263.868C106.422 260.995 106.651 246.515 106.881 242.607L124.12 251.571Z" fill="#263238"/>
<path d="M105.502 221.461C102.629 228.127 104.123 248.354 108.49 253.295C114.926 260.536 126.418 262.375 132.854 254.445C139.06 246.745 136.761 220.427 131.705 215.715C124.235 209.049 109.754 211.693 105.502 221.461Z" fill="#AD6359"/>
<path d="M124.005 236.057L123.89 236.172C124.005 237.551 124.005 239.045 122.856 239.62V239.735C124.35 239.39 124.35 237.321 124.005 236.057Z" fill="#263238"/>
<path d="M122.626 234.793C120.442 234.793 120.672 239.16 122.741 239.16C124.695 239.16 124.465 234.793 122.626 234.793Z" fill="#263238"/>
<path d="M131.936 235.597C131.936 235.597 132.051 235.712 131.936 235.597C132.051 237.091 132.28 238.585 133.545 239.044V239.159C132.051 239.044 131.706 236.976 131.936 235.597Z" fill="#263238"/>
<path d="M133.084 234.218C135.268 233.988 135.613 238.355 133.659 238.585C131.705 238.815 131.246 234.448 133.084 234.218Z" fill="#263238"/>
<path d="M120.787 232.839C121.362 232.609 121.937 232.379 122.396 232.149C123.086 231.919 123.546 231.69 124.005 231.115C124.235 230.77 124.12 230.196 123.775 229.966C123.086 229.391 122.281 229.506 121.477 229.851C120.673 230.196 120.098 230.655 119.638 231.46C119.178 232.264 119.983 233.069 120.787 232.839Z" fill="#263238"/>
<path d="M134.693 231.919C134.118 231.805 133.544 231.69 132.969 231.575C132.28 231.46 131.705 231.345 131.245 230.885C131.015 230.655 131.015 230.081 131.245 229.736C131.82 229.046 132.739 229.046 133.544 229.161C134.463 229.276 135.038 229.621 135.727 230.31C136.187 231 135.497 231.919 134.693 231.919Z" fill="#263238"/>
<path d="M123.201 248.124C123.43 248.469 123.775 248.928 124.235 249.043C124.695 249.158 125.269 249.043 125.729 248.928C125.729 248.928 125.844 248.928 125.729 249.043C125.269 249.503 124.58 249.733 123.89 249.503C123.316 249.273 123.086 248.698 122.971 248.124C123.086 248.124 123.086 248.124 123.201 248.124Z" fill="#263238"/>
<path d="M124.694 244.216C125.499 245.366 126.648 245.94 127.912 246.055C128.487 246.17 129.061 246.17 129.636 246.055C129.751 246.055 130.096 245.94 130.21 245.94C130.325 245.94 130.44 245.825 130.44 245.595L130.21 242.722C130.555 242.837 132.624 243.642 132.509 243.067C132.049 238.585 131.475 233.528 129.981 229.161C129.981 229.046 129.751 229.046 129.751 229.161C130.096 233.528 131.13 237.781 131.59 242.148C130.9 241.918 129.866 241.573 129.406 241.573C129.291 241.573 129.751 245.136 129.751 245.136C128.027 245.481 126.648 245.021 124.924 243.872C124.694 243.987 124.579 244.101 124.694 244.216Z" fill="#263238"/>
<path d="M129.062 245.826C129.062 245.826 128.142 247.09 126.763 247.664C126.303 247.894 125.729 247.894 125.154 247.779C124.005 247.434 124.005 246.4 124.235 245.596C124.35 244.906 124.694 244.217 124.694 244.217C124.694 244.217 126.418 245.711 129.062 245.826Z" fill="#263238"/>
<path d="M126.763 247.664C126.303 247.894 125.729 247.894 125.154 247.779C124.005 247.435 124.005 246.4 124.235 245.596C125.499 245.596 126.648 246.4 126.763 247.664Z" fill="#FF9CBD"/>
<path d="M103.663 239.849C108.95 240.309 111.708 233.988 110.559 228.931C110.559 228.931 124.579 230.885 125.384 219.622C125.384 219.622 128.717 224.794 135.153 224.909L136.072 228.816C137.566 228.357 139.06 224.334 135.612 221.116C135.612 221.116 135.382 215.485 131.245 212.037C127.108 208.59 122.971 210.773 122.971 210.773C122.971 210.773 119.638 208.015 114.466 208.59C109.294 209.164 107.111 213.876 107.111 213.876C107.111 213.876 100.1 215.14 98.9511 220.082C97.687 225.024 100.215 228.357 100.215 228.357C100.215 228.357 98.4914 230.31 99.2959 234.563C99.8705 237.436 102.054 239.734 103.663 239.849Z" fill="#263238"/>
<path d="M125.039 218.588C125.154 219.507 125.154 220.427 125.039 221.346C124.924 222.266 124.809 223.185 124.464 223.989C123.889 225.713 122.74 227.207 121.131 228.012C119.637 228.931 117.684 229.161 115.96 229.276C115.04 229.276 114.121 229.276 113.201 229.161C112.282 229.046 111.363 228.931 110.443 228.816C111.363 229.046 112.282 229.276 113.201 229.391C114.121 229.506 115.04 229.621 115.96 229.621C117.798 229.506 119.752 229.391 121.476 228.471C123.2 227.552 124.464 225.828 124.924 223.989C125.498 222.265 125.384 220.312 125.039 218.588Z" fill="#263238"/>
<path d="M132.165 225.139C130.556 224.564 129.177 223.875 127.913 222.84C127.338 222.381 126.763 221.806 126.304 221.116C125.844 220.427 125.499 219.737 125.155 218.933C125.269 219.737 125.499 220.657 125.844 221.346C126.304 222.151 126.763 222.725 127.453 223.3C128.143 223.875 128.832 224.334 129.637 224.564C130.556 224.909 131.361 225.139 132.165 225.139Z" fill="#263238"/>
<path d="M121.361 242.952C118.718 242.837 116.419 240.884 115.845 238.24C115.155 235.022 117.224 231.919 120.442 231.23C123.66 230.54 126.763 232.609 127.452 235.827C128.142 239.045 126.073 242.148 122.855 242.837C122.281 242.952 121.821 242.952 121.361 242.952ZM121.821 231.919C121.361 231.919 121.016 231.919 120.557 232.034C117.798 232.609 115.96 235.252 116.534 238.125C117.109 240.884 119.752 242.722 122.625 242.148C125.384 241.573 127.222 238.93 126.648 236.057C126.188 233.643 124.119 232.034 121.821 231.919Z" fill="#FFC727"/>
<path d="M134.808 241.918C132.509 241.803 130.556 239.389 130.441 236.286C130.326 234.677 130.671 233.183 131.36 232.034C132.165 230.885 133.199 230.08 134.348 230.08C135.497 229.965 136.762 230.54 137.566 231.689C138.486 232.724 138.945 234.218 139.06 235.712C139.29 238.93 137.451 241.688 135.038 241.918C135.038 241.918 134.923 241.918 134.808 241.918ZM134.808 230.885C134.693 230.885 134.578 230.885 134.463 230.885C133.544 231 132.624 231.574 132.05 232.494C131.36 233.528 131.13 234.792 131.245 236.171C131.475 239.045 133.199 241.228 135.153 240.998C137.106 240.883 138.6 238.47 138.371 235.597C138.256 234.218 137.796 232.953 136.991 232.034C136.417 231.459 135.612 231 134.808 230.885Z" fill="#FFC727"/>
<path d="M127.223 236.516L126.648 235.942C127.452 235.137 129.521 233.988 131.015 235.367L130.441 235.942C129.176 234.792 127.338 236.516 127.223 236.516Z" fill="#FFC727"/>
<path d="M102.284 239.964L101.594 239.619C101.709 239.274 103.089 236.286 104.812 235.941C106.421 235.597 115.845 235.712 116.305 235.712V236.516C113.202 236.401 106.191 236.401 104.927 236.746C103.778 236.976 102.629 239.159 102.284 239.964Z" fill="#FFC727"/>
<path d="M108.605 239.504C108.605 239.504 104.698 232.609 101.595 233.988C98.492 235.367 101.02 245.021 104.353 246.515C107.686 248.124 109.18 245.021 109.18 245.021L108.605 239.504Z" fill="#AD6359"/>
<path d="M102.399 236.746C102.285 236.746 102.399 236.631 102.399 236.746C104.698 238.01 105.732 240.424 106.422 242.722C105.732 241.803 104.813 241.228 103.549 241.918C103.434 241.918 103.549 242.033 103.549 242.033C104.583 241.918 105.273 242.148 105.847 242.952C106.307 243.527 106.537 244.331 106.767 245.021C106.882 245.251 107.226 245.136 107.226 244.906C107.226 244.906 107.226 244.906 107.226 244.791C107.686 241.803 105.617 237.321 102.399 236.746Z" fill="#263238"/>
<path d="M119.522 266.282C119.293 270.075 118.603 278.924 112.397 277.775C109.869 277.315 107.8 275.591 106.076 273.867C104.237 272.143 100.445 267.316 97.8015 262.03C97.8015 261.915 97.5717 262.03 97.6866 262.145C98.1463 263.639 99.1806 266.167 100.675 268.581C102.054 270.879 103.778 273.063 105.731 274.901C107.57 276.625 109.869 278.349 112.512 278.809C115.04 279.154 116.994 277.889 118.028 275.706C119.407 272.833 119.752 269.385 119.522 266.282Z" fill="#263238"/>
<path d="M86.8837 267.891C73.7822 279.383 39.9941 324.779 48.2688 334.548C56.6583 344.316 108.605 337.536 123.545 332.134C128.027 330.525 114.466 302.483 109.639 301.334C105.502 300.415 83.321 308 82.8613 306.736C82.2867 305.242 86.6538 295.473 93.6643 277.43C101.594 256.743 92.7449 262.834 86.8837 267.891Z" fill="#AD6359"/>
<path d="M131.59 294.898C142.049 294.553 144.807 296.047 153.426 290.991C159.058 287.658 163.655 289.841 159.977 295.703C154.001 305.126 140.67 308.574 135.613 308.344L131.59 294.898Z" fill="#AD6359"/>
<path d="M103.204 302.024C103.204 302.024 115.501 296.737 126.534 295.243C134.234 294.209 151.243 293.749 165.609 311.907C169.056 316.159 170.78 324.779 162.735 319.722C156.989 316.159 154.346 312.137 150.668 310.758C150.668 310.758 151.703 321.906 147.22 325.124C145.267 326.618 139.75 330.41 135.038 332.824C135.038 332.824 134.234 331.904 133.429 330.64C133.429 330.64 128.947 333.283 121.247 331.789L103.204 302.024Z" fill="#AD6359"/>
<path d="M134.004 295.473C137.452 297.656 144.577 302.598 148.944 308.574C153.886 315.24 161.586 329.376 156.644 332.939C152.967 335.582 149.634 330.41 149.634 330.41C149.634 330.41 151.588 336.961 147.795 338.57C144.347 340.064 141.934 335.927 141.934 335.927C141.934 335.927 142.394 340.064 138.831 340.868C134.464 341.903 134.119 332.939 128.832 330.18C127.683 329.606 134.004 295.473 134.004 295.473Z" fill="#AD6359"/>
<path d="M141.129 312.482C144.002 315.125 148.944 322.711 149.748 330.181C149.748 330.296 149.633 330.411 149.633 330.296C146.875 322.366 142.853 315.47 141.129 312.482C141.014 312.597 141.014 312.482 141.129 312.482Z" fill="#263238"/>
<path d="M134.463 317.769C136.646 320.297 141.473 328.342 142.048 335.927C142.048 336.042 141.933 336.157 141.933 336.042C139.519 327.538 136.187 320.757 134.463 317.769C134.463 317.769 134.463 317.654 134.463 317.769Z" fill="#263238"/>
<path d="M150.552 310.643C153.77 312.022 155.839 313.861 158.482 316.045C159.746 317.194 161.125 318.228 162.504 319.262C163.769 320.182 165.722 321.446 167.331 320.412C168.251 319.837 168.366 318.688 168.251 317.768C168.136 316.734 167.331 314.665 166.757 313.746C166.757 313.746 166.757 313.631 166.872 313.746C167.331 314.551 168.366 316.389 168.596 317.309C168.825 318.113 168.94 319.148 168.596 319.952C167.906 321.791 165.722 321.791 164.228 321.101C163.309 320.757 162.505 320.067 161.7 319.607C160.896 319.033 160.206 318.458 159.516 317.883C158.022 316.619 156.643 315.355 155.149 314.091C153.425 312.712 152.276 312.022 150.552 310.643C150.552 310.643 150.437 310.758 150.552 310.643Z" fill="#263238"/>
<path d="M156.414 323.17C155.724 321.216 151.817 312.712 150.437 310.643C150.437 310.643 150.437 310.528 150.552 310.528C152.966 313.286 156.528 320.297 157.218 322.48C158.023 324.664 158.827 327.422 158.597 329.836C158.252 333.398 155.839 333.743 154.92 333.858C153.885 333.973 152.851 333.628 151.931 333.053C151.012 332.364 150.093 331.215 149.518 330.18C149.518 330.18 149.518 330.065 149.633 330.065C150.667 331.559 152.621 333.168 154.575 333.053C155.379 333.053 156.299 332.709 156.873 332.134C157.563 331.33 157.678 330.295 157.678 329.376C157.793 327.422 157.103 325.239 156.414 323.17Z" fill="#263238"/>
<path d="M103.203 302.024L116.075 337.88C116.075 337.88 51.0268 345.81 46.6596 334.203C42.2924 322.595 71.3685 281.682 83.7805 270.189C98.1462 256.858 99.2954 262.03 95.1581 274.672C90.7909 288.003 83.0909 306.966 83.0909 306.966L103.203 302.024Z" fill="#FE9563"/>
<path d="M62.7492 314.206C65.8522 312.482 69.1851 310.988 72.6328 309.724C75.9657 308.46 79.4134 307.54 82.8612 306.736C84.8149 306.276 86.8836 305.931 88.8373 305.586C88.9522 305.586 88.9522 305.701 88.8373 305.701C85.2746 306.391 81.8269 307.425 78.494 308.574C75.1612 309.724 71.7134 310.873 68.3806 312.137C66.5418 312.827 64.5881 313.631 62.7492 314.436C62.6343 314.321 62.6343 314.206 62.7492 314.206Z" fill="#263238"/>
<path d="M102.973 301.909C102.628 301.909 84.7 305.931 84.0104 306.161C84.1254 305.931 88.1478 296.967 88.7224 295.703C88.8373 295.588 88.8373 295.473 88.9522 295.358C89.297 294.784 89.7567 294.209 90.1015 293.634C90.5612 292.83 91.0209 292.14 91.4806 291.336C91.0209 292.025 90.5612 292.83 89.9866 293.519C89.7567 293.864 89.5269 294.209 89.297 294.554C89.7567 293.634 90.1015 292.715 90.4463 291.796C91.0209 290.302 91.5955 288.808 92.1701 287.314C92.1701 287.314 92.1701 287.199 92.0552 287.314C90.906 289.957 89.6418 292.485 88.3776 295.128C87.2284 297.772 82.6313 307.311 82.6313 307.311C82.6313 307.311 102.513 302.484 102.858 302.369C103.203 302.139 103.203 301.909 102.973 301.909Z" fill="#263238"/>
<path d="M101.939 324.434C100.56 320.412 99.1809 316.39 97.5719 312.482C96.6525 310.184 95.8481 308 94.9287 305.701C94.9287 305.587 94.6988 305.701 94.8137 305.701C96.0779 309.724 97.3421 313.861 98.7212 317.884C100.1 321.906 101.594 325.928 103.088 329.836C103.893 332.134 104.812 334.318 105.847 336.501H105.961C104.812 332.479 103.318 328.457 101.939 324.434Z" fill="#263238"/>
<path d="M116.764 338.57C116.19 337.421 115.615 335.812 115.041 334.778C114.926 334.433 114.696 334.548 114.811 334.778C115.155 335.812 115.5 336.846 115.845 337.881C114.926 337.996 114.006 337.996 113.087 338.111C112.052 338.225 111.018 338.34 109.984 338.455C107.915 338.685 105.846 338.915 103.778 339.03C99.6405 339.375 95.3883 339.605 91.251 339.834C82.8614 340.179 74.3569 340.179 65.9674 339.719C63.6689 339.605 61.2554 339.375 58.9569 339.145C56.5435 338.915 54.0151 338.57 52.0614 338.111C51.9465 338.111 51.9465 338.225 52.0614 338.225C54.0151 338.8 55.9689 339.26 58.0375 339.605C60.1062 339.949 62.2898 340.179 64.3584 340.409C68.6107 340.754 72.8629 340.984 77.1151 340.984C85.5047 341.099 94.0092 340.754 102.399 340.179C104.697 339.949 107.111 339.834 109.409 339.605C110.558 339.49 111.823 339.375 112.972 339.26C114.006 338.915 116.879 338.685 116.764 338.57Z" fill="#263238"/>
<path d="M200.658 337.765H118.716V341.443H200.658V337.765Z" fill="#C7C7C7"/>
<path d="M200.658 337.765V341.443H144.919L147.678 337.765H200.658Z" fill="#A6A6A6"/>
<path d="M156.182 341.443H227.895L238.239 290.876H166.525L156.182 341.443Z" fill="#A6A6A6"/>
<path d="M159.516 341.443H231.229L241.572 290.876H169.859L159.516 341.443Z" fill="#C7C7C7"/>
<path d="M206.979 314.206C207.094 316.619 205.485 318.918 203.416 319.262C201.348 319.722 199.624 318.113 199.624 315.7C199.509 313.286 201.118 310.988 203.186 310.643C205.255 310.298 206.979 311.907 206.979 314.206Z" fill="white"/>
<path d="M367.531 446.485C366.496 449.243 315.01 511.648 311.562 512.797C310.298 513.257 300.759 506.246 289.496 497.512C287.083 495.673 284.555 493.604 282.026 491.651C265.592 478.664 248.468 464.413 248.468 464.413L282.716 422.581L315.355 450.967L322.48 457.173C322.48 457.173 352.82 442.118 356.843 441.313C360.75 440.394 368.68 443.612 367.531 446.485Z" fill="#AD6359"/>
<path d="M367.531 446.485C366.496 449.243 315.01 511.648 311.562 512.797C309.953 513.372 296.277 502.914 282.026 491.651L315.355 450.967L322.48 457.173C322.48 457.173 352.82 442.118 356.843 441.314C360.75 440.394 368.68 443.612 367.531 446.485Z" fill="#EBEBEB"/>
<path d="M367.531 446.485C366.497 449.243 315.01 511.648 311.562 512.797C310.298 513.257 300.759 506.246 289.497 497.512L322.595 457.173C322.595 457.173 352.935 442.118 356.958 441.313C360.75 440.394 368.68 443.612 367.531 446.485Z" fill="#FE9563"/>
<path d="M364.314 445.221C355.465 455.449 320.527 497.627 312.597 508.43C312.482 508.545 312.597 508.545 312.712 508.43C321.791 498.431 356.269 456.024 364.544 445.336C364.659 445.221 364.544 445.106 364.314 445.221Z" fill="#263238"/>
<path d="M351.328 443.382C349.144 445.795 348.34 449.128 348.684 451.771C349.029 454.185 350.064 456.943 352.362 458.667C352.477 458.667 352.477 458.552 352.477 458.552C348.914 454.53 348.34 447.864 351.443 443.497C351.558 443.382 351.328 443.267 351.328 443.382Z" fill="#263238"/>
<path d="M326.963 453.955C323.4 458.092 320.872 464.183 322.251 469.585C322.251 469.815 322.596 469.7 322.596 469.585C323.745 464.183 325.239 459.357 327.538 454.3C327.653 453.955 327.193 453.61 326.963 453.955Z" fill="#263238"/>
<path d="M330.871 451.771C327.308 455.909 324.78 462 326.159 467.401C326.159 467.631 326.504 467.516 326.504 467.401C327.653 462 329.147 457.173 331.446 452.116C331.56 451.771 331.101 451.426 330.871 451.771Z" fill="#263238"/>
<path d="M334.778 449.588C331.215 453.725 328.687 459.816 330.066 465.218C330.066 465.448 330.41 465.333 330.41 465.218C331.56 459.816 333.054 454.989 335.352 449.933C335.467 449.588 335.007 449.243 334.778 449.588Z" fill="#263238"/>
<path d="M338.686 447.404C335.123 451.542 332.595 457.633 333.974 463.034C333.974 463.264 334.318 463.149 334.318 463.034C335.468 457.633 336.962 452.806 339.26 447.749C339.49 447.404 338.915 447.06 338.686 447.404Z" fill="#263238"/>
<path d="M304.897 497.627C300.99 502.339 308.345 508.315 312.253 503.603C316.045 498.891 308.69 492.915 304.897 497.627Z" fill="white"/>
<path d="M319.493 440.164C316.045 440.853 315.471 444.876 316.275 447.749C317.539 452.346 320.412 457.173 323.86 460.391C323.975 460.506 324.09 460.391 324.09 460.391C324.435 460.506 325.009 460.391 325.009 459.931C325.354 455.219 326.388 450.277 325.354 445.68C324.779 442.922 322.826 439.589 319.493 440.164ZM324.205 452.691C324.09 454.989 323.86 457.288 323.745 459.586C322.251 457.173 320.757 454.759 319.493 452.116C318.918 450.852 318.344 449.588 317.884 448.209C317.194 446.14 317.194 439.13 322.021 442.462C324.779 444.416 324.32 449.933 324.205 452.691Z" fill="#263238"/>
<path d="M316.734 472.113C320.297 468.895 322.366 464.298 324.779 460.276C325.009 459.816 324.664 459.472 324.32 459.357C324.32 459.242 324.32 459.127 324.205 459.242C319.608 459.816 314.321 462.115 310.758 465.103C308.46 466.942 306.506 470.619 309.034 473.148C311.218 475.561 314.666 473.952 316.734 472.113ZM312.367 472.688C306.391 472.573 310.643 466.942 312.252 465.678C313.402 464.873 314.551 464.069 315.815 463.494C318.343 462.115 320.987 461.081 323.63 459.931C322.366 461.885 321.217 463.839 319.952 465.792C318.458 467.976 315.585 472.688 312.367 472.688Z" fill="#263238"/>
<path d="M313.745 444.532L275.59 489.812L160.434 407.755L149.057 399.711C149.057 399.711 145.839 401.894 140.897 404.538C134.116 408.215 124.118 412.812 115.269 413.961C100.558 415.915 78.2627 415.455 66.0806 398.676C55.8522 384.54 59.3 366.382 59.3 366.382L75.5045 359.602C75.5045 359.602 114.119 328.227 138.943 327.538C149.516 327.193 164.687 335.467 178.822 343.972C192.958 352.476 313.745 444.532 313.745 444.532Z" fill="#263238"/>
<path d="M148.942 399.711C148.942 399.711 145.724 401.894 140.782 404.538C132.278 394.079 114.235 375.117 113.775 374.427L148.942 399.711Z" fill="#37474F"/>
<path d="M89.6406 349.144C87.3421 350.753 85.0436 352.361 82.86 353.97C80.6765 355.579 78.263 357.073 76.1944 358.797C74.0108 360.521 71.9421 362.475 69.8735 364.314C68.8392 365.233 67.9197 366.153 67.0003 367.072C66.0809 367.991 65.0466 368.911 64.2421 370.06C64.1272 370.175 64.3571 370.29 64.3571 370.175C65.5063 369.485 66.4257 368.566 67.46 367.761C68.4944 366.842 69.6436 365.923 70.678 365.118C72.7466 363.394 74.9302 361.67 76.9989 359.947C79.0675 358.223 81.0212 356.384 82.975 354.66C85.1586 352.706 87.4571 350.982 89.6406 349.144C89.7556 349.144 89.7556 349.144 89.6406 349.144Z" fill="#37474F"/>
<path d="M301.907 440.164C299.609 442.578 297.425 445.221 295.242 447.749C293.058 450.278 290.875 452.921 288.806 455.564C284.554 460.736 280.186 466.023 276.049 471.194C273.751 474.067 271.452 477.055 269.269 480.043C269.154 480.158 269.383 480.388 269.498 480.158C274.095 475.217 278.348 469.93 282.6 464.758C286.852 459.587 291.104 454.3 295.357 449.014C297.655 446.14 300.069 443.267 302.137 440.164C302.137 440.164 302.022 440.049 301.907 440.164Z" fill="#37474F"/>
<path d="M215.369 446.83C209.508 442.118 196.177 432.809 190.201 428.442C184.109 424.075 178.133 419.593 172.042 415.341C170.318 414.076 168.48 412.927 166.756 411.663C165.032 410.399 163.193 409.364 161.354 408.1C161.239 407.985 161.124 408.215 161.239 408.215C162.848 409.364 164.342 410.744 165.951 411.893C167.445 413.042 168.939 414.191 170.433 415.341C173.421 417.524 176.295 419.708 179.283 422.006C185.259 426.488 191.35 430.856 197.441 435.223C200.889 437.636 211.577 444.876 215.139 447.175C215.254 447.29 215.484 446.945 215.369 446.83Z" fill="#37474F"/>
<path d="M253.18 398.217C247.778 393.62 235.481 384.77 229.735 380.518C223.989 376.266 218.357 371.899 212.496 367.646C206.75 363.394 201.118 359.142 195.372 354.89C189.856 350.752 184.339 346.615 178.478 342.938C175.26 340.984 172.042 339.145 168.595 337.421C165.262 335.812 161.929 334.088 158.366 333.054C158.251 333.054 158.251 333.169 158.251 333.284C161.124 334.893 164.227 336.387 167.1 337.996C169.974 339.605 172.847 341.214 175.605 342.938C181.466 346.615 186.868 350.638 192.384 354.775C203.762 363.164 215.254 371.669 226.747 379.944C233.183 384.655 246.054 394.194 252.72 398.447C253.065 398.791 253.295 398.447 253.18 398.217Z" fill="#37474F"/>
</g>
<defs>
<clipPath id="clip0_2_7143">
<rect width="501.419" height="515.9" fill="white"/>
</clipPath>
</defs>
</svg>
