<svg width="28" height="28" viewBox="0 0 28 28" fill="none" xmlns="http://www.w3.org/2000/svg">
<g id="Group 1604">
<circle id="Ellipse 3" cx="14" cy="14" r="14" fill="#FE9563"/>
<path id="Twitter" d="M8.39844 17.6896C9.61741 17.7582 10.6834 17.4732 11.7229 16.7186C10.6728 16.5392 9.94459 16.059 9.54882 15.0669C9.85488 15.0247 10.124 15.1038 10.4406 14.9772C9.40634 14.5234 8.73616 13.8427 8.70978 12.6659C9.03695 12.6923 9.28497 12.9086 9.67546 12.877C8.72561 11.9482 8.43538 10.9351 9.03167 9.70552C10.0237 10.8453 11.1847 11.6211 12.6042 11.9852C12.6833 12.0063 12.7572 12.0274 12.8364 12.0432C13.2005 12.1276 13.6332 12.3071 13.8548 12.2807C14.2348 12.2332 13.8548 11.7952 13.9498 11.2253C14.2506 9.45223 16.2031 8.64485 17.6489 9.68441C18.0711 9.99048 18.4035 9.9852 18.8204 9.80051C19.0368 9.70552 19.2584 9.61054 19.517 9.49972C19.4589 10.0063 19.0684 10.286 18.7571 10.6607C19.1107 10.7398 19.3956 10.6395 19.7228 10.534C19.612 10.8981 19.3376 11.1039 19.0896 11.3044C18.831 11.5102 18.7307 11.7266 18.7202 12.0643C18.5619 17.1777 12.7519 21.1301 8.77838 17.9851C8.39316 17.679 8.76782 17.9851 8.39844 17.6896Z" fill="white"/>
</g>
</svg>
