<svg width="33" height="33" viewBox="0 0 33 33" fill="none" xmlns="http://www.w3.org/2000/svg">
<rect width="33" height="33" fill="#FE9563"/>
<path d="M25.5234 9.13393V10.9754C25.5234 12.5983 21.4817 13.9219 16.5 13.9219C11.5183 13.9219 7.47656 12.5983 7.47656 10.9754V9.13393C7.47656 7.51109 11.5183 6.1875 16.5 6.1875C21.4817 6.1875 25.5234 7.51109 25.5234 9.13393ZM25.5234 13.2773V17.4208C25.5234 19.0436 21.4817 20.3672 16.5 20.3672C11.5183 20.3672 7.47656 19.0436 7.47656 17.4208V13.2773C9.41519 14.6125 12.9635 15.234 16.5 15.234C20.0365 15.234 23.5848 14.6125 25.5234 13.2773ZM25.5234 19.7227V23.8661C25.5234 25.4889 21.4817 26.8125 16.5 26.8125C11.5183 26.8125 7.47656 25.4889 7.47656 23.8661V19.7227C9.41519 21.0578 12.9635 21.6793 16.5 21.6793C20.0365 21.6793 23.5848 21.0578 25.5234 19.7227Z" fill="#FAFBFC"/>
</svg>
