<svg width="471" height="529" viewBox="0 0 471 529" fill="none" xmlns="http://www.w3.org/2000/svg">
<path d="M152.307 427.876H7.99282L3.37747 336.357H156.922L152.307 427.876Z" fill="#999999"/>
<path d="M146.79 347.051H17.2231L19.1368 377.67H145.102L146.79 347.051Z" stroke="#DBDBDB" stroke-width="1.12569" stroke-miterlimit="10"/>
<path d="M142.85 386.675L141.387 414.255H20.8253L19.1368 386.675H142.85Z" stroke="#DBDBDB" stroke-width="1.12569" stroke-miterlimit="10"/>
<path d="M67.9916 365.287H93.9951L94.7831 358.646H67.2036L67.9916 365.287Z" stroke="#DBDBDB" stroke-width="1.12569" stroke-miterlimit="10"/>
<path d="M67.9916 403.673H93.9951L94.7831 397.144H67.2036L67.9916 403.673Z" stroke="#DBDBDB" stroke-width="1.12569" stroke-miterlimit="10"/>
<path d="M132.269 427.876L133.62 437.782L136.435 457.819H141.95V427.876H132.269Z" fill="#EBEBEB"/>
<path d="M132.269 427.876L133.62 437.782H141.95V427.876H132.269Z" fill="#DBDBDB"/>
<path d="M28.0302 427.876L26.6793 437.782L23.8651 457.819H18.3492V427.876H28.0302Z" fill="#EBEBEB"/>
<path d="M28.0302 427.876L26.6793 437.782H18.3492V427.876H28.0302Z" fill="#DBDBDB"/>
<path d="M423.599 368.214L438.346 368.552L445.888 368.664C448.364 368.664 450.954 368.664 453.43 368.777H453.88V368.327L453.993 355.719V355.156H453.43L438.571 355.269C433.618 355.269 428.665 355.381 423.712 355.494H423.374V355.831C423.374 357.97 423.487 360.109 423.487 362.248L423.599 368.214ZM423.599 368.214L423.712 361.798C423.712 359.659 423.824 357.633 423.824 355.606L423.487 355.944C428.44 356.057 433.393 356.169 438.346 356.169L453.205 356.282L452.642 355.719L452.755 368.327L453.205 367.876C450.728 367.876 448.252 367.876 445.888 367.989L438.458 368.101L423.599 368.214Z" fill="#EBEBEB"/>
<path d="M440.259 384.086L455.005 384.424L462.548 384.537C465.024 384.537 467.613 384.537 470.09 384.649H470.54V384.199L470.653 371.479V370.916H470.09L455.231 371.028C450.278 371.028 445.325 371.141 440.371 371.253H440.034V371.591C440.034 373.73 440.146 375.869 440.146 378.008L440.259 384.086ZM440.259 384.086L440.371 377.67C440.371 375.531 440.484 373.505 440.484 371.479L440.146 371.816C445.099 371.929 450.052 372.041 455.005 372.041L469.865 372.154L469.527 371.479L469.639 384.086L470.09 383.636C467.613 383.636 465.137 383.636 462.773 383.749L455.343 383.861L440.259 384.086Z" fill="#EBEBEB"/>
<path d="M58.9872 227.953L73.7337 228.291L81.2759 228.403C83.7524 228.403 86.3415 228.403 88.818 228.516H89.2683V228.065L89.3809 215.458V214.895H88.818L73.9589 215.007C69.0058 215.007 64.0528 215.12 59.0997 215.232H58.762V215.57C58.762 217.709 58.8746 219.848 58.8746 221.987L58.9872 227.953ZM58.9872 227.953L59.0997 221.536C59.0997 219.398 59.2123 217.371 59.2123 215.345L58.8746 215.683C63.8277 215.795 68.7807 215.908 73.7337 215.908L88.5929 216.02L88.03 215.458L88.1426 228.065L88.5929 227.615C86.1164 227.615 83.6398 227.615 81.2759 227.728L73.8463 227.84L58.9872 227.953Z" fill="#EBEBEB"/>
<path d="M75.6471 243.825L90.3937 244.163L97.9358 244.275C100.412 244.275 103.001 244.275 105.478 244.388H105.928V243.938L106.041 231.33V230.767H105.478L90.6188 230.88C85.6657 230.88 80.7127 230.992 75.7597 231.105H75.4219V231.443C75.4219 233.581 75.5345 235.72 75.5345 237.859L75.6471 243.825ZM75.6471 243.825L75.7597 237.409C75.7597 235.27 75.8722 233.244 75.8722 231.217L75.5345 231.555C80.4875 231.668 85.4406 231.78 90.3937 231.78L105.253 231.893L104.69 231.33L104.803 243.938L105.253 243.487C102.776 243.487 100.3 243.487 97.9358 243.6L90.5062 243.713L75.6471 243.825Z" fill="#EBEBEB"/>
<path d="M92.195 227.953L106.942 228.291L114.484 228.403C116.96 228.403 119.549 228.403 122.026 228.516H122.476V228.065L122.589 215.458V214.895H122.026L107.167 215.007C102.214 215.007 97.2606 215.12 92.3076 215.232H91.9699V215.57C91.9699 217.709 92.0824 219.848 92.0824 221.987L92.195 227.953ZM92.195 227.953L92.3076 221.536C92.3076 219.398 92.4201 217.371 92.4201 215.345L92.0824 215.683C97.0355 215.795 101.989 215.908 106.942 215.908L121.801 216.02L121.238 215.458L121.35 228.065L121.801 227.615C119.324 227.615 116.848 227.615 114.484 227.728L107.054 227.84L92.195 227.953Z" fill="#EBEBEB"/>
<path d="M0.338575 384.086L15.0851 384.424L22.6273 384.536C25.1038 384.536 27.6929 384.536 30.1694 384.649H30.6197V384.199L30.7323 371.591V371.028H30.1694L15.3103 371.141C10.3572 371.141 5.40416 371.253 0.451117 371.366H0.113423V371.703C0.113423 373.842 0.225999 375.981 0.225999 378.12L0.338575 384.086ZM0.338575 384.086L0.451117 377.67C0.451117 375.531 0.563693 373.505 0.563693 371.478L0.225999 371.816C5.17905 371.929 10.1321 372.041 15.0851 372.041L29.9443 372.154L29.3814 371.591L29.494 384.199L29.9443 383.748C27.4677 383.748 24.9912 383.748 22.6273 383.861L15.1977 383.974L0.338575 384.086Z" fill="#EBEBEB"/>
<path d="M16.9983 75.9843L31.7449 76.322L39.287 76.4346C41.7635 76.4346 44.3526 76.4346 46.8291 76.5471H47.2794V76.0969L47.392 63.4891V62.9263H46.8291L31.97 63.0388C27.0169 63.0388 22.0639 63.1514 17.1108 63.264H16.7731V63.6017C16.7731 65.7405 16.8857 67.8793 16.8857 70.0181L16.9983 75.9843ZM16.9983 75.9843L17.1108 69.5679C17.1108 67.429 17.2234 65.4028 17.2234 63.3765L16.8857 63.7143C21.8387 63.8268 26.7918 63.9394 31.7449 63.9394L46.604 64.052L46.0411 63.4891L46.2663 75.9843L46.7165 75.534C44.24 75.534 41.7635 75.534 39.3995 75.6466L31.97 75.7592L16.9983 75.9843Z" fill="#EBEBEB"/>
<path d="M0.338575 91.8566L15.0851 92.1943L22.6273 92.3069C25.1038 92.3069 27.6929 92.3069 30.1694 92.4195H30.6197V91.9692L30.7323 79.3614V78.7986H30.1694L15.3103 78.9112C10.3572 78.9112 5.40416 79.0237 0.451117 79.1363H0.113423V79.474C0.113423 81.6128 0.225999 83.7516 0.225999 85.8904L0.338575 91.8566ZM0.338575 91.8566L0.451117 85.4402C0.451117 83.3014 0.563693 81.2751 0.563693 79.2489L0.225999 79.5866C5.17905 79.6991 10.1321 79.8117 15.0851 79.8117L29.9443 79.9243L29.3814 79.3614L29.494 91.9692L29.9443 91.5189C27.4677 91.5189 24.9912 91.5189 22.6273 91.6315L15.1977 91.744L0.338575 91.8566Z" fill="#EBEBEB"/>
<path d="M423.599 75.9843L438.346 76.322L445.888 76.4346C448.364 76.4346 450.954 76.4346 453.43 76.5471H453.88V76.0969L453.993 63.4891V62.9263H453.43L438.571 63.0388C433.618 63.0388 428.665 63.1514 423.712 63.264H423.374V63.6017C423.374 65.7405 423.487 67.8793 423.487 70.0181L423.599 75.9843ZM423.599 75.9843L423.712 69.5679C423.712 67.429 423.824 65.4028 423.824 63.3765L423.487 63.7143C428.44 63.8268 433.393 63.9394 438.346 63.9394L453.205 64.052L452.642 63.4891L452.755 76.0969L453.43 75.4215C450.954 75.4215 448.477 75.4215 446.113 75.534L438.684 75.6466L423.599 75.9843Z" fill="#EBEBEB"/>
<path d="M439.922 0H441.272V128.554H439.922V0Z" fill="#FE9868"/>
<path d="M436.769 122.588H444.311V127.653H436.769V122.588Z" fill="#FFC8AD"/>
<path d="M436.769 124.276H444.311V127.653H436.769V124.276Z" fill="#FE9868"/>
<path d="M446.338 161.312C446.338 164.464 443.749 167.053 440.597 167.053C437.445 167.053 434.856 164.464 434.856 161.312C434.856 158.16 437.445 155.571 440.597 155.571C443.749 155.571 446.338 158.16 446.338 161.312Z" fill="#FFC8AD"/>
<path d="M459.396 161.312H421.685L428.552 149.154L434.18 126.753H447.013L452.642 149.154L459.396 161.312Z" fill="#FE9868"/>
<path d="M395.569 0H396.92V105.477H395.569V0Z" fill="#FE9868"/>
<path d="M392.529 99.3987H400.071V104.464H392.529V99.3987Z" fill="#FFC8AD"/>
<path d="M392.529 101.087H400.072V104.464H392.529V101.087Z" fill="#FE9868"/>
<path d="M402.098 138.123C402.098 141.275 399.509 143.864 396.357 143.864C393.206 143.864 390.616 141.275 390.616 138.123C390.616 134.971 393.206 132.382 396.357 132.382C399.509 132.382 402.098 134.971 402.098 138.123Z" fill="#FFC8AD"/>
<path d="M415.156 138.122H377.445L384.312 126.078L389.828 103.564H402.773L408.289 126.078L415.156 138.122Z" fill="#FE9868"/>
<path d="M354.144 0H355.495V81.7253H354.144V0Z" fill="#FE9868"/>
<path d="M351.104 75.759H358.646V80.8246H351.104V75.759Z" fill="#FFC8AD"/>
<path d="M351.104 77.4475H358.646V80.8246H351.104V77.4475Z" fill="#FE9868"/>
<path d="M360.674 114.483C360.674 117.635 358.085 120.224 354.933 120.224C351.781 120.224 349.192 117.635 349.192 114.483C349.192 111.331 351.781 108.742 354.933 108.742C358.085 108.629 360.674 111.219 360.674 114.483Z" fill="#FFC8AD"/>
<path d="M373.731 114.483H336.021L342.775 102.325L348.403 79.9241H361.349L366.865 102.325L373.731 114.483Z" fill="#FE9868"/>
<path d="M29.1556 73.7329H82.626V138.685H29.1556V73.7329Z" fill="#FE9868"/>
<path d="M35.122 79.6992H76.4349V132.719H35.122V79.6992Z" fill="white"/>
<path d="M74.8589 79.6992H76.4349V132.719H74.8589V79.6992Z" fill="#FFCAB0"/>
<path d="M27.4677 73.7329H29.0437V138.685H27.4677V73.7329Z" fill="#FFCAB0"/>
<path d="M54.8317 120.876H45.1507L45.1507 91.8329H54.8317V120.876Z" fill="#FE9868"/>
<path d="M66.9505 101.125H40.947V86.9415H66.9505V101.125Z" stroke="#FE9868" stroke-width="1.12569" stroke-miterlimit="10"/>
<path d="M29.1558 233.694H82.6262V298.646H29.1558V233.694Z" fill="#455A64"/>
<path d="M35.1222 239.66H76.4351V292.68H35.1222V239.66Z" fill="white"/>
<path d="M74.8591 239.66H76.4351V292.68H74.8591V239.66Z" fill="#B4BFC5"/>
<path d="M27.4679 233.694H29.0439V298.646H27.4679V233.694Z" fill="#B4BFC5"/>
<path d="M52.9083 251.93H62.5893V280.973H52.9083V251.93Z" fill="#455A64"/>
<path d="M40.8632 246.977H66.8667V261.161H40.8632V246.977Z" stroke="#455A64" stroke-width="1.12569" stroke-miterlimit="10"/>
<path d="M29.1558 153.995H82.6262V218.947H29.1558V153.995Z" fill="#FE9868"/>
<path d="M35.1222 159.961H76.4351V212.981H35.1222V159.961Z" fill="white"/>
<path d="M74.8591 159.961H76.4351V212.981H74.8591V159.961Z" fill="#FFCAB0"/>
<path d="M27.4679 153.995H29.0439V218.947H27.4679V153.995Z" fill="#FFCAB0"/>
<path d="M51.445 173.694H59.7751V194.745H51.445V173.694Z" fill="#FE9868"/>
<path d="M42.6647 186.415H65.066V200.936H42.6647V186.415Z" stroke="#FE9868" stroke-width="1.12569" stroke-miterlimit="10"/>
<path d="M11.933 505.436C11.933 518.156 111.894 528.4 235.158 528.4C358.421 528.4 458.495 518.156 458.495 505.436C458.495 492.715 358.534 482.472 235.27 482.472C112.007 482.472 11.933 492.828 11.933 505.436Z" fill="#E3D7C3"/>
<path d="M469.864 457.481L411.216 457.256L352.567 457.144L235.157 456.918L117.86 457.144L59.2117 457.256L0.450571 457.481L59.2117 457.819L117.86 457.932L235.157 458.044L352.567 457.932L411.216 457.819L469.864 457.481Z" fill="#263238"/>
<path d="M140.037 59.324H330.391C340.973 59.324 349.641 68.1044 349.641 78.911V470.652C349.641 481.459 340.973 490.239 330.391 490.239H140.037C129.455 490.239 120.787 481.459 120.787 470.652V78.911C120.787 68.1044 129.455 59.324 140.037 59.324ZM132.832 458.607C132.832 468.963 140.6 477.294 150.055 477.294H320.373C329.941 477.294 337.596 468.963 337.596 458.607V93.7702C337.596 72.7197 329.828 71.7066 320.373 71.7066H286.264C284.238 71.7066 282.662 73.958 282.662 76.7722V78.0105C282.662 84.5395 279.06 84.5395 274.67 84.5395H195.759C191.368 84.5395 187.766 84.5395 187.766 78.0105V76.7722C187.766 73.958 186.19 71.7066 184.164 71.7066H150.055C140.487 71.7066 132.832 74.5208 132.832 93.7702V458.607V458.607Z" fill="#455A64"/>
<path d="M132.832 93.7701V458.607C132.832 468.963 140.599 477.293 150.055 477.293H320.372C329.941 477.293 337.595 468.963 337.595 458.607V93.7701C337.595 72.7197 329.828 71.7065 320.372 71.7065H286.264C284.238 71.7065 282.662 73.9579 282.662 76.7722V78.0104C282.662 84.5394 279.059 84.5394 274.669 84.5394H195.758C191.368 84.5394 187.766 84.5394 187.766 78.0104V76.7722C187.766 73.9579 186.19 71.7065 184.163 71.7065H150.055C140.599 71.7065 132.832 74.5208 132.832 93.7701Z" fill="white"/>
<path d="M132.832 93.7701V134.858H337.596V93.7701C337.596 72.7197 329.828 71.7065 320.373 71.7065H286.264C284.238 71.7065 282.662 73.9579 282.662 76.7722V78.0104C282.662 84.5394 279.06 84.5394 274.67 84.5394H195.758C191.368 84.5394 187.766 84.5394 187.766 78.0104V76.7722C187.766 73.9579 186.19 71.7065 184.164 71.7065H150.055C140.6 71.7065 132.832 74.5208 132.832 93.7701Z" fill="#FE9868"/>
<path d="M292.117 79.9241C292.23 80.0367 292.343 80.1492 292.455 80.2618C292.568 80.3744 292.568 80.3744 292.68 80.4869C293.581 79.5864 294.594 79.1361 295.832 79.1361C297.071 79.1361 298.084 79.5864 298.984 80.4869C299.097 80.3744 299.097 80.3744 299.209 80.2618C299.322 80.1492 299.434 80.0367 299.547 79.9241C299.434 79.8115 299.322 79.699 299.097 79.5864C298.759 79.3612 298.421 79.1361 298.084 79.0235C297.633 78.7984 297.296 78.6858 296.845 78.5733C296.62 78.5733 296.395 78.4607 296.17 78.4607C296.057 78.4607 295.607 78.4607 295.607 78.4607C295.495 78.4607 295.269 78.4607 295.157 78.4607C294.707 78.4607 294.369 78.5733 294.031 78.6858C293.806 78.7984 293.468 78.911 293.243 79.0235C293.018 79.1361 292.68 79.3612 292.455 79.5864C292.343 79.699 292.23 79.8115 292.117 79.9241Z" fill="white"/>
<path d="M297.971 81.5002C298.196 81.275 298.308 81.1624 298.533 80.9373C297.971 80.3745 297.295 80.0368 296.395 79.9242C295.156 79.8116 294.143 80.1493 293.243 80.9373C293.468 81.1624 293.58 81.275 293.806 81.5002C294.368 80.9373 295.156 80.5996 295.944 80.5996C296.62 80.5996 297.295 80.9373 297.971 81.5002Z" fill="white"/>
<path d="M294.144 81.9503C294.369 82.1754 294.482 82.288 294.707 82.5132C295.044 82.1754 295.382 82.0629 295.832 82.0629C296.283 82.0629 296.62 82.1754 296.958 82.5132C297.183 82.288 297.296 82.1754 297.521 81.9503C296.62 81.1623 295.157 81.0498 294.144 81.9503Z" fill="white"/>
<path d="M295.381 82.9635C295.381 83.1886 295.606 83.4137 295.831 83.4137C296.057 83.4137 296.282 83.1886 296.282 82.9635C296.282 82.7383 296.057 82.5132 295.831 82.5132C295.494 82.5132 295.381 82.7383 295.381 82.9635Z" fill="white"/>
<path d="M324.199 80.9373C324.199 80.1493 323.637 79.5864 322.849 79.5864C322.061 79.5864 321.498 80.1493 321.498 80.9373C321.498 81.7252 322.061 82.2881 322.849 82.2881C323.637 82.2881 324.199 81.7252 324.199 80.9373Z" fill="white"/>
<path d="M319.922 80.9373C319.922 80.1493 319.359 79.5864 318.571 79.5864C317.783 79.5864 317.221 80.1493 317.221 80.9373C317.221 81.7252 317.783 82.2881 318.571 82.2881C319.359 82.2881 319.922 81.7252 319.922 80.9373Z" fill="white"/>
<path d="M315.645 80.9373C315.645 80.1493 315.082 79.5864 314.294 79.5864C313.506 79.5864 312.943 80.1493 312.943 80.9373C312.943 81.7252 313.506 82.2881 314.294 82.2881C315.082 82.2881 315.645 81.7252 315.645 80.9373Z" fill="white"/>
<path d="M311.366 80.9373C311.366 80.1493 310.803 79.5864 310.015 79.5864C309.227 79.5864 308.665 80.1493 308.665 80.9373C308.665 81.7252 309.227 82.2881 310.015 82.2881C310.803 82.2881 311.366 81.7252 311.366 80.9373Z" fill="white"/>
<path d="M307.089 80.9373C307.089 80.1493 306.526 79.5864 305.738 79.5864C304.95 79.5864 304.387 80.1493 304.387 80.9373C304.387 81.7252 304.95 82.2881 305.738 82.2881C306.526 82.2881 307.089 81.7252 307.089 80.9373Z" fill="white"/>
<path d="M148.142 83.864H159.174V78.7983H148.142V83.864ZM158.724 83.3011H148.817V79.3612H158.724V83.3011Z" fill="white"/>
<path d="M151.182 79.699H158.273V83.0761H151.182V79.699Z" fill="white"/>
<path d="M147.129 79.9241H148.142V82.6257H147.129V79.9241Z" fill="white"/>
<path d="M318.909 123.263L324.988 117.635L318.909 112.006L318.008 113.019L322.961 117.635L318.008 122.363L318.909 123.263Z" fill="white"/>
<path d="M151.519 112.006L145.44 117.635L151.519 123.263L152.419 122.363L147.466 117.635L152.419 113.019L151.519 112.006Z" fill="white"/>
<path d="M246.752 115.271C246.077 115.946 245.626 116.959 245.626 118.085C245.626 119.211 246.077 120.111 246.752 120.899C247.427 121.575 248.328 122.025 249.341 122.025C250.354 122.025 251.367 121.575 252.043 120.899C252.718 120.224 253.168 119.211 253.168 118.085C253.168 116.959 252.718 116.059 252.043 115.271C251.367 114.596 250.354 114.145 249.341 114.145C248.328 114.145 247.315 114.596 246.752 115.271ZM246.865 118.085C246.865 117.297 247.202 116.622 247.653 116.172C248.103 115.721 248.778 115.384 249.341 115.384C250.017 115.384 250.692 115.721 251.142 116.172C251.592 116.622 251.93 117.297 251.93 118.085C251.93 118.873 251.592 119.549 251.142 119.999C250.692 120.449 250.017 120.787 249.341 120.787C248.666 120.787 248.103 120.449 247.653 119.999C247.09 119.549 246.865 118.873 246.865 118.085Z" fill="white"/>
<path d="M238.309 121.125C238.197 121.462 238.422 121.8 238.647 121.913C238.647 121.913 238.759 121.913 238.872 121.913C238.985 121.913 239.097 121.912 239.322 121.8C239.435 121.687 239.547 121.575 239.66 121.462C239.773 121.125 239.885 120.787 239.885 120.111C239.885 119.886 239.885 119.774 239.998 119.661C240.11 119.549 240.223 119.436 240.335 119.323C240.56 119.211 240.898 119.098 240.898 119.098H242.249V121.462C242.249 121.8 242.474 122.025 242.812 122.025C243.15 122.025 243.375 121.8 243.375 121.462V114.933C243.375 114.595 243.15 114.37 242.812 114.37H240.898C239.547 114.37 238.534 115.383 238.534 116.734C238.534 117.41 238.872 118.085 239.435 118.535C239.322 118.648 239.21 118.761 239.097 118.986C238.872 119.323 238.759 119.661 238.759 120.224C238.759 120.562 238.759 120.787 238.759 120.899C238.534 120.787 238.422 121.012 238.309 121.125ZM239.885 116.734C239.885 116.059 240.335 115.609 241.011 115.609H242.362V117.86H241.011C240.335 117.86 239.885 117.297 239.885 116.734Z" fill="white"/>
<path d="M236.508 121.462V114.933C236.508 114.595 236.283 114.37 235.946 114.37H234.595C232.456 114.37 230.767 116.059 230.767 118.198C230.767 120.337 232.456 122.025 234.595 122.025H235.946C236.283 122.025 236.508 121.8 236.508 121.462ZM235.27 120.899H234.595C233.131 120.899 232.006 119.774 232.006 118.31C232.006 116.847 233.131 115.721 234.595 115.721H235.27V120.899Z" fill="white"/>
<path d="M229.191 121.462V114.933C229.191 114.595 228.966 114.37 228.629 114.37H225.026C224.689 114.37 224.464 114.595 224.464 114.933C224.464 115.271 224.801 115.496 225.026 115.496H228.066V117.522H225.477C225.139 117.522 224.914 117.86 224.914 118.085C224.914 118.423 225.139 118.648 225.477 118.648H228.066V120.674H225.026C224.689 120.674 224.464 120.899 224.464 121.237C224.464 121.575 224.801 121.8 225.026 121.8H228.629C228.854 122.025 229.191 121.8 229.191 121.462Z" fill="white"/>
<path d="M217.372 121.125C217.259 121.462 217.484 121.8 217.709 121.913C217.709 121.913 217.822 121.913 217.935 121.913C218.047 121.913 218.16 121.912 218.385 121.8C218.497 121.687 218.61 121.575 218.723 121.462C218.835 121.125 218.948 120.787 218.948 120.111C218.948 119.886 218.948 119.774 219.06 119.661C219.173 119.549 219.285 119.436 219.398 119.323C219.623 119.211 219.961 119.098 219.961 119.098H221.312V121.462C221.312 121.8 221.537 122.025 221.874 122.025C222.212 122.025 222.437 121.8 222.437 121.462V114.933C222.437 114.595 222.212 114.37 221.874 114.37H219.961C218.61 114.37 217.597 115.383 217.597 116.734C217.597 117.41 217.935 118.085 218.497 118.535C218.385 118.648 218.272 118.761 218.16 118.986C217.935 119.323 217.822 119.661 217.822 120.224C217.822 120.562 217.822 120.787 217.822 120.899C217.484 120.787 217.372 121.012 217.372 121.125ZM218.835 116.734C218.835 116.059 219.398 115.609 219.961 115.609H221.312V117.86H219.961C219.398 117.86 218.835 117.297 218.835 116.734Z" fill="white"/>
<path d="M224.463 76.4346H245.964C246.752 76.4346 247.315 75.8717 247.315 75.0837C247.315 74.2958 246.752 73.7329 245.964 73.7329H224.463C223.675 73.7329 223.112 74.2958 223.112 75.0837C223.112 75.7592 223.675 76.4346 224.463 76.4346Z" fill="#263238"/>
<path d="M166.985 284.012L164.284 287.727V291.329C164.284 291.779 163.946 292.005 163.608 292.005C163.271 292.005 162.933 291.667 162.933 291.329V287.727L160.231 284.012C160.006 283.674 160.006 283.224 160.344 282.999C160.681 282.774 161.132 282.774 161.357 283.112L163.608 286.151L165.86 283.112C166.085 282.774 166.535 282.661 166.873 282.999C167.21 283.337 167.21 283.787 166.985 284.012Z" fill="#263238"/>
<path d="M167.549 291.104C166.986 290.541 166.648 289.753 166.648 288.74C166.648 287.84 166.986 287.052 167.549 286.489C168.112 285.813 168.9 285.476 169.8 285.476C170.701 285.476 171.489 285.813 172.051 286.489C172.614 287.164 172.952 287.952 172.952 288.74C172.952 289.641 172.614 290.429 172.051 291.104C171.489 291.779 170.701 292.117 169.8 292.117C168.9 292.117 168.112 291.667 167.549 291.104ZM168.112 288.74C168.112 289.303 168.337 289.753 168.562 290.091C168.899 290.429 169.35 290.541 169.8 290.541C170.25 290.541 170.701 290.316 171.038 290.091C171.376 289.753 171.601 289.303 171.601 288.74C171.601 288.177 171.376 287.727 171.038 287.389C170.701 287.052 170.25 286.939 169.8 286.939C169.35 286.939 168.899 287.164 168.562 287.389C168.224 287.727 168.112 288.177 168.112 288.74Z" fill="#263238"/>
<path d="M177.567 292.005C176.104 292.005 174.865 290.766 174.865 289.303V286.151C174.865 285.813 175.203 285.476 175.541 285.476C175.991 285.476 176.216 285.813 176.216 286.151V289.303C176.216 290.091 176.779 290.654 177.567 290.654C178.355 290.654 178.918 290.091 178.918 289.303V286.151C178.918 285.813 179.256 285.476 179.593 285.476C179.931 285.476 180.269 285.813 180.269 286.151V289.303C180.381 290.766 179.143 292.005 177.567 292.005Z" fill="#263238"/>
<path d="M187.135 286.151C187.135 286.489 186.797 286.826 186.459 286.826C186.122 286.826 185.897 286.939 185.671 287.052C185.446 287.164 185.221 287.389 185.109 287.727C184.771 288.177 184.658 288.628 184.546 288.853V291.329C184.546 291.667 184.208 292.005 183.87 292.005C183.533 292.005 183.195 291.667 183.195 291.329V286.151C183.195 285.813 183.533 285.476 183.87 285.476C184.321 285.476 184.546 285.813 184.546 286.151V286.264C184.658 286.151 184.771 286.038 184.771 286.038C185.221 285.701 185.784 285.476 186.459 285.476C186.797 285.476 187.135 285.813 187.135 286.151Z" fill="#263238"/>
<path d="M193.44 291.104C192.877 290.541 192.539 289.753 192.539 288.74C192.539 287.84 192.877 287.052 193.44 286.489C194.002 285.813 194.79 285.476 195.691 285.476C196.592 285.476 197.38 285.813 197.942 286.489C198.505 287.164 198.843 287.952 198.843 288.74C198.843 289.641 198.505 290.429 197.942 291.104C197.38 291.779 196.592 292.117 195.691 292.117C194.79 292.117 194.002 291.667 193.44 291.104ZM194.002 288.74C194.002 289.303 194.228 289.753 194.453 290.091C194.79 290.429 195.241 290.541 195.691 290.541C196.141 290.541 196.592 290.316 196.929 290.091C197.267 289.753 197.492 289.303 197.492 288.74C197.492 288.177 197.267 287.727 196.929 287.389C196.592 287.052 196.141 286.939 195.691 286.939C195.241 286.939 194.79 287.164 194.453 287.389C194.115 287.727 194.002 288.177 194.002 288.74Z" fill="#263238"/>
<path d="M204.922 286.151C204.922 286.489 204.584 286.826 204.246 286.826C203.909 286.826 203.683 286.939 203.458 287.052C203.233 287.164 203.008 287.389 202.895 287.727C202.558 288.177 202.445 288.628 202.333 288.853V291.329C202.333 291.667 201.995 292.005 201.657 292.005C201.319 292.005 200.982 291.667 200.982 291.329V286.151C200.982 285.813 201.319 285.476 201.657 285.476C202.107 285.476 202.333 285.813 202.333 286.151V286.264C202.445 286.151 202.558 286.038 202.558 286.038C203.008 285.701 203.571 285.476 204.246 285.476C204.584 285.476 204.922 285.813 204.922 286.151Z" fill="#263238"/>
<path d="M212.238 291.329C212.238 291.667 211.9 292.005 211.563 292.005C211.225 292.005 210.887 291.779 210.887 291.442C210.437 291.779 209.761 292.005 209.086 292.005C207.285 292.005 205.934 290.541 205.934 288.74C205.934 286.939 207.398 285.476 209.086 285.476C209.761 285.476 210.324 285.701 210.887 286.038V283.562C210.887 283.224 211.225 282.886 211.563 282.886C212.013 282.886 212.238 283.224 212.238 283.562V288.74V291.329ZM209.086 286.939C208.636 286.939 208.186 287.164 207.848 287.502C207.51 287.84 207.285 288.29 207.285 288.853C207.285 289.303 207.51 289.866 207.848 290.203C208.186 290.541 208.636 290.766 209.086 290.766C209.536 290.766 209.987 290.541 210.324 290.203C210.662 289.866 210.887 289.415 210.887 288.853C210.887 288.29 210.662 287.84 210.324 287.502C209.987 287.052 209.536 286.939 209.086 286.939Z" fill="#263238"/>
<path d="M214.265 288.74C214.265 286.939 215.728 285.476 217.529 285.476C219.218 285.476 220.569 286.714 220.681 288.515C220.681 288.515 220.681 288.515 220.681 288.628V288.74C220.681 289.078 220.343 289.303 220.006 289.303H215.841C215.953 289.641 216.066 289.978 216.291 290.203C216.516 290.541 217.079 290.766 217.529 290.766C217.979 290.766 218.542 290.654 218.88 290.429C219.105 290.091 219.668 290.203 219.893 290.429C220.118 290.654 220.231 290.991 219.893 291.329C219.218 291.892 218.43 292.23 217.529 292.23C215.728 292.005 214.377 290.541 214.265 288.74ZM215.728 288.065H219.443C219.33 287.502 218.655 286.714 217.529 286.714C216.403 286.714 215.841 287.614 215.728 288.065Z" fill="#263238"/>
<path d="M226.647 286.151C226.647 286.489 226.31 286.826 225.972 286.826C225.634 286.826 225.409 286.939 225.184 287.052C224.959 287.164 224.734 287.389 224.621 287.727C224.283 288.177 224.171 288.628 224.058 288.853V291.329C224.058 291.667 223.721 292.005 223.383 292.005C223.045 292.005 222.707 291.667 222.707 291.329V286.151C222.707 285.813 223.045 285.476 223.383 285.476C223.833 285.476 224.058 285.813 224.058 286.151V286.264C224.171 286.151 224.283 286.038 224.283 286.038C224.734 285.701 225.296 285.476 225.972 285.476C226.31 285.476 226.647 285.813 226.647 286.151Z" fill="#263238"/>
<path d="M233.739 283.787C233.739 284.237 233.401 284.462 233.063 284.462C232.613 284.462 232.388 284.125 232.388 283.787V283.562C232.388 283.112 232.726 282.886 233.063 282.886C233.514 282.886 233.739 283.224 233.739 283.562V283.787ZM233.739 286.151V291.329C233.739 291.779 233.401 292.005 233.063 292.005C232.613 292.005 232.388 291.667 232.388 291.329V286.151C232.388 285.701 232.726 285.476 233.063 285.476C233.401 285.476 233.739 285.813 233.739 286.151Z" fill="#263238"/>
<path d="M235.653 290.204C235.878 289.866 236.328 289.866 236.666 290.091C237.003 290.429 237.566 290.654 238.129 290.654C238.467 290.654 238.804 290.541 239.03 290.429C239.255 290.316 239.255 290.091 239.255 289.978C239.255 289.866 239.255 289.866 239.255 289.866C239.255 289.866 239.142 289.753 239.03 289.753C238.804 289.641 238.467 289.528 238.017 289.416C237.566 289.303 237.229 289.19 236.891 289.078C236.553 288.853 236.215 288.628 235.99 288.29C235.878 288.065 235.765 287.727 235.765 287.502C235.765 286.939 236.103 286.376 236.553 286.039C237.003 285.701 237.566 285.588 238.129 285.588C239.03 285.588 239.705 286.039 240.155 286.264C240.493 286.489 240.606 286.939 240.38 287.277C240.155 287.615 239.705 287.727 239.367 287.502C238.917 287.277 238.579 287.052 238.129 287.052C237.791 287.052 237.454 287.164 237.341 287.277C237.116 287.389 237.116 287.502 237.116 287.615V287.727C237.116 287.727 237.116 287.84 237.229 287.84C237.454 287.952 237.791 288.065 238.242 288.177C238.692 288.29 239.03 288.402 239.48 288.515C239.818 288.628 240.155 288.965 240.38 289.303C240.493 289.528 240.606 289.866 240.606 290.204C240.606 290.879 240.268 291.442 239.818 291.78C239.367 292.117 238.804 292.342 238.129 292.342C237.116 292.342 236.328 291.892 235.765 291.442C235.427 290.879 235.427 290.429 235.653 290.204Z" fill="#263238"/>
<path d="M246.009 288.74C246.009 286.939 247.585 285.476 249.387 285.476C250.174 285.476 250.962 285.813 251.525 286.151C251.863 286.376 251.863 286.826 251.638 287.164C251.413 287.502 250.962 287.502 250.625 287.277C250.287 287.052 249.837 286.826 249.387 286.826C248.373 286.826 247.473 287.727 247.473 288.74C247.473 289.753 248.373 290.654 249.387 290.654C249.837 290.654 250.287 290.429 250.625 290.203C250.962 289.978 251.3 289.978 251.638 290.316C251.863 290.654 251.75 290.991 251.525 291.329C250.962 291.779 250.174 292.005 249.387 292.005C247.473 292.005 246.009 290.541 246.009 288.74Z" fill="#263238"/>
<path d="M254.339 291.104C253.776 290.541 253.439 289.753 253.439 288.74C253.439 287.84 253.776 287.052 254.339 286.489C254.902 285.813 255.69 285.476 256.591 285.476C257.491 285.476 258.279 285.813 258.842 286.489C259.405 287.164 259.742 287.952 259.742 288.74C259.742 289.641 259.405 290.429 258.842 291.104C258.279 291.779 257.491 292.117 256.591 292.117C255.69 292.117 255.015 291.667 254.339 291.104ZM254.902 288.74C254.902 289.303 255.127 289.753 255.352 290.091C255.69 290.429 256.14 290.541 256.591 290.541C257.041 290.541 257.491 290.316 257.829 290.091C258.166 289.753 258.392 289.303 258.392 288.74C258.392 288.177 258.166 287.727 257.829 287.389C257.491 287.052 257.041 286.939 256.591 286.939C256.14 286.939 255.69 287.164 255.352 287.389C255.127 287.727 254.902 288.177 254.902 288.74Z" fill="#263238"/>
<path d="M267.51 288.177V291.329C267.51 291.667 267.172 292.005 266.835 292.005C266.497 292.005 266.159 291.667 266.159 291.329V288.177C266.159 287.389 265.484 286.826 264.808 286.826C264.02 286.826 263.457 287.389 263.457 288.177V291.329V291.442C263.345 291.779 263.12 292.005 262.782 292.005C262.332 292.005 262.107 291.667 262.107 291.329V288.177V286.151C262.107 285.813 262.444 285.476 262.782 285.476C263.007 285.476 263.345 285.588 263.457 285.926C263.908 285.701 264.358 285.476 264.808 285.476C266.272 285.476 267.51 286.714 267.51 288.177Z" fill="#263238"/>
<path d="M272.238 285.025V285.25H272.688C273.138 285.25 273.363 285.588 273.363 285.926C273.363 286.376 273.026 286.601 272.688 286.601H272.238V291.217C272.238 291.667 271.9 291.892 271.562 291.892C271.112 291.892 270.887 291.554 270.887 291.217V286.601H270.549C270.099 286.601 269.761 286.264 269.761 285.926C269.761 285.476 270.099 285.25 270.549 285.25H270.887V285.025C270.887 284.575 270.887 284.125 271.112 283.787C271.337 283.337 271.675 283.112 272.012 282.999C272.238 282.886 272.575 282.886 272.8 282.886C273.251 282.886 273.476 283.224 273.476 283.562C273.476 284.012 273.138 284.35 272.8 284.35C272.575 284.35 272.463 284.35 272.463 284.35H272.35C272.35 284.35 272.238 284.575 272.238 285.025Z" fill="#263238"/>
<path d="M276.29 283.787C276.29 284.237 275.952 284.462 275.614 284.462C275.164 284.462 274.939 284.125 274.939 283.787V283.562C274.939 283.112 275.277 282.886 275.614 282.886C276.065 282.886 276.29 283.224 276.29 283.562V283.787ZM276.29 286.151V291.329C276.29 291.779 275.952 292.005 275.614 292.005C275.164 292.005 274.939 291.667 274.939 291.329V286.151C274.939 285.701 275.277 285.476 275.614 285.476C276.065 285.476 276.29 285.813 276.29 286.151Z" fill="#263238"/>
<path d="M282.594 286.151C282.594 286.489 282.257 286.826 281.919 286.826C281.581 286.826 281.356 286.939 281.131 287.052C280.906 287.164 280.681 287.389 280.568 287.727C280.23 288.177 280.118 288.628 280.005 288.853V291.329C280.005 291.667 279.668 292.005 279.33 292.005C278.992 292.005 278.655 291.667 278.655 291.329V286.151C278.655 285.813 278.992 285.476 279.33 285.476C279.78 285.476 280.005 285.813 280.005 286.151V286.264C280.118 286.151 280.23 286.038 280.23 286.038C280.681 285.701 281.244 285.476 281.919 285.476C282.369 285.476 282.594 285.813 282.594 286.151Z" fill="#263238"/>
<path d="M289.911 288.177V291.329C289.911 291.667 289.573 292.005 289.235 292.005C288.897 292.005 288.56 291.667 288.56 291.329V288.177C288.56 287.502 287.884 286.826 287.209 286.826C286.533 286.826 285.858 287.389 285.858 288.177V291.329V291.442C285.858 291.442 285.858 291.442 285.858 291.554C285.858 291.554 285.858 291.554 285.858 291.667C285.746 291.892 285.52 292.117 285.183 292.117H285.07C284.732 292.005 284.507 291.779 284.507 291.442V288.177V286.151C284.507 285.701 284.845 285.476 285.183 285.476C285.408 285.476 285.746 285.588 285.858 285.926C286.308 285.701 286.759 285.476 287.321 285.476C288.109 285.476 288.897 285.813 289.348 286.376C289.798 285.813 290.586 285.476 291.374 285.476C292.837 285.476 294.076 286.714 294.076 288.29V291.442C294.076 291.779 293.738 292.117 293.4 292.117C293.062 292.117 292.725 291.779 292.725 291.442V288.177C292.725 287.389 292.162 286.826 291.374 286.826C290.473 286.826 289.911 287.502 289.911 288.177Z" fill="#263238"/>
<path d="M296.44 288.74C296.44 286.939 297.904 285.476 299.705 285.476C301.393 285.476 302.744 286.714 302.857 288.515C302.857 288.515 302.857 288.515 302.857 288.628V288.74C302.857 289.078 302.519 289.303 302.181 289.303H298.016C298.129 289.641 298.241 289.978 298.466 290.203C298.692 290.541 299.254 290.766 299.705 290.766C300.155 290.766 300.718 290.654 301.056 290.429C301.281 290.091 301.844 290.203 302.069 290.429C302.294 290.654 302.406 290.991 302.069 291.329C301.393 291.892 300.605 292.23 299.705 292.23C297.904 292.005 296.44 290.541 296.44 288.74ZM297.904 288.065H301.618C301.506 287.502 300.83 286.714 299.705 286.714C298.579 286.714 298.016 287.614 297.904 288.065Z" fill="#263238"/>
<path d="M310.961 291.329C310.961 291.667 310.624 292.005 310.286 292.005C309.948 292.005 309.611 291.779 309.611 291.442C309.16 291.779 308.485 292.005 307.81 292.005C306.008 292.005 304.658 290.541 304.658 288.74C304.658 286.939 306.121 285.476 307.81 285.476C308.485 285.476 309.048 285.701 309.611 286.038V283.562C309.611 283.224 309.948 282.886 310.286 282.886C310.736 282.886 310.961 283.224 310.961 283.562V288.74V291.329ZM307.697 286.939C307.247 286.939 306.796 287.164 306.459 287.502C306.121 287.84 305.896 288.29 305.896 288.853C305.896 289.303 306.121 289.866 306.459 290.203C306.796 290.541 307.247 290.766 307.697 290.766C308.147 290.766 308.598 290.541 308.935 290.203C309.273 289.866 309.498 289.415 309.498 288.853C309.498 288.29 309.273 287.84 308.935 287.502C308.598 287.052 308.26 286.939 307.697 286.939Z" fill="#263238"/>
<path d="M204.202 266.676H201.388C201.162 266.676 201.05 266.564 201.05 266.339C201.05 266.114 201.162 266.001 201.388 266.001H207.579C207.804 266.001 207.917 266.114 207.917 266.339C207.917 266.564 207.804 266.676 207.579 266.676H204.765V274.894C204.765 275.119 204.652 275.232 204.427 275.232C204.202 275.232 204.089 275.119 204.089 274.894V266.676H204.202Z" fill="#263238"/>
<path d="M214.67 271.292C214.67 270.166 213.77 269.378 212.644 269.378C211.518 269.378 210.618 270.166 210.618 271.292V274.894C210.618 275.007 210.505 275.007 210.392 275.007C210.28 275.007 210.167 275.007 210.167 274.894V274.781V274.669V271.292V271.179V266.339C210.167 266.114 210.28 266.001 210.505 266.001C210.73 266.001 210.843 266.114 210.843 266.339V269.716C211.293 269.153 212.081 268.815 212.869 268.815C214.332 268.815 215.571 269.828 215.571 271.404V275.007C215.571 275.232 215.458 275.344 215.233 275.344C215.008 275.344 214.895 275.232 214.895 275.007V271.292H214.67Z" fill="#263238"/>
<path d="M224.014 269.153V275.007C224.014 275.232 223.902 275.344 223.676 275.344C223.451 275.344 223.339 275.232 223.339 275.007V273.993C222.776 274.781 221.875 275.232 220.862 275.232C219.174 275.232 217.823 273.768 217.823 271.967C217.823 270.166 219.174 268.703 220.862 268.703C221.875 268.703 222.776 269.153 223.339 269.941V269.04C223.339 268.815 223.451 268.703 223.676 268.703C223.902 268.703 224.014 268.928 224.014 269.153ZM223.339 271.967C223.339 270.504 222.213 269.378 220.862 269.378C219.511 269.378 218.386 270.504 218.386 271.967C218.386 273.431 219.511 274.556 220.862 274.556C222.213 274.556 223.339 273.431 223.339 271.967Z" fill="#263238"/>
<path d="M231.218 271.404C231.218 270.279 230.318 269.378 229.192 269.378C228.066 269.378 227.166 270.279 227.166 271.404V274.894C227.166 274.894 227.166 275.007 227.053 275.007C227.053 275.119 226.941 275.119 226.828 275.119C226.716 275.119 226.603 275.007 226.603 274.894V274.781V271.292V269.04C226.603 268.815 226.716 268.703 226.941 268.703C227.166 268.703 227.278 268.815 227.278 269.04V269.716C227.729 269.153 228.517 268.815 229.305 268.815C230.768 268.815 231.894 270.053 231.894 271.404V274.894C231.894 275.119 231.781 275.232 231.556 275.232C231.331 275.232 231.218 275.119 231.218 274.894V271.404V271.404Z" fill="#263238"/>
<path d="M234.708 266.339C234.708 266.114 234.821 266.001 235.046 266.001C235.271 266.001 235.384 266.114 235.384 266.339V272.53L239.211 268.703C239.324 268.59 239.549 268.59 239.661 268.703C239.774 268.815 239.774 269.04 239.661 269.153L237.185 271.629L239.661 274.669C239.774 274.781 239.774 275.007 239.661 275.119C239.549 275.119 239.549 275.232 239.436 275.232C239.324 275.232 239.211 275.232 239.211 275.119L236.735 272.08L235.384 273.431V274.894C235.384 275.119 235.271 275.232 235.046 275.232C234.821 275.232 234.708 275.119 234.708 274.894V266.339V266.339Z" fill="#263238"/>
<path d="M245.515 269.04C245.515 268.815 245.627 268.703 245.853 268.703C246.078 268.703 246.19 268.815 246.19 269.04V272.53C246.19 273.656 247.091 274.556 248.217 274.556C249.342 274.556 250.243 273.656 250.243 272.53V269.04V268.928L250.355 268.815C250.355 268.815 250.468 268.815 250.468 268.928L250.581 269.04V269.153V272.643V272.755V274.781C250.581 276.47 249.23 277.821 247.541 277.821C247.091 277.821 246.641 277.708 246.19 277.483C246.078 277.37 245.965 277.258 246.078 277.033C246.19 276.92 246.303 276.808 246.528 276.92C246.866 277.033 247.203 277.145 247.541 277.145C248.892 277.145 250.018 276.132 250.018 274.781V274.331C249.567 274.894 248.779 275.232 247.991 275.232C246.528 275.232 245.402 273.993 245.402 272.643V269.04H245.515Z" fill="#263238"/>
<path d="M256.096 268.815C257.785 268.815 259.136 270.279 259.136 272.08C259.136 273.881 257.785 275.344 256.096 275.344C254.408 275.344 253.057 273.881 253.057 272.08C253.057 270.279 254.408 268.815 256.096 268.815ZM256.096 274.556C257.447 274.556 258.573 273.431 258.573 271.967C258.573 270.504 257.447 269.378 256.096 269.378C254.745 269.378 253.62 270.504 253.62 271.967C253.732 273.431 254.858 274.556 256.096 274.556Z" fill="#263238"/>
<path d="M261.274 269.04C261.274 268.815 261.387 268.703 261.612 268.703C261.837 268.703 261.95 268.815 261.95 269.04V272.53C261.95 273.656 262.85 274.556 263.976 274.556C265.102 274.556 266.002 273.656 266.002 272.53V269.04C266.002 268.815 266.115 268.703 266.34 268.703C266.565 268.703 266.677 268.815 266.677 269.04V272.53C266.677 273.993 265.552 275.119 263.976 275.119C262.512 275.119 261.387 273.881 261.387 272.53V269.04H261.274Z" fill="#263238"/>
<path d="M269.492 266.339C269.492 266.114 269.604 266.001 269.829 266.001C270.054 266.001 270.167 266.114 270.167 266.339V272.98C270.167 273.205 270.054 273.318 269.829 273.318C269.604 273.318 269.492 273.205 269.492 272.98V266.339ZM269.492 274.556C269.492 274.331 269.604 274.219 269.829 274.219C270.054 274.219 270.167 274.331 270.167 274.556V274.894C270.167 275.119 270.054 275.232 269.829 275.232C269.604 275.232 269.492 275.119 269.492 274.894V274.556Z" fill="#263238"/>
<path d="M232.568 235.157L223.112 225.476L226.264 222.324L231.78 227.952L243.374 209.941L247.202 212.305L232.568 235.157Z" fill="#FE9868"/>
<path d="M235.157 247.427C248.891 247.427 260.035 236.283 260.035 222.549C260.035 208.816 248.891 197.671 235.157 197.671C221.424 197.671 210.279 208.816 210.279 222.549C210.392 236.283 221.536 247.427 235.157 247.427ZM235.157 201.048C246.977 201.048 256.658 210.729 256.658 222.549C256.658 234.369 246.977 244.05 235.157 244.05C223.337 244.05 213.656 234.369 213.656 222.549C213.769 210.617 223.337 201.048 235.157 201.048Z" fill="#FE9868"/>
<path d="M266.451 221.986H273.881V223.112H266.451V221.986Z" fill="#FE9868"/>
<path d="M268.977 206.302L269.773 207.098L264.519 212.352L263.723 211.556L268.977 206.302Z" fill="#FE9868"/>
<path d="M264.564 232.453L269.818 237.706L269.022 238.502L263.768 233.249L264.564 232.453Z" fill="#FE9868"/>
<path d="M196.546 221.986H203.976V223.112H196.546V221.986Z" fill="#FE9868"/>
<path d="M201.434 206.274L206.688 211.527L205.892 212.323L200.638 207.07L201.434 206.274Z" fill="#FE9868"/>
<path d="M205.858 232.469L206.654 233.265L201.4 238.518L200.604 237.722L205.858 232.469Z" fill="#FE9868"/>
<path d="M268.815 336.582H201.611V359.095H268.815V336.582Z" fill="#FE9868"/>
<path d="M217.596 351.891V344.124C217.596 343.674 217.934 343.448 218.272 343.448H219.848C222.437 343.448 224.463 345.475 224.463 348.064C224.463 350.653 222.437 352.679 219.848 352.679H218.272C217.934 352.679 217.596 352.341 217.596 351.891ZM219.06 351.216H219.848C221.536 351.216 223 349.752 223 348.064C223 346.375 221.649 344.912 219.848 344.912H219.06V351.216Z" fill="white"/>
<path d="M234.144 344.574C234.932 345.475 235.495 346.6 235.495 347.951C235.495 349.302 234.932 350.428 234.144 351.328C233.356 352.229 232.23 352.792 230.992 352.792C229.754 352.792 228.515 352.229 227.727 351.328C226.939 350.428 226.377 349.302 226.377 347.951C226.377 346.6 226.827 345.475 227.727 344.574C228.515 343.673 229.641 343.111 230.992 343.111C232.23 343.111 233.356 343.673 234.144 344.574ZM234.031 347.839C234.031 346.938 233.694 346.15 233.131 345.587C232.568 345.024 231.892 344.687 230.992 344.687C230.204 344.687 229.416 345.024 228.853 345.587C228.29 346.15 227.953 347.051 227.953 347.839C227.953 348.739 228.29 349.527 228.853 350.09C229.416 350.653 230.091 350.99 230.992 350.99C231.78 350.99 232.568 350.653 233.131 350.09C233.694 349.64 234.031 348.739 234.031 347.839Z" fill="white"/>
<path d="M239.21 351.891C239.21 352.341 238.872 352.567 238.534 352.567C238.084 352.567 237.859 352.229 237.859 351.891V344.236C237.859 344.011 237.971 343.786 238.197 343.674C238.534 343.448 238.985 343.561 239.21 343.786L243.487 349.64V344.236C243.487 343.899 243.825 343.561 244.163 343.561C244.613 343.561 244.838 343.899 244.838 344.236V351.891C244.838 352.341 244.5 352.567 244.163 352.567C243.938 352.567 243.712 352.454 243.6 352.341C243.6 352.341 243.6 352.341 243.487 352.229L239.322 346.375V351.891H239.21Z" fill="white"/>
<path d="M247.09 351.891V344.124C247.09 343.674 247.427 343.448 247.765 343.448H252.043C252.381 343.448 252.718 343.786 252.718 344.124C252.718 344.574 252.381 344.912 252.043 344.912H248.553V347.276H251.593C252.043 347.276 252.268 347.613 252.268 347.951C252.268 348.401 251.93 348.739 251.593 348.739H248.553V351.216H252.155C252.493 351.216 252.831 351.553 252.831 352.004C252.831 352.454 252.493 352.679 252.155 352.679H247.878C247.427 352.679 247.09 352.341 247.09 351.891Z" fill="white"/>
<path d="M173.469 305.625L171.78 303.261C171.78 303.149 171.78 303.036 171.78 303.036C171.893 302.924 172.005 303.036 172.005 303.036L173.581 305.287L175.157 303.036C175.157 302.924 175.27 302.924 175.382 303.036C175.495 303.036 175.495 303.149 175.382 303.261L173.694 305.625V307.877C173.694 307.989 173.581 308.102 173.469 308.102C173.356 308.102 173.244 307.989 173.244 307.877V305.625H173.469Z" fill="#C7C7C7"/>
<path d="M177.071 304.499C177.972 304.499 178.76 305.287 178.76 306.301C178.76 307.314 177.972 308.102 177.071 308.102C176.171 308.102 175.383 307.314 175.383 306.301C175.383 305.287 176.171 304.499 177.071 304.499ZM177.071 307.764C177.747 307.764 178.422 307.088 178.422 306.301C178.422 305.513 177.859 304.837 177.071 304.837C176.396 304.837 175.72 305.513 175.72 306.301C175.72 307.088 176.396 307.764 177.071 307.764Z" fill="#C7C7C7"/>
<path d="M179.998 304.725C179.998 304.612 180.11 304.499 180.223 304.499C180.335 304.499 180.448 304.612 180.448 304.725V306.638C180.448 307.201 180.898 307.764 181.573 307.764C182.136 307.764 182.699 307.314 182.699 306.638V304.725C182.699 304.612 182.812 304.499 182.924 304.499C183.037 304.499 183.149 304.612 183.149 304.725V306.638C183.149 307.426 182.474 308.102 181.686 308.102C180.898 308.102 180.223 307.426 180.223 306.638V304.725H179.998Z" fill="#C7C7C7"/>
<path d="M187.878 308.102C187.878 307.989 187.878 307.989 187.878 308.102L186.414 304.837C186.414 304.725 186.414 304.612 186.527 304.612C186.639 304.612 186.752 304.612 186.752 304.725L187.99 307.539L188.778 305.625C188.778 305.513 188.891 305.513 188.891 305.513C189.003 305.513 189.003 305.513 189.116 305.625L189.904 307.539L191.142 304.725C191.142 304.612 191.255 304.612 191.367 304.612C191.48 304.612 191.48 304.725 191.48 304.837L190.129 307.989C190.129 307.989 190.129 308.102 190.016 308.102H189.904C189.791 308.102 189.791 308.102 189.791 307.989L189.003 305.963L188.215 307.989C188.103 307.989 188.103 308.102 187.878 308.102C187.99 308.102 187.99 308.102 187.878 308.102Z" fill="#C7C7C7"/>
<path d="M192.493 303.487C192.493 303.374 192.606 303.261 192.719 303.261C192.831 303.261 192.944 303.374 192.944 303.487V303.599C192.944 303.712 192.831 303.824 192.719 303.824C192.606 303.824 192.493 303.712 192.493 303.599V303.487ZM192.493 304.725C192.493 304.612 192.606 304.5 192.719 304.5C192.831 304.5 192.944 304.612 192.944 304.725V307.989C192.944 308.102 192.831 308.214 192.719 308.214C192.606 308.214 192.493 308.102 192.493 307.989V304.725Z" fill="#C7C7C7"/>
<path d="M194.519 303.149C194.519 303.036 194.632 302.924 194.745 302.924C194.857 302.924 194.97 303.036 194.97 303.149V307.877C194.97 307.989 194.857 308.102 194.745 308.102C194.632 308.102 194.519 307.989 194.519 307.877V303.149Z" fill="#C7C7C7"/>
<path d="M196.32 303.149C196.32 303.036 196.433 302.924 196.545 302.924C196.658 302.924 196.77 303.036 196.77 303.149V307.877C196.77 307.989 196.658 308.102 196.545 308.102C196.433 308.102 196.32 307.989 196.32 307.877V303.149Z" fill="#C7C7C7"/>
<path d="M200.26 306.413V306.188V303.149C200.26 303.036 200.373 302.924 200.485 302.924C200.598 302.924 200.71 303.036 200.71 303.149V305.175C201.048 304.725 201.498 304.5 202.061 304.5C203.074 304.5 203.75 305.288 203.75 306.301C203.75 307.314 202.962 308.102 202.061 308.102C201.498 308.102 201.048 307.877 200.71 307.426V307.989C200.71 308.102 200.598 308.214 200.485 308.214C200.373 308.214 200.26 308.102 200.26 307.989V306.413ZM200.598 306.301C200.598 307.089 201.273 307.764 201.949 307.764C202.737 307.764 203.299 307.089 203.299 306.301C203.299 305.513 202.737 304.837 201.949 304.837C201.273 304.837 200.598 305.513 200.598 306.301Z" fill="#C7C7C7"/>
<path d="M204.763 306.301C204.763 305.287 205.551 304.499 206.451 304.499C207.352 304.499 208.14 305.175 208.14 306.188C208.14 306.3 208.027 306.301 207.915 306.301H204.988C204.988 307.088 205.663 307.651 206.339 307.651C206.789 307.651 207.239 307.426 207.464 306.976C207.464 306.863 207.577 306.863 207.69 306.863C207.802 306.976 207.802 306.976 207.802 307.088C207.464 307.539 207.014 307.876 206.339 307.876C205.551 308.102 204.763 307.314 204.763 306.301ZM205.213 305.963H207.915C207.802 305.287 207.239 304.837 206.564 304.837C205.888 304.837 205.326 305.287 205.213 305.963Z" fill="#C7C7C7"/>
<path d="M211.742 304.725C211.742 304.612 211.855 304.499 211.967 304.499C212.08 304.499 212.08 304.612 212.08 304.725V305.513V305.4C212.305 304.95 212.868 304.499 213.543 304.499C213.656 304.499 213.769 304.612 213.769 304.725C213.769 304.837 213.656 304.95 213.543 304.95C213.093 304.95 212.755 305.175 212.53 305.513C212.305 305.85 212.193 306.188 212.08 306.301C212.08 306.301 212.08 306.301 212.08 306.413V307.989C212.08 308.102 211.967 308.214 211.967 308.214C211.855 308.214 211.742 308.102 211.742 307.989V304.725Z" fill="#C7C7C7"/>
<path d="M214.331 306.301C214.331 305.287 215.119 304.499 216.02 304.499C216.92 304.499 217.708 305.175 217.708 306.188C217.708 306.3 217.596 306.301 217.483 306.301H214.556C214.556 307.088 215.232 307.651 215.907 307.651C216.357 307.651 216.808 307.426 217.033 306.976C217.033 306.863 217.145 306.863 217.258 306.863C217.37 306.976 217.37 306.976 217.37 307.088C217.033 307.539 216.583 307.876 215.907 307.876C215.119 308.102 214.331 307.314 214.331 306.301ZM214.669 305.963H217.37C217.258 305.287 216.695 304.837 216.02 304.837C215.344 304.837 214.781 305.287 214.669 305.963Z" fill="#C7C7C7"/>
<path d="M218.722 306.301C218.722 305.287 219.51 304.499 220.523 304.499C220.973 304.499 221.311 304.612 221.649 304.95C221.761 304.95 221.761 305.062 221.649 305.175C221.536 305.287 221.536 305.287 221.423 305.175C221.198 304.95 220.861 304.837 220.523 304.837C219.735 304.837 219.059 305.513 219.059 306.301C219.059 307.088 219.735 307.764 220.523 307.764C220.861 307.764 221.198 307.651 221.423 307.426C221.536 307.314 221.649 307.426 221.649 307.426C221.761 307.539 221.649 307.651 221.649 307.651C221.311 307.876 220.973 307.989 220.523 307.989C219.51 308.102 218.722 307.314 218.722 306.301Z" fill="#C7C7C7"/>
<path d="M222.774 306.301C222.774 305.287 223.562 304.499 224.462 304.499C225.363 304.499 226.151 305.175 226.151 306.188C226.151 306.3 226.038 306.301 225.926 306.301H222.999C222.999 307.088 223.674 307.651 224.35 307.651C224.8 307.651 225.25 307.426 225.475 306.976C225.475 306.863 225.588 306.863 225.701 306.863C225.813 306.976 225.813 306.976 225.813 307.088C225.475 307.539 225.025 307.876 224.35 307.876C223.562 308.102 222.774 307.314 222.774 306.301ZM223.224 305.963H225.926C225.813 305.287 225.25 304.837 224.575 304.837C223.9 304.837 223.337 305.287 223.224 305.963Z" fill="#C7C7C7"/>
<path d="M227.502 303.487C227.502 303.374 227.615 303.261 227.727 303.261C227.84 303.261 227.952 303.374 227.952 303.487V303.599C227.952 303.712 227.84 303.824 227.727 303.824C227.615 303.824 227.502 303.712 227.502 303.599V303.487ZM227.502 304.725C227.502 304.612 227.615 304.5 227.727 304.5C227.84 304.5 227.952 304.612 227.952 304.725V307.989C227.952 308.102 227.84 308.214 227.727 308.214C227.615 308.214 227.502 308.102 227.502 307.989V304.725Z" fill="#C7C7C7"/>
<path d="M230.653 308.102C230.653 307.989 230.653 307.989 230.653 308.102L229.303 304.837C229.303 304.725 229.303 304.612 229.415 304.612C229.528 304.612 229.64 304.612 229.64 304.725L230.879 307.539L232.117 304.725C232.117 304.612 232.229 304.612 232.342 304.612C232.455 304.612 232.455 304.725 232.455 304.837L231.104 307.989V308.102C230.879 308.102 230.879 308.102 230.653 308.102C230.766 308.102 230.766 308.102 230.653 308.102C230.766 308.102 230.766 308.102 230.653 308.102C230.653 308.102 230.766 308.102 230.653 308.102Z" fill="#C7C7C7"/>
<path d="M233.805 303.487C233.805 303.374 233.918 303.261 234.031 303.261C234.143 303.261 234.256 303.374 234.256 303.487V303.599C234.256 303.712 234.143 303.824 234.031 303.824C233.918 303.824 233.805 303.712 233.805 303.599V303.487ZM233.805 304.725C233.805 304.612 233.918 304.5 234.031 304.5C234.143 304.5 234.256 304.612 234.256 304.725V307.989C234.256 308.102 234.143 308.214 234.031 308.214C233.918 308.214 233.805 308.102 233.805 307.989V304.725Z" fill="#C7C7C7"/>
<path d="M238.421 305.963C238.421 305.4 237.971 304.837 237.295 304.837C236.733 304.837 236.17 305.287 236.17 305.963V307.876V307.989L236.057 308.102C236.057 308.102 235.945 308.102 235.945 307.989V306.075V305.963V304.725C235.945 304.612 236.057 304.499 236.17 304.499C236.282 304.499 236.282 304.612 236.282 304.725V305.062C236.507 304.725 236.958 304.499 237.408 304.499C238.196 304.499 238.871 305.175 238.871 305.963V307.876C238.871 307.989 238.759 308.102 238.646 308.102C238.534 308.102 238.421 307.989 238.421 307.876V305.963V305.963Z" fill="#C7C7C7"/>
<path d="M243.486 307.764C243.486 308.665 242.698 309.453 241.798 309.453C241.573 309.453 241.235 309.34 241.01 309.34C240.897 309.34 240.897 309.227 240.897 309.115C240.897 309.002 241.01 309.002 241.122 309.002C241.348 309.115 241.46 309.115 241.685 309.115C242.473 309.115 243.036 308.552 243.036 307.764V307.314C242.698 307.764 242.248 307.989 241.685 307.989C240.785 307.989 239.997 307.201 239.997 306.188C239.997 305.175 240.785 304.387 241.685 304.387C242.248 304.387 242.698 304.612 243.036 305.062V304.5C243.036 304.387 243.149 304.274 243.261 304.274C243.374 304.274 243.374 304.387 243.374 304.5V307.764H243.486ZM243.149 306.301C243.149 305.513 242.586 304.837 241.798 304.837C241.122 304.837 240.447 305.513 240.447 306.301C240.447 307.089 241.01 307.764 241.798 307.764C242.473 307.764 243.149 307.089 243.149 306.301Z" fill="#C7C7C7"/>
<path d="M250.354 304.725V307.989C250.354 308.102 250.241 308.214 250.129 308.214C250.016 308.214 249.903 308.102 249.903 307.989V307.426C249.566 307.877 249.115 308.102 248.553 308.102C247.652 308.102 246.864 307.314 246.864 306.301C246.864 305.288 247.652 304.5 248.553 304.5C249.115 304.5 249.566 304.725 249.903 305.175V304.612C249.903 304.5 250.016 304.387 250.129 304.387C250.241 304.5 250.354 304.612 250.354 304.725ZM250.016 306.301C250.016 305.513 249.453 304.837 248.665 304.837C247.99 304.837 247.314 305.513 247.314 306.301C247.314 307.089 247.877 307.764 248.665 307.764C249.341 307.764 250.016 307.089 250.016 306.301Z" fill="#C7C7C7"/>
<path d="M253.73 306.301C253.73 305.287 254.518 304.499 255.531 304.499C255.982 304.499 256.319 304.612 256.657 304.95C256.77 304.95 256.77 305.062 256.657 305.175C256.545 305.287 256.545 305.287 256.432 305.175C256.207 304.95 255.869 304.837 255.531 304.837C254.743 304.837 254.068 305.513 254.068 306.301C254.068 307.088 254.743 307.764 255.531 307.764C255.869 307.764 256.207 307.651 256.432 307.426C256.545 307.314 256.657 307.426 256.657 307.426C256.77 307.539 256.657 307.651 256.657 307.651C256.319 307.876 255.982 307.989 255.531 307.989C254.631 308.102 253.73 307.314 253.73 306.301Z" fill="#C7C7C7"/>
<path d="M259.584 304.499C260.485 304.499 261.273 305.287 261.273 306.301C261.273 307.314 260.485 308.102 259.584 308.102C258.684 308.102 257.896 307.314 257.896 306.301C257.896 305.287 258.684 304.499 259.584 304.499ZM259.584 307.764C260.26 307.764 260.935 307.088 260.935 306.301C260.935 305.513 260.372 304.837 259.584 304.837C258.909 304.837 258.233 305.513 258.233 306.301C258.233 307.088 258.909 307.764 259.584 307.764Z" fill="#C7C7C7"/>
<path d="M265.212 305.963C265.212 305.4 264.762 304.837 264.087 304.837C263.524 304.837 262.961 305.287 262.961 305.963V307.876V307.989L262.848 308.102C262.848 308.102 262.736 308.102 262.736 307.989V306.075V305.963V304.725C262.736 304.612 262.848 304.499 262.961 304.499C263.074 304.499 263.074 304.612 263.074 304.725V305.062C263.299 304.725 263.749 304.499 264.199 304.499C264.987 304.499 265.663 305.175 265.663 305.963V307.876C265.663 307.989 265.55 308.102 265.438 308.102C265.325 308.102 265.212 307.989 265.212 307.876V305.963V305.963Z" fill="#C7C7C7"/>
<path d="M268.703 303.149C268.703 303.261 268.59 303.374 268.478 303.374C268.252 303.374 268.14 303.374 268.027 303.486C267.915 303.599 267.915 303.712 267.915 304.049V304.387H268.365C268.478 304.387 268.59 304.5 268.59 304.612C268.59 304.725 268.478 304.837 268.365 304.837H267.915V307.989C267.915 308.102 267.802 308.214 267.69 308.214C267.577 308.214 267.464 308.102 267.464 307.989V304.837H267.014C266.902 304.837 266.789 304.725 266.789 304.612C266.789 304.5 266.902 304.387 267.014 304.387H267.464V304.049C267.464 303.712 267.577 303.374 267.69 303.261C267.915 303.036 268.14 303.036 268.365 303.036C268.59 302.924 268.703 303.036 268.703 303.149Z" fill="#C7C7C7"/>
<path d="M269.828 303.487C269.828 303.374 269.94 303.261 270.053 303.261C270.165 303.261 270.278 303.374 270.278 303.487V303.599C270.278 303.712 270.165 303.824 270.053 303.824C269.94 303.824 269.828 303.712 269.828 303.599V303.487ZM269.828 304.725C269.828 304.612 269.94 304.5 270.053 304.5C270.165 304.5 270.278 304.612 270.278 304.725V307.989C270.278 308.102 270.165 308.214 270.053 308.214C269.94 308.214 269.828 308.102 269.828 307.989V304.725Z" fill="#C7C7C7"/>
<path d="M271.855 304.725C271.855 304.612 271.967 304.499 272.08 304.499C272.192 304.499 272.192 304.612 272.192 304.725V305.513V305.4C272.418 304.95 272.98 304.499 273.656 304.499C273.768 304.499 273.881 304.612 273.881 304.725C273.881 304.837 273.768 304.95 273.656 304.95C273.206 304.95 272.868 305.175 272.643 305.513C272.418 305.85 272.305 306.188 272.192 306.301C272.192 306.301 272.192 306.301 272.192 306.413V307.989C272.192 308.102 272.08 308.214 272.08 308.214C271.967 308.214 271.855 308.102 271.855 307.989V304.725Z" fill="#C7C7C7"/>
<path d="M280.185 305.963C280.185 305.4 279.735 304.837 279.059 304.837C278.496 304.837 277.933 305.287 277.933 305.963V307.876C277.933 307.876 277.933 307.989 277.821 307.989H277.708V306.075C277.708 305.513 277.258 304.95 276.583 304.95C276.02 304.95 275.457 305.4 275.457 306.075V307.989C275.457 308.102 275.457 308.102 275.344 308.102C275.232 308.102 275.232 307.989 275.232 307.989V306.075V305.963V304.725C275.232 304.612 275.344 304.612 275.344 304.612C275.457 304.612 275.569 304.725 275.569 304.725V305.062C275.795 304.725 276.245 304.499 276.695 304.499C277.258 304.499 277.708 304.837 277.933 305.287C278.159 304.837 278.721 304.499 279.172 304.499C279.96 304.499 280.635 305.175 280.635 305.963V307.876C280.635 307.989 280.523 307.989 280.41 307.989C280.297 307.989 280.297 307.876 280.297 307.876V305.963H280.185Z" fill="#C7C7C7"/>
<path d="M285.025 304.725V307.989C285.025 308.102 284.912 308.214 284.8 308.214C284.687 308.214 284.575 308.102 284.575 307.989V307.426C284.237 307.877 283.787 308.102 283.224 308.102C282.323 308.102 281.535 307.314 281.535 306.301C281.535 305.288 282.323 304.5 283.224 304.5C283.787 304.5 284.237 304.725 284.575 305.175V304.612C284.575 304.5 284.687 304.387 284.8 304.387C284.912 304.5 285.025 304.612 285.025 304.725ZM284.575 306.301C284.575 305.513 284.012 304.837 283.224 304.837C282.548 304.837 281.873 305.513 281.873 306.301C281.873 307.089 282.436 307.764 283.224 307.764C284.012 307.764 284.575 307.089 284.575 306.301Z" fill="#C7C7C7"/>
<path d="M287.727 304.725C287.727 304.837 287.614 304.95 287.502 304.95H287.052V307.539C287.052 307.764 287.277 307.764 287.277 307.764C287.389 307.764 287.502 307.877 287.502 307.989C287.502 308.102 287.389 308.214 287.277 308.214C286.939 308.214 286.601 307.989 286.601 307.539V304.95H286.151C285.926 304.95 285.926 304.837 285.926 304.725C285.926 304.612 285.926 304.5 286.151 304.5H286.601V303.149C286.601 303.036 286.714 302.924 286.826 302.924C286.939 302.924 287.052 303.036 287.052 303.149V304.5H287.502C287.614 304.5 287.727 304.612 287.727 304.725Z" fill="#C7C7C7"/>
<path d="M289.415 303.487C289.415 303.374 289.528 303.261 289.64 303.261C289.753 303.261 289.865 303.374 289.865 303.487V303.599C289.865 303.712 289.753 303.824 289.64 303.824C289.528 303.824 289.415 303.712 289.415 303.599V303.487ZM289.415 304.725C289.415 304.612 289.528 304.5 289.64 304.5C289.753 304.5 289.865 304.612 289.865 304.725V307.989C289.865 308.102 289.753 308.214 289.64 308.214C289.528 308.214 289.415 308.102 289.415 307.989V304.725Z" fill="#C7C7C7"/>
<path d="M293.017 304.499C293.918 304.499 294.706 305.287 294.706 306.301C294.706 307.314 293.918 308.102 293.017 308.102C292.117 308.102 291.329 307.314 291.329 306.301C291.329 305.287 292.004 304.499 293.017 304.499ZM293.017 307.764C293.693 307.764 294.368 307.088 294.368 306.301C294.368 305.513 293.805 304.837 293.017 304.837C292.342 304.837 291.667 305.513 291.667 306.301C291.667 307.088 292.229 307.764 293.017 307.764Z" fill="#C7C7C7"/>
<path d="M298.534 305.963C298.534 305.4 298.083 304.837 297.408 304.837C296.845 304.837 296.282 305.287 296.282 305.963V307.876V307.989L296.17 308.102C296.17 308.102 296.057 308.102 296.057 307.989V306.075V305.963V304.725C296.057 304.612 296.17 304.499 296.282 304.499C296.395 304.499 296.395 304.612 296.395 304.725V305.062C296.62 304.725 297.07 304.499 297.52 304.499C298.308 304.499 298.984 305.175 298.984 305.963V307.876C298.984 307.989 298.871 308.102 298.759 308.102C298.646 308.102 298.534 307.989 298.534 307.876V305.963Z" fill="#C7C7C7"/>
<path d="M192.943 315.081C192.943 314.068 193.731 313.28 194.632 313.28C195.532 313.28 196.32 313.955 196.32 314.968C196.32 315.081 196.207 315.081 196.095 315.081H193.168C193.168 315.869 193.844 316.432 194.519 316.432C194.969 316.432 195.419 316.207 195.645 315.756C195.645 315.644 195.757 315.644 195.87 315.644C195.982 315.756 195.982 315.756 195.982 315.869C195.645 316.319 195.194 316.657 194.519 316.657C193.731 316.882 192.943 315.982 192.943 315.081ZM193.393 314.743H196.095C195.982 314.068 195.419 313.618 194.744 313.618C194.069 313.618 193.506 314.068 193.393 314.743Z" fill="#C7C7C7"/>
<path d="M202.736 314.743C202.736 314.18 202.286 313.618 201.611 313.618C201.048 313.618 200.485 314.068 200.485 314.743V316.657C200.485 316.657 200.485 316.77 200.372 316.77H200.26V314.856C200.26 314.293 199.809 313.73 199.134 313.73C198.571 313.73 198.008 314.18 198.008 314.856V316.77C198.008 316.882 198.008 316.882 197.896 316.882C197.783 316.882 197.783 316.77 197.783 316.77V314.856V314.743V313.505C197.783 313.392 197.896 313.392 197.896 313.392C198.008 313.392 198.121 313.505 198.121 313.505V313.843C198.346 313.505 198.796 313.28 199.247 313.28C199.809 313.28 200.26 313.618 200.485 314.068C200.71 313.618 201.273 313.28 201.723 313.28C202.511 313.28 203.187 313.955 203.187 314.743V316.657C203.187 316.77 203.074 316.77 202.961 316.77C202.849 316.77 202.849 316.657 202.849 316.657V314.743H202.736Z" fill="#C7C7C7"/>
<path d="M207.577 313.393V316.657C207.577 316.77 207.465 316.882 207.352 316.882C207.24 316.882 207.127 316.77 207.127 316.657V316.094C206.789 316.544 206.339 316.77 205.776 316.77C204.876 316.77 204.088 315.982 204.088 314.968C204.088 313.955 204.876 313.167 205.776 313.167C206.339 313.167 206.789 313.392 207.127 313.843V313.28C207.127 313.167 207.24 313.055 207.352 313.055C207.577 313.28 207.577 313.28 207.577 313.393ZM207.24 315.081C207.24 314.293 206.677 313.618 205.889 313.618C205.213 313.618 204.538 314.293 204.538 315.081C204.538 315.869 205.101 316.544 205.889 316.544C206.677 316.432 207.24 315.869 207.24 315.081Z" fill="#C7C7C7"/>
<path d="M209.153 312.267C209.153 312.154 209.266 312.042 209.379 312.042C209.491 312.042 209.604 312.154 209.604 312.267V312.379C209.604 312.492 209.491 312.605 209.379 312.605C209.266 312.605 209.153 312.492 209.153 312.379V312.267ZM209.153 313.393C209.153 313.28 209.266 313.167 209.379 313.167C209.491 313.167 209.604 313.28 209.604 313.393V316.657C209.604 316.77 209.491 316.882 209.379 316.882C209.266 316.882 209.153 316.77 209.153 316.657V313.393Z" fill="#C7C7C7"/>
<path d="M211.067 311.929C211.067 311.817 211.18 311.704 211.292 311.704C211.405 311.704 211.518 311.817 211.518 311.929V316.657C211.518 316.77 211.405 316.882 211.292 316.882C211.18 316.882 211.067 316.77 211.067 316.657V311.929Z" fill="#C7C7C7"/>
<path d="M216.245 316.77C216.245 316.77 216.133 316.77 216.245 316.77L214.782 313.505C214.782 313.392 214.782 313.28 214.894 313.28C215.007 313.28 215.12 313.28 215.12 313.392L216.358 316.207L217.146 314.293C217.146 314.18 217.258 314.18 217.258 314.18C217.371 314.18 217.371 314.18 217.484 314.293L218.271 316.207L219.51 313.392C219.51 313.28 219.622 313.28 219.735 313.28C219.847 313.28 219.847 313.392 219.847 313.505L218.497 316.657C218.497 316.657 218.497 316.77 218.384 316.77H218.271C218.159 316.77 218.159 316.77 218.159 316.657L217.371 314.631L216.583 316.657C216.47 316.77 216.358 316.882 216.245 316.77C216.245 316.882 216.358 316.882 216.245 316.77Z" fill="#C7C7C7"/>
<path d="M220.86 312.267C220.86 312.154 220.972 312.042 221.085 312.042C221.198 312.042 221.31 312.154 221.31 312.267V312.379C221.31 312.492 221.198 312.605 221.085 312.605C220.972 312.605 220.86 312.492 220.86 312.379V312.267ZM220.86 313.393C220.86 313.28 220.972 313.167 221.085 313.167C221.198 313.167 221.31 313.28 221.31 313.393V316.657C221.31 316.77 221.198 316.882 221.085 316.882C220.972 316.882 220.86 316.77 220.86 316.657V313.393Z" fill="#C7C7C7"/>
<path d="M224.125 313.392C224.125 313.505 224.013 313.618 223.9 313.618H223.45V316.207C223.45 316.432 223.675 316.432 223.675 316.432C223.788 316.432 223.9 316.544 223.9 316.657C223.9 316.769 223.788 316.882 223.675 316.882C223.337 316.882 223 316.657 223 316.207V313.618H222.549C222.324 313.618 222.324 313.505 222.324 313.392C222.324 313.28 222.324 313.167 222.549 313.167H223V311.816C223 311.704 223.112 311.591 223.225 311.591C223.337 311.591 223.45 311.704 223.45 311.816V313.167H223.9C224.125 313.28 224.125 313.392 224.125 313.392Z" fill="#C7C7C7"/>
<path d="M228.29 314.631C228.29 313.955 227.727 313.618 227.164 313.618C226.489 313.618 226.039 314.068 226.039 314.631V316.657L225.926 316.77C225.926 316.77 225.813 316.77 225.813 316.657C225.813 316.657 225.813 316.657 225.813 316.544C225.813 316.544 225.813 316.544 225.813 316.432V314.406V314.293V311.591C225.813 311.479 225.926 311.366 226.039 311.366C226.151 311.366 226.264 311.479 226.264 311.591V313.505C226.489 313.167 226.939 312.942 227.389 312.942C228.177 312.942 228.853 313.505 228.853 314.406V316.432C228.853 316.544 228.74 316.657 228.628 316.657C228.515 316.657 228.403 316.544 228.403 316.432V314.631H228.29Z" fill="#C7C7C7"/>
<path d="M233.919 313.28C234.819 313.28 235.607 314.068 235.607 315.081C235.607 316.094 234.819 316.882 233.919 316.882C233.018 316.882 232.23 316.094 232.23 315.081C232.23 314.068 232.905 313.28 233.919 313.28ZM233.919 316.432C234.594 316.432 235.269 315.756 235.269 314.968C235.269 314.18 234.707 313.505 233.919 313.505C233.131 313.505 232.568 314.18 232.568 314.968C232.568 315.869 233.131 316.432 233.919 316.432Z" fill="#C7C7C7"/>
<path d="M236.733 313.393C236.733 313.28 236.845 313.167 236.958 313.167C237.071 313.167 237.071 313.28 237.071 313.393V314.181V314.068C237.296 313.618 237.859 313.167 238.534 313.167C238.647 313.167 238.759 313.28 238.759 313.393C238.759 313.505 238.647 313.618 238.534 313.618C238.084 313.618 237.746 313.843 237.521 314.181C237.296 314.518 237.183 314.856 237.071 314.969C237.071 314.969 237.071 314.969 237.071 315.081V316.657C237.071 316.77 236.958 316.882 236.958 316.882C236.845 316.882 236.733 316.77 236.733 316.657V313.393Z" fill="#C7C7C7"/>
<path d="M242.699 316.094C242.361 316.544 241.911 316.77 241.348 316.77C240.335 316.77 239.659 315.982 239.659 314.968C239.659 313.955 240.447 313.167 241.348 313.167C241.911 313.167 242.361 313.392 242.699 313.843V311.816C242.699 311.704 242.811 311.591 242.924 311.591C243.036 311.591 243.149 311.704 243.149 311.816V314.856V314.968V316.544C243.149 316.657 243.036 316.77 242.924 316.77C242.811 316.77 242.699 316.657 242.699 316.544V316.094ZM242.699 315.081V314.968C242.699 314.18 242.023 313.618 241.348 313.618C240.56 313.618 239.997 314.293 239.997 315.081C239.997 315.869 240.672 316.544 241.348 316.544C242.023 316.432 242.586 315.869 242.699 315.081Z" fill="#C7C7C7"/>
<path d="M244.275 315.081C244.275 314.068 245.063 313.28 245.964 313.28C246.864 313.28 247.652 313.955 247.652 314.968C247.652 315.081 247.54 315.081 247.427 315.081H244.5C244.5 315.869 245.176 316.432 245.851 316.432C246.301 316.432 246.752 316.207 246.977 315.756C246.977 315.644 247.089 315.644 247.202 315.644C247.315 315.756 247.315 315.756 247.315 315.869C246.977 316.319 246.527 316.657 245.851 316.657C245.063 316.882 244.275 315.982 244.275 315.081ZM244.613 314.743H247.315C247.202 314.068 246.639 313.618 245.964 313.618C245.288 313.618 244.725 314.068 244.613 314.743Z" fill="#C7C7C7"/>
<path d="M248.778 313.393C248.778 313.28 248.891 313.167 249.003 313.167C249.116 313.167 249.116 313.28 249.116 313.393V314.181V314.068C249.341 313.618 249.904 313.167 250.579 313.167C250.692 313.167 250.804 313.28 250.804 313.393C250.804 313.505 250.692 313.618 250.579 313.618C250.129 313.618 249.791 313.843 249.566 314.181C249.341 314.518 249.228 314.856 249.116 314.969C249.116 314.969 249.116 314.969 249.116 315.081V316.657C249.116 316.77 249.003 316.882 249.003 316.882C248.891 316.882 248.778 316.77 248.778 316.657V313.393Z" fill="#C7C7C7"/>
<path d="M257.107 316.094C256.77 316.544 256.319 316.77 255.756 316.77C254.743 316.77 254.068 315.982 254.068 314.968C254.068 313.955 254.856 313.167 255.756 313.167C256.319 313.167 256.77 313.392 257.107 313.843V311.816C257.107 311.704 257.22 311.591 257.332 311.591C257.445 311.591 257.557 311.704 257.557 311.816V314.856V314.968V316.544C257.557 316.657 257.445 316.77 257.332 316.77C257.22 316.77 257.107 316.657 257.107 316.544V316.094ZM257.107 315.081V314.968C257.107 314.18 256.432 313.618 255.756 313.618C254.968 313.618 254.406 314.293 254.406 315.081C254.406 315.869 255.081 316.544 255.756 316.544C256.432 316.432 256.995 315.869 257.107 315.081Z" fill="#C7C7C7"/>
<path d="M258.684 315.081C258.684 314.068 259.472 313.28 260.372 313.28C261.273 313.28 262.061 313.955 262.061 314.968C262.061 315.081 261.948 315.081 261.836 315.081H259.022C259.022 315.869 259.697 316.432 260.372 316.432C260.823 316.432 261.273 316.207 261.498 315.756C261.498 315.644 261.611 315.644 261.723 315.644C261.836 315.756 261.836 315.756 261.836 315.869C261.498 316.319 261.048 316.657 260.372 316.657C259.472 316.882 258.684 315.982 258.684 315.081ZM259.022 314.743H261.723C261.611 314.068 261.048 313.618 260.372 313.618C259.697 313.618 259.134 314.068 259.022 314.743Z" fill="#C7C7C7"/>
<path d="M264.312 313.392C264.312 313.505 264.199 313.618 264.087 313.618H263.636V316.207C263.636 316.432 263.861 316.432 263.861 316.432C263.974 316.432 264.087 316.544 264.087 316.657C264.087 316.769 263.974 316.882 263.861 316.882C263.524 316.882 263.186 316.657 263.186 316.207V313.618H262.736C262.511 313.618 262.511 313.505 262.511 313.392C262.511 313.28 262.511 313.167 262.736 313.167H263.186V311.816C263.186 311.704 263.299 311.591 263.411 311.591C263.524 311.591 263.636 311.704 263.636 311.816V313.167H264.087C264.199 313.28 264.312 313.392 264.312 313.392Z" fill="#C7C7C7"/>
<path d="M268.702 313.393V316.657C268.702 316.77 268.59 316.882 268.477 316.882C268.365 316.882 268.252 316.77 268.252 316.657V316.094C267.914 316.544 267.464 316.77 266.901 316.77C266.001 316.77 265.213 315.982 265.213 314.968C265.213 313.955 266.001 313.167 266.901 313.167C267.464 313.167 267.914 313.392 268.252 313.843V313.28C268.252 313.167 268.365 313.055 268.477 313.055C268.702 313.28 268.702 313.28 268.702 313.393ZM268.365 315.081C268.365 314.293 267.802 313.618 267.014 313.618C266.338 313.618 265.663 314.293 265.663 315.081C265.663 315.869 266.226 316.544 267.014 316.544C267.802 316.432 268.365 315.869 268.365 315.081Z" fill="#C7C7C7"/>
<path d="M270.278 312.267C270.278 312.154 270.391 312.042 270.503 312.042C270.616 312.042 270.729 312.154 270.729 312.267V312.379C270.729 312.492 270.616 312.605 270.503 312.605C270.391 312.605 270.278 312.492 270.278 312.379V312.267ZM270.278 313.393C270.278 313.28 270.391 313.167 270.503 313.167C270.616 313.167 270.729 313.28 270.729 313.393V316.657C270.729 316.77 270.616 316.882 270.503 316.882C270.391 316.882 270.278 316.77 270.278 316.657V313.393Z" fill="#C7C7C7"/>
<path d="M272.192 311.929C272.192 311.817 272.305 311.704 272.417 311.704C272.53 311.704 272.642 311.817 272.642 311.929V316.657C272.642 316.77 272.53 316.882 272.417 316.882C272.305 316.882 272.192 316.77 272.192 316.657V311.929Z" fill="#C7C7C7"/>
<path d="M273.768 316.094C273.88 315.982 273.88 315.982 273.993 316.094C274.218 316.319 274.668 316.545 275.119 316.545C275.344 316.545 275.682 316.432 275.794 316.319C276.019 316.207 276.019 316.094 276.019 315.869C276.019 315.757 275.907 315.531 275.794 315.419C275.682 315.306 275.344 315.194 275.006 315.194C274.668 315.081 274.443 315.081 274.218 314.969C273.993 314.856 273.88 314.631 273.88 314.293C273.88 313.955 273.993 313.73 274.218 313.618C274.443 313.505 274.781 313.393 275.119 313.393C275.569 313.393 275.907 313.618 276.132 313.73C276.244 313.843 276.244 313.843 276.132 313.955C276.132 314.068 276.019 314.068 275.907 313.955C275.682 313.73 275.344 313.618 275.006 313.618C274.668 313.618 274.443 313.73 274.331 313.843C274.218 313.955 274.106 314.068 274.106 314.293C274.106 314.406 274.218 314.518 274.331 314.631C274.443 314.743 274.781 314.856 275.006 314.856C275.344 314.856 275.682 314.969 275.907 315.194C276.132 315.306 276.357 315.644 276.357 315.869C276.357 316.207 276.244 316.432 275.907 316.545C275.682 316.77 275.344 316.882 275.006 316.882C274.443 316.882 273.993 316.657 273.655 316.319C273.655 316.207 273.655 316.207 273.768 316.094Z" fill="#C7C7C7"/>
<path d="M277.821 316.094C278.046 316.094 278.159 316.207 278.159 316.432C278.159 316.657 278.046 316.77 277.821 316.77C277.596 316.77 277.483 316.657 277.483 316.432C277.483 316.319 277.708 316.094 277.821 316.094Z" fill="#C7C7C7"/>
<path d="M358.646 393.655L355.944 409.752L337.821 507.462H334.894L348.065 409.752L349.978 393.655H358.646Z" fill="#DBDBDB"/>
<path d="M349.979 393.655H358.647L355.945 409.752H348.065L349.979 393.655Z" fill="#A6A6A6"/>
<path d="M415.382 507.462H412.455L394.444 409.752L391.742 393.655H400.297L402.211 409.752L415.382 507.462Z" fill="#999999"/>
<path d="M400.298 393.655L402.211 409.752H394.444L391.742 393.655H400.298Z" fill="#A6A6A6"/>
<path d="M469.754 507.462H466.827L448.703 409.752L446.002 393.655H454.557L456.583 409.752L469.754 507.462Z" fill="#999999"/>
<path d="M456.583 409.752H448.703L446.001 393.655H454.556L456.583 409.752Z" fill="#A6A6A6"/>
<path d="M465.138 401.197H332.419V387.238H382.062L398.835 314.518H460.073L465.138 401.197Z" fill="#999999"/>
<path d="M465.138 401.197H457.821L453.093 314.518H460.073L465.138 401.197Z" fill="#A6A6A6"/>
<path d="M319.472 517.705C321.949 518.606 395.457 518.606 398.271 516.805C398.608 516.58 398.608 507.687 398.834 500.82C399.171 490.464 385.213 444.085 385.213 444.085L339.622 446.336L352.23 493.053C352.23 493.053 341.761 497.668 333.093 501.833C327.802 504.31 323.074 506.674 322.061 507.462C319.135 509.6 316.883 516.805 319.472 517.705Z" fill="#F7A9A0"/>
<path d="M319.473 517.705C321.949 518.606 395.457 518.606 398.271 516.805C398.609 516.58 398.722 509.938 398.834 500.82C380.598 504.535 332.081 510.388 330.73 506.561C330.167 504.985 331.405 503.296 333.094 501.72C327.803 504.197 323.075 506.561 322.062 507.349C319.135 509.6 316.884 516.805 319.473 517.705Z" fill="#263238"/>
<path d="M428.327 371.703C419.321 380.709 380.71 399.17 377.783 405.587C375.194 411.328 393.092 472.79 393.092 472.79L348.965 481.233C348.965 481.233 322.512 409.301 329.153 387.125C335.457 366.525 405.925 326.225 405.925 326.225H434.293C434.293 326.225 446.113 354.03 428.327 371.703Z" fill="#F7A9A0"/>
<path opacity="0.1" d="M338.721 373.729C354.931 379.583 377.22 389.039 393.205 394.104C405.925 386.337 422.811 377.219 428.439 371.703C446.225 354.03 434.405 326.225 434.405 326.225H406.038C406.038 326.225 359.547 352.679 338.721 373.729Z" fill="black"/>
<path d="M230.994 504.873C233.583 505.436 306.415 495.529 308.891 493.503C309.229 493.278 308.441 486.636 307.315 477.631L320.261 422.585L272.306 428.438L257.222 475.717C257.222 475.717 250.468 482.134 242.476 487.312C237.523 490.464 233.245 493.391 232.232 494.404C229.643 496.88 228.404 504.31 230.994 504.873Z" fill="#F7A9A0"/>
<path d="M230.993 504.873C233.582 505.436 306.414 495.529 308.891 493.503C309.229 493.278 308.441 486.637 307.315 477.631C289.754 483.822 242.475 496.092 240.561 492.49C239.773 491.027 240.786 489.226 242.25 487.425C237.297 490.576 233.019 493.503 232.006 494.516C229.642 496.88 228.404 504.31 230.993 504.873Z" fill="#263238"/>
<path d="M262.175 459.845L309.566 468.175L329.153 408.288C328.591 387.913 331.517 380.484 343.112 376.881C362.699 370.803 410.428 393.204 432.154 378.232C449.715 366.075 435.756 326.225 435.756 326.225H384.988C384.988 326.225 378.909 333.655 377.671 338.045C377.671 338.045 314.745 333.205 300.673 351.103C281.537 374.968 262.175 459.845 262.175 459.845Z" fill="#F7A9A0"/>
<path d="M365.852 377.219C360.899 376.206 355.833 375.643 350.655 375.643C348.066 375.643 345.477 375.868 343 376.431C341.762 376.656 340.524 377.106 339.285 377.669C338.047 378.232 336.921 378.795 335.908 379.583C334.783 380.371 333.882 381.272 332.981 382.285C332.193 383.298 331.518 384.423 330.955 385.662C329.942 388.026 329.379 390.615 329.042 393.204C328.479 398.269 328.591 403.448 328.929 408.513C328.929 405.924 329.042 403.448 329.154 400.859C329.267 398.382 329.492 395.793 329.829 393.316C330.28 390.84 330.73 388.363 331.743 386.112C332.756 383.861 334.332 381.947 336.359 380.596C337.372 379.921 338.497 379.245 339.623 378.795C340.749 378.232 341.874 377.894 343.113 377.669C345.589 377.106 348.066 376.881 350.542 376.769C353.019 376.656 355.608 376.656 358.084 376.881C360.899 376.656 363.375 376.994 365.852 377.219Z" fill="#263238"/>
<path d="M435.531 326.113C435.531 326.113 449.377 362.248 435.531 375.531C421.685 388.814 405.475 386.562 366.751 378.232C366.751 378.232 346.939 353.129 335.232 348.064C323.525 342.998 312.718 342.548 312.718 342.548C312.718 342.548 335.232 335.231 377.22 336.807C377.22 336.807 380.372 330.165 384.762 326.113H435.531V326.113Z" fill="#263238"/>
<path d="M386.452 299.546C389.379 301.798 392.193 303.486 394.895 304.837C390.28 297.07 390.955 279.621 391.518 282.098C394.219 294.03 401.649 307.088 404.576 307.764C412.231 308.777 419.21 306.638 425.063 303.486C419.097 294.706 419.435 276.92 419.773 278.046C424.163 289.64 433.056 296.394 434.632 296.394C440.373 290.878 443.412 285.363 442.624 284.8C436.658 280.747 431.592 270.278 426.977 259.246C422.474 248.327 420.11 237.971 413.807 228.177C407.953 219.284 396.358 217.596 389.717 222.099C372.381 234.031 382.737 296.619 386.452 299.546Z" fill="#263238"/>
<path d="M404.463 222.549C409.304 223.675 413.244 228.065 415.72 232.117C419.097 237.521 421.236 243.599 424.05 249.34C429.454 260.597 436.32 271.066 444.988 280.072C445.213 280.297 444.876 280.522 444.65 280.41C435.307 273.43 428.891 263.299 423.712 252.943C421.011 247.652 418.985 242.136 416.395 236.733C415.045 233.806 413.356 230.992 411.33 228.515C409.304 226.151 406.94 224.688 404.125 223.337C403.788 223.112 404.013 222.436 404.463 222.549Z" fill="#263238"/>
<path d="M339.735 241.348L352.005 271.404C352.456 272.305 352.118 273.093 351.217 273.206L335.12 275.457C334.219 275.57 333.094 275.007 332.644 274.106L320.373 244.05C319.923 243.15 320.261 242.362 321.161 242.249L337.259 239.998C338.159 239.885 339.285 240.448 339.735 241.348Z" fill="#37474F"/>
<path d="M337.821 241.574L350.092 271.63C350.542 272.53 350.204 273.318 349.304 273.431L333.206 275.682C332.306 275.795 331.18 275.232 330.73 274.331L318.46 244.275C318.009 243.375 318.347 242.587 319.248 242.474L335.345 240.223C336.246 240.11 337.371 240.673 337.821 241.574Z" fill="#455A64"/>
<path d="M333.656 243.6C333.769 244.388 334.444 244.838 335.232 244.726C336.02 244.613 336.471 243.938 336.358 243.15C336.245 242.362 335.57 241.911 334.782 242.024C333.994 242.137 333.544 242.925 333.656 243.6Z" fill="#263238"/>
<path d="M398.159 281.198C391.968 301.911 375.308 330.053 366.865 331.404C362.813 332.079 355.833 334.105 349.867 330.278C336.922 321.948 324.426 304.162 320.824 293.355C319.586 289.528 337.372 278.159 340.636 280.973C348.291 287.502 358.197 301.01 359.323 300.672C363.6 299.659 378.347 283.112 388.703 271.404C401.199 257.446 400.636 272.98 398.159 281.198Z" fill="#F7A9A0"/>
<path d="M317.335 273.206C318.123 264.988 319.699 262.962 316.659 255.645C314.746 250.804 316.885 247.54 321.05 251.03C327.804 256.771 329.042 267.577 328.367 271.517L317.335 273.206Z" fill="#F7A9A0"/>
<path d="M322.287 296.733C322.287 296.733 317.109 286.151 317.109 277.258C317.109 271.067 318.573 257.784 334.445 248.441C338.16 246.189 345.139 245.739 340.298 251.592C336.921 255.758 333.432 257.334 331.856 260.148C331.856 260.148 340.749 260.598 342.775 264.425C343.676 266.114 346.152 270.842 347.503 274.894C347.503 274.894 346.715 275.457 345.589 275.907C345.589 275.907 347.39 279.622 345.364 285.476L322.287 296.733Z" fill="#F7A9A0"/>
<path d="M318.01 271.405C320.149 268.928 324.764 263.975 329.943 261.048C335.684 257.896 347.616 253.394 349.98 257.671C351.668 260.823 347.278 262.962 347.278 262.962C347.278 262.962 352.569 262.174 353.47 265.326C354.258 268.253 350.768 269.604 350.768 269.604C350.768 269.604 354.145 269.604 354.37 272.643C354.708 276.133 347.616 275.457 344.914 279.285C344.126 280.073 318.01 271.405 318.01 271.405Z" fill="#F7A9A0"/>
<path d="M332.194 267.69C334.558 265.776 341.087 262.737 347.053 262.849C347.165 262.849 347.278 262.962 347.165 262.962C340.524 264.2 334.67 266.564 332.194 267.69C332.194 267.69 332.194 267.803 332.194 267.69Z" fill="#263238"/>
<path d="M335.571 273.431C337.822 271.968 344.689 269.153 350.655 269.491C350.768 269.491 350.88 269.604 350.768 269.604C343.789 270.617 338.16 272.53 335.571 273.431C335.571 273.431 335.571 273.543 335.571 273.431Z" fill="#263238"/>
<path d="M321.838 301.573C321.838 301.573 342.1 330.053 351.669 332.304C361.237 334.556 366.64 332.867 369.905 331.854C370.918 331.516 372.044 330.728 373.169 329.603C381.387 321.723 394.22 296.17 398.948 282.099C402.437 271.63 400.636 262.849 393.432 266.789C391.631 267.802 389.604 269.603 387.128 272.305C374.97 286.038 360.449 299.547 359.661 299.322C358.873 299.097 348.967 287.614 348.967 287.614L321.838 301.573Z" fill="#FE9868"/>
<path d="M326.565 306.526C327.466 305.85 336.696 300.56 338.723 299.434C340.749 298.308 348.966 293.693 351.218 292.792C351.33 292.792 351.443 292.905 351.33 292.905C349.417 294.256 341.087 298.871 339.06 300.109C337.034 301.235 327.803 306.301 326.678 306.751C326.565 306.751 326.565 306.638 326.565 306.526Z" fill="#263238"/>
<path opacity="0.1" d="M344.914 328.139C347.503 330.278 349.754 331.742 351.781 332.192C361.349 334.443 366.752 332.755 370.017 331.742C371.03 331.404 372.156 330.616 373.281 329.49C381.499 321.61 394.332 296.057 399.06 281.986C402.212 272.418 400.973 264.425 395.458 265.889C382.737 281.536 358.535 311.367 344.914 328.139Z" fill="black"/>
<path d="M380.823 311.366L378.684 332.529L441.948 333.768C441.948 333.768 427.314 280.41 415.832 268.59C408.064 260.598 399.284 261.498 393.768 267.352C392.417 268.815 377.896 286.489 376.32 295.156C375.082 302.811 380.823 311.366 380.823 311.366Z" fill="#FE9868"/>
<path d="M388.253 308.89C391.067 309.115 393.881 309.34 396.583 310.015C397.934 310.353 399.285 310.691 400.636 311.028C401.311 311.254 401.986 311.366 402.662 311.591C403.337 311.816 404.125 311.929 404.801 311.929C404.913 311.929 404.913 312.042 404.801 312.042C404.125 312.042 403.45 312.154 402.774 312.042C402.099 312.042 401.424 311.816 400.861 311.704C399.51 311.366 398.159 311.028 396.696 310.691C393.881 310.015 391.18 309.453 388.366 309.002C388.14 309.115 388.14 308.89 388.253 308.89Z" fill="#263238"/>
<path d="M383.412 311.253C385.213 310.916 387.014 310.803 388.928 310.803C389.829 310.803 390.729 310.803 391.63 310.916C392.08 310.916 392.53 311.028 392.98 311.028C393.431 311.141 393.881 311.253 394.444 311.253V311.366C393.994 311.366 393.543 311.366 393.093 311.366C392.643 311.366 392.192 311.366 391.742 311.366C390.842 311.366 389.941 311.366 389.041 311.366C387.239 311.366 385.438 311.366 383.525 311.366C383.3 311.479 383.3 311.253 383.412 311.253Z" fill="#263238"/>
<path d="M414.031 265.776C436.432 277.145 461.985 302.698 460.522 311.254C458.833 320.709 426.751 304.724 427.089 303.261C427.314 302.023 420.672 291.892 410.991 277.258C401.198 262.398 408.515 262.961 414.031 265.776Z" fill="#FE9868"/>
<path d="M460.522 311.254C458.608 317.895 448.702 322.285 424.838 335.794C421.573 337.707 402.099 317.895 405.476 315.756C409.753 313.055 427.089 303.261 428.44 302.698C439.922 298.196 461.873 306.751 460.522 311.254Z" fill="#D3766A"/>
<path d="M410.203 312.942C410.203 312.942 399.959 318.233 395.456 322.623C389.378 328.589 386.564 336.131 385.55 339.396C383.524 346.15 383.186 364.049 388.365 365.062C392.98 365.962 392.305 347.613 392.305 347.613C392.305 347.613 389.941 366.413 395.682 366.413C401.423 366.413 399.509 345.25 399.509 345.25C399.509 345.25 397.483 364.611 403.449 363.711C407.952 363.035 407.276 343.786 407.276 343.786C407.276 343.786 405.588 360.446 410.316 359.884C415.494 359.321 415.944 341.422 415.944 341.422C427.651 338.158 431.816 331.741 434.293 326.901C434.968 325.775 410.203 312.942 410.203 312.942Z" fill="#F7A9A0"/>
<path d="M392.867 341.084C392.529 343.223 392.079 345.475 391.967 347.726C391.854 349.977 391.741 352.116 391.741 354.368C391.854 359.771 392.755 363.261 392.755 363.035C391.967 357.97 392.417 349.977 392.642 347.726C392.642 345.587 392.755 343.336 392.867 341.084Z" fill="#263238"/>
<path d="M400.86 341.535C400.523 344.349 400.072 347.163 399.847 349.977C399.622 352.791 399.622 355.493 399.622 358.307C399.622 358.532 399.735 358.42 399.735 358.195C399.847 355.381 400.185 352.791 400.41 349.977C400.635 347.163 400.635 344.349 400.86 341.535Z" fill="#263238"/>
<path d="M407.839 340.747C407.051 345.024 407.164 349.414 407.276 353.805C407.276 354.03 407.389 353.917 407.389 353.692C407.501 349.302 407.501 345.925 407.952 340.859C407.952 340.634 407.839 340.634 407.839 340.747Z" fill="#263238"/>
<path d="M405.138 313.505C405.138 313.505 432.604 334.443 432.83 334.33C433.167 334.218 460.071 318.345 460.522 311.253C460.972 304.162 438.683 298.871 428.552 302.698C418.421 306.638 405.138 313.505 405.138 313.505Z" fill="#FE9868"/>
<path d="M414.481 310.465C415.607 311.141 424.162 318.12 426.076 319.696C427.877 321.272 435.531 327.576 437.333 329.264C437.445 329.377 437.333 329.49 437.22 329.377C435.194 328.026 427.426 321.61 425.513 320.146C423.599 318.57 415.156 311.478 414.368 310.578C414.256 310.465 414.368 310.465 414.481 310.465Z" fill="#263238"/>
<path d="M440.709 301.685C438.345 301.348 431.929 300.785 426.638 303.374C426.526 303.374 426.638 303.486 426.638 303.486C431.141 301.91 438.345 301.573 440.709 301.685C440.822 301.685 440.709 301.798 440.709 301.685Z" fill="#263238"/>
<path d="M406.825 314.743L405.137 313.392V313.505L410.54 310.803C412.341 309.903 414.142 309.002 416.056 308.214C419.658 306.526 423.373 304.837 427.2 303.374L427.651 303.149L427.425 302.698C425.287 298.871 423.148 295.156 420.896 291.441C418.532 287.727 416.168 284.237 413.467 280.747C415.831 284.35 418.195 288.064 420.334 291.779C422.472 295.494 424.724 299.209 426.75 303.036L426.975 302.473C423.26 304.049 419.546 305.738 415.943 307.539C414.142 308.439 412.341 309.452 410.54 310.353C408.739 311.254 407.05 312.267 405.249 313.392L405.137 313.505L405.249 313.618L406.825 314.743Z" fill="#263238"/>
<path d="M418.87 288.965C418.195 288.064 417.52 287.276 416.732 286.488C415.944 285.7 415.156 285.025 414.255 284.462C414.818 285.363 415.606 286.151 416.281 286.939C416.619 287.276 417.069 287.727 417.52 288.064C417.97 288.402 418.42 288.74 418.87 288.965Z" fill="#263238"/>
<path d="M440.822 329.377C439.696 329.827 438.57 330.503 437.557 331.178C436.544 331.854 435.531 332.529 434.518 333.43C435.643 332.979 436.769 332.304 437.782 331.741C438.795 330.953 439.921 330.165 440.822 329.377Z" fill="#263238"/>
<path d="M406.376 265.55C406.039 267.239 402.099 274.781 397.033 274.556C394.444 274.443 394.332 265.325 394.332 265.325L394.219 264.65L392.418 255.194L405.251 247.652C405.251 247.652 406.376 265.1 406.376 265.55Z" fill="#FFBBB4"/>
<path d="M405.701 254.181C402.662 261.048 396.921 263.749 394.219 264.65L392.418 255.194L405.251 247.652C405.251 247.652 405.476 250.691 405.701 254.181Z" fill="#263238"/>
<path d="M379.246 240.785C377.783 257.558 387.689 260.372 391.291 260.597C394.555 260.935 405.812 261.385 408.964 244.95C412.116 228.403 404.799 222.436 397.37 221.423C389.828 220.41 380.709 224.012 379.246 240.785Z" fill="#F7A9A0"/>
<path d="M382.06 237.07C382.511 237.07 382.848 236.958 383.186 236.845C383.636 236.732 383.974 236.732 384.312 236.395C384.537 236.17 384.537 235.832 384.312 235.719C383.974 235.269 383.411 235.269 382.848 235.382C382.286 235.494 381.835 235.719 381.498 236.057C381.16 236.395 381.498 237.07 382.06 237.07Z" fill="#263238"/>
<path d="M392.867 237.408C392.529 237.295 392.079 237.183 391.741 237.183C391.291 237.07 390.953 237.07 390.616 236.732C390.503 236.507 390.503 236.17 390.616 236.057C390.953 235.607 391.516 235.607 392.079 235.719C392.642 235.832 393.092 236.057 393.43 236.507C393.768 236.845 393.317 237.52 392.867 237.408Z" fill="#263238"/>
<path d="M390.503 241.573C390.503 241.573 390.503 241.686 390.503 241.573C390.503 242.811 390.616 244.162 391.629 244.612V244.725C390.278 244.387 390.165 242.699 390.503 241.573Z" fill="#263238"/>
<path d="M391.517 240.447C393.318 240.447 393.318 244.049 391.629 244.162C389.941 244.162 390.053 240.447 391.517 240.447Z" fill="#263238"/>
<path d="M392.305 240.672C392.643 240.897 392.98 241.235 393.318 241.348C393.768 241.348 394.106 241.01 394.444 240.672H394.556C394.556 241.348 394.331 242.136 393.543 242.248C392.868 242.361 392.305 241.685 392.192 241.01C392.08 240.785 392.192 240.56 392.305 240.672Z" fill="#263238"/>
<path d="M384.199 241.348C384.199 241.236 384.087 241.348 384.199 241.348C384.087 242.586 383.974 243.937 382.961 244.275V244.388C384.199 244.162 384.424 242.361 384.199 241.348Z" fill="#263238"/>
<path d="M383.186 240.11C381.385 239.997 381.159 243.599 382.848 243.825C384.537 243.937 384.649 240.222 383.186 240.11Z" fill="#263238"/>
<path d="M382.398 240.335C382.06 240.56 381.835 240.898 381.497 240.898C381.047 240.898 380.822 240.447 380.597 240.11C380.597 240.11 380.597 240.11 380.484 240.11C380.484 240.785 380.597 241.573 381.272 241.686C381.835 241.798 382.398 241.235 382.623 240.56C382.623 240.447 382.51 240.222 382.398 240.335Z" fill="#263238"/>
<path d="M390.842 250.579C390.616 250.916 390.391 251.367 390.054 251.479C389.716 251.592 389.153 251.479 388.815 251.479C388.815 251.479 388.703 251.479 388.815 251.592C389.153 251.929 389.828 252.042 390.391 251.929C390.842 251.704 391.067 251.254 391.067 250.804C390.954 250.579 390.842 250.579 390.842 250.579Z" fill="#263238"/>
<path d="M385.664 246.413C385.664 246.413 385.438 248.102 385.326 248.89C385.326 249.003 387.802 249.565 389.603 247.652C389.716 247.539 389.603 247.539 389.491 247.539C388.365 248.327 387.24 248.44 386.001 248.44C386.001 248.215 386.564 245.513 386.452 245.513C386.001 245.513 385.101 245.738 384.65 245.851C385.101 242.248 386.226 238.871 386.564 235.269C386.564 235.156 386.339 235.044 386.339 235.156C384.988 238.759 384.313 242.811 383.75 246.526C383.637 247.089 385.326 246.526 385.664 246.413Z" fill="#263238"/>
<path d="M386.452 248.89C386.452 248.89 387.127 249.791 388.14 250.241C388.478 250.353 388.928 250.466 389.266 250.353C390.054 250.128 390.166 249.34 389.941 248.778C389.829 248.215 389.604 247.764 389.604 247.764C389.604 247.764 388.478 248.778 386.452 248.89Z" fill="#263238"/>
<path d="M388.14 250.241C388.478 250.353 388.928 250.466 389.266 250.353C390.054 250.128 390.166 249.34 389.941 248.777C389.153 248.777 388.253 249.34 388.14 250.241Z" fill="#FF9BBC"/>
<path d="M407.95 244.5C404.798 244.95 403.898 237.745 403.898 237.745C403.898 237.745 390.502 235.719 389.151 224.8C389.151 224.8 387.012 231.779 380.033 235.044C380.033 235.044 380.258 223.111 389.714 220.635C389.714 220.635 401.421 216.132 408.175 225.363C414.929 234.594 410.089 244.162 407.95 244.5Z" fill="#263238"/>
<path d="M389.152 224.012C389.039 225.701 389.264 227.389 389.827 228.965C390.39 230.541 391.291 232.117 392.416 233.355C392.641 233.693 392.979 233.918 393.317 234.256L393.767 234.706C393.88 234.819 394.105 234.931 394.33 235.044C394.668 235.269 395.005 235.494 395.343 235.719C395.681 235.945 396.131 236.17 396.469 236.282C396.694 236.395 396.806 236.507 397.032 236.507L397.594 236.733L398.833 237.183C399.621 237.408 400.521 237.521 401.309 237.746C400.521 237.408 399.733 237.183 398.945 236.845L397.82 236.282L397.257 236.057C397.032 235.945 396.919 235.832 396.694 235.719C396.356 235.494 396.018 235.269 395.681 235.044C395.343 234.819 395.005 234.594 394.668 234.369L394.217 234.031L393.767 233.581C393.429 233.243 393.204 233.018 392.866 232.68C391.741 231.554 390.953 230.091 390.277 228.628C389.94 227.84 389.715 227.052 389.489 226.264C389.264 225.701 389.152 224.913 389.152 224.012Z" fill="#263238"/>
<path d="M405.925 243.937C405.925 243.937 409.64 238.646 412.004 239.997C414.368 241.348 411.666 248.89 408.852 250.016C406.038 251.029 405.025 248.44 405.025 248.44L405.925 243.937Z" fill="#F7A9A0"/>
<path d="M411.215 242.136C411.215 242.136 411.215 242.249 411.215 242.136C409.302 243.037 408.289 244.838 407.501 246.751C408.063 246.076 408.851 245.626 409.865 246.301V246.414C409.077 246.188 408.514 246.414 407.951 246.976C407.613 247.427 407.275 247.99 407.05 248.552C406.938 248.778 406.6 248.665 406.713 248.44C406.487 245.851 408.514 242.361 411.215 242.136Z" fill="#263238"/>
<path d="M408.514 249.34C408.401 249.678 408.064 249.903 407.613 249.903C407.276 249.791 407.051 249.453 407.051 249.003C407.163 248.665 407.501 248.44 407.951 248.44C408.401 248.553 408.627 248.89 408.514 249.34Z" fill="#455A64"/>
<path d="M408.177 249.228C408.177 249.453 407.951 249.566 407.726 249.453C407.501 249.453 407.389 249.228 407.501 249.003C407.501 248.778 407.726 248.665 407.951 248.778C408.064 248.89 408.177 249.003 408.177 249.228Z" fill="#263238"/>
<path d="M409.752 248.44C409.639 248.665 409.414 248.89 409.076 248.778C408.851 248.665 408.626 248.44 408.739 248.102C408.851 247.877 409.076 247.652 409.414 247.765C409.639 247.877 409.864 248.215 409.752 248.44Z" fill="#455A64"/>
<path d="M414.931 266.226C414.931 266.226 406.714 279.059 397.37 278.946C389.941 278.833 389.378 270.053 389.378 270.053C389.378 270.053 393.768 263.411 402.999 262.849C409.753 262.511 414.931 266.226 414.931 266.226Z" fill="#F7A9A0"/>
<path d="M379.115 204.088C377.764 217.484 365.719 227.277 352.211 225.927C346.808 225.364 341.967 223 338.252 219.623L325.982 221.424L332.061 210.842C330.598 207.24 329.922 203.188 330.373 199.023C331.723 185.627 343.768 175.833 357.277 177.184C370.672 178.648 380.466 190.692 379.115 204.088Z" fill="white"/>
<path d="M379.115 204.088C378.552 208.591 376.976 212.981 374.162 216.471C373.487 217.371 372.699 218.159 371.911 219.06C371.01 219.848 370.222 220.636 369.322 221.199C367.521 222.549 365.494 223.675 363.468 224.463C361.329 225.364 359.078 225.814 356.827 226.039C355.701 226.152 354.575 226.152 353.45 226.152C352.324 226.152 351.198 226.039 350.072 225.814C345.57 225.026 341.405 222.887 337.915 219.848L338.253 219.96L325.983 221.874L325.082 221.987L325.532 221.199L331.611 210.617V211.067C328.684 204.088 329.36 195.758 333.074 189.229C334.988 185.964 337.577 183.15 340.729 181.011C343.881 178.873 347.483 177.634 351.198 177.071C354.913 176.621 358.74 176.959 362.23 178.085C365.72 179.323 368.984 181.236 371.686 183.826C377.089 189.004 379.903 196.771 379.115 204.088ZM379.115 204.088C379.903 196.658 377.089 189.004 371.686 183.938C368.984 181.349 365.72 179.435 362.23 178.422C358.74 177.297 354.913 177.071 351.311 177.634C347.708 178.197 344.219 179.548 341.179 181.574C338.14 183.713 335.664 186.415 333.862 189.567C332.061 192.719 331.048 196.321 330.711 199.923C330.485 203.525 331.048 207.24 332.399 210.617L332.512 210.842L332.399 211.067L326.208 221.649L325.757 220.973L338.028 219.285H338.253L338.365 219.397C341.63 222.437 345.682 224.576 350.072 225.476C351.198 225.701 352.324 225.814 353.337 225.926C354.463 226.039 355.588 225.926 356.714 225.926C358.965 225.701 361.217 225.364 363.243 224.463C365.382 223.675 367.408 222.662 369.097 221.311C369.997 220.636 370.785 219.848 371.686 219.172C372.474 218.384 373.262 217.596 373.937 216.696C376.864 212.981 378.552 208.591 379.115 204.088Z" fill="#FE9868"/>
<path d="M351.874 215.57L341.405 204.989L344.894 201.499L350.973 207.69L363.693 187.766L367.858 190.467L351.874 215.57Z" fill="#FE9868"/>
<path d="M49.3066 381.61C49.3066 381.61 38.0497 341.197 29.0441 327.464C20.0386 313.731 3.26576 298.646 3.26576 298.646C3.26576 298.646 3.6035 361.01 49.3066 381.61Z" fill="#FE9868"/>
<path d="M48.4059 380.934C44.5785 374.631 41.314 367.989 38.1621 361.347C36.8112 354.143 35.1227 346.938 32.5336 340.072C32.5336 339.959 32.3085 339.959 32.3085 340.184C33.7719 346.601 35.573 352.905 37.149 359.321C32.6462 349.528 28.256 339.509 22.8527 330.166C21.727 325.663 19.7007 321.273 17.6745 317.22C17.5619 317.108 17.4493 317.22 17.4493 317.333C18.9127 320.485 19.9259 323.749 20.939 327.014C18.3499 322.849 15.5357 318.909 12.3837 315.194C12.1586 314.969 11.8209 315.194 11.9335 315.419C19.1379 324.65 24.2035 335.231 28.9314 345.813C23.7532 340.297 19.1379 334.331 14.7477 328.139C14.7477 328.027 14.6351 328.139 14.6351 328.252C19.1379 335.344 24.2035 341.648 29.832 347.839C33.3216 355.606 36.6987 363.486 40.8638 370.916C32.6462 363.936 26.2298 354.931 19.9259 346.151C19.8133 345.925 19.4756 346.151 19.5881 346.376C25.892 355.944 32.4211 364.95 41.4266 372.041C43.2277 375.306 45.254 378.458 47.5053 381.497C48.0682 381.948 48.7436 381.497 48.4059 380.934Z" fill="#263238"/>
<path d="M52.7958 385.212C52.7958 385.212 32.5333 347.951 38.3869 311.704C44.2405 275.569 50.5444 262.624 50.5444 262.624C50.5444 262.624 82.4015 319.021 52.7958 385.212Z" fill="#FE9868"/>
<path d="M61.0127 326.676C59.4367 337.145 56.5099 346.939 53.2454 356.845C53.1328 343.562 52.9077 330.278 52.57 316.995C54.9339 308.89 56.0596 300.673 56.3973 292.23C56.3973 292.005 56.0596 292.005 56.0596 292.23C55.4968 299.434 54.1459 306.526 52.4574 313.506C52.1197 302.586 51.782 291.667 51.4443 280.635C51.4443 280.41 51.1065 280.41 51.1065 280.635C51.1065 297.746 51.1066 314.856 51.2191 331.967C48.63 325.325 46.9415 318.571 45.3655 311.705C45.3655 311.592 45.253 311.705 45.253 311.705C45.8158 319.697 48.2923 327.464 51.2191 334.781C51.3317 345.7 51.4443 356.62 51.6694 367.539C48.2923 355.944 44.5776 344.687 43.5644 332.417C43.5644 332.305 43.3393 332.305 43.3393 332.417C43.5644 345.926 47.0541 359.659 51.5569 372.492C51.5569 372.604 51.6694 372.717 51.782 372.83C51.8945 376.77 52.0071 380.822 52.1197 384.762C52.1197 385.325 53.0202 385.325 53.0202 384.762C53.1328 376.544 53.2454 368.439 53.2454 360.222C57.7482 349.753 60.2247 338.046 61.2378 326.676C61.2378 326.564 61.1252 326.564 61.0127 326.676Z" fill="#263238"/>
<path d="M59.6618 320.823C58.9864 323.975 58.4236 327.464 58.1984 330.729C58.1984 330.841 58.311 330.841 58.4236 330.729C59.2115 327.577 59.7744 324.2 60.1121 320.935C60.1121 320.71 59.7744 320.598 59.6618 320.823Z" fill="#263238"/>
<path d="M47.8422 293.581C47.8422 293.468 47.617 293.468 47.617 293.581C47.617 295.832 48.0673 298.196 48.6302 300.335C48.6302 300.56 48.9678 300.448 48.8553 300.222C48.5176 298.084 48.1799 295.832 47.8422 293.581Z" fill="#263238"/>
<path d="M60.113 388.139C60.113 388.139 59.325 349.19 70.4694 329.828C81.6137 310.466 100.188 300.672 100.188 300.672C100.188 300.672 92.7581 369.227 60.113 388.139Z" fill="#FE9868"/>
<path d="M80.4884 354.818C75.7605 361.572 71.1452 368.101 65.4041 373.955C67.6555 365.962 70.2446 358.195 73.1714 350.428C79.4753 344.912 85.6666 339.284 89.4939 331.741C89.6065 331.629 89.3814 331.516 89.2688 331.629C85.1038 338.27 79.5879 343.561 73.8468 348.739C78.3496 337.145 83.5278 325.888 89.3814 314.856C89.4939 314.631 89.1562 314.293 88.9311 314.631C85.3289 320.372 82.0644 326.338 79.1376 332.417C80.1507 328.252 81.0512 323.974 82.0644 319.922C82.0644 319.809 81.9518 319.809 81.8393 319.922C79.813 325.1 77.8993 330.841 77.2239 336.469C73.284 345.137 70.0195 354.03 67.4304 363.148C67.7681 357.295 68.1058 351.554 68.6686 345.7C68.6686 345.587 68.4435 345.587 68.4435 345.7C67.2053 352.116 66.6424 358.758 66.755 365.287C65.179 371.141 63.8282 376.994 62.7025 382.848C62.7025 382.96 62.9276 383.073 62.9276 382.96C63.4904 380.484 64.1659 378.007 64.8413 375.531H64.9539C71.1452 369.34 76.7736 362.473 80.4884 354.818C80.4884 354.818 80.601 354.818 80.4884 354.818Z" fill="#263238"/>
<path d="M93.434 323.186C92.1957 324.537 91.07 325.888 89.8318 327.351C88.8186 328.59 87.4678 329.715 86.5672 331.066C86.5672 331.066 86.5672 331.179 86.6798 331.179C88.1432 330.278 89.2689 328.815 90.3946 327.464C91.5203 326.113 92.646 324.762 93.5465 323.299C93.6591 323.186 93.5465 323.074 93.434 323.186Z" fill="#263238"/>
<path d="M27.0178 383.298L28.4812 401.759L32.7588 457.481H69.7941L74.0718 401.759L75.5351 383.298C73.9592 383.298 51.4453 383.298 51.4453 383.298C51.4453 383.298 28.4812 383.298 27.0178 383.298Z" fill="#455A64"/>
<path d="M27.0182 383.298L28.4817 401.759H73.9596L75.423 383.298C73.847 383.298 51.3332 383.298 51.3332 383.298C51.3332 383.298 28.4816 383.298 27.0182 383.298Z" fill="#37474F"/>
<path d="M78.4719 388.457H23.6507V374.273H78.4719V388.457Z" fill="#455A64"/>
</svg>
