<svg width="33" height="33" viewBox="0 0 33 33" fill="none" xmlns="http://www.w3.org/2000/svg">
<rect width="33" height="33" rx="8" fill="#FE9563"/>
<path d="M8.37891 15.4688C9.6587 15.4688 10.6992 14.4282 10.6992 13.1484C10.6992 11.8686 9.6587 10.8281 8.37891 10.8281C7.09911 10.8281 6.05859 11.8686 6.05859 13.1484C6.05859 14.4282 7.09911 15.4688 8.37891 15.4688ZM24.6211 15.4688C25.9009 15.4688 26.9414 14.4282 26.9414 13.1484C26.9414 11.8686 25.9009 10.8281 24.6211 10.8281C23.3413 10.8281 22.3008 11.8686 22.3008 13.1484C22.3008 14.4282 23.3413 15.4688 24.6211 15.4688ZM25.7812 16.6289H23.4609C22.8229 16.6289 22.2464 16.8863 21.8258 17.3032C23.2869 18.1045 24.3238 19.551 24.5486 21.2695H26.9414C27.5831 21.2695 28.1016 20.7511 28.1016 20.1094V18.9492C28.1016 17.6694 27.061 16.6289 25.7812 16.6289ZM16.5 16.6289C18.7442 16.6289 20.5605 14.8125 20.5605 12.5684C20.5605 10.3242 18.7442 8.50781 16.5 8.50781C14.2558 8.50781 12.4395 10.3242 12.4395 12.5684C12.4395 14.8125 14.2558 16.6289 16.5 16.6289ZM19.2844 17.7891H18.9835C18.2294 18.1516 17.3919 18.3691 16.5 18.3691C15.6081 18.3691 14.7743 18.1516 14.0165 17.7891H13.7156C11.4098 17.7891 9.53906 19.6598 9.53906 21.9656V23.0098C9.53906 23.9705 10.3185 24.75 11.2793 24.75H21.7207C22.6815 24.75 23.4609 23.9705 23.4609 23.0098V21.9656C23.4609 19.6598 21.5902 17.7891 19.2844 17.7891ZM11.1742 17.3032C10.7536 16.8863 10.1771 16.6289 9.53906 16.6289H7.21875C5.93895 16.6289 4.89844 17.6694 4.89844 18.9492V20.1094C4.89844 20.7511 5.41688 21.2695 6.05859 21.2695H8.44779C8.6762 19.551 9.71309 18.1045 11.1742 17.3032Z" fill="#FAFBFC"/>
</svg>
